<svg width="64" height="64" viewBox="0 0 64 64" fill="none" xmlns="http://www.w3.org/2000/svg">
<g clip-path="url(#clip0_84_3150)">
<path d="M9.85003 42.6C9.25003 42.65 4.55002 42.85 3.85002 42.9C2.55002 43 2.65003 45.2 3.95002 45.15C4.65002 45.1 9.95002 44.85 9.95002 44.85C11.35 44.7 11.2 42.5 9.85003 42.6Z" fill="#BDCCD4"/>
<path d="M14.5 50.0999C14.3 50.6999 12.8 55.0999 12.55 55.7999C12.15 57.0499 14.25 57.7499 14.65 56.4999C14.9 55.7999 16.6 50.7999 16.6 50.7999C17 49.5499 14.9 48.8499 14.5 50.0999Z" fill="#BDCCD4"/>
<path d="M55.7 9.20003C55.25 9.60003 51.6 12.55 51.1 13.05C50.1 13.9 51.5 15.6 52.5 14.75C53.05 14.3 57.1 10.9 57.1 10.9C58.15 10 56.7 8.30003 55.7 9.20003Z" fill="#BDCCD4"/>
<path d="M40.5001 6.10012C40.7001 6.70012 41.9501 11.2001 42.1501 11.8501C42.5001 13.1001 44.6501 12.5001 44.3001 11.2501C44.1001 10.5501 42.6501 5.50012 42.6501 5.50012C42.2501 4.20012 40.1001 4.80012 40.5001 6.10012Z" fill="#BDCCD4"/>
<path d="M11.55 46.5501C11.05 46.9001 4.55001 51.4501 3.95001 51.9001C2.90001 52.6501 4.20001 54.5001 5.25001 53.7001C5.85001 53.2501 12.85 48.3501 12.85 48.3501C13.95 47.5001 12.6 45.7001 11.55 46.5501Z" fill="#BDCCD4"/>
<path d="M49.8001 2.90017C49.6001 3.50017 46.9001 11.0002 46.7001 11.7002C46.3001 12.9502 48.4001 13.7002 48.8001 12.4502C49.0501 11.7502 51.9001 3.65017 51.9001 3.65017C52.3001 2.35017 50.2001 1.65017 49.8001 2.90017Z" fill="#BDCCD4"/>
<path d="M49.5 22.3499C50.45 20.0999 52.25 18.4999 54.3499 18.9999C55.7999 19.2999 56.0999 20.6499 56 21.4499C54.8499 29.3999 56.5499 35.4999 56.0999 41.3999C55.5499 48.8499 50.85 56.5499 41 57.2499C34.75 58.7499 27.8 57.6999 22.2 52.2499C19.1 49.2499 16.4 46.9499 12.65 40.8499C11.1 38.2999 8.69995 34.2499 8.69995 31.5999C8.69995 29.3499 10.95 28.6499 12.1 29.6999C10.6 27.2999 9.89995 25.5499 9.84995 23.4999C9.79995 21.7999 11.9 20.5999 13.25 21.8999C12.1 20.0499 10.5 16.7999 12.9 15.1499C13.65 14.6499 15.55 13.9999 17.85 16.8999C17.25 15.7499 16.6 13.7999 18.2 12.4999C19.05 11.7999 20.7 11.5999 22.1 13.1999C22 12.5999 22.85 11.0999 24.25 11.0499C25.95 10.9499 27.2999 12.4999 28.2999 13.6499C27.2999 9.64989 31.45 8.49989 33.75 11.1999C34.95 12.5499 37.75 15.9499 41.95 22.9499C41.85 18.7499 43.9 15.0499 46.9 15.5999C47.95 15.7999 49 16.4999 49.0999 18.4499C49.2999 20.1999 49.5 22.3499 49.5 22.3499Z" fill="#FFD042"/>
<mask id="mask0_84_3150" style="mask-type:luminance" maskUnits="userSpaceOnUse" x="8" y="9" width="49" height="49">
<path d="M49.5 22.3499C50.45 20.0999 52.25 18.4999 54.3499 18.9999C55.7999 19.2999 56.0999 20.6499 56 21.4499C54.8499 29.3999 56.5499 35.4999 56.0999 41.3999C55.5499 48.8499 50.85 56.5499 41 57.2499C34.75 58.7499 27.8 57.6999 22.2 52.2499C19.1 49.2499 16.4 46.9499 12.65 40.8499C11.1 38.2999 8.69995 34.2499 8.69995 31.5999C8.69995 29.3499 10.95 28.6499 12.1 29.6999C10.6 27.2999 9.89995 25.5499 9.84995 23.4999C9.79995 21.7999 11.9 20.5999 13.25 21.8999C12.1 20.0499 10.5 16.7999 12.9 15.1499C13.65 14.6499 15.55 13.9999 17.85 16.8999C17.25 15.7499 16.6 13.7999 18.2 12.4999C19.05 11.7999 20.7 11.5999 22.1 13.1999C22 12.5999 22.85 11.0999 24.25 11.0499C25.95 10.9499 27.2999 12.4999 28.2999 13.6499C27.2999 9.64989 31.45 8.49989 33.75 11.1999C34.95 12.5499 37.75 15.9499 41.95 22.9499C41.85 18.7499 43.9 15.0499 46.9 15.5999C47.95 15.7999 49 16.4999 49.0999 18.4499C49.2999 20.1999 49.5 22.3499 49.5 22.3499Z" fill="white"/>
</mask>
<g mask="url(#mask0_84_3150)">
<path d="M37.85 56.9998C34.05 56.8998 27.55 57.1498 19.35 48.0498C17.9 46.4498 12.5 39.8998 9.65005 32.3998C9.40005 31.7998 9.45005 30.4498 10.45 30.0998C11.45 29.7498 12.15 30.6498 12.7 31.4998C13.1 32.0998 15.25 35.6498 16.5 37.0998C17 37.6498 17.25 37.2498 17.35 37.1498C14.5 32.2998 10.7 26.0998 10.7 23.7498C10.7 22.4498 12.1 21.5998 13.1 22.8998C13.9 23.8998 17.45 28.3498 17.9 28.9498C18.35 29.4998 18.7 29.0498 18.85 28.9498C16.8 26.2998 12.3 19.3998 12.65 17.1998C12.85 15.8998 14.6 14.9498 15.8 16.1498C16.7 17.0498 21.65 22.5498 21.65 22.5498C21.65 22.5498 22.15 23.0998 22.55 22.5998C20.15 19.5998 16.8 14.9498 18.8 13.2998C19.6 12.6498 20.65 12.3498 22.8 14.6498C24.2 16.1498 33.6001 24.6498 41.9001 30.1498C42.7001 30.6498 43.25 29.8498 43.2001 29.0998C42.5 21.6498 43.25 16.2998 46.4001 16.2498C47.8501 16.2498 48.4501 17.3498 48.55 18.8498C48.65 20.2998 49.1001 24.3498 50.1501 28.4998C51.2001 32.6998 52.75 38.5498 52.3 42.9498C51.85 47.3498 48.7001 52.6498 45.75 54.4498C42.75 56.2498 40.7 56.6998 40.35 56.7998C40 56.8998 39.5 57.9998 40.75 57.7498C42 57.5498 45.85 57.1998 45.85 57.1998L51.4001 54.2498L56.1501 48.2998L58.2001 39.8498L57.55 15.6498L44 13.2998L31.2001 7.2998L10.15 12.7998L6.55005 32.8998L15.2 47.8998L25.9501 57.8498C25.9501 57.8498 37.1501 58.6498 37.9501 58.5498C38.7001 58.4998 39.1 57.0498 37.85 56.9998Z" fill="#FAA700"/>
</g>
<mask id="mask1_84_3150" style="mask-type:luminance" maskUnits="userSpaceOnUse" x="8" y="9" width="49" height="49">
<path d="M49.5 22.3499C50.45 20.0999 52.25 18.4999 54.3499 18.9999C55.7999 19.2999 56.0999 20.6499 56 21.4499C54.8499 29.3999 56.5499 35.4999 56.0999 41.3999C55.5499 48.8499 50.85 56.5499 41 57.2499C34.75 58.7499 27.8 57.6999 22.2 52.2499C19.1 49.2499 16.4 46.9499 12.65 40.8499C11.1 38.2999 8.69995 34.2499 8.69995 31.5999C8.69995 29.3499 10.95 28.6499 12.1 29.6999C10.6 27.2999 9.89995 25.5499 9.84995 23.4999C9.79995 21.7999 11.9 20.5999 13.25 21.8999C12.1 20.0499 10.5 16.7999 12.9 15.1499C13.65 14.6499 15.55 13.9999 17.85 16.8999C17.25 15.7499 16.6 13.7999 18.2 12.4999C19.05 11.7999 20.7 11.5999 22.1 13.1999C22 12.5999 22.85 11.0999 24.25 11.0499C25.95 10.9499 27.2999 12.4999 28.2999 13.6499C27.2999 9.64989 31.45 8.49989 33.75 11.1999C34.95 12.5499 37.75 15.9499 41.95 22.9499C41.85 18.7499 43.9 15.0499 46.9 15.5999C47.95 15.7999 49 16.4999 49.0999 18.4499C49.2999 20.1999 49.5 22.3499 49.5 22.3499Z" fill="white"/>
</mask>
<g mask="url(#mask1_84_3150)">
<path d="M48.0001 15.1001C47.6501 15.3001 47.6501 15.6501 48.0001 16.2001C48.2501 16.6001 48.4501 17.1001 48.4001 18.4001C48.2001 28.4001 51.8001 32.5501 51.6001 42.0001C51.4001 52.1501 43.7001 58.2501 31.4001 56.8001C30.1501 56.6501 30.5501 57.8001 30.5501 57.8001C30.5501 57.8001 33.8001 58.5001 35.0001 58.4001C39.2501 58.1501 41.0501 57.1501 41.0501 57.1501C47.2001 55.8501 53.1501 49.9001 53.1501 41.9001C53.1501 35.4501 50.3001 27.8501 49.5501 22.3001C49.3001 20.4501 50.1001 18.6001 50.2501 17.6501C50.4001 16.1001 49.2501 14.4001 48.0001 15.1001Z" fill="#B55E19"/>
<path d="M12.15 29.65C11.85 29.15 11.4 29.45 11.65 29.95C11.95 30.55 14.5 36.2 19.95 42.3C20.2 42.55 20.45 43.05 20.5 43.25C20.65 43.95 21.5 43.85 21.65 43.25C21.7 43 21.8 42.75 21.85 42.5C21.9 42.35 21.95 42 21.65 41.7C18.4 38.45 15.25 34.75 12.15 29.65Z" fill="#B55E19"/>
<path d="M13.25 21.8503C13.1 21.6503 12.9 21.4503 12.85 21.3003C12.6 21.4003 12.45 21.5503 12.7 22.1503C14.85 26.9003 21.6 33.9003 23.25 35.5003C23.65 35.9003 23.7 36.1503 23.8 36.5003C24.15 37.8003 24.95 37.6503 25.25 37.1003C25.45 36.7003 25.65 36.3503 25.7 36.1503C25.75 35.9503 25.8 35.7003 25.5 35.4503C21.35 31.8003 16.6 26.3003 13.25 21.8503Z" fill="#B55E19"/>
<path d="M17.9 16.8C17.65 16.4 17.2 15.75 17.2 15.75C17.2 15.75 16.6 15.9 17 16.65C19.4 21.15 25.7 28.25 28.15 30.25C28.4 30.45 28.8 31 28.95 31.45C29.25 32.4 30 32.35 30.4 31.85C30.6 31.6 30.8 31.35 30.9 31.05C31.05 30.8 30.95 30.45 30.55 30.1C23.4 23.95 17.9 16.8 17.9 16.8Z" fill="#B55E19"/>
<path d="M29.25 9.7002C29 10.4502 28.45 11.7002 29.45 13.7502C31.3 17.6002 35.1 21.1502 37.5 27.1002C36.8 26.6002 36.25 26.1502 35.4 25.5002C33.65 21.3002 28.75 15.7502 28.35 13.5002C28.05 11.9502 27.65 10.3502 27.65 10.3502L29.25 9.7002Z" fill="#B55E19"/>
</g>
</g>
<defs>
<clipPath id="clip0_84_3150">
<rect width="64" height="64" fill="white"/>
</clipPath>
</defs>
</svg>
