<svg width="64" height="64" viewBox="0 0 64 64" fill="none" xmlns="http://www.w3.org/2000/svg">
<g filter="url(#filter0_g_93_3323)">
<path d="M37.245 57.2051C35.36 57.2051 33.505 56.5251 31.85 55.2001C29.385 53.2301 29.22 50.2301 29.215 50.1001C29.2 49.7951 29.435 49.5401 29.74 49.5251C30.035 49.5051 30.3 49.7451 30.315 50.0501C30.315 50.0851 30.475 52.6901 32.54 54.3401C34.67 56.0451 37.16 56.5301 39.55 55.7101C43.155 54.4701 46.09 50.4651 47.395 44.9951C48.03 42.3401 48.05 40.0651 48.075 37.6501C48.1 35.3051 48.125 32.8801 48.755 30.1051C50.005 24.6301 53.555 22.2051 56.57 22.2051C56.61 22.2051 56.655 22.2051 56.695 22.2051C60.555 22.2901 61.665 24.0301 61.72 24.1051C61.905 24.3501 62.005 24.7701 61.75 24.9401C61.5 25.1101 61.13 24.9701 60.945 24.7101C60.905 24.6551 59.9 23.3801 56.665 23.3051C56.63 23.3051 56.595 23.3051 56.565 23.3051C53.99 23.3051 50.935 25.4701 49.82 30.3501C49.215 33.0101 49.19 35.3751 49.165 37.6601C49.14 40.0301 49.115 42.4751 48.455 45.2501C47.06 51.0901 43.86 55.3901 39.895 56.7501C39.025 57.0551 38.13 57.2051 37.245 57.2051Z" fill="#111111"/>
</g>
<path d="M19.4551 18.675C19.5351 19.025 25.7251 12.57 25.7251 12.57C25.7251 12.57 43.5751 9.75003 43.7401 10.155C43.8201 10.35 43.0851 12.815 42.0401 15.385C40.9951 17.955 38.6601 24.22 36.2501 32.255C33.8401 40.29 31.3601 52.775 30.5451 52.745C30.0551 52.73 29.0201 51.22 29.0201 51.22C29.0201 51.22 19.0551 16.905 19.4551 18.675Z" fill="#ABD90D"/>
<path d="M19.9979 23.8872C19.9499 23.767 19.9613 23.5768 19.923 23.4352C19.7547 22.8134 19.7335 22.5835 19.5935 22.0225C19.4852 21.592 19.2404 20.8102 19.06 20.0766C19.0178 19.9029 18.982 19.7399 18.9463 19.5631C18.9135 19.3964 18.9027 19.2862 18.8829 19.1308C18.8768 19.0654 18.8767 19.0149 18.8817 18.9753C18.8902 18.9458 18.8781 18.853 18.8987 18.8513C18.9083 18.847 18.9182 18.8478 18.9494 18.8834C18.9724 18.9053 18.9557 18.9325 19.1211 19.064C19.168 19.0956 19.2405 19.1401 19.3609 19.1587C19.48 19.1799 19.6476 19.1451 19.7533 19.0686C19.9659 18.9053 19.9614 18.7834 19.9802 18.7287C20.0027 18.5306 19.9738 18.5686 19.9708 18.5453C19.9423 18.5226 19.9259 18.5739 19.8975 18.575C19.8975 18.575 19.8975 18.575 19.8975 18.575C19.8932 18.576 19.8887 18.5765 19.8841 18.5764C19.8626 18.5912 19.8314 18.4979 19.8177 18.616C19.7953 18.6478 19.8775 18.6753 19.671 18.896C19.538 19.0153 19.3006 18.9636 19.2522 18.9153C19.1854 18.8692 19.1719 18.8412 19.1582 18.8226C19.1177 18.7508 19.1425 18.7741 19.1404 18.7599C19.1471 18.7471 19.1598 18.7469 19.1735 18.7508C19.2014 18.759 19.2362 18.7879 19.2713 18.8181C19.3012 18.8327 19.3275 18.8358 19.3528 18.8352C19.4554 18.8378 20.0344 18.585 20.1742 18.9136C20.3502 19.3204 20.5007 20.3815 20.5755 20.6072C20.6291 20.7696 20.7418 20.9477 20.8074 21.1324C21.0316 21.7709 21.0849 22.0975 21.409 22.6468C21.4046 22.9195 21.3859 23.1441 21.377 23.4019C21.5014 23.6894 21.5382 24.1945 21.594 24.363C21.6421 24.5089 21.7297 24.5778 21.7787 24.7336C21.8328 24.9041 21.8518 25.2152 21.9518 25.5179C22.1191 26.0271 22.309 26.0763 22.4229 26.3882C22.5432 26.719 22.5974 27.2284 22.7784 27.6351C22.8116 27.6824 22.8448 27.7299 22.8781 27.7775C22.9072 27.7278 22.9363 27.6783 22.9654 27.6288C23.0458 27.8337 22.9919 27.9548 23.0451 28.1418C23.1087 28.3652 23.2204 28.4571 23.2645 28.6088C23.3005 28.7331 23.2875 28.9207 23.3392 29.0824C23.4142 29.3185 23.4894 29.2402 23.5439 29.3636C23.5656 29.4131 23.8871 30.3261 23.904 30.3812C24.0252 30.7821 23.9132 30.8586 23.9948 31.1776C24.2237 32.0694 24.5909 32.9544 24.8684 33.7638C24.9927 34.1266 25.0969 34.5099 25.1838 34.8812C24.6991 34.3984 24.8244 35.7435 25.1809 35.1227C25.2289 35.5492 25.4471 35.7993 25.5371 36.1918C25.5952 36.4455 25.5768 36.6382 25.6821 36.9923C25.8702 37.6236 26.2676 38.2595 25.9667 38.5415C26.2454 39.2656 26.3053 39.9482 26.6933 40.1192C26.7675 40.3028 26.7273 40.856 26.7639 41.0756C26.7968 41.277 27.1712 42.8746 27.2362 43.1153C27.3066 43.3747 27.4335 43.8296 27.5222 44.0323C27.6336 44.2888 28.0096 44.3758 27.7745 44.9768C27.9681 45.5282 28.0103 45.7137 28.1217 46.2602C28.1412 46.3568 28.0881 46.3835 28.1039 46.4381C28.1368 46.5513 28.232 46.7238 28.2946 46.9201C28.4042 47.2661 28.3398 47.485 28.5097 47.3965C28.6052 47.6121 28.6897 47.79 28.7892 48.0192C28.7778 48.1099 28.766 48.1992 28.7538 48.2872C28.8262 48.3947 28.8977 48.4991 28.9682 48.6002C28.665 48.5307 29.0633 49.3265 29.1336 49.0094C29.2023 49.4473 29.2747 49.8978 29.3408 50.327C29.2205 50.3336 29.2323 50.4938 29.2873 50.6363C29.3102 50.6914 29.3656 50.8173 29.4124 50.8887C29.4362 50.926 29.4595 50.9552 29.4818 50.9769C29.5163 51.0408 29.542 51.0702 29.5579 51.0639L29.482 50.9034C29.5538 50.9317 29.6177 50.9411 29.6386 50.9012C29.6657 50.9397 29.6935 50.9785 29.7212 51.0167C29.902 51.3971 30.2018 51.6784 30.482 52.0124C30.6968 52.2488 30.6338 52.187 30.5598 52.266C30.4422 52.284 30.3669 52.3698 30.379 52.4084C30.3569 52.4252 30.4313 52.3066 30.4649 52.2117C30.3391 51.5247 30.9412 51.8489 30.9937 50.6832C31.3332 50.4124 31.4531 49.5127 31.534 48.9164C31.5429 48.8493 31.4973 48.8361 31.5063 48.745C31.5296 48.5215 31.7339 47.9787 31.58 47.9609C31.6722 47.7815 31.7667 47.592 31.8573 47.4162C31.8701 47.2535 31.8833 47.0884 31.8969 46.9211C31.8503 46.9101 31.8037 46.8992 31.7571 46.8883C31.9938 46.618 32.0605 46.0937 32.1581 45.8629C32.178 45.8159 32.2446 45.8217 32.3001 45.673C32.3661 45.4966 32.4283 45.1645 32.5011 44.9561C32.4506 44.8558 32.4002 44.7551 32.3498 44.6541C32.4048 44.2661 32.6248 44.18 32.6948 43.9587C32.7082 43.9153 32.8736 43.1856 32.88 43.1423C32.9287 42.8086 32.745 42.8657 33.0107 41.9363C33.0579 41.7718 33.1465 41.6507 33.1861 41.5003C33.2561 41.2339 33.3299 40.4027 33.2303 40.31C33.4551 40.0244 33.6132 39.1452 33.7196 38.9018C33.7519 38.8282 33.8483 38.8344 33.9279 38.6034C33.9925 38.416 34.0443 37.906 34.1195 37.6661C34.1993 37.412 34.3005 37.3404 34.3358 37.2268C34.3691 37.1193 34.3326 37.0037 34.372 36.8546C34.4954 36.3912 34.7066 35.9998 34.8065 35.6347C34.9508 35.1085 34.8938 34.5936 34.9361 34.1255C34.9787 34.0188 35.0482 33.9222 35.0807 33.808C35.2416 33.245 35.4203 32.6503 35.6072 32.0622C35.8932 31.162 36.1959 30.2517 36.4854 29.4081C36.7064 28.7577 37.4731 27.2148 36.923 27.5156C36.9222 27.2652 37.625 25.6718 37.7334 25.3586C37.8385 25.05 37.8496 24.7722 37.9301 24.5289C38.1765 23.7854 38.4061 23.2824 38.6538 22.3605C38.7171 22.1241 38.718 21.8428 38.767 21.7061C38.8257 21.5428 38.9729 21.3917 39.0537 21.1797C39.2457 20.6725 39.5591 19.7124 39.7525 19.2289C39.7878 19.1407 39.8721 19.1372 39.9414 19.0188C40.2129 18.5538 40.4119 17.9978 40.1426 18.0075C40.5126 17.4204 40.6149 16.7886 40.8357 16.1999C40.9566 15.8782 41.1105 15.4894 41.2803 15.0761C41.7625 13.912 42.2839 12.4731 42.4596 11.6525C42.5347 11.3059 42.5409 11.1283 42.576 10.9205C42.5934 10.816 42.6175 10.7049 42.6567 10.5635C42.6766 10.491 42.6993 10.4143 42.7245 10.3309C42.748 10.2716 42.7799 10.0851 42.7836 10.2015C42.7922 10.2366 42.7624 10.2653 42.8537 10.5187C43.0588 10.95 43.3023 10.9891 43.385 11.0317C43.4803 11.0643 43.5236 11.0649 43.5245 11.0644C43.545 11.0646 43.5465 11.0612 43.5383 11.0579C43.5161 11.0508 43.4757 11.0445 43.4337 11.0392C43.3361 11.0288 43.2294 11.0217 43.1015 11.0184C42.4483 11.0053 41.8204 10.8724 41.3413 11.1784C40.5903 11.2027 40.0139 11.324 39.4309 11.1866C39.3737 11.2456 39.3161 11.3046 39.2582 11.3638C39.1677 11.3771 39.0765 11.3906 38.9844 11.4043C38.9492 11.36 38.9138 11.3157 38.8784 11.2714C38.2327 11.3451 37.423 11.6597 36.8774 11.7356C35.9527 11.8627 33.5603 12.1343 32.674 12.2013C32.2064 12.2359 32.1943 12.3431 31.8956 12.1715C31.7937 12.2019 31.6923 12.2322 31.5916 12.2624C31.534 12.3185 31.4776 12.3744 31.4177 12.4308C30.8142 12.5237 30.1115 12.5569 29.5315 12.6464C28.5071 12.8044 26.9513 13.1758 25.9084 13.2543C25.9006 13.2533 25.8293 13.2616 25.8337 13.2573L26.2273 13.0516C26.0398 13.2017 25.7699 13.3694 25.6157 13.5304C25.3563 13.801 25.4045 13.9819 25.0735 14.327C24.5028 14.9226 23.295 15.8878 22.7534 16.4497C22.5917 16.6178 22.5588 16.735 22.4491 16.8534C21.9909 17.3484 21.5965 17.7308 21.1885 18.2478C20.5709 18.6206 20.4759 18.4314 20.1846 18.4254C20.0704 18.4259 19.8599 18.4447 19.6711 18.4385C19.5683 18.4422 19.4812 18.4309 19.4154 18.409C19.3885 18.3949 19.3584 18.3799 19.3755 18.3484C19.3869 18.3331 19.3921 18.3171 19.4441 18.3014C19.515 18.277 19.6923 18.3176 19.7729 18.4103C19.8837 18.5351 19.8787 18.5808 19.8956 18.5742C19.9035 18.5688 19.9207 18.5082 19.8451 18.3817C19.7729 18.2466 19.5444 18.1545 19.4412 18.1605C19.3541 18.1557 19.3464 18.1494 19.3133 18.1445C19.2173 18.1228 19.1931 18.0798 19.1971 18.0184C19.1291 18.0465 19.2342 17.9691 19.2815 17.9208C19.33 17.8749 19.3977 17.8135 19.4467 17.7701C19.5609 17.6692 19.6617 17.5882 19.7733 17.506C19.9864 17.3503 20.2113 17.2177 20.4988 17.0405C21.3757 16.1844 22.2414 15.3011 23.1019 14.4166C23.2212 14.3748 23.3396 14.3338 23.457 14.2937C23.4571 14.2938 23.4572 14.2939 23.4572 14.294C23.8376 13.9974 23.8697 13.758 24.0289 13.5476C24.348 13.1221 24.7738 12.623 25.2396 12.1045L25.3849 11.9473L25.6201 11.9057C28.1244 11.4263 31.5439 11.0635 33.6402 10.7831C34.2166 10.7048 36.0832 10.3583 36.492 10.3929C36.5982 10.4017 36.6389 10.4829 36.7484 10.4712C37.7162 10.2827 38.6839 10.0974 39.6556 9.91894C40.3117 9.87792 40.9986 9.80919 41.6727 9.73676C42.0023 9.70161 42.337 9.66391 42.6965 9.62873C42.8532 9.61312 43.0571 9.59516 43.2149 9.58469C43.3106 9.57851 43.4142 9.57377 43.4985 9.57266C43.5447 9.57197 43.6208 9.57304 43.6802 9.57791C43.7181 9.58171 43.7222 9.57966 43.7991 9.59393C43.8741 9.63266 44.0338 9.56778 44.2474 9.94835C44.3211 10.1735 44.2886 10.1846 44.2941 10.2461C44.2928 10.2853 44.2885 10.329 44.2855 10.3552C44.2781 10.419 44.2701 10.4687 44.2609 10.5211C44.2431 10.6225 44.2238 10.7138 44.2032 10.8059C44.1621 10.9894 44.1178 11.1646 44.0717 11.3386C43.9791 11.6864 43.8786 12.0283 43.7725 12.3653C43.4242 13.4674 43.0384 14.5493 42.6167 15.6195C41.0552 19.6456 39.6882 23.7401 38.3553 27.8084C38.0312 28.8004 37.6951 30.086 37.3567 31.0495C37.2161 31.4499 37.0306 31.5831 36.968 32.1477C36.9306 32.1426 36.8932 32.1375 36.8558 32.1323C36.8351 32.2342 36.8183 32.3293 36.8033 32.421C36.7505 32.7528 36.719 33.051 36.6077 33.4614C36.4848 33.9078 36.1648 35.0797 36.0451 35.4714C35.9826 35.6749 35.936 35.5802 35.8853 35.7699C35.7986 36.0953 35.7066 36.8171 35.5889 37.2694C35.4824 37.6765 35.2269 38.3475 35.1581 38.6648C34.9086 39.809 34.7157 41.0751 34.3855 42.2793C34.2943 42.6106 34.0997 43.0228 34.0767 43.1267C34.0319 43.3306 34.1013 43.4156 34.0783 43.556C33.9625 44.2647 33.5911 45.3364 33.4162 46.0211C32.7897 48.2845 32.4726 50.528 31.3474 52.973C31.3204 53.0147 31.2571 53.1081 31.1794 53.1878C31.1221 53.2343 30.9478 53.4698 30.5184 53.47C29.934 53.3952 29.8366 53.196 29.6403 53.0595C29.4692 52.9117 29.3267 52.7616 29.1889 52.6069C28.9144 52.2956 28.6723 51.9798 28.4273 51.6263L28.33 51.4204C28.0646 50.4885 27.7838 49.479 27.6234 48.8017C27.5567 48.5213 27.6705 48.5687 27.6 48.3262C27.5224 48.0593 27.4252 47.9577 27.3845 47.8363C27.102 46.9966 26.508 45.1897 26.3421 44.3826C26.3111 44.2305 26.3517 44.1005 26.3251 44.0103C26.3118 43.9646 26.2324 43.8757 26.1851 43.7319C25.7757 42.4921 25.5361 41.5623 25.1925 40.3205C24.5368 37.9512 23.6452 35.2366 22.9697 32.7419C22.8216 32.1951 22.8566 31.7844 22.833 31.7091C22.7812 31.5426 22.6557 31.4703 22.5315 31.1342C22.123 30.0277 21.7873 28.5018 21.4215 27.4342C21.2485 26.9329 20.9033 26.2092 20.73 25.7198C20.5797 25.2888 20.3514 24.3376 20.236 24.1441C20.17 24.0395 20.0505 24.0176 19.9979 23.8872ZM25.7125 37.3951C25.5246 37.3698 25.8901 38.1088 25.8942 37.7905C25.8951 37.719 25.7613 37.4018 25.7125 37.3951ZM35.9234 31.9965C35.8739 31.9894 35.8243 31.9823 35.7748 31.9752C35.7703 32.0196 35.7658 32.064 35.7612 32.1084C35.755 32.1714 35.7488 32.2346 35.7426 32.298C35.7881 32.2495 35.8336 32.2012 35.8791 32.1531C35.8799 32.1502 35.8807 32.1474 35.8815 32.1445C35.8955 32.0951 35.9094 32.0458 35.9234 31.9965Z" fill="#111111"/>
<path d="M11.82 14.8154C11.82 14.8154 1.37498 19.0954 1.16998 19.5004C0.984976 19.8754 8.50998 27.3254 11.64 30.4604C14.77 33.5954 18.005 37.4904 20.255 40.2254C22.505 42.9554 29.165 51.7204 29.58 52.3304C30.025 52.9804 30.535 52.7404 30.535 52.7404L22.385 16.3104L11.82 14.8154Z" fill="#6C70DE"/>
<path d="M16.742 16.5204C16.6173 16.5149 16.4527 16.4261 16.308 16.4021C15.7021 16.3013 15.4831 16.2249 14.9365 16.1218C14.1262 15.9689 11.6934 15.7107 11.7564 15.2646C11.7564 15.2646 11.7564 15.2645 11.7564 15.2645C11.757 15.2602 11.7579 15.2558 11.759 15.2514C11.7795 15.1676 11.9986 15.1039 12.0427 15.0121C12.0868 14.9203 12.1518 14.2963 12.4492 14.3028C12.8797 14.3168 13.8744 14.6199 14.1015 14.6449C14.2568 14.6619 14.4552 14.6324 14.6543 14.6504C15.2963 14.7083 15.624 14.7967 16.22 14.7247C16.4383 14.838 16.6566 14.9513 16.8749 15.0646C17.1799 15.0695 17.6191 15.2403 17.802 15.2602C17.9521 15.2765 18.0487 15.2251 18.2048 15.2441C18.3799 15.2651 18.6383 15.372 18.9574 15.4066C19.4805 15.4636 19.5968 15.31 19.9122 15.3331C20.2393 15.357 20.7304 15.5189 21.1521 15.5188C21.2065 15.5078 21.261 15.4968 21.3154 15.4858C21.2841 15.4391 21.2528 15.3924 21.2216 15.3457C21.4325 15.3558 21.51 15.4535 21.7012 15.4821C21.926 15.5158 22.0523 15.4515 22.2037 15.4733C22.2869 15.4853 22.3859 15.5291 22.4909 15.5622L23.021 15.6476L23.1224 16.1455C23.1254 16.1993 23.1312 16.2537 23.1442 16.3056C23.2014 16.5356 23.282 16.4644 23.327 16.585C23.3448 16.6332 23.6009 17.5396 23.6132 17.5913C23.7049 17.9842 23.5868 18.0467 23.646 18.3632C23.8109 19.2408 24.1125 20.1121 24.3312 20.9092C24.4289 21.265 24.5055 21.642 24.5656 22.0052C24.1173 21.5123 24.1464 22.8186 24.5456 22.2383C24.5632 22.6534 24.7625 22.906 24.8242 23.2895C24.8639 23.5375 24.832 23.7225 24.912 24.0715C25.0543 24.6907 25.4046 25.3244 25.0856 25.583C25.3117 26.2967 25.3225 26.9561 25.6981 27.1476C25.7594 27.3309 25.6783 27.8541 25.6997 28.0703C25.7201 28.2748 25.9766 29.8213 26.0278 30.0722C26.0789 30.3232 26.1716 30.7617 26.2465 30.966C26.34 31.2227 26.7099 31.3339 26.4311 31.8906C26.5846 32.431 26.6172 32.6284 26.6865 33.1474C26.699 33.2414 26.6443 33.2646 26.6563 33.3184C26.6811 33.4293 26.7655 33.6086 26.8149 33.8054C26.8962 34.1291 26.8177 34.3418 26.9929 34.2645C27.0717 34.4722 27.1504 34.68 27.2292 34.8878C27.2106 34.971 27.1921 35.0542 27.1736 35.1374C27.2378 35.2435 27.302 35.3497 27.3662 35.4558C27.0708 35.3804 27.4081 36.153 27.5016 35.8567C27.5398 36.2851 27.578 36.7134 27.6162 37.1418C27.3017 37.1512 27.7858 38.0632 27.9314 37.9447C27.9418 37.9923 27.9523 38.04 27.9627 38.0877C27.9758 38.5224 28.127 38.8905 28.1868 39.4106C28.2467 39.9306 28.2067 39.8895 28.1026 40.075C28.1372 40.1928 28.1719 40.3106 28.2066 40.4283C28.7271 40.9706 28.0441 41.0069 28.576 42.0159C28.4139 42.4125 28.7286 43.2304 28.9266 43.7751C28.9496 43.8385 28.9962 43.8293 29.03 43.913C29.1119 44.1178 29.1736 44.6735 29.3191 44.6215C29.3178 44.8189 29.3165 45.0163 29.3152 45.2137C29.3767 45.3611 29.4383 45.5084 29.4998 45.6558C29.5463 45.6445 29.5928 45.6333 29.6394 45.6221C29.5493 45.9667 29.7191 46.4385 29.7346 46.6865C29.7376 46.7359 29.6755 46.7606 29.6911 46.9127C29.7089 47.0905 29.8002 47.4089 29.8262 47.6197C29.9155 47.684 30.0048 47.7482 30.0941 47.8125C30.2154 48.1728 30.056 48.3446 30.0899 48.5646C30.0961 48.6041 30.2688 49.3128 30.2814 49.3503C30.3835 49.6571 30.5241 49.5323 30.6928 50.4479C30.7228 50.611 30.6965 50.7542 30.727 50.9008C30.7807 51.1599 31.0807 51.9096 31.2107 51.9448C31.1779 52.095 31.2059 52.3356 31.2492 52.5806L31.369 53.169L30.8466 53.4027C30.0525 53.7113 29.4692 53.2607 29.3258 53.0996C29.2467 53.0052 29.2709 52.9195 29.1066 52.6545C29.1054 52.6525 29.1051 52.6518 29.1048 52.6511C29.0377 52.524 28.6617 52.1474 28.5375 51.9601C28.3924 51.7431 28.4066 51.6293 28.3377 51.5281C28.2798 51.4424 28.1695 51.403 28.0775 51.2803C27.8065 50.917 27.6305 50.5125 27.4162 50.2266C27.1006 49.8054 26.6659 49.549 26.332 49.2504C26.276 49.1564 26.2432 49.0457 26.173 48.953C25.3191 47.8226 24.3723 46.5296 23.5355 45.3786C23.1475 44.8439 22.3442 43.388 22.2718 43.9994C22.0741 43.8669 21.1808 42.4417 20.9868 42.1944C20.7937 41.9458 20.5724 41.7917 20.422 41.6051C20.1501 41.2679 19.9428 40.9829 19.6996 40.6831C19.5117 40.4514 19.3007 40.2048 19.0273 39.9195C18.8642 39.7497 18.6312 39.6123 18.5429 39.5042C18.4356 39.3724 18.3892 39.1775 18.2537 39.0058C17.9314 38.598 17.2854 37.8737 16.9749 37.4843C16.9184 37.4131 16.9573 37.3383 16.8912 37.2229C16.6357 36.7748 16.2582 36.3487 16.1352 36.5875C15.8192 36.003 15.3274 35.6341 14.9244 35.1888C14.0766 34.2425 12.5562 32.5 11.7097 31.7879C11.3452 31.4778 11.1983 31.4247 10.9326 31.1666C10.8164 31.0542 10.6588 30.8827 10.4561 30.6374C10.3026 30.4537 10.1704 30.2809 9.98729 30.0619C9.56576 29.556 9.29276 28.9917 8.76331 28.8137C8.29511 28.2542 7.85604 27.8788 7.62629 27.3469C7.54548 27.338 7.46459 27.329 7.38362 27.3199C7.31997 27.2578 7.25567 27.195 7.1923 27.133C7.20727 27.0791 7.22224 27.0252 7.2372 26.9713C6.79686 26.51 6.08621 26.0768 5.70769 25.6909C5.07265 25.0471 3.49729 23.3225 2.95237 22.6497C2.66599 22.298 2.56721 22.3444 2.54706 22.0105C2.46994 21.9501 2.38327 21.8793 2.30329 21.8152C2.22519 21.8001 2.14768 21.7856 2.07079 21.7715C1.67038 21.3399 1.24925 20.7763 0.875448 20.2999C0.821709 20.23 0.778383 20.1747 0.712784 20.0801C0.681736 20.0339 0.660957 20.006 0.61446 19.9226C0.594217 19.8854 0.573974 19.8453 0.553686 19.7928C0.541771 19.7239 0.422744 19.5708 0.572393 19.2056C0.716171 18.9537 0.817409 18.9272 0.839539 18.8994C0.87965 18.8691 0.918479 18.8426 0.960008 18.8156C1.02593 18.7726 1.08305 18.7377 1.15544 18.6954C1.2651 18.6301 1.40072 18.555 1.5165 18.4917C1.76506 18.3567 2.00239 18.2331 2.25746 18.1066C2.74903 17.8625 3.22827 17.6464 3.64368 17.5027C3.89033 17.4173 4.21784 17.3796 4.44972 17.2777C4.78149 17.1321 4.8008 16.9489 5.22502 16.7632C5.95593 16.443 7.39458 16.0366 8.0837 15.7328C8.28563 15.6436 8.36202 15.5469 8.50153 15.4816C9.08829 15.2066 9.58138 15.0067 10.1191 14.684C10.7925 14.5716 10.8187 14.7757 11.0813 14.8839C11.2906 14.961 11.8499 15.1095 11.9757 15.201C12.0533 15.2697 11.9385 15.4461 12.0378 15.516C11.3336 15.8938 10.981 15.9426 10.3337 16.0551C9.23354 16.518 8.13252 16.9851 7.03657 17.456C6.91483 17.447 6.79268 17.4382 6.67093 17.4292C6.67089 17.4291 6.67084 17.429 6.67079 17.4289C6.2239 17.5489 6.10075 17.7583 5.88732 17.8853C5.34893 18.2054 4.65941 18.5501 3.88399 18.9154C3.50582 19.094 3.0914 19.2842 2.68446 19.4735C2.4875 19.5652 2.28044 19.6619 2.07495 19.7623C1.98629 19.8054 1.87209 19.8626 1.78822 19.9072C1.73743 19.9344 1.70273 19.9535 1.66741 19.9744C1.64899 19.9853 1.63726 19.993 1.63638 19.9931C1.63241 19.9839 1.64803 20.0262 1.77912 19.8088C1.88331 19.5811 1.84465 19.4489 1.83442 19.3864C1.81656 19.3159 1.81224 19.3168 1.80765 19.3043C1.79898 19.2858 1.79856 19.2884 1.80464 19.2993C1.81303 19.3153 1.83203 19.3462 1.85964 19.3862C1.89972 19.4458 1.96878 19.5378 2.02262 19.6076C2.14929 19.7706 2.27833 19.9273 2.40524 20.0793C2.66762 20.3926 2.94104 20.7065 3.19793 20.9984C3.72188 21.5923 4.21762 22.1377 4.64104 22.5883C5.02442 22.9986 6.35463 24.249 6.56195 24.5868C6.61507 24.6743 6.57324 24.7546 6.64523 24.8329C7.34827 25.4722 8.0526 26.1085 8.7593 26.7449C9.76533 27.9033 10.9191 28.9884 12.0397 30.0614C12.3488 30.3577 12.6538 30.6572 12.9517 30.9602C15.7348 33.799 18.3001 36.7844 20.788 39.7869C21.6568 40.8392 22.4954 41.914 23.3239 42.9851C23.9445 43.7889 24.7803 44.7655 25.352 45.5776C25.5909 45.9168 25.5854 46.1366 25.9984 46.5061C25.9723 46.5332 25.9462 46.5604 25.9201 46.5876C26.2441 46.9365 26.4962 47.1264 26.8253 47.5432C27.1042 47.8961 27.8256 48.8344 28.0541 49.1593C28.1725 49.3271 28.0701 49.3073 28.1852 49.4585C28.387 49.7225 28.8855 50.2216 29.1577 50.5831C29.4029 50.9086 29.7574 51.5149 29.9523 51.762C30.0085 51.8339 30.0582 51.896 30.1123 51.9683C30.2541 52.1727 30.3955 52.0672 30.2351 52.1031L29.8476 52.8942C29.6493 52.1947 29.451 51.4757 29.3095 50.7541C29.2455 50.4268 29.24 49.9886 29.2147 49.8873C29.1651 49.6894 29.0662 49.6492 29.0253 49.518C28.8177 48.8514 28.6826 47.77 28.5378 47.1035C28.0657 44.9314 27.5143 42.642 27.0468 40.4787C26.7514 39.1121 26.2291 36.848 26.0117 35.5738C25.9648 35.2991 26.0748 35.3505 26.0238 35.1224C25.9672 34.8695 25.8732 34.7467 25.8416 34.6296C25.6227 33.8195 25.1546 32.0278 25.0466 31.2409C25.0261 31.091 25.0757 30.9679 25.0557 30.8798C25.0458 30.8352 24.9731 30.7457 24.9366 30.6069C24.6148 29.3812 24.4424 28.4735 24.1887 27.2586C23.7024 24.932 23.0079 22.2655 22.5133 19.8177C22.4055 19.2843 22.4694 18.8878 22.4512 18.8135C22.4117 18.6503 22.2904 18.5673 22.1921 18.2409C22.0325 17.7101 21.8965 17.0778 21.7659 16.4489L22.2961 16.9386C21.6333 16.8344 20.9761 16.7259 20.4286 16.6743C19.8992 16.6244 19.1587 16.648 18.6372 16.6026C18.2206 16.5664 17.2514 16.3789 17.0603 16.4082C16.9441 16.4259 16.8774 16.5258 16.742 16.5204ZM24.9136 24.462C24.7283 24.4272 25.0395 25.1586 25.0662 24.8521C25.0722 24.7831 24.9617 24.4709 24.9136 24.462ZM25.2613 47.2602C25.2264 47.296 25.1914 47.3317 25.1565 47.3675C25.235 47.4361 25.3145 47.5061 25.3931 47.575C25.3817 47.5111 25.3701 47.447 25.3585 47.3829C25.326 47.3419 25.2934 47.3007 25.2613 47.2602Z" fill="#111111"/>
<path d="M21.425 4.55023C21.425 4.55023 20.44 3.51523 20.12 3.49023C20.09 3.49023 19.88 3.56523 19.505 3.85023C17.765 5.19523 12.86 9.30523 10.145 11.6652C6.85502 14.5352 0.950015 19.2352 1.16501 19.5052C1.35501 19.7452 8.95502 19.2652 13.015 18.7902C17.075 18.3152 22.61 17.3102 22.61 17.3102C22.61 17.3102 23.625 11.0002 23.435 8.99023C23.24 6.98523 21.425 4.55023 21.425 4.55023Z" fill="#E65417"/>
<path d="M22.0016 7.55085C21.9649 7.49527 21.9864 7.38311 21.9567 7.30984C21.8313 7.00328 21.814 6.87108 21.6924 6.58867C21.525 6.159 20.6997 5.0636 21.0613 4.82133C21.0613 4.82132 21.0613 4.82131 21.0613 4.82131C21.0649 4.81867 21.0684 4.81596 21.072 4.81322C21.139 4.75877 21.2867 4.80341 21.3764 4.7625C21.4651 4.72013 21.9705 4.34715 22.1031 4.47743C22.2945 4.66837 22.4919 5.28579 22.5658 5.40181C22.6191 5.48198 22.7274 5.55446 22.7958 5.65497C23.0177 5.98434 23.075 6.1847 23.3712 6.44263C23.3599 6.60861 23.3454 6.77371 23.3272 6.93735C23.4371 7.09422 23.4401 7.39892 23.4829 7.50325C23.519 7.58944 23.598 7.62032 23.6316 7.7133C23.6697 7.81808 23.6536 7.99975 23.713 8.19299C23.8069 8.51083 23.9796 8.54308 24.0323 8.7506C24.0449 8.8033 24.051 8.86434 24.0531 8.93012C24.0594 9.1322 24.0247 9.37681 24.0698 9.56761C24.0884 9.60056 24.1068 9.63462 24.1251 9.66812C24.1671 9.64466 24.2091 9.62003 24.251 9.59588C24.2702 9.73348 24.1835 9.78142 24.1792 9.90488C24.1739 10.0454 24.2525 10.1169 24.2482 10.2137C24.2446 10.2914 24.1747 10.3889 24.1733 10.4898C24.1709 10.6356 24.2667 10.6072 24.2796 10.6859C24.2858 10.7177 24.2962 11.2929 24.2935 11.322C24.2771 11.5655 24.1466 11.5749 24.1179 11.766C24.0382 12.296 24.0825 12.8499 24.064 13.3437C24.0557 13.5642 24.0204 13.7916 23.9728 14.0049C23.6882 13.6237 23.3384 14.3454 23.8862 14.1284C23.7828 14.3593 23.8986 14.5489 23.8447 14.7744C23.8096 14.9207 23.7251 15.0124 23.6979 15.2235C23.6504 15.5976 23.7926 16.0361 23.4132 16.0891C23.4141 16.5336 23.2236 16.8969 23.5202 17.1034C23.5231 17.1681 23.4241 17.3172 23.3432 17.4282L23.2383 17.9674L22.7427 18.0409C22.6721 18.0182 22.5884 18.0018 22.5497 17.9992C22.4214 17.9976 21.4983 18.0708 21.3484 18.0912C21.1991 18.112 20.9374 18.1515 20.816 18.201C20.6634 18.2627 20.6066 18.614 20.2635 18.2724C19.9404 18.3589 19.8226 18.367 19.5116 18.372C19.4547 18.3729 19.4387 18.3163 19.4062 18.3216C19.341 18.3323 19.2362 18.3933 19.1175 18.4179C18.9241 18.4582 18.7945 18.3545 18.8458 18.5365C18.7211 18.5885 18.5994 18.64 18.4756 18.6916C18.4247 18.6631 18.3736 18.6345 18.3224 18.6059C18.2603 18.6558 18.1984 18.7056 18.1358 18.7555C18.1742 18.4744 17.7153 18.7089 17.8964 18.8383C17.6392 18.8217 17.3814 18.8048 17.1227 18.7874C17.1116 18.4768 16.5703 18.835 16.6442 18.9936C16.6157 18.9976 16.5871 19.0016 16.5585 19.0057C16.2961 18.9618 16.0765 19.062 15.7634 19.0514C15.4505 19.0407 15.4749 19.0066 15.3622 18.879C15.2916 18.8972 15.221 18.9154 15.1505 18.9334C14.8265 19.3714 14.8023 18.695 14.1967 19.0764C13.9576 18.861 13.4683 19.0528 13.1373 19.1662C13.1031 19.1781 13.1035 19.2174 13.0677 19.2402C13.0636 19.2428 13.0591 19.2452 13.054 19.2473C12.9349 19.297 12.5928 19.2737 12.6241 19.4243C12.5073 19.3926 12.3887 19.3608 12.2684 19.3289C12.18 19.3664 12.0912 19.4037 12.0008 19.441C12.0062 19.4885 12.0116 19.5361 12.017 19.5836C11.8087 19.4413 11.5284 19.5321 11.3767 19.5076C11.3474 19.5025 11.3351 19.4374 11.2444 19.428C11.1392 19.4167 10.9423 19.455 10.8183 19.4457C10.7769 19.523 10.7353 19.6003 10.6934 19.6775C10.4726 19.7376 10.3782 19.5521 10.2462 19.5488C10.2223 19.5485 9.79352 19.5997 9.771 19.6057C9.58408 19.6542 9.65161 19.8142 9.09972 19.8241C9.00114 19.8257 8.91805 19.7754 8.82952 19.7801C8.67329 19.7887 8.21295 19.9537 8.18495 20.0753C7.98402 19.9411 7.48228 20.0392 7.32939 20.0067C7.28344 19.9967 7.26638 19.9026 7.12709 19.8921C7.01354 19.8837 6.72928 19.9795 6.5868 19.9763C6.43368 19.9726 6.37469 19.8965 6.30673 19.8953C6.24238 19.8942 6.18891 19.9623 6.1011 19.9676C5.82675 19.9829 5.57534 19.8944 5.35977 19.9053C5.04893 19.9207 4.78559 20.1265 4.52691 20.225C4.46121 20.216 4.3985 20.1783 4.32881 20.1814C3.48194 20.2163 2.54363 20.2287 1.65863 20.1746C1.59004 20.1698 1.49981 20.1573 1.39966 20.1386C1.35935 20.1299 1.28349 20.1172 1.22775 20.103C1.20588 20.0968 1.14828 20.0851 1.10402 20.0713C1.06421 20.0399 0.997813 20.1059 0.738733 19.8427C0.580622 19.6364 0.614769 19.4251 0.63976 19.3351C0.661314 19.2625 0.675943 19.2384 0.694149 19.2031C0.730425 19.1373 0.760394 19.1005 0.780815 19.0752C0.826953 19.0185 0.87146 18.9717 0.903765 18.9375C0.979532 18.857 1.02903 18.8032 1.06838 18.7444C1.14306 18.6323 1.12862 18.5531 0.96427 18.5138C1.0184 18.341 1.88527 17.7879 2.02841 17.6699C2.16885 17.5496 2.23724 17.3871 2.34502 17.2921C2.68436 16.9935 2.95544 16.8351 3.32681 16.4313C3.42224 16.3273 3.47935 16.1587 3.54212 16.1071C3.61886 16.0443 3.75912 16.0421 3.86236 15.9625C4.10372 15.7757 4.52911 15.3808 4.76311 15.205C4.80643 15.1727 4.87101 15.2203 4.94608 15.1893C5.2369 15.0701 5.49082 14.8472 5.28518 14.6946C5.67022 14.557 5.86117 14.2295 6.12936 13.9951C6.697 13.5001 7.78539 12.6633 8.21425 12.1614C8.48715 11.8429 8.40655 11.7657 8.92779 11.4458C9.04535 11.3729 9.16224 11.3103 9.30324 11.222C9.40595 11.1576 9.51382 11.1071 9.61472 11.0573C9.84452 10.9425 10.0497 10.8246 10.093 10.5607C10.4579 10.3309 10.6891 10.0723 11.0676 10.028C11.063 9.96486 11.059 9.90121 11.0541 9.83826C11.0928 9.80356 11.1316 9.76871 11.1706 9.73372C11.2146 9.76006 11.2586 9.7864 11.3027 9.81273C11.5973 9.57811 11.8304 9.11727 12.0741 8.91231C12.4818 8.56837 13.5819 7.74139 14.0114 7.46705C14.2394 7.32118 14.1838 7.23192 14.4389 7.29746C14.4752 7.2476 14.5117 7.19762 14.5483 7.14755C14.547 7.08744 14.5458 7.02735 14.5445 6.96729C14.8066 6.74549 15.1686 6.53819 15.419 6.3288C15.8779 5.94463 16.487 5.27288 17.0062 4.95666C17.138 4.87609 17.3422 4.83386 17.4576 4.73817C17.6203 4.60339 17.5643 4.442 17.7713 4.27005C18.092 4.00395 18.7557 3.65527 19.1455 3.38514C19.2068 3.34254 19.2603 3.30495 19.3081 3.26945C19.4298 3.17993 19.46 3.0907 19.5578 3.0267C19.607 2.99489 19.6577 2.96453 19.7159 2.93406C19.7452 2.91879 19.7761 2.90352 19.8144 2.8871C19.8337 2.87887 19.8545 2.87036 19.8834 2.86037C19.9345 2.85054 19.8753 2.83821 20.12 2.81906L20.1723 2.8211C20.4853 2.86014 20.5464 2.92903 20.6492 2.97385C20.74 3.02212 20.8121 3.06626 20.8825 3.10924C21.0211 3.19428 21.1477 3.27324 21.287 3.34873C21.5025 3.74919 21.3288 3.86666 21.2812 4.09712C21.2448 4.27127 21.1949 4.71858 21.1213 4.83436C21.0714 4.91653 20.9198 4.93172 20.871 5.02844C20.5037 4.77178 20.4314 4.57887 20.2635 4.248C20.1943 4.19189 20.1251 4.13924 20.0646 4.09917C20.0254 4.06023 19.8848 4.03176 20.0746 4.072L20.12 4.07377C20.2771 4.06443 20.2378 4.05764 20.2604 4.05536C20.2701 4.05257 20.2723 4.05173 20.2738 4.0513C20.276 4.0506 20.272 4.05221 20.267 4.05455C20.2564 4.05936 20.2402 4.06734 20.2231 4.07644C20.1886 4.09482 20.149 4.11825 20.109 4.14369C20.0284 4.19501 19.9448 4.25506 19.8616 4.31947C19.6632 4.47568 19.4623 4.63758 19.2575 4.80392C19.1739 4.79923 19.0889 4.79567 19.0028 4.79318C19.0027 4.79309 19.0026 4.79299 19.0026 4.7929C18.755 4.90905 18.7537 5.09533 18.6624 5.21129C17.7769 6.32814 15.5136 7.89397 14.3162 8.85833C14.0579 9.06567 13.2849 9.81793 13.0531 9.89612C12.9929 9.91616 12.9247 9.86106 12.8747 9.89858C12.4818 10.2994 12.0898 10.701 11.6994 11.1032C11.2743 11.3896 10.8752 11.7185 10.4906 12.0628C10.0048 12.4992 9.53015 12.956 9.04371 13.383C6.69423 15.4596 4.26442 17.4633 2.05114 19.4827C1.98391 19.5476 1.90986 19.6245 1.85427 19.6893C1.82126 19.7276 1.80171 19.7529 1.78482 19.7776C1.77994 19.7848 1.77495 19.7963 1.79073 19.7716C1.79861 19.7581 1.81241 19.7352 1.82979 19.6858C1.8364 19.6559 1.95114 19.3825 1.71552 19.0669C1.54168 18.8695 1.45794 18.8757 1.41916 18.8542C1.3896 18.8443 1.38643 18.844 1.38058 18.8421C1.37206 18.8395 1.38751 18.8413 1.39955 18.8417C1.42852 18.8433 1.47588 18.8451 1.51892 18.8457C1.61897 18.8476 1.71414 18.8468 1.81477 18.8464C2.02175 18.8455 2.2217 18.845 2.40507 18.8549C2.64539 18.867 2.75115 19.0026 3.06163 18.8887C3.06633 18.9258 3.07103 18.9629 3.07575 19.0001C3.35041 18.9451 3.52322 18.853 3.83448 18.8301C4.09231 18.8117 4.78956 18.7693 5.01941 18.7698C5.14036 18.77 5.1017 18.842 5.21185 18.8352C5.40204 18.823 5.80574 18.7019 6.07202 18.6845C6.30955 18.6693 6.72031 18.722 6.90393 18.6975C7.56513 18.6103 8.27813 18.4375 8.98662 18.4118C9.18321 18.4048 9.43972 18.474 9.50168 18.4662C9.62094 18.4508 9.64895 18.3604 9.72794 18.3423C10.1309 18.2507 10.7699 18.2974 11.1708 18.2626C11.7501 18.2127 12.3434 18.1472 12.9311 18.0733C13.6616 17.9814 14.3992 17.8758 15.111 17.785C15.9246 17.6823 17.2699 17.4626 18.03 17.4078C18.192 17.3965 18.1662 17.4979 18.3018 17.4763C18.4524 17.4522 18.5219 17.3752 18.5927 17.3585C19.0747 17.2442 20.135 17.0016 20.6056 16.9882C20.6964 16.9856 20.7714 17.0492 20.8222 17.0402C20.8477 17.0359 20.9025 16.9744 20.9839 16.955C21.5421 16.8226 21.9925 16.7536 22.4951 16.6776L21.9752 17.2081C22.0015 17.0704 22.0312 16.9097 22.0604 16.7461C22.3042 15.3695 22.4294 13.7584 22.6337 12.3151C22.678 12.0019 22.8465 11.7984 22.8492 11.7545C22.8554 11.6557 22.7617 11.5841 22.7541 11.3859C22.7299 10.7278 22.8942 9.84483 22.818 9.26993C22.809 9.20428 22.7911 9.11934 22.7686 9.05323C22.7008 8.8391 22.5741 8.60567 22.5017 8.4186C22.432 8.22041 22.3 7.71008 22.2066 7.63865C22.1526 7.59532 22.0419 7.61121 22.0016 7.55085ZM23.5839 15.4365C23.4187 15.3687 23.4963 15.848 23.6128 15.6884C23.6395 15.6498 23.6268 15.455 23.5839 15.4365ZM3.19031 19.9285C3.19668 19.9778 3.20241 20.0271 3.20843 20.0764C3.2668 20.0536 3.32607 20.0307 3.3862 20.0077C3.35075 19.9794 3.31564 19.951 3.28088 19.9225C3.25045 19.9246 3.22071 19.9265 3.19031 19.9285Z" fill="#111111"/>
<path d="M43.74 10.1552C43.74 10.1552 39.585 12.7202 33.325 14.6802C27.065 16.6402 22.615 17.3102 22.615 17.3102C22.47 17.1202 20.125 3.49523 20.125 3.49523C20.125 3.49523 20.29 3.43523 20.565 3.51523C21.045 3.65523 25.965 5.26523 31.46 6.65523C36.955 8.04523 43.82 9.39523 43.74 10.1552Z" fill="#FFF284"/>
<path d="M41.3171 8.03736C41.3932 8.04593 41.4769 8.13664 41.5587 8.16335C41.9131 8.28001 42.0316 8.36182 42.3449 8.48619C42.5806 8.58127 43.0531 8.7166 43.4882 8.95169C43.6968 9.0681 43.9143 9.20815 44.0933 9.43512C44.1731 9.53929 44.279 9.71416 44.2962 9.89349C44.3221 10.0946 44.2436 10.2138 44.1911 10.2027C44.1911 10.2027 44.1911 10.2027 44.1911 10.2027C44.1867 10.2023 44.1823 10.2012 44.1779 10.1995C44.139 10.1837 44.0978 10.0468 44.0148 9.97636C43.9396 9.91398 43.8645 9.90236 43.818 9.9208C43.7183 9.95511 43.2717 10.3884 43.216 10.3936C43.111 10.3572 42.6215 9.98742 42.4972 9.95533C42.4113 9.92974 42.2967 9.95033 42.181 9.92259C41.8305 9.8417 41.6455 9.74334 41.2893 9.80095C41.1804 9.68458 41.0784 9.57101 40.9691 9.45602C40.784 9.44379 40.5639 9.27309 40.4532 9.24991C40.3686 9.23247 40.303 9.28189 40.2137 9.26157C40.1128 9.23899 39.977 9.13167 39.7941 9.09574C39.4881 9.03507 39.4001 9.18677 39.2144 9.16226C39.0215 9.13679 38.7575 8.97734 38.5063 8.97702C38.4724 8.9878 38.4384 8.99857 38.4044 9.00934C38.4157 9.05519 38.427 9.10104 38.4382 9.14687C38.315 9.13687 38.2838 9.04099 38.1736 9.01268C38.0435 8.97924 37.961 9.04303 37.8739 9.02166C37.8029 9.00418 37.7213 8.91748 37.627 8.89909C37.4915 8.8724 37.4992 8.9711 37.4228 8.97096C37.3929 8.97075 36.8447 8.89369 36.8149 8.88748C36.5842 8.83657 36.5928 8.70615 36.413 8.65204C35.91 8.50152 35.3653 8.48027 34.8839 8.4069C34.6698 8.37437 34.4511 8.31488 34.2461 8.245C34.6529 8.00252 33.9808 7.57885 34.1349 8.14617C33.9183 8.01913 33.7201 8.11509 33.504 8.03907C33.3645 7.9898 33.2816 7.89627 33.0766 7.84871C32.713 7.76486 32.2673 7.86513 32.2501 7.48205C31.816 7.44096 31.4823 7.22504 31.2512 7.48066C31.2473 7.48496 31.2434 7.4894 31.2395 7.49397C31.1241 7.48531 30.8903 7.22612 30.7744 7.16913C30.6628 7.11565 29.795 6.79867 29.6503 6.75443C29.5054 6.71094 29.2537 6.63811 29.1228 6.63229C28.9592 6.62471 28.7653 6.92122 28.5932 6.46624C28.268 6.4104 28.1551 6.36757 27.8736 6.24208C27.8229 6.21942 27.8319 6.16125 27.8006 6.15249C27.7358 6.13447 27.6143 6.14545 27.4985 6.1185C27.3095 6.07453 27.2322 5.92487 27.203 6.11182C27.0691 6.10683 26.9383 6.10257 26.8043 6.09725C26.7702 6.04988 26.7362 6.00253 26.7025 5.95522C26.625 5.97425 26.5479 5.99332 26.471 6.01243C26.6248 5.77378 26.1108 5.79321 26.2201 5.98686C25.996 5.86395 25.7678 5.73934 25.5455 5.61594C25.6634 5.32871 25.029 5.42761 25.0266 5.60183C24.9989 5.59342 24.9713 5.58503 24.9438 5.57666C24.7277 5.42734 24.4863 5.42586 24.2084 5.28526C23.9311 5.14476 23.9689 5.12451 23.9192 4.96124C23.8474 4.94811 23.7763 4.93518 23.706 4.92246C23.2298 5.18526 23.4907 4.56013 22.7852 4.65664C22.6608 4.36249 22.1376 4.33552 21.7928 4.30554C21.7517 4.30175 21.7367 4.34687 21.6821 4.34518C21.5547 4.34234 21.2573 4.185 21.2212 4.33432C21.1291 4.2589 21.0309 4.18148 20.9393 4.10614C20.8413 4.10452 20.7425 4.10265 20.6524 4.10361C20.6386 4.14942 20.6248 4.19526 20.6108 4.24103C20.5538 4.15398 20.476 4.09897 20.4051 4.06363C20.3411 4.02348 20.2839 4.03627 20.2713 4.01527C20.2768 4.00619 20.23 3.97221 20.2826 3.92861L20.5795 3.41702C20.5744 3.41796 20.5716 3.42685 20.5734 3.45465C20.5675 3.54683 20.624 3.75907 20.6218 3.86779C20.7019 3.90175 20.7832 3.94281 20.8638 3.97976C20.9376 4.174 20.7649 4.30837 20.7701 4.42658C20.7712 4.4483 20.8584 4.87044 20.8661 4.89086C20.9317 5.07794 21.0824 4.98494 21.1426 5.5385C21.1524 5.632 21.1096 5.7182 21.1224 5.80545C21.1462 5.96634 21.3515 6.39432 21.4761 6.41486C21.3612 6.62529 21.5087 7.11632 21.4907 7.26424C21.4853 7.31031 21.3933 7.33607 21.397 7.47529C21.4002 7.58941 21.5245 7.85871 21.5361 7.9994C21.5483 8.14964 21.479 8.21695 21.4851 8.28483C21.4912 8.34986 21.5644 8.39441 21.5789 8.47957C21.623 8.74451 21.5637 9.00691 21.5984 9.21577C21.6489 9.52074 21.8841 9.75665 22.0123 9.99637C22.0113 10.0617 21.9819 10.131 21.9932 10.1973C22.1316 11.0175 22.2605 11.9466 22.3672 12.7752C22.4175 13.1642 22.3329 14.1525 22.7127 13.8237C22.8118 13.9477 22.8143 14.933 22.8468 15.121C22.8785 15.3063 22.98 15.4281 23.0093 15.578C23.093 16.0026 23.0952 16.325 23.268 16.8237C23.2904 16.8898 23.3216 16.9229 23.3587 16.98C23.3763 17.0044 23.3921 17.0203 23.4034 17.0263C23.4085 17.0277 23.4158 17.0363 23.4127 17.016C23.4015 16.9897 23.426 16.9771 23.2983 16.7888L22.487 16.4603C22.4847 16.4595 22.501 16.4563 22.5033 16.4561C22.5944 16.4434 22.7103 16.5143 22.8363 16.4986C23.1372 16.4611 23.6817 16.3303 23.969 16.2894C24.0202 16.2825 24.0528 16.3556 24.1326 16.3647C24.4404 16.4012 24.7642 16.3257 24.6564 16.0937C25.0536 16.1562 25.3767 15.9549 25.7124 15.8725C26.4317 15.6996 27.7628 15.4392 28.3628 15.1753C28.7391 15.0103 28.7005 14.9059 29.3064 14.8445C29.4391 14.8311 29.5743 14.8246 29.7387 14.8062C30.117 14.7653 30.5099 14.8696 30.7205 14.5512C31.1421 14.4983 31.4518 14.3601 31.8115 14.4751C31.8325 14.4157 31.8535 14.3562 31.8746 14.2968C31.9243 14.2806 31.9733 14.2646 32.0218 14.2488C32.0511 14.2907 32.0804 14.3327 32.1098 14.3747C32.4368 14.289 32.7882 14.0083 33.077 13.8883C33.1048 13.8768 33.1319 13.8667 33.1582 13.8586C33.6549 13.7093 34.955 13.3493 35.4409 13.2376C35.7014 13.1796 35.6774 13.0771 35.8923 13.2256C35.9424 13.191 35.9934 13.156 36.0435 13.1212C36.0617 13.0643 36.0797 13.0074 36.0975 12.9505C36.4097 12.8304 36.809 12.7528 37.1103 12.6309C37.6555 12.4121 38.4143 11.9512 38.9846 11.7884C39.124 11.7497 39.3388 11.7589 39.4669 11.6991C39.6572 11.6104 39.6394 11.4422 39.8768 11.3279C40.2898 11.131 41.144 10.9199 41.5217 10.7081C41.6347 10.6455 41.6633 10.5634 41.7373 10.5177C42.0555 10.3209 42.329 10.1796 42.5931 9.92774C42.9995 9.87701 43.0667 10.0652 43.2749 10.1769C43.4268 10.2644 43.8466 10.4233 43.9564 10.5104C44.0322 10.5731 43.9931 10.7369 44.0851 10.8008C43.6985 11.1265 43.4891 11.138 43.0768 11.2013C42.4555 11.5481 41.8315 11.8748 41.1943 12.1923C41.1094 12.1716 41.0304 12.1479 40.9482 12.1256C40.9481 12.1255 40.9481 12.1254 40.948 12.1252C40.6744 12.1857 40.6348 12.3633 40.5152 12.4559C39.3817 13.3527 36.7179 14.1852 35.2451 14.6465C34.9327 14.7512 33.9241 15.1654 33.6794 15.1449C33.6157 15.1403 33.574 15.0631 33.5126 15.0785C33.4941 15.0862 33.4755 15.0939 33.4569 15.1016C32.9532 15.3111 32.4579 15.5132 31.9499 15.7142C30.8096 15.9104 29.6912 16.332 28.5725 16.637C26.6289 17.1637 24.7087 17.639 22.7167 17.9854L22.3416 18.0545L22.0722 17.7245C21.9256 17.4978 21.9681 17.5138 21.9421 17.4556C21.93 17.4137 21.9292 17.4102 21.923 17.3869C21.9132 17.3499 21.9005 17.2968 21.8925 17.2628C21.8779 17.2012 21.8599 17.1199 21.8443 17.0481C21.817 16.9225 21.7846 16.7659 21.7585 16.6374C21.7011 16.3534 21.649 16.0853 21.5972 15.8132C21.4935 15.267 21.3942 14.7189 21.2987 14.1706C21.1974 13.589 21.001 12.8578 20.9399 12.2767C20.9147 12.0368 21.0328 11.9108 20.8758 11.6157C20.9119 11.6059 20.948 11.5961 20.9841 11.5863C20.8915 11.3217 20.7767 11.1593 20.7142 10.8549C20.6615 10.5977 20.5357 9.91499 20.5096 9.68376C20.4957 9.56374 20.5721 9.59591 20.5524 9.48546C20.5183 9.29787 20.3521 8.90756 20.3068 8.64878C20.2653 8.41157 20.2751 8.00147 20.2317 7.8201C20.0775 7.17656 19.8355 6.47949 19.7463 5.77893C19.7204 5.5769 19.7677 5.32077 19.7549 5.26154C19.7283 5.13914 19.6359 5.11935 19.6111 5.04258C19.4846 4.64581 19.481 4.01385 19.417 3.61708L19.3007 3.05229L19.8795 2.82011C19.8831 2.81879 19.8903 2.81625 19.8912 2.81596C20.3337 2.69958 20.5162 2.76959 20.7649 2.8281C21.9052 3.18703 23.0557 3.51915 24.1497 3.86261C24.9289 4.10911 26.2373 4.47679 26.9424 4.74552C27.0947 4.80376 27.0267 4.88432 27.159 4.9219C27.3048 4.96325 27.4003 4.92274 27.4701 4.93697C27.9511 5.03539 29.0107 5.25953 29.4392 5.4427C29.5209 5.47789 29.564 5.5674 29.6145 5.58067C29.6402 5.58754 29.7114 5.55342 29.7936 5.5699C30.4789 5.70703 30.9753 5.86109 31.6153 6.04148C31.6533 6.0522 31.6919 6.06302 31.7312 6.07395C33.0681 6.44563 34.6585 6.72289 36.0714 7.10927C36.3786 7.1933 36.5582 7.38878 36.6021 7.39761C36.6989 7.41741 36.7818 7.33405 36.9825 7.35615C37.6466 7.42969 38.4927 7.74193 39.1192 7.84496C39.4259 7.89494 39.8759 7.87654 40.1843 7.92688C40.4271 7.96528 40.9845 8.16484 41.103 8.14001C41.1751 8.12471 41.2342 8.02854 41.3171 8.03736ZM32.8786 7.71475C32.9619 7.55681 32.4809 7.58784 32.6265 7.71902C32.6592 7.74858 32.857 7.7558 32.8786 7.71475ZM21.8882 11.3468C21.9362 11.334 21.9842 11.3213 22.0322 11.3085C22.0014 11.253 21.9707 11.1974 21.9399 11.1417C21.9165 11.1802 21.8931 11.2187 21.8697 11.2571C21.8759 11.287 21.8821 11.3169 21.8882 11.3468Z" fill="#111111"/>
<g filter="url(#filter1_g_93_3323)">
<path d="M2.57001 43.9351C2.38001 43.9351 2.19501 43.8351 2.09001 43.6551C1.94001 43.3901 2.03001 43.0551 2.29501 42.9051C2.35501 42.8701 8.14001 39.5051 14.7 30.3701C19.145 24.1751 21.825 17.3501 21.85 17.2851C21.96 17.0001 22.28 16.8601 22.56 16.9701C22.845 17.0801 22.985 17.4001 22.875 17.6801C22.85 17.7501 20.125 24.7001 15.595 31.0101C8.88501 40.3601 3.08501 43.7201 2.84501 43.8601C2.75501 43.9101 2.66501 43.9351 2.57001 43.9351Z" fill="#111111"/>
</g>
<path d="M35.8901 51.5501C35.5401 51.6201 34.6701 52.9951 33.7351 53.8001C32.8851 54.5351 32.3201 54.8301 32.1901 55.1501C32.0601 55.4701 32.4801 57.5301 32.6701 58.4301C32.8651 59.3301 32.9901 60.6801 33.6351 60.6501C34.2801 60.6201 36.5951 60.0051 36.6901 59.5251C36.7851 59.0451 33.3801 56.2451 33.7001 55.7001C34.0201 55.1551 37.7851 54.8001 37.9101 54.2201C37.9801 53.9301 36.1351 51.5001 35.8901 51.5501Z" fill="white"/>
<path d="M39.965 49.9252C39.825 50.4852 40.095 51.9802 40.255 52.9152C40.415 53.8452 40.45 55.2602 40.575 55.5202C40.76 55.8852 41.955 56.1952 43.405 56.6452C44.855 57.0952 45.75 57.4502 46.265 57.2902C46.78 57.1302 46.62 54.2052 46.2 53.8802C45.78 53.5602 42.375 54.1702 42.375 54.1702C42.375 54.1702 43.47 48.8202 42.76 48.5452C42.34 48.3852 41.83 48.8352 41.185 49.1252C40.56 49.4052 40.065 49.5402 39.965 49.9252Z" fill="#4FD069"/>
<path d="M44.155 43.73C44.155 44.055 44.635 44.565 45.055 45.885C45.475 47.205 45.86 49.165 46.275 49.39C46.69 49.615 49.265 48.46 50.1 47.91C50.935 47.365 52.03 46.495 52.095 46.015C52.16 45.535 51.42 44.695 50.94 44.28C50.46 43.86 50.01 43.025 49.72 43.025C49.43 43.025 48.665 44.75 48.37 45.245C47.985 45.89 47.5 47.015 47.375 46.915C47.245 46.82 47.215 42.67 46.41 42.445C45.6 42.215 44.155 43.47 44.155 43.73Z" fill="#A4F840"/>
<path d="M45.1099 33.6248C44.8599 33.9198 45.3349 35.7148 46.0399 37.1948C46.7449 38.6748 48.0649 40.4398 48.7099 40.3148C49.0249 40.2498 49.3149 39.3998 50.3499 37.9998C51.4449 36.5198 52.1799 35.6548 52.1799 35.3948C52.1799 34.9748 49.4049 33.7948 49.0299 33.7548C48.7399 33.7248 48.0999 35.8748 48.0999 35.8748C48.0999 35.8748 47.7449 33.8798 47.6799 33.8198C47.2949 33.4348 45.3049 33.3998 45.1099 33.6248Z" fill="#3067D8"/>
<path d="M49.1299 29.93C49.8999 30.125 51.0399 30.25 51.6699 30.475C53.5349 31.15 54.3699 31.44 54.7549 31.44C55.2799 31.44 55.6149 27.69 55.0449 27.355C54.2749 26.905 50.015 28.63 49.775 28.45C49.6449 28.355 49.9049 23.18 49.4849 22.76C49.0349 22.31 48.7149 22.76 47.8149 23.015C47.4399 23.12 46.4449 23.38 46.3699 23.625C46.1749 24.235 47.7499 28.06 47.9749 28.51C48.1949 28.965 48.7399 29.835 49.1299 29.93Z" fill="#907AFA"/>
<path d="M54.72 23C54.72 23.225 58.64 27.82 58.9 27.885C59.155 27.95 60.67 26.215 60.605 25.86C60.54 25.505 57.26 23 57.26 22.74C57.26 22.485 60.895 19.72 60.795 19.46C60.7 19.205 59.09 17.69 58.705 17.755C58.32 17.825 54.72 22.36 54.72 23Z" fill="#DCBCF6"/>
<defs>
<filter id="filter0_g_93_3323" x="28.6144" y="21.6051" width="33.8892" height="36.2" filterUnits="userSpaceOnUse" color-interpolation-filters="sRGB">
<feFlood flood-opacity="0" result="BackgroundImageFix"/>
<feBlend mode="normal" in="SourceGraphic" in2="BackgroundImageFix" result="shape"/>
<feTurbulence type="fractalNoise" baseFrequency="0.5 0.5" numOctaves="3" seed="7172" />
<feDisplacementMap in="shape" scale="1.2000000476837158" xChannelSelector="R" yChannelSelector="G" result="displacedImage" width="100%" height="100%" />
<feMerge result="effect1_texture_93_3323">
<feMergeNode in="displacedImage"/>
</feMerge>
</filter>
<filter id="filter1_g_93_3323" x="1.41758" y="16.3326" width="22.0949" height="28.2024" filterUnits="userSpaceOnUse" color-interpolation-filters="sRGB">
<feFlood flood-opacity="0" result="BackgroundImageFix"/>
<feBlend mode="normal" in="SourceGraphic" in2="BackgroundImageFix" result="shape"/>
<feTurbulence type="fractalNoise" baseFrequency="0.5 0.5" numOctaves="3" seed="7172" />
<feDisplacementMap in="shape" scale="1.2000000476837158" xChannelSelector="R" yChannelSelector="G" result="displacedImage" width="100%" height="100%" />
<feMerge result="effect1_texture_93_3323">
<feMergeNode in="displacedImage"/>
</feMerge>
</filter>
</defs>
</svg>
