<svg width="64" height="64" viewBox="0 0 64 64" fill="none" xmlns="http://www.w3.org/2000/svg">
<rect x="0.75" y="0.75" width="62.5" height="62.5" rx="21.25" fill="#5DD562"/>
<rect x="0.75" y="0.75" width="62.5" height="62.5" rx="21.25" stroke="#111111" stroke-width="1.5"/>
<path d="M42.0564 14C34.8918 14 32.2594 21.3216 32.2594 21.3216C32.2594 21.3216 29.6629 14 22.4459 14C17.0242 14 10.8438 18.2968 13.1263 28.0645C15.4088 37.8321 32.2757 50 32.2757 50C32.2757 50 49.0805 37.8321 51.3663 28.0645C53.652 18.2968 47.9131 14 42.0564 14Z" fill="#FF5497"/>
<path d="M36.1045 15.5627C36.2255 15.467 36.4211 15.3617 36.5726 15.2638C37.2185 14.8571 37.481 14.7407 38.1128 14.4682C39.0243 13.934 42.058 13.5739 42.0564 13.8299C42.0564 13.8299 42.0564 13.8299 42.0564 13.8299C42.0564 13.8299 42.0564 13.8299 42.0564 13.8299C42.0564 13.8299 42.0564 13.8299 42.0564 13.8299C42.0564 13.8316 42.0561 13.8332 42.0556 13.8349C42.0442 13.8663 41.7899 13.9043 41.7546 13.9428C41.7195 13.9814 41.7496 14.2119 41.4115 14.246C40.9076 14.2753 39.7181 14.4472 39.4639 14.5428C39.2868 14.5955 39.0827 14.6836 38.8628 14.7686C38.1652 15.0472 37.8043 15.2131 37.2562 15.614C37.0084 15.7281 36.7677 15.8508 36.5265 15.9871C36.2494 16.2055 35.8071 16.523 35.6503 16.6729C35.5223 16.7929 35.462 16.8868 35.3323 17.0168C35.187 17.163 34.9437 17.372 34.6977 17.663C34.3001 18.1415 34.2953 18.2775 34.0829 18.58C33.8655 18.893 33.5027 19.3732 33.282 19.8151C33.2577 19.8737 33.2345 19.9312 33.2124 19.9878C33.2491 19.9589 33.2861 19.9296 33.3236 19.9C33.2125 20.1152 33.1283 20.1939 33.0244 20.3945C32.9051 20.6278 32.8794 20.7666 32.8043 20.9313C32.7437 21.0652 32.6407 21.2303 32.5763 21.4058C32.5749 21.41 32.5653 21.4365 32.5672 21.4323L32.2546 22.2944L31.951 21.431C31.8707 21.2375 31.848 21.288 31.7851 21.1575C31.7724 21.1029 31.2674 20.138 31.2249 20.0856C30.9924 19.6782 31.0182 19.6134 30.8234 19.296C30.2719 18.41 29.548 17.6132 28.8365 16.9807C28.5217 16.6989 28.1792 16.4125 27.8443 16.1601C28.4829 16.4262 27.3357 15.4642 27.653 15.9853C27.2827 15.6933 26.9562 15.5803 26.5689 15.3724C26.3125 15.2383 26.1493 15.1225 25.7644 14.9751C25.08 14.7095 24.2784 14.6542 24.1046 14.4434C23.4318 14.3539 22.8345 14.2972 22.4459 14.3605C22.3406 14.3781 22.2528 14.4049 22.1866 14.4428C21.9668 14.4557 21.3949 14.4025 21.1443 14.4265C20.9027 14.4039 19.1233 14.7976 18.8556 14.9444C18.5754 15.0451 18.0982 15.258 17.8843 15.3888C17.6116 15.5538 17.516 15.8041 16.9381 15.9353C16.4135 16.3203 16.2327 16.4619 15.7721 16.8549C15.6901 16.9271 15.6593 16.9134 15.6135 16.9585C15.519 17.0521 15.3799 17.2293 15.2272 17.4084C14.9763 17.7032 14.7943 17.8413 14.9012 17.8695C14.7593 18.0832 14.6305 18.2984 14.5091 18.5225C14.4452 18.5859 14.3818 18.6508 14.319 18.7173C14.2686 18.8454 14.2206 18.9762 14.1776 19.1042C14.1116 18.8871 13.7706 19.7918 13.9853 19.548C13.7529 19.9751 13.5509 20.4327 13.386 20.895C13.2224 20.7774 13.1081 21.9545 13.2347 21.8743C13.2245 21.9289 13.2147 21.9838 13.2053 22.0391C13.0776 22.5206 13.065 22.9837 13.0097 23.5801C12.9606 24.1931 12.9525 24.1267 12.8696 24.3161C12.8766 24.4593 12.8862 24.6118 12.8974 24.7503C13.1768 25.4838 12.7435 25.3908 13.1089 26.6567C13.057 26.9525 13.157 27.4894 13.3099 28.0216C13.3813 28.2702 13.4681 28.5152 13.5478 28.7256C13.5761 28.8001 13.604 28.7928 13.6447 28.8912C13.7366 29.1226 13.9329 29.7499 14.0151 29.6951C14.0732 29.9166 14.1327 30.129 14.2 30.3488C14.2903 30.5104 14.3872 30.6785 14.4809 30.8333C14.5073 30.8197 14.5336 30.806 14.56 30.7924C14.6247 31.1647 14.9401 31.6786 15.0576 31.9349C15.0814 31.9873 15.0507 32.0182 15.1299 32.1798C15.2219 32.369 15.4349 32.7033 15.5542 32.9195C15.6446 32.9777 15.7354 33.0355 15.8267 33.0928C16.0892 33.4571 16.0747 33.6536 16.213 33.8764C16.2344 33.9163 16.7415 34.6261 16.7709 34.6577C17.0125 34.9512 17.0273 34.8108 17.6803 35.6958C17.7975 35.8529 17.8671 36.0006 17.9772 36.141C18.17 36.3914 18.8388 37.0626 18.9495 37.0679C19.1176 37.4219 19.823 38.1614 20.0046 38.4008C20.059 38.4738 20.0252 38.5318 20.2037 38.7467C20.3478 38.9212 20.7833 39.3131 20.9751 39.5261C21.1783 39.753 21.2145 39.8679 21.3068 39.9691C21.3943 40.0647 21.5088 40.1199 21.6317 40.2458C22.014 40.6383 22.3173 41.0403 22.6263 41.3454C23.0698 41.7837 23.5683 42.0774 23.9887 42.3904C24.0786 42.4865 24.1532 42.5952 24.2532 42.6885C25.4899 43.845 26.9017 45.1125 28.1967 46.2253C28.7914 46.7435 30.1963 48.1076 29.9895 47.5352C30.2438 47.672 31.7343 48.9865 32.0413 49.21C32.2208 49.3453 32.4504 49.4833 32.5912 49.5627L31.9595 49.5633C31.973 49.5478 32.0309 49.5004 32.0627 49.4731C32.1044 49.4387 32.1517 49.4011 32.1831 49.3774C32.9082 48.8287 33.4171 48.4877 34.2414 47.7628C34.4546 47.5748 34.6476 47.3272 34.7734 47.2255C34.9254 47.103 35.1539 47.0046 35.346 46.8515C35.8361 46.4618 36.6998 45.701 37.1585 45.3175C37.2424 45.2479 37.3166 45.2648 37.4428 45.1805C37.9422 44.846 38.4544 44.3803 38.2304 44.315C38.8829 43.8827 39.3446 43.3211 39.8643 42.8246C40.9693 41.7859 42.955 39.8532 43.7689 38.8137C44.2854 38.1605 44.2049 38.119 45.0591 37.2465C45.2471 37.0524 45.4389 36.8612 45.6636 36.6209C46.1872 36.0611 46.7628 35.6064 46.9394 35.0091C47.4904 34.3568 47.8384 33.775 48.3326 33.3496C48.3362 33.2623 48.3391 33.1752 48.3415 33.0884C48.3964 32.9996 48.4505 32.9108 48.5039 32.8221C48.5568 32.817 48.6098 32.8118 48.6628 32.8065C49.0649 32.1785 49.363 31.2622 49.6239 30.7071C49.9088 30.1219 50.4283 28.9612 50.6972 27.9079C50.8737 27.2386 50.9993 26.6354 51.0739 26.2727C51.1785 25.7507 51.0825 25.7136 51.3074 25.4382C51.3051 25.3188 51.3019 25.1969 51.2969 25.0784C51.2596 25.0013 51.2216 24.9253 51.183 24.8504C51.223 24.181 51.2806 23.3947 51.217 22.7588C51.1331 21.6024 50.5556 19.9772 50.0521 18.9805C49.9339 18.725 49.8203 18.3745 49.6563 18.1494C49.4121 17.8208 49.2347 17.8376 48.8939 17.4684C48.3312 16.8121 47.0621 15.7252 46.253 15.425C46.0203 15.3281 45.8895 15.3406 45.7258 15.2859C45.0381 15.0626 44.4543 14.913 43.7559 14.8951C43.0417 14.6415 43.115 14.4676 42.8919 14.2468C42.7246 14.0802 42.1553 13.7136 42.0667 13.5841C42.0066 13.4907 42.2312 13.3728 42.1478 13.2698C43.1624 13.2109 43.5942 13.3607 44.3675 13.6472C45.8432 13.9313 47.2812 14.51 48.5159 15.4073C48.5958 15.5327 48.6722 15.6592 48.7451 15.7867C48.745 15.7868 48.745 15.7869 48.7449 15.787C49.1501 16.1965 49.4129 16.2688 49.6574 16.4719C52.4733 18.3462 52.9564 24.8186 51.957 27.7924C51.9343 27.8916 51.9051 28.0247 51.8694 28.1822C51.6892 29.1028 51.0757 30.697 50.8244 31.0328C50.7527 31.1356 50.6703 31.1314 50.611 31.2459C50.1402 32.314 49.588 33.3218 48.9776 34.3075C47.5534 36.2108 46.0595 38.1336 44.4475 39.8797C40.8044 43.7966 36.8019 47.2871 32.5818 50.4228L32.2795 50.644L31.9703 50.4233C31.1287 49.8047 30.2917 49.1505 29.471 48.4902C28.514 47.7213 27.3056 46.773 26.4228 45.9652C26.0648 45.6371 25.9571 45.4127 25.4305 45.0422C25.443 45.0179 25.4554 44.9935 25.4679 44.9692C25.0198 44.6119 24.7129 44.4151 24.236 43.9837C23.835 43.6245 22.8012 42.6469 22.4675 42.302C22.2931 42.1242 22.3938 42.1558 22.2301 41.9948C21.9499 41.7207 21.308 41.1683 20.9313 40.7756C20.5867 40.4197 20.0594 39.7775 19.7979 39.5016C18.8563 38.5144 17.8247 37.4307 16.9501 36.256C16.7099 35.9348 16.4459 35.4775 16.3713 35.3768C16.2238 35.179 16.1358 35.1521 16.0345 35.0214C15.5092 34.3488 14.8571 33.209 14.4542 32.4725C13.7208 31.151 13.0602 29.7071 12.6992 28.1643C12.4196 26.9627 12.2429 25.7356 12.2183 24.5283C12.1045 22.8117 12.7024 19.9048 13.6239 18.5537C13.8063 18.2565 13.8047 18.364 13.9587 18.1212C14.1354 17.8505 14.2093 17.6925 14.2974 17.5696C14.8529 16.6718 16.6499 15.1663 17.5803 14.8119C17.7499 14.7333 17.8899 14.7117 17.9909 14.6653C18.0422 14.642 18.1469 14.5646 18.3099 14.494C19.7552 13.8913 20.9109 13.6895 22.439 13.6816C22.4413 13.6816 22.4436 13.6817 22.4459 13.6817C25.4069 13.5998 28.7233 15.302 30.5372 17.7792C30.9454 18.305 31.1366 18.731 31.1878 18.8054C31.2997 18.9755 31.4092 19.0565 31.6315 19.4124C31.9511 19.9321 32.2697 20.5438 32.5237 21.2279L31.9955 21.2268C32.3305 20.3781 32.7848 19.5915 33.1693 18.9706C33.5098 18.4136 34.0043 17.6733 34.4323 17.1885C34.7564 16.7881 35.6754 15.9844 35.8482 15.8383C35.9495 15.741 35.9737 15.6665 36.1045 15.5627ZM25.3632 14.7908C25.4762 14.7288 24.5795 14.5514 24.8973 14.6864C24.9702 14.714 25.3365 14.8033 25.3632 14.7908ZM25.7876 44.3684C25.8045 44.3364 25.8215 44.3046 25.8384 44.2727C25.7369 44.2023 25.6349 44.1312 25.5326 44.0594C25.5706 44.1215 25.6085 44.1835 25.6463 44.2453C25.6935 44.2865 25.7406 44.3275 25.7876 44.3684Z" fill="#111111"/>
<path d="M21.3406 14.7292C26.9651 14.7292 29.7577 20.7755 30.6602 23.2248C30.7878 23.5747 31.275 23.5845 31.4222 23.2444L32.2462 21.3216C31.0853 17.6101 27.897 14 22.4459 14C20.1895 14 17.8057 14.7456 15.9515 16.3185C17.5898 15.2426 19.5094 14.7292 21.3406 14.7292Z" fill="#D9246F"/>
<path d="M23.2817 15.4042C23.2344 15.3948 23.1769 15.3506 23.123 15.3344C22.8974 15.2671 22.8123 15.2296 22.6049 15.1781C22.2922 15.084 21.3481 15.0555 21.3406 14.8993C21.3406 14.8993 21.3406 14.8993 21.3406 14.8993C21.3406 14.8993 21.3406 14.8993 21.3406 14.8993C21.3406 14.8993 21.3406 14.8993 21.3406 14.8993C21.3406 14.8977 21.3407 14.896 21.3409 14.8943C21.3443 14.8621 21.4288 14.8277 21.4419 14.7915C21.455 14.7552 21.4483 14.5185 21.5732 14.5072C21.7527 14.4896 22.1789 14.5838 22.2713 14.5948C22.3356 14.6001 22.4177 14.5879 22.5021 14.596C22.7727 14.623 22.9044 14.6659 23.1586 14.6598C23.2467 14.7137 23.3312 14.7691 23.4161 14.8268C23.5435 14.8453 23.7126 14.9443 23.7849 14.9665C23.8442 14.9843 23.8888 14.9715 23.9511 14.9924C24.0213 15.0158 24.1169 15.082 24.2414 15.1279C24.4462 15.2048 24.511 15.1577 24.6355 15.2044C24.7642 15.2529 24.9389 15.3833 25.1041 15.4447C25.1272 15.4482 25.1504 15.4518 25.1736 15.4554C25.1687 15.4321 25.1637 15.4087 25.1585 15.3854C25.2406 15.4205 25.256 15.4718 25.3263 15.513C25.409 15.5618 25.4694 15.5568 25.5248 15.5905C25.5701 15.6182 25.6156 15.6801 25.6745 15.7156C25.76 15.7677 25.7646 15.7214 25.8142 15.7446C25.835 15.7522 26.1767 15.9606 26.1942 15.9755C26.3337 16.0756 26.3095 16.1308 26.4135 16.2179C26.7012 16.4604 27.0215 16.6797 27.2861 16.909C27.404 17.0111 27.5161 17.1285 27.6162 17.2473C27.3356 17.1793 27.6118 17.6498 27.6563 17.3381C27.7473 17.4864 27.8792 17.5327 27.9783 17.6625C28.0419 17.7465 28.0627 17.8236 28.1595 17.9383C28.3303 18.1402 28.5901 18.3116 28.4887 18.4809C28.7025 18.7096 28.7983 18.9663 28.9991 18.9678C29.0542 19.029 29.0857 19.2516 29.1235 19.3349C29.1629 19.412 29.4651 19.9858 29.5132 20.0796C29.5653 20.1734 29.6535 20.3338 29.7101 20.4048C29.7809 20.4944 29.979 20.4794 29.8862 20.7521C30.0111 20.9521 30.0411 21.0235 30.1165 21.2301C30.1298 21.267 30.1031 21.2847 30.1131 21.305C30.1339 21.3473 30.1887 21.4057 30.2286 21.4823C30.2931 21.6058 30.2636 21.7035 30.3513 21.6468C30.4042 21.7189 30.4603 21.7989 30.5135 21.8738C30.5083 21.9109 30.5029 21.9478 30.4972 21.9844C30.5364 22.0182 30.5772 22.0559 30.6173 22.0922C30.4559 22.1006 30.6726 22.3763 30.7097 22.2418C30.7515 22.4181 30.7883 22.5891 30.8251 22.7675C30.6526 22.8061 30.9463 23.1354 31.0232 23.0678C31.0258 23.0747 31.0283 23.0815 31.0309 23.0882C31.032 23.0912 31.0325 23.0924 31.033 23.0934C31.0038 23.1286 31.0261 23.1086 31.056 23.1324C31.0942 23.1519 31.1014 23.1659 31.1772 23.2078C31.1873 23.1896 31.1943 23.1698 31.1986 23.1477C31.1991 23.1459 31.1999 23.1434 31.2007 23.1408C31.0908 22.8093 31.4394 23.009 31.4504 22.5268C31.6405 22.4527 31.7078 22.098 31.7569 21.8648C31.7626 21.8376 31.7362 21.8258 31.7421 21.7889C31.7566 21.6988 31.8786 21.5053 31.7891 21.4753C31.8444 21.4139 31.8997 21.3525 31.9552 21.2912C31.9592 21.2615 31.9633 21.2318 31.9673 21.2021L31.9566 21.4122C31.9372 21.3827 31.9176 21.3532 31.8979 21.3238C31.8698 21.3333 31.8416 21.3427 31.8135 21.3521C31.8708 21.203 31.7679 21.0293 31.7567 20.9311C31.7546 20.9113 31.792 20.8932 31.7812 20.8329C31.7688 20.762 31.7094 20.6446 31.6896 20.5622C31.6343 20.5492 31.579 20.5366 31.5236 20.5245C31.4421 20.3976 31.5336 20.3025 31.5062 20.2179C31.502 20.2023 31.3715 19.9446 31.3615 19.9324C31.2858 19.8277 31.2102 19.9042 31.0593 19.5732C31.032 19.5144 31.039 19.4505 31.0116 19.3987C30.9641 19.3057 30.7303 19.0802 30.6498 19.102C30.6694 18.9445 30.4509 18.687 30.4174 18.5913C30.4076 18.562 30.4564 18.5205 30.4143 18.4378C30.3805 18.3704 30.2249 18.2455 30.1744 18.1666C30.121 18.0819 30.1413 18.0208 30.1163 17.983C30.0925 17.9474 30.0336 17.9438 29.9973 17.8991C29.8847 17.7594 29.8308 17.5891 29.7358 17.4817C29.5978 17.3255 29.3749 17.2848 29.2119 17.208C29.1878 17.1723 29.178 17.1232 29.1461 17.0924C28.753 16.7094 28.2833 16.305 27.8354 15.9813C27.6342 15.827 27.1626 15.351 27.159 15.7126C27.0578 15.7152 26.5413 15.3244 26.424 15.2792C26.3107 15.2295 26.1999 15.2486 26.1102 15.2156C25.8386 15.1171 25.6576 15.0105 25.3058 14.9655C25.2146 14.9543 25.1008 14.9982 25.0506 14.9851C24.9892 14.9689 24.9386 14.8863 24.8575 14.8636C24.6639 14.8084 24.2919 14.7643 24.1058 14.7273C24.0715 14.7201 24.0686 14.6577 24.0211 14.6318C23.8338 14.5303 23.6135 14.5156 23.6311 14.716C23.3911 14.5802 23.1528 14.6687 22.9185 14.6685C22.7867 14.6683 22.624 14.6652 22.4459 14.666C21.9807 14.6652 21.4253 14.7132 21.1309 14.8243C20.8759 14.9211 20.9006 15.0089 20.5062 15.01C20.4186 15.011 20.3297 15.0067 20.2229 15.0111C19.9745 15.0212 19.7022 14.9164 19.585 15.1785C19.3073 15.2104 19.1187 15.3242 18.861 15.2288C18.8545 15.2792 18.8485 15.3296 18.8428 15.38C18.8122 15.3939 18.7816 15.408 18.7511 15.4223C18.7252 15.3872 18.6993 15.3522 18.6732 15.3172C18.442 15.4026 18.24 15.6959 18.063 15.7902C17.7575 15.9379 16.9884 16.3554 16.7014 16.518C16.5461 16.5997 16.5997 16.68 16.3998 16.5914C16.3783 16.6269 16.3572 16.6625 16.3363 16.6983C16.3422 16.7301 16.3483 16.7618 16.3545 16.7935L15.6096 15.7978C15.6094 15.78 15.6093 15.7621 15.6091 15.7443C15.8201 15.6008 16.1116 15.5023 16.3212 15.3857C16.6991 15.1695 17.2548 14.7791 17.6999 14.7022C17.8108 14.6821 17.9702 14.7232 18.0712 14.6885C18.2187 14.6384 18.2098 14.4797 18.402 14.4189C18.7351 14.3102 19.3985 14.3449 19.7125 14.2843C19.8065 14.2649 19.8423 14.2004 19.9076 14.1845C20.1812 14.1179 20.409 14.0984 20.673 13.9871C20.9721 14.1196 20.9522 14.3213 21.045 14.5167C21.1163 14.6641 21.3128 15.0119 21.3374 15.1451C21.3556 15.2382 21.2877 15.3573 21.3136 15.4598C21.0148 15.5403 20.8907 15.4551 20.6323 15.3284C20.1757 15.3647 19.7214 15.4341 19.2748 15.5357C19.2222 15.4918 19.169 15.4483 19.1152 15.4054C19.1152 15.4053 19.1152 15.4052 19.1151 15.405C18.9256 15.3856 18.8865 15.5397 18.8032 15.5942C18.2034 15.9764 17.1096 16.3167 16.2667 16.7984L15.5801 15.8806C15.8755 15.6619 16.1609 15.478 16.3989 15.3269C16.5964 15.1905 17.243 14.7365 17.4311 14.7388C17.4788 14.7378 17.5244 14.8001 17.5659 14.7827C17.9031 14.5614 18.2561 14.3598 18.6213 14.1793C19.4408 14.0025 20.2446 13.7133 21.0779 13.5983C21.5315 13.5353 21.9887 13.5003 22.4459 13.495C24.2348 13.4687 26.0558 13.8571 27.6175 14.7438C27.9948 14.9539 28.4837 15.2181 28.8033 15.501C28.9366 15.6187 28.9335 15.7406 29.1573 15.8309C29.1424 15.8529 29.1275 15.8749 29.1125 15.8969C29.2857 16.0005 29.423 16.0412 29.5926 16.1909C29.7381 16.3155 30.0938 16.6737 30.197 16.8072C30.2519 16.8755 30.1947 16.8836 30.2487 16.9439C30.3412 17.046 30.5827 17.2308 30.7003 17.3828C30.8088 17.5201 30.938 17.7878 31.0199 17.8926C31.3169 18.2675 31.6567 18.6771 31.8732 19.1437C31.9333 19.2725 31.9603 19.4614 31.9806 19.5006C32.0208 19.5768 32.0823 19.5757 32.1132 19.6254C32.2714 19.8784 32.3838 20.3312 32.4769 20.6032C32.5438 20.7951 32.6085 20.9918 32.6687 21.1895L32.7178 21.3387L32.6531 21.496C32.3738 22.134 32.0964 22.7912 31.8154 23.413C31.7949 23.4592 31.7712 23.5025 31.7431 23.5444C31.4917 24.0251 30.4995 24.0655 30.2729 23.366C30.1407 22.9856 29.9923 22.595 29.8985 22.3208C29.8626 22.2159 29.9234 22.2224 29.8863 22.1367C29.8451 22.0419 29.7879 22.0016 29.7666 21.9606C29.614 21.6594 29.2607 21.0143 29.1394 20.7202C29.1164 20.663 29.1312 20.6068 29.1137 20.5751C29.105 20.5591 29.0617 20.5364 29.0315 20.4876C28.7646 20.0584 28.587 19.7343 28.321 19.318C27.8102 18.5197 27.0801 17.696 26.3621 17.0219C26.2064 16.8746 26.135 16.7288 26.1109 16.7097C26.0584 16.6684 25.9973 16.6764 25.8852 16.6023C25.5154 16.3534 25.0389 15.9852 24.6529 15.8093C24.463 15.7196 24.1832 15.6466 23.9919 15.58C23.8407 15.5234 23.4862 15.3758 23.4104 15.378C23.3647 15.3779 23.333 15.4141 23.2817 15.4042ZM28.2287 18.087C28.1433 18.1152 28.4007 18.326 28.3612 18.2023C28.3521 18.1738 28.2512 18.0795 28.2287 18.087ZM28.7332 16.4417C28.7129 16.4704 28.6927 16.4992 28.6724 16.5279C28.7126 16.542 28.753 16.5566 28.7933 16.5715C28.7897 16.5409 28.7858 16.5103 28.7818 16.4795C28.7656 16.4668 28.7494 16.4542 28.7332 16.4417Z" fill="#111111"/>
<path d="M42.0564 14C40.284 14 38.7928 14.448 37.547 15.1216C38.4103 14.7914 39.4567 14.7292 40.5129 14.7292C45.8136 14.7292 50.5585 18.7481 48.4166 28.0383C46.5788 36.014 35.84 45.6901 32.5601 49.382C32.4882 49.4637 32.4293 49.6795 32.3835 49.9215C33.7929 48.8849 49.1916 37.3809 51.3695 28.0612C53.652 18.2968 47.913 14 42.0564 14Z" fill="#D9246F"/>
<path d="M37.9838 15.4013C37.9013 15.429 37.7878 15.4495 37.6843 15.4805L37.3642 14.7836C37.3965 14.7688 37.4281 14.7539 37.4579 14.7387C38.0219 14.4601 38.2461 14.3872 38.7834 14.2056C39.5653 13.8492 42.0621 13.6031 42.0564 13.8299C42.0564 13.8299 42.0564 13.8299 42.0564 13.8299C42.0564 13.8299 42.0564 13.8299 42.0564 13.8299C42.0564 13.8299 42.0564 13.8299 42.0564 13.8299C42.0564 13.8316 42.0561 13.8332 42.0556 13.8349C42.0465 13.8666 41.8401 13.9035 41.8104 13.9413C41.781 13.9793 41.808 14.2114 41.5255 14.2393C41.1147 14.2653 40.1284 14.3617 39.9153 14.4272C39.769 14.4631 39.5949 14.5308 39.4122 14.5892C38.8253 14.7825 38.5156 14.8908 38.0417 15.1862C37.9119 15.2277 37.7826 15.2722 37.6539 15.3195L37.4666 14.9115C37.5592 14.8896 37.6519 14.871 37.7446 14.8553C38.0367 14.7422 38.5036 14.6981 38.6855 14.6718C38.8352 14.6482 38.9205 14.611 39.0777 14.5936C39.2543 14.574 39.5267 14.5817 39.8456 14.5661C40.196 14.5497 40.3528 14.5172 40.5129 14.4918C40.593 14.4796 40.6741 14.4703 40.7794 14.4695C41.11 14.4651 41.6212 14.5402 42.0412 14.5785C42.095 14.5783 42.1488 14.5786 42.2026 14.5793C42.168 14.5553 42.1331 14.5315 42.0979 14.508C42.3121 14.5325 42.3958 14.5854 42.5886 14.6249C42.8156 14.673 42.9382 14.6671 43.0903 14.7066C43.215 14.7392 43.374 14.8141 43.5326 14.863C43.764 14.9358 43.727 14.8809 43.8534 14.917C43.9075 14.9187 44.8102 15.2824 44.8542 15.3203C45.226 15.5133 45.2273 15.5848 45.5053 15.7646C46.2733 16.2703 47.0017 16.8944 47.5346 17.5718C47.7728 17.872 47.9874 18.2097 48.1643 18.5505C47.7416 18.1063 48.2521 19.3117 48.2429 18.7684C48.4042 19.1607 48.5829 19.4076 48.7118 19.7854C48.7928 20.0309 48.8179 20.2102 48.9178 20.5622C49.0959 21.1834 49.3018 21.8773 49.1427 22.0845C49.274 22.8324 49.216 23.482 49.3824 23.7512C49.396 23.9521 49.287 24.4399 49.2602 24.6589C49.2552 24.864 49.0414 26.4232 48.9824 26.6672C48.9408 26.9168 48.8552 27.3632 48.8271 27.5717C48.8034 27.7498 48.8551 27.9096 48.7986 28.1264C48.7707 28.2327 48.715 28.3526 48.6062 28.4917C48.4747 29.0481 48.4095 29.2295 48.2127 29.7199C48.177 29.8066 48.1434 29.8057 48.1245 29.8571C48.0857 29.9631 48.0398 30.1523 47.9662 30.3438C47.8464 30.6554 47.7078 30.8001 47.8175 30.8078C47.747 31.0161 47.6703 31.2296 47.5946 31.4331C47.544 31.4942 47.4929 31.5551 47.4415 31.6158C47.4104 31.7313 47.3783 31.8471 47.3451 31.9633C47.2723 31.7748 46.9779 32.5454 47.1771 32.349C46.9522 32.7142 46.7201 33.0698 46.479 33.4223C46.3589 33.2864 45.9869 34.2093 46.1087 34.1901C46.0831 34.2316 46.0573 34.2731 46.0314 34.3145C45.7674 34.6502 45.5884 35.001 45.2745 35.4124C44.9592 35.8226 44.9699 35.772 44.8125 35.854C44.7467 35.957 44.6819 36.058 44.6157 36.1599C44.4318 36.8128 44.1804 36.4899 43.6693 37.4677C43.3446 37.6568 42.8801 38.3796 42.558 38.8503C42.5206 38.9051 42.5424 38.9242 42.494 38.9984C42.3756 39.1803 41.9979 39.5812 42.082 39.6265C41.9402 39.7558 41.7973 39.8849 41.654 40.0132C41.5672 40.1435 41.4801 40.2735 41.3929 40.4031C41.4159 40.4217 41.439 40.4404 41.4621 40.4591C41.1833 40.6322 40.8904 41.0319 40.7136 41.1977C40.6783 41.2308 40.6407 41.2112 40.5329 41.3173C40.4069 41.4411 40.2001 41.6945 40.0523 41.841C40.0333 41.932 40.0135 42.0238 39.9936 42.1158C39.7623 42.4132 39.5837 42.4277 39.4304 42.583C39.4039 42.6107 38.9225 43.152 38.8992 43.1806C38.7026 43.4249 38.8361 43.4395 38.1977 44.0931C38.0818 44.2114 37.964 44.2831 37.8619 44.3897C37.6848 44.5752 37.1999 45.2108 37.2168 45.3071C36.9265 45.4709 36.3719 46.1093 36.1767 46.271C36.1186 46.3188 36.0606 46.2876 35.8934 46.4417C35.7501 46.5746 35.4586 46.9508 35.2843 47.1193C35.1002 47.2969 35.0004 47.3225 34.9204 47.4C34.8466 47.4714 34.8068 47.5757 34.7049 47.6814C34.392 48.0047 34.0545 48.2546 33.8081 48.5127C33.4527 48.8848 33.2365 49.3111 32.9987 49.6684C32.9798 49.6865 32.9602 49.7034 32.9404 49.7198C32.9978 49.6207 32.9291 49.6928 32.9199 49.7426C32.8971 49.818 32.8758 49.9134 32.8572 50.0111L32.0979 49.5332C33.1376 48.7669 34.2745 47.8938 35.2945 47.0907C35.7965 46.6997 37.1635 45.7885 36.6256 45.8277C36.7526 45.6499 38.0805 44.6632 38.3087 44.4577C38.54 44.2539 38.6878 44.042 38.8688 43.8764C39.4076 43.3818 39.82 43.0594 40.4373 42.4003C40.5942 42.2319 40.7237 42.0087 40.8228 41.9136C40.9417 41.7997 41.1197 41.7221 41.2737 41.5769C41.6437 41.2292 42.2977 40.5373 42.6449 40.1925C42.7086 40.1298 42.7751 40.1494 42.8769 40.071C43.2748 39.7655 43.6518 39.351 43.44 39.2882C43.9554 38.899 44.2747 38.392 44.6568 37.9448C45.4756 37.0074 46.921 35.2639 47.4549 34.3247C47.7913 33.7406 47.7147 33.7 48.3094 32.9125C48.4416 32.7341 48.5764 32.5597 48.7287 32.3429C49.0878 31.8307 49.5118 31.4094 49.5311 30.8834C49.8791 30.2947 50.0506 29.7758 50.3982 29.3609C50.3772 29.2888 50.3555 29.2173 50.3331 29.1465C50.3594 29.0675 50.3847 28.9887 50.4091 28.9102C50.4573 28.8992 50.5055 28.8879 50.5538 28.8765C50.6525 28.5887 50.7075 28.2366 50.7367 27.9134C50.7711 27.5771 50.791 27.2632 50.8361 27.0214C51.0296 26.1828 51.269 23.9914 51.2357 23.1905C51.2383 22.7564 51.1376 22.7477 51.3057 22.4861C51.2808 22.3907 51.2547 22.2962 51.2276 22.2032C51.1766 22.1497 51.1252 22.0974 51.0735 22.0461C50.9882 21.5117 50.9011 20.875 50.7318 20.387C50.4462 19.4857 49.6595 18.3364 49.0945 17.6108C48.9587 17.4249 48.8205 17.1502 48.6518 16.9941C48.4032 16.7676 48.2444 16.8294 47.9138 16.5773C47.361 16.1303 46.2287 15.3419 45.5463 15.1459C45.3485 15.0826 45.2383 15.1102 45.1 15.0757C44.5201 14.9354 44.035 14.8337 43.4572 14.8523C42.8666 14.6325 42.9283 14.4508 42.744 14.2371C42.606 14.0759 42.1378 13.7147 42.0648 13.5841C42.0154 13.4908 42.2001 13.3726 42.1315 13.2697C42.9662 13.2046 43.3218 13.3357 43.9613 13.5757C45.1823 13.7668 46.3832 14.1518 47.4806 14.7517C47.5542 14.854 47.6253 14.9571 47.6938 15.0609C47.6937 15.061 47.6937 15.0611 47.6936 15.0612C48.0642 15.3581 48.3012 15.3612 48.5296 15.489C51.037 16.5476 52.7974 21.6504 52.3951 24.2689C52.4029 24.8444 52.2452 26.6975 52.0738 27.0618C52.0347 27.1579 51.954 27.1746 51.9308 27.2769C51.889 27.5655 51.8401 27.8592 51.7838 28.1581C51.6618 28.8079 51.4821 29.4533 51.2623 30.0859C50.4203 31.8763 49.4363 33.649 48.2957 35.2502C45.1787 39.5637 41.3926 43.2066 37.4308 46.5477C36.661 47.1935 35.7056 48.0319 34.9166 48.6144C34.5864 48.8582 34.4027 48.8776 34.0093 49.2738C33.9886 49.2564 33.9679 49.2389 33.9473 49.2214C33.6058 49.5243 33.3887 49.765 32.972 50.0823C32.9318 50.1128 32.8871 50.1465 32.8424 50.18C32.7777 50.2285 32.7167 50.2737 32.6687 50.3092L31.6874 51.0366L31.9107 49.8321C31.9284 49.7384 31.9493 49.6372 31.9803 49.524C32.0242 49.4018 32.0108 49.3144 32.1992 49.0643C32.4749 48.7557 32.7669 48.4487 32.9188 48.2961C33.058 48.1567 33.0417 48.2434 33.1717 48.1069C33.4033 47.8627 33.8268 47.3319 34.1417 47.0102C34.4228 46.7227 34.9376 46.2747 35.1483 46.0477C35.9088 45.23 36.6989 44.3062 37.529 43.4608C37.757 43.2292 38.088 42.9617 38.1578 42.8844C38.2931 42.7345 38.2903 42.6547 38.3766 42.5514C38.8183 42.0246 39.5795 41.2872 40.0258 40.7852C41.4765 39.1616 42.9268 37.3642 44.1835 35.6094C44.9917 34.5068 46.1783 32.5845 46.753 31.4685C46.8799 31.2296 46.8962 31.3173 46.9936 31.1135C47.0993 30.8897 47.1245 30.7451 47.1692 30.6378C47.4298 30.0322 47.8652 28.7989 48.06 27.9562C48.1092 27.7569 48.1515 27.5831 48.1873 27.4456C48.224 27.3046 48.2834 27.21 48.2997 27.1257C48.3084 27.0812 48.3014 26.9756 48.3237 26.8374C48.5124 25.6247 48.6208 24.7345 48.6226 23.5407C48.6458 21.2611 47.8233 18.5674 46.0321 16.9816C45.6548 16.6337 45.3963 16.382 45.336 16.3398C45.2018 16.2511 45.0936 16.2296 44.8093 16.0766C43.873 15.5525 42.4689 15.1024 41.4347 15.043C41.1632 15.022 40.8351 15.0216 40.5129 15.0378C40.2292 15.0514 39.9517 15.0697 39.7191 15.0843C39.3154 15.0951 38.3885 15.1953 38.2324 15.2718C38.1342 15.3089 38.0991 15.3628 37.9838 15.4013ZM48.9746 20.9488C48.8798 20.8918 49.1082 21.6557 49.0947 21.3567C49.0929 21.2865 49.0015 20.9614 48.9746 20.9488ZM33.4403 48.7772C33.4135 48.7536 33.3868 48.7299 33.36 48.7063C33.2982 48.7729 33.2156 48.8554 33.1447 48.9284C33.2031 48.91 33.2627 48.8905 33.3237 48.87C33.368 48.8349 33.4007 48.8087 33.4403 48.7772Z" fill="#111111"/>
<path d="M36.5529 22.4004C35.9774 22.4004 35.5719 21.8445 35.7812 21.3082C36.1703 20.3207 36.6739 19.3658 37.2789 18.5156C38.1749 17.2599 39.8786 16.5274 40.9577 17.2893C42.063 18.0676 41.9191 19.6242 41.1441 20.3763C39.4764 21.9884 37.3803 22.4004 36.5529 22.4004Z" fill="#FFBCD2"/>
<path d="M36.0689 21.8559C36.0782 21.8663 36.0733 21.8929 36.0822 21.9078C36.1198 21.9683 36.1302 21.9968 36.1775 22.0463C36.2432 22.1397 36.5436 22.187 36.5529 22.2856C36.5529 22.2856 36.5529 22.2856 36.5529 22.2856C36.5529 22.2856 36.5529 22.2856 36.5529 22.2856C36.5529 22.2856 36.5529 22.2856 36.5529 22.2856C36.5529 22.2867 36.5529 22.2879 36.5528 22.289C36.5518 22.3108 36.5192 22.3337 36.5128 22.3579C36.5064 22.382 36.5042 22.5427 36.4435 22.5468C36.3539 22.5563 36.1684 22.4553 36.1314 22.434C36.1033 22.4224 36.0625 22.4181 36.0268 22.3995C35.9124 22.337 35.871 22.285 35.76 22.2222C35.7456 22.1712 35.7361 22.1201 35.7312 22.0699C35.6896 22.0245 35.6791 21.9296 35.6667 21.8973C35.6555 21.8705 35.6331 21.8594 35.6239 21.8294C35.6136 21.7957 35.6207 21.74 35.6119 21.6785C35.5993 21.5774 35.555 21.5561 35.5542 21.4896C35.5542 21.4212 35.6005 21.3272 35.6164 21.2439C35.6168 21.2422 35.617 21.2409 35.6171 21.2397C35.6153 21.2293 35.6135 21.2189 35.6116 21.2085C35.598 21.2101 35.5844 21.2116 35.5708 21.2132C35.5782 21.1772 35.607 21.1719 35.6192 21.141C35.6337 21.1048 35.6187 21.0772 35.6283 21.0526C35.6362 21.0325 35.6647 21.0126 35.6738 20.9862C35.6872 20.9477 35.6581 20.9451 35.6613 20.9227C35.6625 20.9137 35.7087 20.757 35.7121 20.7485C35.7375 20.6835 35.7758 20.6937 35.8005 20.6441C35.869 20.5065 35.9037 20.3488 35.952 20.2135C35.9735 20.1532 36.0037 20.0939 36.037 20.0394C36.0882 20.1763 36.258 20.0157 36.0738 20.0149C36.1256 19.962 36.1075 19.8966 36.1441 19.84C36.1678 19.8035 36.202 19.7876 36.2296 19.7324C36.2784 19.6345 36.2752 19.4948 36.3978 19.5273C36.4398 19.4035 36.5339 19.33 36.4611 19.2331C36.4715 19.2005 36.5709 19.1605 36.5975 19.1333C36.6219 19.1068 36.7873 18.8924 36.8128 18.8566C36.8376 18.8201 36.8806 18.7561 36.8923 18.7193C36.9071 18.6735 36.8242 18.5775 36.9876 18.5878C37.0316 18.501 37.0543 18.4746 37.119 18.4104C37.1209 18.4085 37.123 18.4072 37.1252 18.4063C37.1368 18.4014 37.1505 18.408 37.1552 18.4013C37.1668 18.3849 37.1739 18.3477 37.1938 18.3175C37.2266 18.2677 37.2833 18.2697 37.2246 18.2315C37.2394 18.1931 37.2549 18.1548 37.2709 18.1165C37.2901 18.1144 37.3092 18.1125 37.3284 18.1108C37.3306 18.085 37.333 18.0592 37.3357 18.0332C37.3959 18.1194 37.4484 17.9689 37.3733 17.9647C37.4402 17.9213 37.5081 17.8804 37.5769 17.842C37.6515 17.9336 37.7051 17.7369 37.6518 17.6984C37.6583 17.6925 37.6648 17.6866 37.6713 17.6806C37.749 17.6522 37.7847 17.5857 37.8707 17.5426C37.9564 17.5006 37.9572 17.5161 38.0132 17.5434C38.0284 17.5277 38.0436 17.512 38.059 17.4965C38.0613 17.3027 38.197 17.5335 38.2924 17.3276C38.3966 17.3774 38.4978 17.2567 38.5745 17.182C38.5833 17.1733 38.5745 17.1559 38.5857 17.1432C38.6137 17.1116 38.7136 17.0909 38.6839 17.035C38.723 17.0365 38.7623 17.0387 38.8009 17.0418C38.8221 17.0197 38.8433 16.9979 38.8654 16.976C38.8578 16.9575 38.8502 16.939 38.8426 16.9205C38.9216 16.9611 38.9959 16.9049 39.044 16.9056C39.0534 16.9059 39.0642 16.9316 39.0923 16.9302C39.1249 16.9286 39.1799 16.9026 39.2187 16.9006C39.2245 16.8664 39.2306 16.8322 39.2373 16.7979C39.3016 16.7625 39.3447 16.8376 39.385 16.8349C39.3923 16.8336 39.5217 16.8015 39.5288 16.7993C39.5853 16.7764 39.5572 16.7042 39.7355 16.7005C39.7672 16.7003 39.7938 16.7234 39.8222 16.7228C39.8712 16.7203 40.0242 16.6628 40.0405 16.6112C40.1011 16.6775 40.2713 16.6665 40.3184 16.6951C40.3324 16.7034 40.3283 16.7458 40.3712 16.763C40.4055 16.7766 40.5068 16.7643 40.5514 16.7835C40.5983 16.8034 40.6036 16.8438 40.6237 16.8532C40.6427 16.862 40.6711 16.8406 40.6984 16.8509C40.7835 16.8837 40.8371 16.9617 40.8975 16.9948C40.9668 17.0328 41.056 17.0239 41.1408 17.03C41.1633 17.0311 41.1855 17.0333 41.2062 17.0375C41.2205 17.055 41.2258 17.0829 41.2435 17.0966C41.4664 17.2675 41.6701 17.5252 41.7869 17.7807C41.8514 17.9005 41.8361 18.2379 42.0102 18.0902C42.0686 18.1229 42.0677 18.4715 42.0683 18.5313C42.0762 18.5929 42.1207 18.6387 42.1256 18.6885C42.1388 18.8392 42.1121 18.9423 42.1323 19.1266C42.1374 19.1742 42.1786 19.2313 42.1742 19.2598C42.1688 19.2939 42.1177 19.3223 42.1071 19.3645C42.0839 19.4655 42.0497 19.6579 42.008 19.7501C42.0005 19.7669 41.9596 19.7588 41.9387 19.7782C41.8578 19.8538 41.8159 19.9535 41.9445 19.9933C41.822 20.0803 41.8251 20.2184 41.7598 20.3276C41.6953 20.4354 41.5852 20.5743 41.4583 20.7001C41.3388 20.8198 41.2206 20.9364 41.1618 21.0302C41.0902 21.1428 41.1332 21.1909 40.9538 21.2693C40.9139 21.2864 40.8716 21.2996 40.8234 21.3192C40.7088 21.3666 40.5556 21.3318 40.565 21.5028C40.4382 21.5486 40.3656 21.6309 40.2189 21.5783C40.2256 21.6096 40.2321 21.6412 40.2385 21.6728C40.2255 21.6823 40.2124 21.6917 40.1993 21.701C40.18 21.6794 40.1607 21.6578 40.1415 21.6361C40.043 21.69 39.9789 21.8676 39.8941 21.9161C39.7538 22 39.3607 22.1522 39.2048 22.1768C39.1227 22.1911 39.1432 22.252 39.0493 22.1494C39.0365 22.1651 39.0237 22.1807 39.0108 22.1963C39.0117 22.2275 39.0126 22.2587 39.013 22.2901C38.9168 22.3332 38.7859 22.3376 38.6941 22.3732C38.5268 22.4391 38.2928 22.6058 38.1017 22.6055C38.0548 22.6052 37.9829 22.5612 37.9405 22.5734C37.8792 22.5911 37.8882 22.6959 37.8079 22.7187C37.6681 22.7591 37.3836 22.6952 37.2523 22.7254C37.2132 22.7347 37.2011 22.7765 37.1731 22.7852C37.06 22.8211 36.9612 22.8305 36.8509 22.903C36.7161 22.8117 36.7215 22.6763 36.6785 22.5441C36.6464 22.4444 36.5608 22.2097 36.5541 22.1197C36.5475 22.0569 36.5719 21.9765 36.5624 21.9073C36.6713 21.8533 36.722 21.9115 36.8299 22.0002C37.0153 21.9822 37.2014 21.9522 37.3883 21.9138C37.4126 21.9464 37.4376 21.9787 37.4623 22.0109C37.4624 22.011 37.4624 22.0111 37.4624 22.0111C37.5431 22.0377 37.5557 21.9391 37.589 21.9103C37.9115 21.643 38.6613 21.565 39.0559 21.3965C39.1416 21.364 39.3842 21.1925 39.4645 21.2093C39.4856 21.2141 39.5147 21.2568 39.5311 21.2504C39.6518 21.1497 39.7698 21.0454 39.8829 20.939C40.1933 20.8361 40.4235 20.5879 40.6569 20.376C40.7435 20.2973 40.8272 20.217 40.9097 20.1338C41.3483 19.6813 41.5063 18.9419 41.3328 18.3421C41.2947 18.2048 41.1918 18.0607 41.1319 17.9385C41.1071 17.8874 41.1443 17.8251 41.0575 17.7981C41.0704 17.7857 41.0833 17.7733 41.0962 17.7609C41.0347 17.7229 40.9772 17.7206 40.9203 17.6726C40.8901 17.647 40.8277 17.5954 40.7715 17.5538C40.7402 17.5303 40.7123 17.5105 40.697 17.4979C40.675 17.4803 40.7002 17.4577 40.677 17.4442C40.6367 17.4205 40.5314 17.4171 40.4746 17.3952C40.4239 17.3738 40.3416 17.3103 40.2961 17.3054C40.1338 17.2852 39.9581 17.3235 39.7843 17.3198C39.7361 17.3183 39.6682 17.2861 39.6526 17.2894C39.6225 17.2955 39.6193 17.3344 39.6004 17.3421C39.5042 17.3799 39.3365 17.3728 39.2356 17.4032C38.9089 17.4974 38.586 17.6832 38.301 17.8806C38.1174 18.0028 37.849 18.2522 37.6963 18.3904C37.6628 18.4198 37.6433 18.3876 37.6187 18.4159C37.5916 18.4475 37.5961 18.48 37.5854 18.496C37.5582 18.5366 37.5196 18.5952 37.479 18.6584C37.4047 18.7732 37.3194 18.9012 37.2597 18.9617C37.2417 18.9798 37.2091 18.9801 37.2008 18.9926C37.1965 18.9989 37.2022 19.0231 37.1904 19.0439C37.0871 19.2276 36.9956 19.3511 36.8831 19.5246C36.6678 19.8576 36.4762 20.2756 36.2813 20.644C36.2387 20.7242 36.1708 20.7621 36.1659 20.774C36.155 20.7999 36.1754 20.8287 36.1586 20.8834C36.1112 21.0364 36.0109 21.2175 35.9492 21.3744C35.9403 21.3973 35.9337 21.42 35.9297 21.4418C35.9157 21.5121 35.9438 21.6063 35.9586 21.6656C35.9655 21.7139 35.9897 21.8325 36.0159 21.8453C36.03 21.8534 36.0587 21.8446 36.0689 21.8559ZM36.284 19.687C36.3284 19.7256 36.3492 19.5839 36.2985 19.6136C36.2871 19.6204 36.2724 19.677 36.284 19.687ZM41.4149 17.4474C41.4316 17.4306 41.4483 17.4137 41.4649 17.3968C41.4441 17.3888 41.4233 17.3813 41.4025 17.374C41.4 17.3917 41.3972 17.4094 41.3942 17.4269C41.4011 17.4337 41.4081 17.4405 41.4149 17.4474Z" fill="#111111"/>
<path d="M15.9941 26.8445C15.9909 26.7627 15.4317 25.4612 15.3107 23.9014C15.1734 22.1454 15.8699 20.3011 16.7299 19.0813C17.5441 17.9237 19.0713 16.7007 20.4839 17.3613C20.945 17.5771 21.2851 18.0676 21.2458 18.5745C21.2066 19.0519 20.8534 19.4803 20.5232 19.8008C20.1209 20.1964 19.6566 20.5136 19.2282 20.8733C16.8313 22.8811 15.9418 25.6705 15.9941 26.8445Z" fill="#FFBCD2"/>
<path d="M13.1263 28.0608C13.4272 29.3427 13.9798 30.6671 14.7123 31.998H49.7901C50.5193 30.6671 51.072 29.3427 51.3696 28.0641C51.5363 27.3545 51.6541 26.6809 51.7391 26.0269H12.7666C12.8451 26.6776 12.9628 27.3545 13.1263 28.0608Z" fill="#FFC107"/>
<path d="M32.4033 33.437C29.7938 31.8674 27.0045 29.0715 25.3597 27.0146L18.934 28.7837C19.2708 31.3965 18.5841 37.4821 18.5841 37.4821L19.6044 38.6528L21.1642 37.5736L23.9633 39.4376C24.3296 39.7482 24.4702 39.6109 24.5323 39.346C24.8266 38.1132 24.8103 36.0825 24.5389 34.0256C26.0529 36.1185 27.8972 37.9105 29.1496 38.6495C29.3818 38.7868 29.6303 38.7018 29.6925 38.365L29.7775 35.1015L32.3183 34.0027C32.5865 33.9341 32.6388 33.5776 32.4033 33.437Z" fill="#D9246F"/>
<path d="M20.3793 27.3385L25.7356 26.6387C27.3805 28.6955 30.2189 31.099 32.8316 32.6686C33.0671 32.8093 33.0148 33.1624 32.7499 33.2344L30.5034 34.3495L30.4772 37.5083C30.5328 37.7732 30.245 37.9759 30.0128 37.8386C28.4171 36.8968 25.9972 34.7059 23.888 32.6032C21.7789 30.5006 20.3793 27.3385 20.3793 27.3385Z" fill="#FFE02E"/>
<path d="M22.5572 25.4189L18.329 28.7838C18.6658 31.3966 18.4173 35.1081 17.7338 38.0773C17.6717 38.3455 17.9627 38.5547 18.1982 38.4109L20.5624 37.5737L22.8515 39.7483C23.0052 39.9739 23.3485 39.9085 23.4139 39.6437C23.8456 37.8419 23.9535 34.5816 23.9077 31.6026C23.8619 28.6236 22.5572 25.4189 22.5572 25.4189Z" fill="#FFE02E"/>
<path d="M27.5144 28.5616C26.8408 27.9109 26.2326 27.2569 25.7388 26.6388L22.557 25.4224L18.3289 28.784C18.4531 29.7585 18.4989 30.8833 18.4695 32.0671C19.3524 32.332 21.576 33.1528 23.8749 35.1998C23.9043 34.3627 23.9174 33.4929 23.9141 32.6263C23.986 32.6982 24.0613 32.7702 24.1332 32.8454C23.7833 32.4955 23.0475 31.7303 22.6617 31.1384C22.6617 31.1417 26.0135 30.2686 27.5144 28.5616Z" fill="#FFC107"/>
<path d="M16.4422 34.9767C15.2846 35.2971 13.8392 33.1978 12.7732 30.7027C11.7071 28.2077 11.8445 26.0821 12.5737 25.8794C13.6822 25.3366 14.9935 25.245 16.7038 25.3398C17.8123 25.5099 18.9437 25.8303 19.9509 26.177C21.0856 26.5661 21.2164 29.7282 21.2164 29.7282C19.346 33.031 18.0641 34.5287 16.4422 34.9767Z" fill="#FFE02E"/>
<path d="M20.9091 29.4053C20.9091 29.4053 17.5835 31.4621 16.537 32.4235C15.059 33.7806 14.987 34.7518 15.8961 34.9676C18.3356 35.5497 21.259 29.8402 21.259 29.8402L20.9091 29.4053Z" fill="#FFA000"/>
<path d="M29.5845 28.9471C30.6211 28.3389 30.1469 25.8308 29.1267 23.3194C28.1064 20.808 26.5008 19.4149 25.8468 19.7975C24.6859 20.2128 23.7049 21.0925 22.5702 22.3874C21.9162 23.303 21.3505 24.3396 20.8894 25.3043C20.3695 26.3932 22.5212 28.7019 22.5212 28.7019C26.1705 29.6698 28.1326 29.7974 29.5845 28.9471Z" fill="#FFE02E"/>
<path d="M22.5048 28.2538C22.5048 28.2538 26.2948 27.3055 27.7074 27.2237C29.7054 27.1126 30.4444 27.7404 29.9605 28.5448C28.6655 30.7063 22.5702 28.8064 22.5702 28.8064L22.5048 28.2538Z" fill="#FFA000"/>
<path d="M49.7869 31.998C50.5161 30.6671 51.0688 29.3427 51.3663 28.0641C51.5331 27.3545 51.6508 26.6809 51.7359 26.0269H31.3765C31.5727 28.7541 30.2091 29.4212 30.2091 29.4212L32.9821 31.998H49.7869Z" fill="#FFE02E"/>
<path d="M30.0193 28.5517C30.6701 27.6132 29.8264 24.9122 29.1757 23.3229C28.1489 20.8082 26.5302 19.4185 25.8729 19.8011C25.8697 19.8011 25.8664 19.8043 25.8631 19.8043C25.3955 19.9711 25.2353 20.5793 25.5721 20.9456C27.8938 23.4799 27.073 24.0848 27.969 25.8572C28.489 26.8873 29.0514 27.0017 29.6106 27.4366C30.2613 27.9435 30.0193 28.5517 30.0193 28.5517Z" fill="#FFFFB4"/>
<path d="M48.4134 28.0379C48.1158 29.3231 47.5861 30.654 46.8961 31.998H49.7868C50.5161 30.6671 51.0687 29.3427 51.3663 28.0641C51.5331 27.3545 51.6508 26.6809 51.7358 26.0269H48.7797C48.6946 26.6678 48.5769 27.3349 48.4134 28.0379Z" fill="#FFA000"/>
<path d="M20.9842 29.7021C19.8724 29.205 19.2216 27.4654 19.1301 26.5399C19.0385 25.6113 20.5035 24.9703 20.8272 25.1698C21.1542 25.3693 22.8383 28.2992 22.8383 28.744C22.8383 29.1887 21.7069 30.0258 20.9842 29.7021Z" fill="#FFF685"/>
<path d="M16.0726 31.2103C15.9941 30.3895 15.4677 29.6701 15.3532 29.3627C15.0295 28.4896 14.8169 27.574 14.7384 26.6453C14.6894 26.0861 14.7875 25.5106 14.0779 25.5073C13.4043 25.5073 12.9988 25.697 12.7568 26.0469C12.2924 26.7172 12.5279 28.6597 13.3617 30.5792C14.0681 32.2077 15.2911 33.8688 15.2911 33.8688C15.2911 33.8688 16.1903 32.4268 16.0726 31.2103Z" fill="#FFF685"/>
</svg>
