<svg width="64" height="64" viewBox="0 0 64 64" fill="none" xmlns="http://www.w3.org/2000/svg">
<rect x="1" y="1" width="62" height="62" rx="11" fill="#CFFF29"/>
<rect x="1" y="1" width="62" height="62" rx="11" stroke="#111111" stroke-width="2"/>
<path d="M32.0982 44.0647C21.6571 44.0647 15.665 33.8998 14.6279 31.9822C15.5699 30.0585 21.0435 19.9365 32.0982 19.9365C43.1528 19.9365 48.6265 30.0554 49.5684 31.9822C48.5313 33.8998 42.5361 44.0647 32.0982 44.0647Z" fill="#FAFAFA"/>
<path d="M32.0982 20.6853C36.949 20.6853 41.2537 22.655 44.8925 26.5424C46.9268 28.7147 48.1847 30.9176 48.7247 31.9639C47.341 34.4154 41.6525 43.3131 32.0982 43.3131C27.5328 43.3131 23.314 41.3341 19.5524 37.4314C17.4385 35.2376 16.0639 33.0101 15.4718 31.9639C16.0087 30.9176 17.2697 28.7116 19.3039 26.5424C22.9428 22.655 27.2474 20.6853 32.0982 20.6853ZM32.0982 19.188C19.2855 19.188 13.7935 32.0007 13.7935 32.0007C13.7935 32.0007 20.0065 44.8134 32.0982 44.8134C44.1899 44.8134 50.3999 32.0007 50.3999 32.0007C50.3999 32.0007 44.9079 19.188 32.0982 19.188Z" fill="#B0BEC5"/>
<path d="M32.0982 23.7163C40.373 23.7163 46.0492 28.7818 48.562 32.2182C48.8566 32.6201 49.1726 30.6872 48.9057 30.2668C46.5002 26.5052 41.1094 20.1694 32.1012 20.1694C23.093 20.1694 17.6961 26.5083 15.2907 30.2699C15.0207 30.6902 15.3827 32.3655 15.7233 32.0003C18.3435 29.1868 23.8202 23.7163 32.0982 23.7163Z" fill="#B0BEC5"/>
<path d="M32.0983 41.1863C37.7156 41.1863 42.2693 36.6326 42.2693 31.0153C42.2693 25.398 37.7156 20.8442 32.0983 20.8442C26.481 20.8442 21.9272 25.398 21.9272 31.0153C21.9272 36.6326 26.481 41.1863 32.0983 41.1863Z" fill="#9C7A63"/>
<path d="M32.0982 23.7159C35.4333 23.7159 38.345 24.5382 40.7996 25.7471C39.0169 22.8077 35.7861 20.8472 32.0982 20.8472C28.3305 20.8472 25.0414 22.8998 23.2864 25.9434C25.744 24.6486 28.6802 23.7159 32.0982 23.7159Z" fill="#806451"/>
<path d="M32.0982 35.7497C34.7128 35.7497 36.8324 33.6301 36.8324 31.0155C36.8324 28.4008 34.7128 26.2812 32.0982 26.2812C29.4836 26.2812 27.364 28.4008 27.364 31.0155C27.364 33.6301 29.4836 35.7497 32.0982 35.7497Z" fill="#212121"/>
<path d="M39.6275 32.9482C40.9357 32.9482 41.9962 31.8877 41.9962 30.5796C41.9962 29.2714 40.9357 28.2109 39.6275 28.2109C38.3194 28.2109 37.2589 29.2714 37.2589 30.5796C37.2589 31.8877 38.3194 32.9482 39.6275 32.9482Z" fill="#D9BAA5"/>
<path d="M14.5758 32.9855C14.4162 32.9855 14.2536 32.9456 14.1033 32.8627C13.6277 32.6019 13.4528 32.0036 13.7136 31.5281C13.9744 31.0525 20.2427 19.1909 32.0982 19.1909C43.9536 19.1909 50.0378 30.8163 50.2894 31.2826C50.5472 31.7613 50.3723 32.3565 49.8936 32.6173C49.415 32.875 48.8198 32.7001 48.559 32.2215C48.5037 32.1172 42.7662 21.8326 32.0951 21.8326C21.4209 21.8326 15.4932 32.3688 15.4349 32.4761C15.2569 32.8014 14.9225 32.9855 14.5758 32.9855Z" fill="#111111"/>
</svg>
