<svg width="32" height="32" viewBox="0 0 32 32" fill="none" xmlns="http://www.w3.org/2000/svg">
<path d="M0.87999 25.8391C4.45879 18.4481 2.66939 8.80089 8.50439 7.32269C14.2616 5.84449 18.0738 8.41189 21.108 9.26769C24.1422 10.1235 26.6318 10.5903 27.1764 13.4689C27.9544 17.5145 15.7398 23.3495 18.5406 31.0517C9.43799 31.9853 7.10399 29.6513 5.15899 28.7177C3.60299 27.9397 1.65799 26.4615 0.87999 25.8391Z" fill="#111111" stroke="#111111" stroke-width="0.778" stroke-linecap="round" stroke-linejoin="round"/>
<path d="M19.3181 8.64517C19.3181 6.85593 16.0508 5.37786 14.0282 7.01152L19.3181 8.64517Z" fill="#111111" stroke="#111111" stroke-width="0.778" stroke-linecap="round" stroke-linejoin="round"/>
<path d="M14.6506 17.7484C17.218 19.7712 20.0966 19.071 25.8538 16.6592" stroke="white" stroke-width="0.778" stroke-linecap="round" stroke-linejoin="round"/>
<path d="M12.3164 13.7802C13.6389 13.7802 14.728 12.6911 14.728 11.3686C14.728 10.0461 13.6389 8.95703 12.3164 8.95703C10.9939 8.95703 9.9048 10.0461 9.9048 11.3686C9.9048 12.6911 10.9939 13.7802 12.3164 13.7802Z" fill="#111111" stroke="white" stroke-width="0.778" stroke-linecap="round" stroke-linejoin="round"/>
<path d="M23.2863 15.1802C23.5975 15.1802 23.9087 14.8691 23.9087 14.5579C23.9087 14.2467 23.5975 13.9355 23.2863 13.9355C22.9752 13.9355 22.664 14.2467 22.664 14.5579C22.664 14.8691 22.9752 15.1802 23.2863 15.1802Z" fill="white"/>
</svg>
