<svg width="19" height="19" viewBox="0 0 19 19" fill="none" xmlns="http://www.w3.org/2000/svg">
<path d="M16.1022 3.86811C14.9343 3.32368 13.6698 2.92854 12.3527 2.70024C12.3411 2.69987 12.3296 2.70203 12.319 2.70659C12.3083 2.71114 12.2989 2.71796 12.2912 2.72658C12.1332 3.01635 11.9488 3.39393 11.8258 3.68371C10.4288 3.47296 9.00799 3.47296 7.61094 3.68371C7.48801 3.38515 7.30361 3.01635 7.13677 2.72658C7.12799 2.70902 7.10164 2.70024 7.0753 2.70024C5.75816 2.92854 4.50248 3.32368 3.32584 3.86811C3.31705 3.86811 3.30827 3.87689 3.29949 3.88567C0.911077 7.45952 0.252506 10.9368 0.577401 14.3789C0.577401 14.3964 0.586182 14.414 0.603744 14.4228C2.18431 15.5819 3.70342 16.2843 5.20496 16.7497C5.2313 16.7585 5.25765 16.7497 5.26643 16.7322C5.61766 16.2492 5.93378 15.7399 6.20599 15.2043C6.22355 15.1691 6.20599 15.134 6.17086 15.1252C5.67035 14.9321 5.19618 14.7038 4.73079 14.4403C4.69566 14.4228 4.69566 14.3701 4.72201 14.3437C4.8186 14.2735 4.91519 14.1945 5.01178 14.1242C5.02934 14.1067 5.05568 14.1067 5.07325 14.1154C8.09389 15.494 11.3517 15.494 14.3372 14.1154C14.3547 14.1067 14.3811 14.1067 14.3987 14.1242C14.4952 14.2032 14.5918 14.2735 14.6884 14.3525C14.7235 14.3789 14.7235 14.4315 14.6796 14.4491C14.223 14.7213 13.7401 14.9408 13.2396 15.134C13.2044 15.1428 13.1957 15.1867 13.2044 15.2131C13.4854 15.7487 13.8015 16.258 14.144 16.7409C14.1703 16.7497 14.1967 16.7585 14.223 16.7497C15.7334 16.2843 17.2525 15.5819 18.833 14.4228C18.8506 14.414 18.8594 14.3964 18.8594 14.3789C19.2457 10.4011 18.2184 6.95022 16.1373 3.88567C16.1285 3.87689 16.1197 3.86811 16.1022 3.86811ZM6.6626 12.2802C5.75816 12.2802 5.003 11.4461 5.003 10.4187C5.003 9.39132 5.7406 8.55713 6.6626 8.55713C7.59339 8.55713 8.33098 9.40011 8.3222 10.4187C8.3222 11.4461 7.5846 12.2802 6.6626 12.2802ZM12.783 12.2802C11.8785 12.2802 11.1234 11.4461 11.1234 10.4187C11.1234 9.39132 11.861 8.55713 12.783 8.55713C13.7137 8.55713 14.4513 9.40011 14.4426 10.4187C14.4426 11.4461 13.7137 12.2802 12.783 12.2802Z" fill="#111111"/>
</svg>
