<svg width="20" height="20" viewBox="0 0 20 20" fill="none" xmlns="http://www.w3.org/2000/svg">
<path fill-rule="evenodd" clip-rule="evenodd" d="M17.4473 2.09772C17.6673 2.00514 17.9081 1.97321 18.1445 2.00525C18.381 2.0373 18.6046 2.13214 18.792 2.27992C18.9794 2.42769 19.1238 2.62299 19.21 2.8455C19.2964 3.068 19.3215 3.30957 19.2828 3.54506L17.264 15.7904C17.0682 16.9716 15.7721 17.649 14.6889 17.0606C13.7827 16.5684 12.4369 15.81 11.2263 15.0187C10.621 14.6226 8.76687 13.3542 8.99474 12.4516C9.19056 11.6799 12.306 8.77983 14.0863 7.05569C14.785 6.3783 14.4663 5.98754 13.6412 6.61063C11.5921 8.15765 8.30222 10.5102 7.2145 11.1725C6.25495 11.7564 5.75471 11.8561 5.15655 11.7564C4.06526 11.5748 3.0532 11.2936 2.22717 10.9509C1.11096 10.488 1.16526 8.95342 2.22628 8.50658L17.4473 2.09772Z" fill="#111111"/>
</svg>
