<svg width="81" height="24" viewBox="0 0 81 24" fill="none" xmlns="http://www.w3.org/2000/svg">
<path d="M73.8713 23.9167C72.4411 23.9167 71.1493 23.5476 69.9958 22.8094C68.8424 22.0712 67.9254 21.0447 67.2449 19.7298C66.5759 18.4149 66.2415 16.8924 66.2415 15.1622C66.2415 13.3283 66.5759 11.7597 67.2449 10.4563C67.9139 9.14139 68.8251 8.13215 69.9785 7.42856C71.132 6.72498 72.4295 6.37318 73.8713 6.37318C75.1632 6.37318 76.2704 6.63847 77.1932 7.16904C78.1159 7.68808 78.8599 8.39167 79.425 9.2798C79.9902 10.1564 80.3766 11.1541 80.5842 12.2729C80.8034 13.3917 80.8437 14.5452 80.7053 15.7332H68.8713V13.83H78.4562L77.6603 14.3491C77.6949 13.7262 77.6603 13.1034 77.5565 12.4805C77.4642 11.8577 77.2797 11.2868 77.0029 10.7677C76.726 10.2371 76.3339 9.81614 75.8264 9.50472C75.3304 9.18176 74.696 9.02028 73.9232 9.02028C72.9544 9.02028 72.1412 9.2625 71.4837 9.74694C70.8378 10.2314 70.3476 10.8831 70.0131 11.702C69.6786 12.5094 69.5114 13.3975 69.5114 14.3664V15.6986C69.5114 16.7713 69.6729 17.7228 69.9958 18.5533C70.3188 19.3838 70.7975 20.0412 71.4318 20.5256C72.0778 20.9985 72.8909 21.235 73.8713 21.235C74.8287 21.235 75.6188 21.0101 76.2416 20.5602C76.876 20.1104 77.2681 19.4357 77.4181 18.536H80.7745C80.6015 19.6202 80.2036 20.566 79.5808 21.3734C78.9579 22.1808 78.1563 22.8094 77.1759 23.2592C76.207 23.6975 75.1055 23.9167 73.8713 23.9167Z" fill="#111111"/>
<path d="M55.8605 23.9167C54.4302 23.9167 53.1384 23.5476 51.985 22.8094C50.8316 22.0712 49.9146 21.0447 49.2341 19.7298C48.5651 18.4149 48.2306 16.8924 48.2306 15.1622C48.2306 13.3283 48.5651 11.7597 49.2341 10.4563C49.9031 9.14139 50.8142 8.13215 51.9677 7.42856C53.1211 6.72498 54.4187 6.37318 55.8605 6.37318C57.1523 6.37318 58.2596 6.63847 59.1823 7.16904C60.105 7.68808 60.849 8.39167 61.4142 9.2798C61.9794 10.1564 62.3657 11.1541 62.5734 12.2729C62.7925 13.3917 62.8329 14.5452 62.6945 15.7332H50.8604V13.83H60.4453L59.6494 14.3491C59.684 13.7262 59.6494 13.1034 59.5456 12.4805C59.4534 11.8577 59.2688 11.2868 58.992 10.7677C58.7152 10.2371 58.323 9.81614 57.8155 9.50472C57.3195 9.18176 56.6852 9.02028 55.9124 9.02028C54.9435 9.02028 54.1303 9.2625 53.4729 9.74694C52.827 10.2314 52.3368 10.8831 52.0023 11.702C51.6678 12.5094 51.5005 13.3975 51.5005 14.3664V15.6986C51.5005 16.7713 51.662 17.7228 51.985 18.5533C52.3079 19.3838 52.7866 20.0412 53.421 20.5256C54.0669 20.9985 54.8801 21.235 55.8605 21.235C56.8178 21.235 57.6079 21.0101 58.2307 20.5602C58.8651 20.1104 59.2573 19.4357 59.4072 18.536H62.7637C62.5907 19.6202 62.1927 20.566 61.5699 21.3734C60.947 22.1808 60.1454 22.8094 59.165 23.2592C58.1961 23.6975 57.0946 23.9167 55.8605 23.9167Z" fill="#111111"/>
<path d="M37.7679 23.9167C36.1531 23.9167 34.7921 23.6918 33.6848 23.2419C32.5775 22.7806 31.7297 22.1462 31.1415 21.3388C30.5648 20.5199 30.2649 19.5625 30.2418 18.4668H33.3388C33.3849 19.4241 33.7655 20.1335 34.4806 20.5948C35.2073 21.0562 36.1877 21.2869 37.4219 21.2869C38.0793 21.2869 38.6733 21.1831 39.2039 20.9755C39.746 20.7679 40.1728 20.4853 40.4842 20.1277C40.8071 19.7702 40.9686 19.3665 40.9686 18.9166C40.9686 18.3514 40.761 17.9074 40.3458 17.5844C39.9305 17.2499 39.2616 16.9558 38.3388 16.7021L34.9305 15.5429C33.5694 15.0815 32.5256 14.4702 31.7989 13.7089C31.0723 12.9361 30.709 12.0134 30.709 10.9407C30.709 9.56816 31.3203 8.46664 32.5429 7.63618C33.7655 6.79418 35.3861 6.37318 37.4046 6.37318C39.4922 6.37318 41.1013 6.81725 42.2316 7.70538C43.3735 8.58198 43.9675 9.6835 44.0137 11.0099H40.8475C40.7668 10.3525 40.438 9.85074 39.8613 9.50472C39.2962 9.14716 38.4772 8.96838 37.4046 8.96838C36.4011 8.96838 35.611 9.18753 35.0343 9.62583C34.4691 10.0641 34.1865 10.5601 34.1865 11.1137C34.1865 12.1057 35.04 12.8439 36.7471 13.3283L40.3285 14.5913C41.6895 15.0296 42.7391 15.5948 43.4773 16.2868C44.2155 16.9789 44.5846 17.8555 44.5846 18.9166C44.5846 19.7702 44.302 20.5775 43.7368 21.3388C43.1717 22.1001 42.3758 22.7229 41.3493 23.2073C40.3342 23.6802 39.1405 23.9167 37.7679 23.9167Z" fill="#111111"/>
<path d="M22.8354 4.06263C22.1779 4.06263 21.6589 3.88385 21.2782 3.52629C20.9092 3.1572 20.7246 2.66123 20.7246 2.03838C20.7246 1.4386 20.9092 0.965702 21.2782 0.619676C21.6589 0.262116 22.1779 0.0833359 22.8354 0.0833359C23.4813 0.0833359 23.9888 0.262116 24.3579 0.619676C24.7385 0.965702 24.9288 1.4386 24.9288 2.03838C24.9288 2.66123 24.7385 3.1572 24.3579 3.52629C23.9888 3.88385 23.4813 4.06263 22.8354 4.06263ZM21.1917 23.4668V6.77107H24.479V23.4668H21.1917Z" fill="#111111"/>
<path d="M11.7995 23.4669L11.3843 19.6433V12.7055C11.3843 11.3444 11.1017 10.3582 10.5365 9.74694C9.97131 9.12409 9.07741 8.81267 7.85479 8.81267C7.16274 8.81267 6.54566 8.91647 6.00355 9.12409C5.47298 9.32017 5.05198 9.62006 4.74056 10.0238C4.44067 10.4275 4.29072 10.935 4.29072 11.5463H0.657449C0.657449 10.3236 0.957339 9.33171 1.55712 8.57045C2.1569 7.80919 2.99312 7.25555 4.0658 6.90952C5.15002 6.55196 6.41301 6.37318 7.85479 6.37318C9.20429 6.37318 10.3923 6.5981 11.4189 7.04793C12.4454 7.48623 13.2413 8.17829 13.8064 9.12409C14.3831 10.0699 14.6715 11.2925 14.6715 12.792V23.4669H11.7995ZM6.22847 23.9167C4.83283 23.9167 3.67364 23.6745 2.75091 23.19C1.82817 22.6941 1.13612 22.0482 0.674751 21.2523C0.224917 20.4564 0 19.6087 0 18.709C0 17.6133 0.276821 16.7136 0.830462 16.01C1.39564 15.2949 2.1742 14.7643 3.16614 14.4183C4.15808 14.0723 5.29996 13.8992 6.59179 13.8992C7.47993 13.8992 8.34499 13.98 9.18699 14.1415C10.029 14.3029 10.8594 14.5163 11.6784 14.7816V16.7713C11.0094 16.529 10.2654 16.3387 9.44651 16.2003C8.63911 16.0504 7.88362 15.9754 7.18004 15.9754C6.13043 15.9754 5.25383 16.183 4.55024 16.5982C3.84666 17.0135 3.49486 17.7171 3.49486 18.709C3.49486 19.4357 3.77168 20.0643 4.32532 20.5948C4.87897 21.1139 5.75556 21.3734 6.95512 21.3734C7.83172 21.3734 8.60451 21.1773 9.27349 20.7852C9.94248 20.3815 10.4615 19.8797 10.8306 19.2799C11.1997 18.6802 11.3843 18.0804 11.3843 17.4806H12.1801C12.1801 18.634 11.9437 19.7009 11.4708 20.6814C11.0094 21.6502 10.3346 22.4346 9.44651 23.0343C8.55838 23.6226 7.48569 23.9167 6.22847 23.9167Z" fill="#111111"/>
</svg>
