<svg width="5746" height="721" viewBox="0 0 5746 721" fill="none" xmlns="http://www.w3.org/2000/svg">
<g opacity="0.5">
<path d="M441.598 385.927H87.7535V699.198H0V11.3231H87.7535V308.553H441.598V11.3231H529.352V699.198H441.598V385.927Z" fill="#CFFF29"/>
<path d="M773.726 11.3231V699.198H685.029V11.3231H773.726Z" fill="#CFFF29"/>
<path d="M1298.96 11.3231V699.198H1210.27V11.3231H1298.96Z" fill="#CFFF29"/>
<path d="M1697.81 88.6972V699.198H1610.06V88.6972H1383.6V11.3231H1923.33V88.6972H1697.81Z" fill="#CFFF29"/>
<path d="M1988.68 30.1948H2077.38V134.933L2051.9 261.373H2014.16L1988.68 134.933V30.1948Z" fill="#CFFF29"/>
<path d="M2686.38 213.251H2603.34C2602.4 122.666 2541.06 73.5997 2431.61 73.5997C2339.14 73.5997 2277.8 119.835 2277.8 189.661C2277.8 242.502 2308 268.922 2391.03 291.568L2563.71 337.804C2657.12 363.281 2709.97 425.557 2709.97 510.48C2709.97 569.926 2680.71 631.259 2634.48 668.059C2590.13 702.028 2523.14 720.9 2441.04 720.9C2336.31 720.9 2257.04 687.875 2209.86 622.767C2182.5 585.024 2170.23 543.506 2169.29 480.285H2252.33C2251.38 522.747 2262.71 555.772 2288.18 585.967C2321.21 625.598 2371.22 643.526 2446.71 643.526C2502.38 643.526 2545.78 634.09 2573.15 614.275C2602.4 593.516 2622.21 555.772 2622.21 518.973C2622.21 465.188 2583.52 430.275 2495.77 407.629L2324.98 362.337C2234.4 338.748 2190.05 285.907 2190.05 201.928C2190.05 77.3741 2283.46 0 2434.44 0C2550.5 0 2630.7 41.5178 2668.45 120.779C2683.55 152.861 2686.38 166.071 2686.38 213.251Z" fill="#CFFF29"/>
<path d="M3463.24 492.552H3198.09L3125.44 699.198H3032.02L3277.36 11.3231H3390.59L3632.14 699.198H3534.01L3463.24 492.552ZM3438.71 418.952L3333.03 105.682L3219.8 418.952H3438.71Z" fill="#CFFF29"/>
<path d="M3828.4 11.3231V699.198H3739.71V11.3231H3828.4Z" fill="#CFFF29"/>
<path d="M4470.34 213.251H4387.31C4386.36 122.666 4325.03 73.5997 4215.58 73.5997C4123.1 73.5997 4061.77 119.835 4061.77 189.661C4061.77 242.502 4091.97 268.922 4175 291.568L4347.68 337.804C4441.09 363.281 4493.93 425.557 4493.93 510.48C4493.93 569.926 4464.68 631.259 4418.45 668.059C4374.1 702.028 4307.1 720.9 4225.01 720.9C4120.27 720.9 4041.01 687.875 3993.83 622.767C3966.47 585.024 3954.2 543.506 3953.26 480.285H4036.29C4035.35 522.747 4046.67 555.772 4072.15 585.967C4105.18 625.598 4155.19 643.526 4230.67 643.526C4286.34 643.526 4329.75 634.09 4357.11 614.275C4386.36 593.516 4406.18 555.772 4406.18 518.973C4406.18 465.188 4367.49 430.275 4279.74 407.629L4108.95 362.337C4018.37 338.748 3974.02 285.907 3974.02 201.928C3974.02 77.3741 4067.43 0 4218.41 0C4334.47 0 4414.67 41.5178 4452.42 120.779C4467.51 152.861 4470.34 166.071 4470.34 213.251Z" fill="#CFFF29"/>
<path d="M4710.01 385.927V621.823H5115.75V699.198H4622.25V11.3231H5098.77V88.6972H4710.01V308.553H5084.61V385.927H4710.01Z" fill="#CFFF29"/>
<path d="M5339.37 385.927V621.823H5745.11V699.198H5251.62V11.3231H5728.13V88.6972H5339.37V308.553H5713.98V385.927H5339.37Z" fill="#CFFF29"/>
</g>
</svg>
