<svg width="104" height="42" viewBox="0 0 104 42" fill="none" xmlns="http://www.w3.org/2000/svg">
<path d="M0 14.49V15.225L2.85469 18.0797C4.42313 19.6481 5.70938 20.9606 5.70938 21C5.70938 21.0394 4.42313 22.3519 2.85469 23.9203L0 26.775V27.51V28.2516H0.741563H1.47656L4.33125 25.3969C5.89969 23.8284 7.21219 22.5422 7.245 22.5422C7.27781 22.5422 7.5075 22.7391 7.75688 22.9753C8.74125 23.9006 10.2047 24.8259 11.4188 25.2919C12.4688 25.6987 13.9519 25.9547 15.225 25.9547C18.0272 25.9547 20.58 24.9506 22.6078 23.0541C22.9097 22.7719 23.1788 22.5422 23.2116 22.5422C23.2378 22.5422 24.5503 23.8284 26.1188 25.3969L28.9734 28.2516H29.7084H30.45V27.51V26.775L27.5953 23.9203C26.0269 22.3519 24.7406 21.0394 24.7406 21C24.7406 20.9606 26.0269 19.6481 27.5953 18.0797L30.45 15.225V14.49V13.7484H29.7084H28.9603L26.1056 16.6031C24.5306 18.1716 23.2181 19.4578 23.1984 19.4578C23.1722 19.4578 22.9359 19.2609 22.68 19.0116C21.0788 17.4891 19.0444 16.485 16.8984 16.1437C16.1241 16.0191 14.5163 15.9994 13.7156 16.1109C11.5959 16.3931 9.48938 17.4037 7.88813 18.9L7.28438 19.4709L6.96938 19.1887C6.79875 19.0312 5.49938 17.7384 4.08188 16.3209L1.50938 13.7484H0.754688H0V14.49ZM16.7869 18.2437C18.0075 18.48 19.0181 18.8869 20.0156 19.5562C20.6456 19.9697 21.6562 20.8556 21.6562 20.9803C21.6562 21.0984 20.8425 21.84 20.2388 22.2731C19.2413 22.9884 17.9156 23.5397 16.6884 23.7562C15.9534 23.8875 14.4834 23.8809 13.7419 23.7562C11.9766 23.4478 10.1194 22.4569 9.02344 21.2362L8.76094 20.9475L9.25313 20.4947C10.6641 19.1953 12.4097 18.3881 14.3456 18.1453C14.9166 18.0731 16.1503 18.1256 16.7869 18.2437Z" fill="#A5D500"/>
<path d="M95.6436 13.5334V19.8943H102.578V21.9418H95.6436V28.4938H103.397V30.5413H93.1593V11.4859H103.397V13.5334H95.6436Z" fill="#111111"/>
<path d="M81.647 13.5334V19.8943H88.5812V21.9418H81.647V28.4938H89.4002V30.5413H79.1627V11.4859H89.4002V13.5334H81.647Z" fill="#111111"/>
<path d="M69.1733 30.7324C67.9175 30.7324 66.7891 30.514 65.7881 30.0772C64.8053 29.6222 64.0318 29.0034 63.4676 28.2208C62.9034 27.42 62.6122 26.5009 62.594 25.4635H65.2421C65.3331 26.3553 65.6971 27.1106 66.3341 27.7294C66.9893 28.33 67.9357 28.6303 69.1733 28.6303C70.3563 28.6303 71.2845 28.3391 71.9579 27.7567C72.6495 27.1561 72.9953 26.3917 72.9953 25.4635C72.9953 24.7355 72.7951 24.144 72.3947 23.689C71.9943 23.234 71.4938 22.8882 70.8932 22.6516C70.2926 22.415 69.4827 22.1602 68.4635 21.8872C67.2077 21.5596 66.1976 21.232 65.4332 20.9044C64.687 20.5768 64.0409 20.0672 63.4949 19.3756C62.9671 18.6658 62.7032 17.7194 62.7032 16.5364C62.7032 15.499 62.9671 14.5799 63.4949 13.7791C64.0227 12.9783 64.7598 12.3595 65.7062 11.9227C66.6708 11.4859 67.7719 11.2675 69.0095 11.2675C70.7931 11.2675 72.2491 11.7134 73.3775 12.6052C74.5241 13.497 75.1702 14.68 75.3158 16.1542H72.5858C72.4948 15.4262 72.1126 14.7892 71.4392 14.2432C70.7658 13.679 69.874 13.3969 68.7638 13.3969C67.7264 13.3969 66.8801 13.6699 66.2249 14.2159C65.5697 14.7437 65.2421 15.4899 65.2421 16.4545C65.2421 17.1461 65.4332 17.7103 65.8154 18.1471C66.2158 18.5839 66.6981 18.9206 67.2623 19.1572C67.8447 19.3756 68.6546 19.6304 69.692 19.9216C70.9478 20.2674 71.9579 20.6132 72.7223 20.959C73.4867 21.2866 74.1419 21.8053 74.6879 22.5151C75.2339 23.2067 75.5069 24.1531 75.5069 25.3543C75.5069 26.2825 75.2612 27.1561 74.7698 27.9751C74.2784 28.7941 73.5504 29.4584 72.5858 29.968C71.6212 30.4776 70.4837 30.7324 69.1733 30.7324Z" fill="#111111"/>
<path d="M58.9059 11.5132V30.5413H56.4216V11.5132H58.9059Z" fill="#111111"/>
<path d="M49.2738 26.3098H40.9746L39.4458 30.5413H36.825L43.7046 11.6224H46.5711L53.4234 30.5413H50.8026L49.2738 26.3098ZM48.564 24.2896L45.1242 14.68L41.6844 24.2896H48.564Z" fill="#111111"/>
</svg>
