<svg width="44" height="45" viewBox="0 0 44 45" fill="none" xmlns="http://www.w3.org/2000/svg">
<g clip-path="url(#clip0_93_3380)">
<path d="M8 35.3037L11 28.8037L22 34.3037V42.3037L8 35.3037Z" fill="#3C70DD"/>
<path d="M36 34.8037L33 28.3037L22 33.8037L22.5 42.3037L36 34.8037Z" fill="#6191F3"/>
<path d="M21.5 30.3037L12.5 24.8037L12 24.3037L15 18.8037L22 22.8037L21.5 30.3037Z" fill="#3C70DD"/>
<path d="M22 30.8037L31.5 25.3037H32.5L29 18.3037L22.5 22.3037L22 30.8037Z" fill="#6191F3"/>
<path d="M22 17.8037L15 14.3037L19 6.30371L21.5 3.80371L22 17.8037Z" fill="#3C70DD"/>
<path d="M22 18.3037L29 14.8037L25 6.80371L22 3.30371V18.3037Z" fill="#6191F3"/>
<path d="M15.5 18.3037L18.5 16.3037L22 18.3037L26.5 16.3037L29 18.3037L22 22.3037L15.5 18.3037Z" fill="#6191F3"/>
<path d="M12 28.8037L15 26.8037L22 30.3037L29.5 26.8037L32 28.8037L22.5 35.3037L12 28.8037Z" fill="#6191F3"/>
<path d="M21.406 1.52912C21.252 1.57312 21.076 1.96912 20.988 2.38712C20.922 2.80512 20.768 3.13512 20.68 3.13512C20.592 3.13512 20.438 3.39912 20.372 3.70712C20.24 4.16912 20.13 4.23512 19.734 4.10312C19.294 3.97112 19.294 3.99312 19.558 4.32312C19.778 4.58712 19.8 4.76312 19.646 4.85112C19.514 4.93912 19.338 5.22512 19.25 5.51112C19.162 5.86312 18.986 5.97312 18.766 5.90712C18.524 5.81912 18.48 5.86312 18.568 6.10512C18.678 6.39112 18.568 6.47912 18.106 6.41312C17.908 6.39112 17.534 7.11712 17.688 7.24912C17.754 7.33712 17.82 7.27112 17.82 7.13912C17.82 6.98512 17.974 6.87512 18.15 6.87512C18.326 6.87512 18.48 6.94112 18.48 7.00712C18.48 7.22712 17.842 7.75512 17.556 7.75512C17.336 7.75512 17.358 7.82112 17.6 7.97512C17.886 8.17312 17.776 8.28312 17.336 8.21712C17.27 8.21712 17.138 8.50312 17.05 8.85512C16.984 9.20712 16.72 9.73512 16.478 10.0431C16.06 10.5711 16.06 10.5931 16.434 10.5051C16.654 10.4391 16.61 10.5051 16.324 10.6371C16.038 10.7911 15.862 11.0331 15.928 11.2091C15.994 11.3631 15.95 11.4951 15.84 11.4951C15.708 11.4951 15.62 11.6931 15.62 11.9571C15.62 12.3091 15.532 12.3751 15.246 12.2871C15.026 12.1991 14.938 12.1991 15.026 12.2871C15.136 12.4191 14.63 13.5851 14.3 13.9151C14.08 14.1351 14.08 14.5751 14.322 14.5751C14.432 14.5751 14.476 14.6631 14.41 14.7951C14.344 14.9051 14.432 15.0151 14.608 15.0151C14.806 15.0151 15.158 15.2131 15.4 15.4551C15.664 15.7191 15.95 15.8511 16.06 15.7851C16.17 15.7191 16.302 15.7631 16.39 15.8951C16.478 16.0271 16.61 16.0711 16.72 16.0051C16.808 15.9391 16.874 16.0491 16.852 16.2471C16.786 16.6871 16.302 16.9951 15.906 16.8411C15.752 16.7751 15.62 16.8851 15.62 17.0831C15.62 17.2811 15.466 17.4351 15.29 17.4351C15.114 17.4351 14.96 17.5231 14.96 17.6551C14.96 17.7651 14.762 17.8751 14.542 17.8751C14.3 17.8751 14.036 17.9851 13.948 18.1391C13.838 18.3151 13.926 18.3371 14.212 18.2491C14.586 18.1171 14.586 18.1171 14.278 18.3591C13.86 18.6891 13.2 19.9211 13.2 20.3611C13.2 20.5371 13.068 20.7351 12.914 20.8011C12.738 20.8671 12.386 21.3951 12.1 21.9671C11.836 22.5611 11.396 23.2431 11.154 23.5071C10.648 24.0351 10.34 25.8831 10.824 25.3991C11.154 25.0691 11.506 25.0471 11.33 25.3771C11.044 25.8391 11.902 26.4551 12.848 26.4551C13.728 26.4771 13.75 26.4771 13.2 26.7631C12.892 26.9391 12.584 27.0271 12.518 26.9831C12.43 26.9391 12.298 27.0491 12.232 27.2471C12.166 27.4231 12.012 27.5331 11.924 27.4671C11.814 27.4011 11.572 27.5551 11.374 27.7751C11.132 28.0611 10.868 28.1491 10.626 28.0611C10.274 27.9291 10.274 27.9511 10.538 28.2811C10.692 28.4791 10.736 28.6551 10.604 28.6551C10.34 28.6551 9.56998 30.1951 9.63598 30.6351C9.67998 30.8551 9.59198 30.8331 9.32798 30.5251C9.08598 30.2171 8.99798 30.1731 9.01998 30.4151C9.10798 31.0971 9.01998 31.5371 8.79998 31.4051C8.66798 31.3171 8.57998 31.5151 8.57998 31.8231C8.57998 32.1311 8.51398 32.3731 8.42598 32.3731C8.00798 32.3071 7.91998 32.4171 8.13998 32.8351C8.33798 33.1871 8.31598 33.2531 8.00798 33.1211C7.74398 33.0331 7.67798 33.0551 7.78798 33.2311C7.87598 33.3851 7.85398 33.4951 7.74398 33.4951C7.39198 33.4951 7.19398 35.0351 7.50198 35.3871C7.72198 35.6511 7.69998 35.6731 7.39198 35.5631C7.19398 35.4971 7.03998 35.5411 7.03998 35.6731C7.03998 35.8051 7.14998 35.9151 7.30398 35.9151C7.43598 35.9151 7.78798 36.1351 8.07398 36.3771C8.51398 36.7951 8.62398 36.8171 8.95398 36.5531C9.28398 36.2891 9.30598 36.2891 9.17398 36.6191C9.08598 36.8611 9.21798 37.1031 9.54798 37.3231C10.164 37.7191 10.516 37.5211 9.94398 37.1031C9.74598 36.9491 9.65798 36.7511 9.74598 36.6411C9.85598 36.5531 10.032 36.6411 10.142 36.8611C10.274 37.0591 10.45 37.1911 10.56 37.1251C10.67 37.0591 10.824 37.1251 10.912 37.2571C11 37.4331 10.978 37.4551 10.824 37.3671C10.67 37.2791 10.56 37.3231 10.56 37.4331C10.56 37.5651 10.758 37.6751 11.022 37.6751C11.264 37.6751 11.396 37.7631 11.33 37.8951C11.264 38.0051 11.352 38.1151 11.55 38.1151C11.77 38.1151 11.836 38.0051 11.748 37.8511C11.66 37.6971 11.682 37.6751 11.836 37.7631C11.99 37.8511 12.1 38.0491 12.1 38.2251C12.1 38.4011 12.188 38.5771 12.298 38.6431C12.408 38.7311 12.452 38.5551 12.386 38.2911C12.276 37.7851 12.276 37.7851 12.606 38.2251C12.804 38.4671 12.98 38.7971 12.98 38.9731C12.98 39.1271 13.112 39.2151 13.266 39.1491C13.42 39.0831 13.794 39.1711 14.102 39.3471C14.388 39.5011 14.872 39.6331 15.158 39.6551C15.51 39.6551 15.62 39.7431 15.532 39.9851C15.466 40.1831 15.598 40.4031 15.906 40.5351C16.39 40.7771 16.39 40.7771 15.95 40.4251C15.51 40.0511 15.532 40.0511 16.06 40.2051C16.368 40.2931 16.632 40.4691 16.676 40.5571C16.72 40.6671 16.874 40.7551 17.028 40.7551C17.16 40.7551 17.424 40.9531 17.6 41.1951C17.776 41.4371 18.04 41.6351 18.194 41.6351C18.326 41.6351 18.568 41.8111 18.678 42.0091C18.81 42.2291 18.92 42.3171 18.92 42.2291C18.92 42.1411 19.14 42.1851 19.426 42.3391C19.69 42.4711 20.02 42.6251 20.174 42.6471C20.328 42.6691 20.724 42.8891 21.054 43.1311C21.626 43.5271 22.22 43.7031 22.77 43.6371C22.902 43.6151 22.836 43.5051 22.66 43.3951C22.374 43.2191 22.374 43.1751 22.704 43.1751C22.902 43.1751 23.1 43.0431 23.166 42.8891C23.21 42.7571 23.342 42.6911 23.43 42.7791C23.518 42.8671 23.474 43.0871 23.32 43.2851C23.078 43.5711 23.1 43.5931 23.408 43.4831C23.672 43.3731 23.76 43.4831 23.76 43.9231C23.76 44.3631 23.87 44.4951 24.222 44.4951C24.618 44.4951 24.662 44.3851 24.596 43.5711C24.552 42.9771 24.42 42.6471 24.266 42.6691C24.112 42.7131 24.046 42.5811 24.112 42.4051C24.244 42.0971 24.552 41.9871 25.256 42.0091C25.388 42.0311 25.52 41.8991 25.52 41.7231C25.52 41.5691 25.696 41.4811 25.96 41.5251C26.202 41.5691 26.444 41.5251 26.51 41.4151C26.576 41.3051 26.774 41.2611 26.95 41.3491C27.28 41.4591 27.39 41.1951 27.28 40.5571C27.258 40.3371 27.39 40.2931 27.742 40.3811C28.072 40.4691 28.446 40.3371 28.886 39.9631C29.238 39.6771 29.612 39.4791 29.722 39.5451C29.832 39.6331 29.854 39.5231 29.788 39.3471C29.7 39.1051 29.788 38.9951 30.096 38.9951C30.338 38.9951 30.58 38.8851 30.624 38.7531C30.668 38.6211 30.91 38.4891 31.13 38.4671C31.746 38.4011 33.44 37.8951 33.44 37.7631C33.44 37.7191 33.176 37.7191 32.846 37.7851C32.274 37.8951 32.274 37.8951 32.736 37.6971C33 37.5651 33.22 37.3671 33.22 37.2351C33.22 37.1251 33.374 37.0151 33.55 37.0151C33.726 37.0151 33.88 36.8831 33.88 36.7291C33.88 36.5311 33.946 36.5531 34.078 36.7731C34.21 36.9711 34.43 37.0151 34.782 36.8831C35.068 36.7951 35.706 36.7291 36.19 36.7291C36.894 36.7291 36.938 36.7291 36.388 36.6411C35.816 36.5751 35.684 36.4651 35.728 36.0031C35.75 35.5851 35.86 35.4751 36.344 35.4751C36.806 35.4751 36.916 35.3871 36.85 35.0351C36.806 34.7931 36.696 34.4851 36.608 34.3311C36.52 34.1991 36.542 34.1551 36.674 34.2211C37.07 34.4631 37.224 33.2971 36.872 32.9451C36.696 32.7471 36.476 32.4171 36.41 32.1531C36.322 31.9111 36.146 31.7571 36.014 31.8011C35.618 31.9331 34.98 31.5371 34.98 31.1851C34.98 31.0091 34.892 30.8551 34.76 30.8551C34.65 30.8551 34.606 30.7231 34.672 30.5471C34.738 30.3491 34.606 30.1731 34.342 30.0851C34.078 30.0191 33.88 29.7551 33.88 29.5351C33.88 29.3151 33.726 28.9631 33.528 28.7871C33.352 28.5891 33.286 28.4351 33.44 28.4351C33.594 28.4351 33.572 28.3251 33.396 28.1271C33.242 27.9731 32.956 27.8851 32.78 27.9511C32.604 28.0171 32.516 27.9951 32.604 27.8851C32.846 27.6211 31.548 26.6751 30.91 26.6751C30.404 26.6751 30.36 26.6311 30.646 26.3451C30.822 26.1691 31.24 25.9931 31.57 25.9271C32.054 25.8391 32.12 25.8611 31.9 26.1471C31.746 26.3011 31.724 26.4551 31.834 26.4551C32.164 26.4551 32.56 25.9491 32.56 25.5311C32.56 25.3111 32.67 25.1351 32.802 25.1351C32.912 25.1351 32.956 25.2671 32.868 25.3991C32.736 25.6191 32.78 25.6191 33.044 25.3991C33.264 25.2231 33.374 24.9151 33.286 24.6291C33.22 24.3651 33.154 23.9691 33.154 23.7491C33.132 23.5511 33 23.3751 32.824 23.3751C32.67 23.3751 32.604 23.2651 32.67 23.1551C32.736 23.0231 32.692 22.9351 32.56 22.9351C32.428 22.9351 32.384 22.8251 32.45 22.7151C32.516 22.5831 32.428 22.4951 32.252 22.4951C32.054 22.4951 31.9 22.2971 31.9 22.0551C31.9 21.8131 31.79 21.6151 31.68 21.6151C31.526 21.6151 31.526 21.4611 31.68 21.1531C31.9 20.7791 31.878 20.7131 31.526 20.7791C31.24 20.8231 31.108 20.6691 30.998 20.0751C30.91 19.6571 30.844 19.3931 30.822 19.4811C30.822 19.5691 30.668 19.5251 30.492 19.3711C30.338 19.2171 30.228 18.9971 30.272 18.8651C30.316 18.7551 30.162 18.3371 29.92 17.9851C29.678 17.6111 29.48 17.4351 29.48 17.5671C29.48 17.6771 29.59 17.8971 29.744 18.0511C29.876 18.1831 29.942 18.3591 29.876 18.4471C29.788 18.5131 29.612 18.3371 29.458 18.0731C29.304 17.7871 29.084 17.4571 28.952 17.3251C28.622 16.9951 27.874 16.7311 28.05 16.9951C28.27 17.3471 27.962 17.2371 27.478 16.7971C27.06 16.4231 27.06 16.3571 27.39 16.0271C27.588 15.8291 27.83 15.7191 27.94 15.7851C28.204 15.9391 29.282 15.4331 29.15 15.2131C29.084 15.1251 29.238 14.9931 29.48 14.9051C29.964 14.7511 30.008 14.6191 29.7 14.1351C29.568 13.9371 29.59 13.7611 29.722 13.6731C29.876 13.5851 29.81 13.4091 29.59 13.1891C29.392 12.9911 29.216 12.6171 29.194 12.3751C29.172 12.1331 29.084 11.9351 28.974 11.9351C28.864 11.9351 28.842 12.1551 28.93 12.4191C29.04 12.8811 29.04 12.8811 28.732 12.3751C28.556 12.0671 28.468 11.7591 28.512 11.6711C28.578 11.5611 28.468 11.4951 28.27 11.4951C28.006 11.4951 27.984 11.4071 28.138 11.0991C28.27 10.8351 28.226 10.6371 27.984 10.3951C27.676 10.1091 27.654 10.1311 27.786 10.4611C27.874 10.7031 27.852 10.8131 27.72 10.7251C27.588 10.6591 27.5 10.3071 27.5 9.95512C27.5 9.00912 27.06 8.19512 26.466 8.06312C26.18 7.97512 25.96 7.84312 25.96 7.71112C25.96 7.60112 26.092 7.57912 26.246 7.64512C26.378 7.73312 26.29 7.60112 26.048 7.38112C25.784 7.16112 25.498 6.76512 25.41 6.47912C25.344 6.21512 25.168 5.99512 25.058 5.99512C24.948 5.99512 24.86 5.79712 24.86 5.55512C24.86 5.31312 24.706 5.04912 24.53 4.98312C24.354 4.89512 24.2 4.67512 24.2 4.43312C24.2 4.21312 24.024 3.92712 23.826 3.81712C23.606 3.68512 23.518 3.57512 23.606 3.57512C23.694 3.57512 23.65 3.35512 23.496 3.06912C23.342 2.80512 23.254 2.51912 23.276 2.40912C23.298 2.32112 23.21 2.25512 23.1 2.25512C22.99 2.25512 22.88 2.05712 22.88 1.81512C22.88 1.48512 22.748 1.37512 22.286 1.39712C21.934 1.39712 21.56 1.46312 21.406 1.52912ZM21.472 17.3691C21.406 17.4351 21.12 17.3471 20.834 17.1711C20.526 17.0171 19.8 16.6431 19.206 16.3351C18.634 16.0271 18.106 15.7411 18.04 15.6751C17.974 15.6091 17.578 15.3671 17.138 15.1471C16.72 14.9271 16.17 14.5971 15.95 14.4431C15.466 14.0911 15.488 14.0691 17.314 10.9891C17.952 9.93312 18.48 9.00912 18.48 8.94312C18.48 8.89912 18.722 8.48112 18.986 8.01912C19.272 7.57912 19.844 6.61112 20.24 5.90712C20.636 5.18112 21.076 4.47712 21.208 4.32312C21.384 4.14712 21.472 5.79712 21.516 10.6811C21.538 14.3111 21.516 17.3251 21.472 17.3691ZM23.76 5.88512C24.156 6.61112 24.728 7.57912 25.014 8.01912C25.278 8.48112 25.52 8.89912 25.52 8.96512C25.52 9.00912 25.894 9.69112 26.356 10.4391C26.818 11.2091 27.258 11.9791 27.346 12.1551C27.434 12.3311 27.698 12.7711 27.918 13.1451C28.512 14.0691 28.49 14.2451 27.676 14.6631C27.28 14.8611 26.466 15.3231 25.85 15.6971C25.256 16.0491 24.552 16.4451 24.31 16.5551C24.068 16.6871 23.54 16.9731 23.166 17.2151L22.44 17.6551V10.7911C22.44 3.17912 22.396 3.35512 23.76 5.88512ZM26.818 8.50312C26.994 8.72312 27.016 8.85512 26.84 8.96512C26.73 9.03112 26.62 8.96512 26.62 8.76712C26.62 8.59112 26.488 8.39312 26.356 8.34912C26.18 8.26112 26.158 8.21712 26.312 8.21712C26.444 8.19512 26.686 8.32712 26.818 8.50312ZM19.844 17.6551C20.416 18.0071 20.966 18.3151 21.054 18.3151C21.12 18.3151 21.384 18.4691 21.604 18.6891C21.978 19.0191 22.022 19.0191 22.396 18.6891C22.616 18.4691 22.88 18.3151 22.946 18.3151C23.034 18.3151 23.584 18.0071 24.2 17.6331C25.058 17.1051 25.432 16.9951 25.96 17.1051C26.312 17.1931 26.62 17.3251 26.62 17.3911C26.62 17.4791 26.928 17.6771 27.28 17.8311C28.072 18.1831 28.138 18.6671 27.456 18.8871C27.17 18.9751 26.906 19.0851 26.84 19.1731C26.774 19.2391 26.4 19.4811 26.004 19.6791C25.63 19.8991 24.97 20.2511 24.596 20.4491C24.2 20.6691 23.826 20.8891 23.76 20.9551C23.078 21.6591 21.34 22.1431 21.34 21.6151C21.34 21.4831 21.23 21.3951 21.076 21.3951C20.944 21.3951 20.108 20.9551 19.228 20.4051C18.37 19.8551 17.534 19.4151 17.402 19.4151C17.27 19.4151 17.16 19.3271 17.16 19.2171C17.16 19.1071 16.918 18.9531 16.61 18.8871C15.862 18.6891 15.906 18.2051 16.72 17.8311C17.094 17.6771 17.38 17.4791 17.38 17.3911C17.38 17.2371 17.886 17.0611 18.458 17.0171C18.634 17.0171 19.25 17.2811 19.844 17.6551ZM15.4 19.1951C15.4 19.3051 15.532 19.4151 15.708 19.4151C15.884 19.4151 16.17 19.5471 16.324 19.7011C16.478 19.8331 17.006 20.1631 17.49 20.4051C17.974 20.6471 18.502 20.9771 18.656 21.1091C18.81 21.2631 19.096 21.3951 19.272 21.3951C19.448 21.3951 19.58 21.4831 19.58 21.5931C19.58 21.7031 19.756 21.8351 19.976 21.9231C20.46 22.0771 21.186 22.5391 21.384 22.8251C21.472 22.9351 21.56 24.5631 21.56 26.4111V29.7771L21.076 29.6231C20.79 29.5351 20.196 29.2271 19.756 28.9631C19.294 28.6771 18.832 28.4351 18.7 28.4351C18.59 28.4351 18.48 28.3251 18.48 28.2151C18.48 28.0831 18.348 27.9951 18.172 27.9951C17.996 27.9951 17.71 27.8631 17.556 27.7091C17.27 27.4451 16.764 27.1591 15.18 26.3011C14.762 26.0811 14.3 25.7731 14.124 25.6191C13.97 25.4871 13.684 25.3551 13.508 25.3551C13.332 25.3551 13.2 25.2671 13.2 25.1571C13.2 25.0471 13.002 24.9151 12.76 24.8491C12.056 24.6731 12.012 24.1231 12.628 23.2211C12.936 22.7591 13.2 22.2751 13.2 22.1211C13.2 21.9671 13.31 21.8351 13.42 21.8351C13.552 21.8351 13.64 21.7251 13.64 21.5931C13.64 21.2631 15.026 18.9751 15.224 18.9751C15.334 18.9751 15.4 19.0631 15.4 19.1951ZM29.392 19.7891C29.612 20.2511 29.942 20.7571 30.096 20.9111C30.228 21.0651 30.36 21.3511 30.36 21.5271C30.36 21.7031 30.47 21.8351 30.58 21.8351C30.712 21.8351 30.8 21.9671 30.8 22.1431C30.8 22.3191 30.932 22.6051 31.086 22.7591C31.218 22.9131 31.526 23.3531 31.724 23.7271C32.098 24.4091 32.098 24.4091 31.504 24.7171C31.174 24.8931 30.778 25.1571 30.624 25.2891C30.47 25.4431 30.206 25.5751 30.03 25.5751C29.876 25.5751 29.7 25.6411 29.656 25.7291C29.634 25.8391 29.238 26.0811 28.82 26.3231C26.774 27.4011 25.63 28.0831 25.564 28.2371C25.52 28.3471 25.388 28.4351 25.278 28.4351C25.168 28.4351 24.706 28.6771 24.244 28.9631C23.804 29.2271 23.21 29.5351 22.946 29.6231L22.44 29.7771V26.4111C22.44 24.5631 22.528 22.9351 22.616 22.8251C22.814 22.5391 23.54 22.0771 24.046 21.9231C24.244 21.8351 24.42 21.7031 24.42 21.5931C24.42 21.4831 24.552 21.3951 24.728 21.3951C24.904 21.3951 25.19 21.2631 25.344 21.1091C25.498 20.9771 26.026 20.6471 26.51 20.4051C26.994 20.1631 27.522 19.8331 27.676 19.7011C27.83 19.5471 28.116 19.4151 28.292 19.4151C28.468 19.4151 28.6 19.3051 28.6 19.1951C28.6 18.7111 28.996 19.0191 29.392 19.7891ZM12.716 26.0371C13.244 26.0811 13.266 26.0811 12.804 26.1691C12.276 26.2791 11.66 25.9051 11.66 25.4871C11.66 25.3551 11.77 25.4211 11.902 25.6191C12.012 25.8391 12.386 26.0371 12.716 26.0371ZM15.62 27.5771C15.62 27.6871 15.752 27.7751 15.928 27.7751C16.104 27.7751 16.39 27.9071 16.544 28.0391C16.698 28.1931 17.138 28.4791 17.49 28.6771C20.174 30.1511 20.856 30.5251 21.384 30.8991L21.978 31.3171L23.144 30.5911C23.782 30.1951 24.508 29.7551 24.75 29.6011C24.992 29.4471 25.63 29.1171 26.18 28.8531C26.73 28.5671 27.214 28.2811 27.28 28.1931C27.346 28.1271 27.786 27.8411 28.248 27.5991L29.106 27.1371L30.404 27.8191C31.46 28.3691 31.636 28.5671 31.416 28.7871C31.152 29.0291 28.49 30.5911 25.74 32.1311C25.19 32.4391 24.376 32.9231 23.936 33.2091C23.474 33.4731 23.012 33.7151 22.902 33.7151C22.792 33.7151 22.594 33.8691 22.44 34.0451C22.154 34.3971 22.462 34.5511 18.15 32.0871C16.94 31.4051 15.796 30.7451 15.62 30.6351C15.444 30.5251 14.872 30.2171 14.388 29.9531C13.882 29.6891 13.2 29.2711 12.87 29.0071L12.276 28.5231L13.53 27.8411C14.696 27.2251 15.62 27.1151 15.62 27.5771ZM13.992 30.6791C15.07 31.3171 16.346 32.0431 16.83 32.2851C17.314 32.5271 17.842 32.8571 17.996 32.9891C18.15 33.1431 18.436 33.2751 18.612 33.2751C18.788 33.2751 18.92 33.3631 18.92 33.4731C18.92 33.5831 19.096 33.7151 19.316 33.8031C19.514 33.8691 20.086 34.1771 20.57 34.4631L21.45 34.9911L21.516 38.5331C21.56 41.5031 21.516 42.0751 21.252 42.0751C21.076 42.0751 20.9 42.0091 20.856 41.8991C20.834 41.8111 20.46 41.5691 20.086 41.3491C18.282 40.4031 17.93 40.1831 17.644 39.9191C17.49 39.7871 17.226 39.6551 17.05 39.6551C16.896 39.6551 16.72 39.5891 16.676 39.4791C16.632 39.3911 16.28 39.1491 15.906 38.9511C14.102 37.9831 13.75 37.7631 13.464 37.4991C13.31 37.3671 13.024 37.2351 12.848 37.2351C12.672 37.2351 12.54 37.1691 12.54 37.0591C12.54 36.9711 12.32 36.7951 12.034 36.6631C10.956 36.1571 9.56998 35.3651 9.50398 35.1891C9.45998 35.1011 9.30598 35.0351 9.15198 35.0351C8.49198 35.0351 8.38198 34.5511 8.88798 33.7371C9.17398 33.2971 9.72398 32.3511 10.12 31.6251C11.22 29.6451 11.308 29.5351 11.66 29.5351C11.858 29.5351 12.892 30.0631 13.992 30.6791ZM33.088 30.2391C33.286 30.6351 33.55 31.1191 33.66 31.2951C35.134 33.6271 35.574 34.5731 35.354 34.7931C35.222 34.9251 35.002 35.0351 34.848 35.0351C34.694 35.0351 34.54 35.1011 34.496 35.1891C34.474 35.2991 34.1 35.5411 33.726 35.7391C31.922 36.7071 31.57 36.9271 31.284 37.1691C31.13 37.3231 30.866 37.4551 30.69 37.4551C30.536 37.4551 30.36 37.5211 30.316 37.6091C30.25 37.7631 29.942 37.9611 28.05 38.9731C27.698 39.1711 27.368 39.3911 27.324 39.4791C27.28 39.5891 27.104 39.6551 26.95 39.6551C26.774 39.6551 26.51 39.7871 26.356 39.9191C26.07 40.1831 25.718 40.4031 23.936 41.3491C23.54 41.5691 23.188 41.8111 23.144 41.8991C23.1 42.0091 22.924 42.0751 22.748 42.0751C22.484 42.0751 22.44 41.5031 22.484 38.5331L22.55 34.9911L23.43 34.4631C23.914 34.1771 24.486 33.8691 24.706 33.8031C24.904 33.7151 25.08 33.5831 25.08 33.4731C25.08 33.3631 25.212 33.2751 25.388 33.2751C25.564 33.2751 25.85 33.1431 26.004 32.9891C26.158 32.8571 26.686 32.5271 27.17 32.2851C27.654 32.0431 28.666 31.4711 29.436 31.0311C30.184 30.5691 30.888 30.1951 30.998 30.1951C31.108 30.1951 31.306 30.0411 31.46 29.8651C31.944 29.2931 32.692 29.4691 33.088 30.2391ZM36.3 32.5931C36.366 32.6151 36.256 32.7251 36.08 32.8351C35.794 33.0111 35.816 33.0551 36.146 33.0551C36.366 33.0551 36.498 33.1431 36.41 33.2751C36.234 33.5831 35.706 33.3191 35.574 32.8351C35.508 32.5711 35.574 32.4611 35.838 32.5051C36.036 32.5491 36.234 32.5931 36.3 32.5931Z" fill="#111111"/>
</g>
<defs>
<clipPath id="clip0_93_3380">
<rect width="44" height="44" fill="white" transform="translate(0 0.495117)"/>
</clipPath>
</defs>
</svg>
