<svg width="50" height="51" viewBox="0 0 50 51" fill="none" xmlns="http://www.w3.org/2000/svg">
<path d="M38.8686 28.971C38.8611 28.9268 38.9016 28.8644 38.9037 28.8123C38.9131 28.5939 38.9412 28.513 38.9571 28.3154C38.9808 28.0224 38.9275 27.153 39.2091 27.1529C39.2091 27.1529 39.2091 27.1529 39.2092 27.1529C39.2119 27.1529 39.2147 27.153 39.2175 27.1532C39.2712 27.1562 39.3297 27.2302 39.3904 27.2412C39.4511 27.2521 39.8429 27.2439 39.865 27.3489C39.894 27.5012 39.7935 27.8666 39.798 27.9478C39.8011 28.0033 39.8367 28.0717 39.843 28.1427C39.8634 28.3716 39.8373 28.4914 39.9341 28.6977C39.8831 28.7802 39.8321 28.8627 39.7811 28.9452C39.8048 29.0529 39.7375 29.216 39.7412 29.2814C39.7443 29.3351 39.7846 29.3665 39.7865 29.4224C39.7888 29.4851 39.7453 29.5815 39.7518 29.6955C39.7624 29.8826 39.8676 29.9158 39.8809 30.0281C39.8947 30.1444 39.8376 30.3254 39.8746 30.4739C39.8862 30.4925 39.8977 30.5111 39.9093 30.5297C39.9355 30.5164 39.9616 30.503 39.9878 30.4897C40 30.5645 39.9464 30.5967 39.9454 30.6654C39.9442 30.7462 39.9951 30.7875 39.9948 30.8419C39.9946 30.8865 39.9538 30.9469 39.9564 31.0047C39.9599 31.0889 40.0187 31.0705 40.0298 31.1158C40.034 31.1339 40.0665 31.4684 40.067 31.4873C40.0693 31.6308 39.9887 31.6433 39.9817 31.7577C39.9625 32.0751 40.0276 32.4009 40.0522 32.6944C40.0632 32.8255 40.0585 32.9623 40.0456 33.093C39.8394 32.8871 39.6789 33.3427 40.0016 33.1723C39.9557 33.3178 40.0428 33.4209 40.0281 33.5588C40.0185 33.6479 39.9737 33.7096 39.9749 33.837C39.9773 34.0629 40.1044 34.31 39.8746 34.375C39.8814 34.4198 39.8847 34.4636 39.8865 34.5059L39.866 35.1989L39.2958 34.847C39.1112 34.7504 38.9768 34.6392 38.8237 34.7456C38.7582 34.7221 38.6669 34.5299 38.6086 34.4773C38.5535 34.4276 38.0987 34.1022 38.0214 34.054C37.944 34.0059 37.8076 33.9233 37.7323 33.9004C37.6379 33.8713 37.4744 34.0199 37.4488 33.7211C37.2661 33.6386 37.2081 33.597 37.0617 33.4795C37.0352 33.4583 37.0502 33.4247 37.0332 33.4149C36.9982 33.3947 36.9251 33.3837 36.861 33.3505C36.7556 33.2959 36.7353 33.1955 36.6881 33.3038C36.6105 33.2817 36.5329 33.2597 36.4554 33.2376C36.4429 33.2043 36.4305 33.1709 36.418 33.1376C36.3695 33.1381 36.3209 33.1386 36.2724 33.139C36.3998 33.0165 36.0948 32.9562 36.1288 33.0884C36.0151 32.9821 35.9013 32.8759 35.7876 32.7697C35.9024 32.613 35.5104 32.584 35.4837 32.6898C35.4688 32.681 35.4538 32.6722 35.4389 32.6634C35.333 32.543 35.1912 32.5097 35.048 32.3873C34.9049 32.2649 34.9294 32.2573 34.925 32.1523C34.8847 32.1349 34.8445 32.1175 34.8042 32.1002C34.5964 32.163 34.6275 32.0392 34.5559 31.9356L34.4308 31.8576L34.4352 31.7265C34.4642 31.6652 34.4734 31.5811 34.408 31.4442C34.561 31.3191 34.4807 31.0108 34.4343 30.8064C34.4289 30.7827 34.3992 30.7822 34.39 30.7506C34.368 30.6731 34.4062 30.4755 34.3104 30.4823C34.3381 30.4139 34.3658 30.3454 34.3935 30.277C34.3761 30.2211 34.3587 30.1652 34.3413 30.1093C34.3113 30.1096 34.2814 30.1099 34.2515 30.1101C34.2976 30.0593 34.3148 29.9953 34.3222 29.9324L34.4995 30.2394C34.4377 30.1935 34.3701 30.1611 34.3353 30.1256C34.3228 30.1126 34.3401 30.075 34.299 30.0383C34.251 29.9952 34.1431 29.947 34.0844 29.8983C34.0362 29.9233 33.9881 29.9482 33.9399 29.9732C33.8111 29.9275 33.8304 29.7994 33.7667 29.7518C33.7552 29.7433 33.5262 29.6212 33.5128 29.6164C33.4036 29.5769 33.3803 29.6822 33.1047 29.4977C33.0556 29.4648 33.0321 29.4102 32.9867 29.3824C32.9065 29.3331 32.6207 29.2613 32.5641 29.3147C32.5119 29.1769 32.2284 29.0574 32.164 28.9891C32.1446 28.9684 32.169 28.9138 32.1031 28.8612C32.0497 28.8185 31.875 28.7726 31.8047 28.7229C31.7302 28.6699 31.727 28.6104 31.6934 28.5869C31.6617 28.5648 31.6107 28.582 31.5654 28.5555C31.4241 28.4724 31.3279 28.342 31.2162 28.2762C31.214 28.2749 31.2117 28.2736 31.2094 28.2723C31.049 28.1812 30.8494 28.2006 30.6894 28.1684C30.6596 28.1423 30.6393 28.101 30.6041 28.0803C30.2829 27.8914 29.9361 27.6762 29.6053 27.4656L29.3986 27.3366L29.4059 27.1199C29.4118 26.981 29.4182 26.8443 29.4249 26.7118C29.4366 26.4768 29.5986 25.8923 29.3284 26.0483C29.2811 25.9666 29.39 25.3728 29.3917 25.2598C29.3933 25.1469 29.3448 25.0573 29.3441 24.9686C29.342 24.7007 29.3769 24.5121 29.3347 24.186C29.3237 24.1018 29.2663 24.0116 29.267 23.9617C29.2679 23.9016 29.3234 23.837 29.327 23.7592C29.3349 23.5737 29.3167 23.228 29.3263 23.05C29.3281 23.0175 29.3769 23.0061 29.3921 22.9596C29.4516 22.7786 29.4465 22.5758 29.2909 22.6117C29.3792 22.3797 29.2986 22.1651 29.2937 21.9502C29.2912 21.8389 29.2915 21.7052 29.2925 21.561L29.3191 20.6585L30.0616 21.1169C30.4455 21.3418 30.9135 21.622 31.1972 21.7287C31.3984 21.8044 31.4498 21.7699 31.6375 21.9024C31.6707 21.9259 31.7083 21.9546 31.7516 21.9902C31.8156 22.0425 31.877 22.0987 31.9547 22.162C32.1369 22.3105 32.2567 22.5286 32.4875 22.4824C32.6905 22.6462 32.8825 22.724 32.9816 22.9347C33.017 22.9183 33.0525 22.902 33.0879 22.8857C33.1157 22.9008 33.1434 22.9159 33.1712 22.931C33.1645 22.9623 33.1579 22.9935 33.1512 23.0248C33.3431 23.145 33.6542 23.1804 33.8196 23.2769C34.097 23.4387 34.7891 23.8944 35.0323 24.0822C35.1614 24.1819 35.2015 24.1298 35.2147 24.292C35.2507 24.302 35.2867 24.312 35.3226 24.3221C35.3569 24.308 35.3911 24.2939 35.4254 24.2799C35.6056 24.3826 35.7959 24.545 35.9673 24.6434C36.0874 24.7123 36.2365 24.7844 36.3908 24.8599C36.6378 24.9806 36.8983 25.1101 37.0747 25.2496C37.1466 25.3064 37.2146 25.4154 37.2918 25.4592C37.4042 25.5229 37.4815 25.4518 37.6245 25.5321C37.8708 25.6707 38.2685 26.0346 38.5043 26.1604C38.5743 26.1978 38.625 26.184 38.6744 26.2079C38.882 26.3079 39.0438 26.4048 39.2634 26.465C39.4203 26.6664 39.3406 26.7636 39.3415 26.9086C39.3425 27.0182 39.3806 27.2929 39.3602 27.3766C39.3459 27.4354 39.2536 27.4685 39.2422 27.5358C38.9713 27.4384 38.8963 27.3302 38.7419 27.1373C38.3721 26.9281 38.0022 26.7188 37.6324 26.5095C37.6163 26.46 37.6003 26.4104 37.5843 26.3609C37.5843 26.3608 37.5843 26.3607 37.5844 26.3607C37.4632 26.2442 37.3583 26.2875 37.2719 26.2612C36.9058 26.1498 36.4354 25.8995 35.9561 25.6132C35.3521 25.2522 34.734 24.8342 34.2923 24.565C34.1215 24.461 33.5349 24.1766 33.4445 24.0589C33.4212 24.0283 33.4395 23.9768 33.408 23.9559C33.0997 23.8148 32.7914 23.6738 32.4831 23.5327C32.0732 23.2253 31.6114 22.9826 31.153 22.7416C30.9859 22.6538 30.8193 22.5662 30.6558 22.4758C30.3067 22.2828 29.9582 22.0905 29.6105 21.8983L30.1947 21.561C30.2226 23.0483 30.2469 24.5247 30.2367 25.9936C30.2342 26.3391 30.2713 26.774 30.2512 27.1199L30.0285 26.7338C30.0403 26.7416 30.052 26.7494 30.0634 26.7572C30.1853 26.8401 30.195 26.9456 30.3944 26.9865C30.3845 27.0076 30.3746 27.0288 30.3647 27.05C30.5246 27.11 30.6443 27.118 30.8106 27.2079C30.9505 27.2837 31.3166 27.4913 31.4338 27.5694C31.4947 27.6097 31.4494 27.6338 31.5083 27.6676C31.5196 27.6741 31.5327 27.6807 31.5472 27.6875C31.6626 27.7412 31.8701 27.8061 31.9937 27.8774C32.1197 27.9501 32.307 28.1161 32.4075 28.1657C32.7693 28.3447 33.1864 28.4995 33.5482 28.7313C33.6481 28.7954 33.752 28.9205 33.7849 28.9377C33.8494 28.9711 33.8955 28.9344 33.9412 28.9527C34.1734 29.0455 34.4749 29.2947 34.6837 29.4181C34.7553 29.4604 34.8275 29.5027 34.9001 29.5449L35.1147 29.6592L35.1239 29.9324C35.1221 30.5234 35.1343 31.1346 35.1335 31.7265L34.9049 31.3308C35.0125 31.393 35.119 31.4554 35.2241 31.5178C35.6515 31.7718 36.372 32.1765 36.749 32.4416C36.8303 32.4988 36.7774 32.5377 36.8494 32.5792C36.9292 32.6253 36.9927 32.6151 37.0317 32.6337C37.3014 32.7629 37.8919 33.0563 38.1149 33.2329C38.1574 33.2666 38.1675 33.3268 38.1954 33.3427C38.2095 33.3508 38.2573 33.3414 38.3032 33.364C38.7077 33.564 38.9828 33.7443 39.3595 33.9744C39.4656 34.0392 39.5752 34.104 39.6872 34.1688L39.1034 34.5059C39.1042 33.7555 39.0648 32.9318 39.0923 32.1745C39.0994 31.9811 39.1925 31.8484 39.1915 31.8212C39.1896 31.7615 39.127 31.7233 39.1116 31.6024C39.0607 31.2004 39.1275 30.659 39.0962 30.2767C39.0807 30.0878 39.0012 29.8282 38.9836 29.6424C38.9696 29.4939 39.0007 29.1433 38.9658 29.0775C38.9448 29.0374 38.877 29.0189 38.8686 28.971ZM39.9226 33.9726C39.8144 33.9461 39.9044 34.2241 39.9625 34.1198C39.9756 34.0963 39.9507 33.9794 39.9226 33.9726ZM30.1142 27.5781C30.101 27.6061 30.0877 27.6342 30.0744 27.6622C30.1124 27.6693 30.1505 27.6765 30.1885 27.6836C30.1801 27.6572 30.1716 27.6309 30.1632 27.6045C30.1469 27.5957 30.1305 27.5869 30.1142 27.5781Z" fill="#111111"/>
<path d="M20.1472 21.543V27.1349L18.6213 28.0172L15.3641 29.8959V31.6569L10.5221 34.4547V27.1018L13.7795 25.2194L18.592 22.44L20.1472 21.543Z" fill="#FCEB5F"/>
<path d="M19.8638 23.3541C19.8616 23.31 19.8815 23.2479 19.8837 23.196C19.8933 22.9784 19.9076 22.8978 19.9189 22.701C19.9349 22.4091 19.9365 21.543 20.0408 21.543C20.0408 21.543 20.0408 21.543 20.0408 21.543C20.0419 21.543 20.0429 21.5431 20.044 21.5432C20.064 21.5463 20.0854 21.6199 20.1084 21.6309C20.1314 21.6418 20.2796 21.6336 20.29 21.7382C20.3042 21.8899 20.27 22.2539 20.2724 22.3348C20.2744 22.3901 20.2901 22.4582 20.2938 22.529C20.3061 22.757 20.2961 22.8764 20.3425 23.0818C20.3215 23.164 20.2999 23.2462 20.2778 23.3284C20.29 23.4357 20.261 23.5982 20.2632 23.6633C20.2652 23.7168 20.2845 23.7481 20.2861 23.8038C20.288 23.8663 20.2683 23.9622 20.2726 24.0759C20.2796 24.2622 20.3319 24.2954 20.3403 24.4071C20.3492 24.5231 20.3229 24.7033 20.344 24.8513C20.3502 24.8698 20.3565 24.8884 20.3628 24.9069C20.3761 24.8936 20.3894 24.8803 20.4027 24.867C20.4105 24.9415 20.3832 24.9736 20.3839 25.042C20.3847 25.1226 20.4122 25.1637 20.4132 25.2179C20.414 25.2623 20.3934 25.3225 20.3958 25.38C20.3992 25.464 20.4306 25.4456 20.4374 25.4908C20.44 25.5088 20.465 25.842 20.4657 25.8608C20.4702 26.0038 20.4253 26.0162 20.4234 26.1302C20.4181 26.4464 20.4615 26.7709 20.4825 27.0634C20.4842 27.087 20.4855 27.1109 20.4866 27.1349L20.482 27.3383L20.3171 27.4288C20.2258 27.4872 20.1297 27.542 20.0352 27.5915C20.148 27.377 19.7085 27.5237 19.9539 27.609C19.8156 27.6591 19.7547 27.7589 19.6325 27.822C19.5534 27.8627 19.4865 27.8699 19.3781 27.9358C19.1856 28.0525 19.0167 28.2522 18.8855 28.1546C18.8409 28.1876 18.7959 28.2168 18.7524 28.2438C18.5871 28.3462 18.4439 28.4161 18.4336 28.549C18.3794 28.5915 18.1885 28.6099 18.117 28.639C18.0498 28.667 17.5536 28.9166 17.4743 28.9606C17.3951 29.0049 17.2572 29.0836 17.1978 29.1335C17.1229 29.1958 17.1419 29.363 16.9054 29.2949C16.7415 29.4085 16.6781 29.4402 16.5083 29.5157C16.4776 29.5293 16.4607 29.5077 16.4439 29.5176C16.4092 29.538 16.3602 29.5901 16.2995 29.6288C16.1997 29.6923 16.1126 29.6762 16.1682 29.7463C16.1085 29.7988 16.0489 29.8514 15.9893 29.9041C15.9572 29.9031 15.925 29.902 15.8929 29.9009C15.8664 29.9384 15.84 29.976 15.8136 30.0136C15.7906 29.8759 15.5764 30.0914 15.696 30.1082C15.6386 30.1297 15.5811 30.1511 15.5236 30.1724L15.6833 29.8959C15.668 29.9864 15.6524 30.077 15.6368 30.1675C15.4854 30.1464 15.6217 30.4992 15.705 30.4695C15.7051 30.4868 15.7051 30.504 15.7052 30.5213C15.6661 30.6726 15.701 30.8116 15.6752 30.996C15.6492 31.1804 15.6338 31.1631 15.5623 31.2192C15.5666 31.2626 15.571 31.306 15.5755 31.3494C15.7097 31.5023 15.5992 31.5344 15.5581 31.6569L15.5564 31.7718L15.4611 31.8249C15.3992 31.8376 15.3268 31.8756 15.2416 31.9844C15.0707 31.9377 14.8385 32.1496 14.6824 32.2865C14.6642 32.3024 14.6764 32.3243 14.6531 32.3469C14.5958 32.4021 14.4098 32.4736 14.4563 32.5407C14.3858 32.5549 14.3153 32.569 14.2446 32.5829C14.204 32.624 14.1634 32.6651 14.1229 32.7062C14.1359 32.7283 14.149 32.7504 14.1621 32.7724C14.0217 32.7537 13.8865 32.872 13.801 32.8979C13.784 32.9029 13.7629 32.8739 13.7116 32.8926C13.6516 32.9143 13.5558 32.9827 13.4855 33.0108C13.4803 33.06 13.4752 33.1093 13.4701 33.1587C13.3655 33.2455 13.272 33.1778 13.2 33.2103C13.1871 33.2162 12.9679 33.3534 12.9571 33.3624C12.8678 33.4357 12.9412 33.4983 12.6474 33.6485C12.595 33.6752 12.5381 33.6717 12.4917 33.6974C12.4097 33.7428 12.2025 33.9486 12.2171 34.0183C12.0771 34.0031 11.8321 34.1871 11.7427 34.2113C11.7156 34.2185 11.6832 34.1747 11.6057 34.2067C11.5429 34.2325 11.415 34.358 11.3376 34.3949C11.2554 34.4339 11.2044 34.4104 11.1677 34.4281C11.1331 34.4449 11.1211 34.4949 11.0758 34.5212C10.9343 34.6027 10.7765 34.6252 10.6644 34.6893C10.6627 34.6903 10.661 34.6913 10.6593 34.6923L10.2439 34.9278L10.2478 34.4547C10.2464 34.2705 10.136 34.1074 10.0858 33.9528C10.0928 33.9141 10.1166 33.876 10.1166 33.8353C10.117 33.3325 10.1347 32.7653 10.1571 32.2609C10.167 32.0268 10.3217 31.4446 10.061 31.6C10.0147 31.5186 10.1176 30.927 10.119 30.8145C10.1202 30.702 10.0726 30.6128 10.0715 30.5243C10.0684 30.2575 10.102 30.0696 10.0594 29.7448C10.0483 29.6609 9.99146 29.571 9.99192 29.5213C9.99261 29.4614 10.0471 29.397 10.0503 29.3195C10.0576 29.1347 10.0385 28.7903 10.0476 28.613C10.0494 28.5807 10.0976 28.5693 10.1126 28.523C10.1712 28.3427 10.1658 28.1406 10.0114 28.1764C10.0985 27.9453 10.0181 27.7316 10.0127 27.5174C10.0099 27.3994 10.0101 27.2561 10.0109 27.1018L10.0115 26.8058L10.2663 26.6592C10.6466 26.4421 11.1062 26.1844 11.3345 25.9965C11.5291 25.8362 11.4887 25.779 11.8359 25.6479C11.8409 25.646 11.846 25.6441 11.8511 25.6422C11.9234 25.6154 11.9982 25.5916 12.0855 25.5585C12.3046 25.4759 12.5528 25.4817 12.6285 25.2606C12.8716 25.1683 13.0357 25.0437 13.2669 25.0631C13.2707 25.0249 13.2746 24.9868 13.2785 24.9487C13.3056 24.9326 13.3326 24.9165 13.3597 24.9004C13.3831 24.9214 13.4065 24.9423 13.43 24.9632C13.4791 24.9378 13.5275 24.9037 13.575 24.8656C13.7215 24.7481 13.8605 24.5924 13.987 24.5233C14.2675 24.3693 15.0135 24.0134 15.2981 23.8997C15.4492 23.8391 15.4283 23.7857 15.5679 23.843C15.5954 23.8186 15.6229 23.7942 15.6505 23.7699C15.6575 23.737 15.6646 23.7042 15.6718 23.6716C15.8533 23.5727 16.0883 23.4896 16.2614 23.3957C16.5762 23.2235 17.0223 22.9189 17.3613 22.7856C17.4462 22.7521 17.5673 22.736 17.6451 22.6939C17.7584 22.6326 17.7521 22.5592 17.8969 22.4833C18.0387 22.4089 18.263 22.3201 18.4717 22.2318C18.6304 22.1649 18.7802 22.0986 18.881 22.0436C18.9504 22.0057 18.9732 21.9716 19.0208 21.9448C19.2203 21.8327 19.3881 21.7477 19.5719 21.627C19.8043 21.5583 19.8111 21.611 19.901 21.6207C19.9695 21.6286 20.1581 21.616 20.1934 21.6289C20.2185 21.6386 20.1794 21.6973 20.2115 21.7054C19.9856 21.8788 19.8766 21.9272 19.6625 22.0148C19.3428 22.2209 19.0227 22.4264 18.7023 22.6312C18.6658 22.6545 18.6292 22.6779 18.5926 22.7013C18.5494 22.7035 18.506 22.7053 18.4623 22.7068C18.4623 22.7067 18.4623 22.7067 18.4623 22.7066C18.311 22.7698 18.2808 22.8552 18.2132 22.9135C17.5696 23.4774 16.1158 24.2634 15.3086 24.7134C15.1358 24.8123 14.6024 25.1838 14.4577 25.2066C14.4203 25.2125 14.3861 25.1729 14.3525 25.1901C14.2136 25.2901 14.0748 25.3902 13.936 25.4904C13.8008 25.588 13.6656 25.6856 13.5303 25.7832C13.1109 25.9666 12.7143 26.2098 12.322 26.4571C12.1181 26.5856 11.9154 26.7153 11.7112 26.8383C11.3789 27.0384 11.0473 27.2384 10.7161 27.4376L10.9099 27.1018C10.9362 28.5929 10.956 30.073 10.9395 31.5454C10.9355 31.9038 10.9718 32.3585 10.945 32.7093C10.9339 32.8557 10.8514 32.9167 10.9117 33.109C10.8895 33.111 10.8674 33.113 10.8453 33.1151C10.8713 33.2829 10.9208 33.3902 10.9248 33.5783C10.9281 33.7368 10.9287 34.156 10.9195 34.2961C10.9149 34.3687 10.8745 34.3417 10.8743 34.4094C10.8743 34.4228 10.8751 34.4381 10.8764 34.4547L10.3448 34.148C10.4497 34.0759 10.6104 33.9343 10.7333 33.8645C10.8593 33.7929 11.0947 33.712 11.1882 33.6511C11.525 33.432 11.8717 33.1585 12.2528 32.9635C12.3582 32.9097 12.5154 32.8782 12.5469 32.8587C12.6083 32.8205 12.6027 32.7679 12.6419 32.7386C12.8408 32.5902 13.204 32.4507 13.4154 32.3336C13.9942 32.0132 14.5923 31.6603 15.1764 31.3322L14.989 31.6569C14.9905 31.5293 14.9925 31.4026 14.9952 31.2771C15.0032 30.9039 15.0065 30.3446 15.0237 29.8959L15.0204 29.7051L15.194 29.601C15.324 29.5325 15.4444 29.4712 15.5466 29.4227C15.636 29.3804 15.636 29.4329 15.7081 29.3922C15.7881 29.3471 15.8161 29.2961 15.8522 29.2729C16.1023 29.1121 16.6596 28.7661 16.9193 28.6551C16.9688 28.634 17.0194 28.6442 17.0472 28.6284C17.0613 28.6205 17.0817 28.5827 17.1249 28.5558C17.506 28.3186 17.7982 28.1705 18.1855 27.9621C18.2863 27.9079 18.3887 27.8516 18.4924 27.7937C18.985 27.5181 19.5082 27.2088 20.0236 26.9212L19.9003 27.1349C19.9033 26.9356 19.9079 26.7384 19.9148 26.5454C19.922 26.3527 19.9767 26.2206 19.9763 26.1935C19.9759 26.134 19.941 26.0959 19.9341 25.9755C19.9121 25.575 19.9565 25.0357 19.9459 24.6548C19.9408 24.4667 19.9062 24.2081 19.9019 24.0229C19.8983 23.875 19.9202 23.5257 19.9056 23.4602C19.8968 23.4203 19.8664 23.4018 19.8638 23.3541ZM19.2454 27.9762C19.2331 27.9023 19.0243 28.0944 19.1324 28.0739C19.1568 28.0692 19.2486 27.9953 19.2454 27.9762ZM10.2925 33.1624C10.2632 33.1649 10.2338 33.1675 10.2045 33.17C10.2169 33.2064 10.2292 33.2427 10.2416 33.2791C10.2591 33.2586 10.2766 33.2382 10.2942 33.2178C10.2936 33.1993 10.2931 33.1809 10.2925 33.1624Z" fill="#111111"/>
<path d="M46.9117 22.1474C46.954 22.1143 47.0392 22.1119 47.0946 22.0824C47.3268 21.9592 47.4251 21.9348 47.6389 21.8298C47.9559 21.6741 48.8351 21.105 48.9759 21.3488C48.9759 21.3488 48.9759 21.3488 48.9759 21.3488C48.9773 21.3512 48.9786 21.3537 48.9798 21.3563C49.0035 21.4045 48.9557 21.4997 48.9746 21.5589C48.9936 21.618 49.198 21.9524 49.0996 22.0347C48.9555 22.1514 48.5247 22.2842 48.4423 22.3369C48.386 22.3729 48.3326 22.4449 48.2617 22.4931C48.0334 22.6484 47.8956 22.6979 47.7291 22.9058C47.6177 22.9113 47.5062 22.9167 47.3948 22.9222C47.2945 23.0074 47.0909 23.0473 47.0246 23.0898C46.9702 23.1248 46.9576 23.1786 46.9003 23.2138C46.8361 23.2536 46.714 23.2738 46.5985 23.3481C46.4089 23.4697 46.4268 23.5809 46.3166 23.6599C46.2023 23.7419 45.9852 23.8012 45.849 23.9226C45.8354 23.9438 45.8218 23.965 45.8082 23.9862C45.8352 24.0009 45.8622 24.0155 45.8891 24.0302C45.8173 24.0857 45.757 24.0586 45.6849 24.0991C45.6001 24.1467 45.5826 24.2155 45.5258 24.2481C45.4792 24.2747 45.3959 24.2757 45.3369 24.3127C45.2509 24.3664 45.2996 24.4063 45.2578 24.4431C45.2411 24.4577 44.9089 24.687 44.8895 24.6987C44.7412 24.7871 44.6879 24.7248 44.5651 24.7875C44.2249 24.9618 43.9181 25.2141 43.6245 25.412C43.4935 25.5004 43.3487 25.5786 43.206 25.6461C43.3174 25.3436 42.7625 25.4787 43.1014 25.6557C43.0619 25.6664 43.0282 25.6818 42.9978 25.6999C42.8938 25.762 42.8292 25.8567 42.7123 25.911C42.6146 25.9564 42.528 25.9548 42.3959 26.0324C42.1618 26.1704 41.9681 26.4293 41.7854 26.2694C41.5294 26.4641 41.2485 26.5301 41.2504 26.7634C41.1854 26.8153 40.9424 26.8161 40.8543 26.8481C40.771 26.8783 40.164 27.1661 40.0676 27.2182C39.9713 27.2704 39.8036 27.3635 39.7326 27.425C39.7133 27.4417 39.6999 27.4651 39.6876 27.4905L39.4802 27.6027L39.298 27.4906C39.1957 27.498 39.0784 27.5317 39.0347 27.2836C38.8169 27.181 38.7464 27.1322 38.5674 26.9959C38.535 26.9712 38.5493 26.9373 38.5289 26.9255C38.4868 26.9012 38.4016 26.8832 38.3248 26.8427C38.1985 26.7761 38.1664 26.6688 38.1215 26.7784C38.0301 26.7485 37.9388 26.7185 37.8475 26.6885C37.8302 26.6524 37.8129 26.6163 37.7957 26.5801C37.7398 26.5764 37.6839 26.5726 37.6279 26.5689C37.764 26.4513 37.4073 26.3612 37.4581 26.5031C37.3177 26.3815 37.1773 26.2599 37.0369 26.1383C37.1554 25.9838 36.7011 25.9188 36.6797 26.0277C36.6617 26.0171 36.6437 26.0066 36.6257 25.996C36.4931 25.8603 36.3268 25.8128 36.1511 25.6716C36.0582 25.597 36.0222 25.5602 36.0067 25.5257C35.9928 25.4949 35.9953 25.466 35.9886 25.4138C35.9407 25.392 35.8928 25.3702 35.8449 25.3484C35.485 25.4218 35.7379 25.081 35.2367 25.0073C35.1829 24.7996 34.8216 24.6838 34.5855 24.601C34.558 24.5914 34.5427 24.6169 34.5051 24.6057C34.4134 24.5782 34.2267 24.4263 34.1858 24.5133C34.1284 24.4482 34.071 24.383 34.0136 24.3179C33.9466 24.2993 33.8797 24.2808 33.8127 24.2622C33.798 24.2883 33.7834 24.3144 33.7687 24.3404C33.7024 24.1844 33.4985 24.1119 33.4198 24.0383C33.4042 24.0236 33.4209 23.9856 33.3703 23.9434C33.3112 23.8939 33.1826 23.8337 33.1107 23.7774C33.0574 23.7994 33.0041 23.8213 32.9508 23.8433C32.7984 23.7839 32.8095 23.651 32.7319 23.5954C32.7179 23.5855 32.4434 23.437 32.4275 23.4308C32.2982 23.3797 32.2805 23.4882 31.9469 23.2701C31.8875 23.2312 31.8556 23.1717 31.8009 23.1385C31.7041 23.0797 31.3685 22.979 31.308 23.0301C31.2757 22.9633 31.1904 22.8962 31.0988 22.8356C30.9857 22.7606 30.8628 22.6955 30.8185 22.6527C30.7944 22.6292 30.8177 22.5741 30.7371 22.5129C30.6718 22.4633 30.4666 22.3998 30.3812 22.3413C30.2907 22.279 30.2818 22.2163 30.241 22.1887C30.2025 22.1627 30.1454 22.1762 30.0908 22.1444C29.9207 22.0446 29.7984 21.8991 29.664 21.8202C29.662 21.8189 29.6599 21.8177 29.6579 21.8166L29.216 21.5468L29.6579 21.306C29.8502 21.1942 29.9621 20.9941 30.0976 20.8554C30.142 20.8387 30.1946 20.8379 30.2372 20.8136C30.765 20.5133 31.3692 20.1899 31.9094 19.9075C32.1601 19.7764 32.8499 19.5651 32.5524 19.425C32.576 19.3904 32.6898 19.3303 32.8277 19.2657C33.049 19.162 33.3325 19.0465 33.4054 19.0055C33.5239 18.939 33.593 18.8432 33.6851 18.7892C33.9218 18.6505 34.1121 18.5695 34.3601 18.4049C34.4032 18.3763 34.4482 18.345 34.4955 18.3105C34.5777 18.2503 34.6429 18.1463 34.6952 18.1168C34.7582 18.0815 34.8533 18.0906 34.9362 18.0468C35.1334 17.9421 35.4843 17.7182 35.6744 17.6194C35.7092 17.6015 35.7455 17.6368 35.8015 17.6221C36.0198 17.5647 36.2285 17.4381 36.1133 17.325C36.3991 17.2619 36.5822 17.063 36.8037 16.9293C37.272 16.647 38.1525 16.1802 38.5322 15.8853C38.7687 15.7016 38.731 15.6441 39.1281 15.4798L39.4495 15.3059L39.7319 15.4796C39.7361 15.4829 39.7404 15.4862 39.7447 15.4895C39.8231 15.5501 39.8987 15.6146 39.9938 15.6879C40.2168 15.8599 40.374 16.0995 40.6359 16.0713C40.8842 16.2611 41.1122 16.3598 41.245 16.5898C41.2844 16.5758 41.3238 16.5617 41.3632 16.5477C41.3965 16.566 41.4298 16.5843 41.4631 16.6026C41.4582 16.6349 41.4533 16.6671 41.4483 16.6994C41.68 16.8425 42.0415 16.907 42.2406 17.023C42.5745 17.2173 43.412 17.7568 43.7088 17.9754C43.8663 18.0915 43.9079 18.0404 43.9375 18.2119C43.9798 18.2256 44.0221 18.2393 44.0644 18.253C44.1027 18.2412 44.1409 18.2294 44.1791 18.2177C44.3958 18.3414 44.6293 18.5288 44.8354 18.6472C45.211 18.8629 45.8146 19.1182 46.1649 19.3815C46.2526 19.4476 46.3405 19.5681 46.4333 19.6209C46.5684 19.6978 46.6513 19.6298 46.823 19.7268C47.119 19.8941 47.6091 20.3115 47.8919 20.4645C47.9758 20.5099 48.033 20.4999 48.0921 20.5294C48.34 20.6527 48.5349 20.7688 48.7932 20.8513C48.9916 21.0767 48.9083 21.1719 48.9221 21.3243C48.9328 21.4395 49.0008 21.7315 48.9846 21.8177C48.9733 21.8782 48.8699 21.9049 48.8627 21.9746C48.5419 21.8484 48.446 21.7281 48.2513 21.5118C47.8068 21.2594 47.3623 21.0069 46.9178 20.7545C46.895 20.701 46.8722 20.6475 46.8493 20.594C46.8494 20.594 46.8494 20.5939 46.8495 20.5938C46.6996 20.4608 46.5826 20.4971 46.4807 20.4618C45.5052 20.1244 43.854 18.9947 42.8987 18.4178C42.6928 18.2935 41.9918 17.9433 41.8773 17.8117C41.8477 17.7775 41.8643 17.725 41.8261 17.7002C41.4585 17.525 41.0909 17.3497 40.7232 17.1745C40.2655 16.8454 39.7623 16.5696 39.2584 16.2999L39.602 16.2999C39.3649 16.4472 39.129 16.5954 38.8921 16.7372C37.5221 17.5571 36.1636 18.3746 34.8034 19.1724C34.2968 19.4692 33.7902 19.7632 33.2826 20.0536C33.2095 20.0954 33.1365 20.1371 33.0635 20.1787C32.6874 20.3927 32.2321 20.7022 31.8522 20.8914C31.6937 20.9704 31.5867 20.9324 31.4178 21.1043C31.404 21.0853 31.3903 21.0664 31.3765 21.0474C31.215 21.1731 31.1294 21.2838 30.9353 21.402C30.7718 21.5015 30.335 21.7576 30.1842 21.8344C30.106 21.8744 30.1125 21.8204 30.0418 21.8615C30.0278 21.8697 30.0123 21.8796 29.9956 21.891L29.9956 21.2315C30.134 21.2983 30.377 21.3843 30.5249 21.4697C30.6764 21.5571 30.9068 21.7481 31.027 21.809C31.1934 21.8937 31.369 21.9753 31.547 22.0594C31.8314 22.1938 32.1219 22.3345 32.3908 22.5039C32.5115 22.5801 32.6422 22.7207 32.6816 22.7416C32.7588 22.7824 32.8088 22.7479 32.863 22.7711C33.1386 22.8891 33.5079 23.1776 33.7593 23.3257C34.5785 23.8085 35.4628 24.2914 36.2776 24.7735C36.3163 24.7964 36.3571 24.8204 36.3994 24.8452C36.9203 25.1504 37.6925 25.5897 38.1158 25.8779C38.2145 25.9452 38.157 25.9813 38.2436 26.0313C38.3396 26.0867 38.4119 26.0815 38.4584 26.1046C38.7603 26.2539 39.3994 26.5796 39.7029 26.7887L39.2821 26.7889C39.3045 26.7783 39.3256 26.7687 39.3453 26.7603C39.4051 26.7349 39.4692 26.7523 39.5025 26.7328C39.5195 26.723 39.5416 26.6731 39.5931 26.6396C40.0476 26.3433 40.399 26.1619 40.8642 25.9058C41.3999 25.6108 41.9715 25.2612 42.5468 24.9193C42.9283 24.6928 43.3112 24.4697 43.6862 24.268C43.8913 24.1578 44.076 24.1586 44.1039 24.1414C44.1651 24.1039 44.1736 24.0267 44.2919 23.9406C44.6852 23.6548 45.2826 23.387 45.6652 23.1298C45.8542 23.0028 46.0849 22.7779 46.2698 22.6508C46.4174 22.5494 46.7983 22.3655 46.8494 22.2957C46.8805 22.2533 46.866 22.1836 46.9117 22.1474ZM42.2285 26.0688C42.2019 25.9591 41.9574 26.2044 42.0951 26.1919C42.1261 26.1891 42.2355 26.0973 42.2285 26.0688ZM31.0358 20.5715C31.0177 20.5463 30.9996 20.521 30.9814 20.4958C30.9499 20.5289 30.9183 20.5619 30.8867 20.595C30.9174 20.5988 30.948 20.6026 30.9787 20.6063C30.9977 20.5947 31.0167 20.5831 31.0358 20.5715Z" fill="#111111"/>
<path d="M34.5886 13.2047L28.221 16.8812L24.9599 18.7635L21.6401 16.8481L15.2724 13.1716L24.9011 7.61279L34.5886 13.2047Z" fill="#FC594C"/>
<path d="M32.5528 14.053C32.5977 14.0245 32.6726 14.0042 32.7281 13.9747C32.9604 13.8517 33.0518 13.8154 33.2634 13.7064C33.5766 13.544 34.4833 13.0223 34.5355 13.1126C34.5355 13.1126 34.5355 13.1126 34.5355 13.1126C34.536 13.1135 34.5364 13.1145 34.5368 13.1155C34.5436 13.1347 34.4773 13.1977 34.4773 13.2242C34.4774 13.2508 34.5601 13.3741 34.4559 13.4464C34.3043 13.5502 33.9065 13.7404 33.8231 13.7913C33.7662 13.8264 33.7029 13.8812 33.6308 13.9271C33.3984 14.0755 33.2685 14.1389 33.0768 14.3031C32.9804 14.3346 32.8836 14.3655 32.7866 14.396C32.6805 14.4713 32.496 14.5444 32.429 14.5856C32.3741 14.6196 32.351 14.6552 32.2935 14.6903C32.2291 14.7296 32.1189 14.7705 32.0022 14.8429C31.8108 14.9614 31.8023 15.0267 31.6896 15.1016C31.5728 15.1793 31.3711 15.2653 31.227 15.3729C31.2107 15.3895 31.1944 15.4062 31.1781 15.4228C31.1987 15.4263 31.2193 15.4298 31.2398 15.4332C31.1658 15.485 31.1186 15.4808 31.0474 15.5227C30.9635 15.572 30.9343 15.6207 30.8781 15.6543C30.8321 15.6817 30.7588 15.7003 30.6998 15.7371C30.6137 15.7907 30.6486 15.8068 30.6048 15.84C30.5872 15.8532 30.2512 16.0759 30.2319 16.088C30.0847 16.1782 30.0492 16.1468 29.929 16.214C29.5957 16.4003 29.278 16.6339 28.9826 16.8287C28.8506 16.9155 28.7081 16.9978 28.5693 17.0718C28.7191 16.8361 28.1979 17.0296 28.4738 17.0974C28.437 17.112 28.4045 17.1288 28.3745 17.147C28.2703 17.2101 28.197 17.2903 28.0829 17.3502C27.9878 17.4001 27.9099 17.4135 27.7786 17.4925C27.5455 17.6325 27.3322 17.8576 27.1894 17.7666C26.9283 17.9525 26.6621 18.0443 26.6319 18.222C26.5656 18.2716 26.3432 18.3081 26.258 18.3452C26.1777 18.3807 25.582 18.688 25.4863 18.7415C25.3909 18.7953 25.2244 18.8904 25.1513 18.9484C25.131 18.9644 25.1155 18.9853 25.1008 19.0076L24.9549 19.0888L24.8191 19.0076C24.7249 19.0019 24.6197 19.0148 24.5495 18.8147C24.3334 18.7091 24.2614 18.6627 24.0778 18.5343C24.0446 18.5111 24.0542 18.4853 24.0337 18.4736C23.9914 18.4496 23.9094 18.4262 23.8327 18.3855C23.7064 18.3187 23.6646 18.2282 23.6342 18.3128C23.5448 18.2793 23.4554 18.246 23.366 18.2127C23.3459 18.1815 23.3258 18.1503 23.3057 18.1191C23.2525 18.1106 23.1992 18.1022 23.1459 18.0939C23.2625 18.0102 22.916 17.9022 22.9784 18.0241C22.833 17.911 22.6878 17.7976 22.5429 17.6838C22.6406 17.5654 22.2035 17.4706 22.193 17.5607C22.1748 17.5503 22.1567 17.5399 22.1386 17.5296C21.9999 17.4044 21.8371 17.3507 21.657 17.2171C21.5609 17.1456 21.5235 17.1114 21.506 17.0805C21.4907 17.0535 21.4906 17.0291 21.48 16.9845C21.4324 16.9621 21.3848 16.9397 21.3372 16.9173C20.9988 16.9534 21.2136 16.6786 20.7279 16.578C20.6606 16.3937 20.3057 16.2666 20.0725 16.1786C20.0454 16.1684 20.0324 16.1898 19.9955 16.1776C19.9052 16.1476 19.7149 16.0018 19.6812 16.0763C19.6215 16.0152 19.5617 15.9541 19.5021 15.8928C19.4362 15.8723 19.3703 15.8519 19.3044 15.8316C19.2919 15.8539 19.2793 15.8763 19.2668 15.8987C19.1927 15.7561 18.991 15.6798 18.9102 15.6097C18.8942 15.5956 18.9082 15.5625 18.8566 15.5218C18.7965 15.4741 18.6684 15.4132 18.5954 15.3586C18.545 15.3756 18.4945 15.3928 18.4439 15.41C18.2924 15.3489 18.2959 15.2292 18.2175 15.1749C18.2034 15.1652 17.9286 15.0171 17.9128 15.0107C17.7843 14.9581 17.7726 15.0564 17.4363 14.8427C17.3765 14.8046 17.3426 14.7486 17.2875 14.7158C17.1904 14.6577 16.8578 14.5517 16.8007 14.5969C16.7234 14.4562 16.387 14.3044 16.3052 14.2297C16.2806 14.207 16.3013 14.1564 16.2199 14.0966C16.1539 14.0481 15.9502 13.982 15.8642 13.9246C15.773 13.8634 15.762 13.8042 15.721 13.777C15.6823 13.7514 15.6266 13.7624 15.5718 13.7309C15.4012 13.632 15.2762 13.4912 15.1415 13.4127C15.1394 13.4115 15.1373 13.4104 15.1353 13.4092L14.7238 13.1679L15.1353 12.934C15.3273 12.8216 15.4427 12.6276 15.5792 12.4907C15.6233 12.4734 15.675 12.471 15.7175 12.4464C16.2437 12.1432 16.8458 11.816 17.3845 11.5309C17.6343 11.3981 18.3206 11.1805 18.0278 11.0486C18.0897 10.9593 18.7599 10.6912 18.8783 10.6245C18.9966 10.5575 19.066 10.4625 19.158 10.4081C19.4355 10.2443 19.6489 10.1599 19.9673 9.92691C20.0495 9.86662 20.1151 9.76314 20.1673 9.73354C20.2303 9.698 20.3249 9.70629 20.4076 9.66228C20.6045 9.557 20.9551 9.33255 21.1451 9.23332C21.1798 9.21531 21.2158 9.25024 21.2718 9.23527C21.4896 9.17716 21.6983 9.05046 21.5837 8.93829C21.8689 8.87427 22.0523 8.67551 22.2736 8.54156C22.7417 8.25861 23.622 7.79119 24.0018 7.49628C24.2387 7.31232 24.2006 7.25492 24.5994 7.09019L24.9011 6.91602L25.2028 7.09017C25.2066 7.09308 25.2104 7.09604 25.2143 7.09903C25.2194 7.10302 25.2246 7.10703 25.2297 7.11105C25.3027 7.1682 25.3745 7.22902 25.4633 7.29767C25.686 7.47017 25.8432 7.71005 26.1041 7.68349C26.3517 7.87456 26.5785 7.97559 26.7114 8.2053C26.7505 8.19189 26.7895 8.17853 26.8285 8.16522C26.8616 8.18386 26.8947 8.20251 26.9278 8.22117C26.9231 8.25298 26.9185 8.28477 26.9138 8.31654C27.1447 8.46121 27.5023 8.53254 27.6995 8.65192C28.0307 8.85103 28.8601 9.40472 29.1555 9.62593C29.3124 9.74314 29.3498 9.69935 29.3866 9.8584C29.4279 9.87373 29.4693 9.88912 29.5106 9.90457C29.5466 9.89658 29.5826 9.88869 29.6186 9.88092C29.8321 10.0101 30.0656 10.1976 30.2689 10.321C30.6399 10.5448 31.2237 10.8347 31.5734 11.0991C31.6611 11.1652 31.7559 11.2738 31.8472 11.3292C31.98 11.4101 32.0461 11.3712 32.2136 11.4756C32.5016 11.6569 33.0032 12.0546 33.2793 12.2191C33.361 12.2685 33.4087 12.275 33.4654 12.3085C33.7035 12.4488 33.8949 12.5711 34.1308 12.6926C34.3489 12.8839 34.3031 12.9141 34.3528 13.0044C34.3902 13.0733 34.5261 13.2479 34.5368 13.2874C34.544 13.3158 34.4623 13.3048 34.4756 13.339C34.1617 13.2009 34.0439 13.1184 33.8197 12.9532C33.3665 12.7157 32.9137 12.4775 32.4614 12.2384C32.431 12.1981 32.4008 12.1574 32.3708 12.1163C32.3708 12.1163 32.3708 12.1162 32.3708 12.1162C32.2113 11.9999 32.1098 12.0093 32.0098 11.9708C31.0486 11.6082 29.3439 10.5705 28.3844 10.0005C28.1766 9.87955 27.4716 9.53611 27.355 9.40808C27.3248 9.3749 27.3402 9.32443 27.3018 9.30007C26.9332 9.12642 26.5643 8.95316 26.1956 8.77968C25.7452 8.4608 25.2527 8.19053 24.7592 7.92619C24.7493 7.92087 24.7393 7.91556 24.7294 7.91025L25.0728 7.91023C24.8352 8.05778 24.5987 8.20617 24.3612 8.34807C22.4068 9.51593 20.4737 10.675 18.524 11.7764C18.1472 11.9893 17.6898 12.2954 17.3095 12.4839C17.1508 12.5627 17.0458 12.5281 16.8747 12.6964C16.8616 12.6785 16.8484 12.6605 16.8352 12.6426C16.6727 12.7664 16.5852 12.8741 16.3904 12.9912C16.2263 13.0897 15.7881 13.3434 15.6371 13.42C15.5588 13.4599 15.5669 13.4085 15.496 13.4493C15.4819 13.4574 15.4664 13.4672 15.4496 13.4784L15.4496 12.8648C15.5873 12.9328 15.8279 13.023 15.9753 13.1093C16.1263 13.1977 16.358 13.3866 16.4775 13.4487C16.9077 13.6726 17.3965 13.8817 17.8328 14.1587C17.9532 14.2354 18.0864 14.3717 18.1257 14.393C18.2024 14.4346 18.2491 14.4057 18.3027 14.43C18.5751 14.5538 18.9465 14.8387 19.1971 14.9883C20.0134 15.4763 20.8916 15.9701 21.7029 16.4585C21.7412 16.4815 21.7815 16.5056 21.8234 16.5306C22.342 16.8399 23.1098 17.2887 23.5353 17.5737C23.6345 17.6401 23.5842 17.6636 23.6705 17.7143C23.7661 17.7705 23.8332 17.7743 23.8791 17.7985C24.1765 17.9546 24.8055 18.2948 25.1116 18.5005L24.8081 18.5006C24.8308 18.4894 24.8523 18.4793 24.8722 18.4703C24.9312 18.4436 24.9889 18.4498 25.0224 18.4307C25.0394 18.4211 25.0664 18.3794 25.1187 18.3473C25.5804 18.0633 25.9315 17.8812 26.3977 17.627C26.9351 17.334 27.5138 16.9955 28.0952 16.6633C28.4799 16.4434 28.8657 16.226 29.2404 16.0243C29.4456 15.9141 29.6111 15.8817 29.6393 15.865C29.7013 15.8288 29.7237 15.7755 29.8462 15.6968C30.254 15.436 30.8403 15.1487 31.2333 14.9096C31.4276 14.7915 31.6807 14.6054 31.8722 14.4898C32.0252 14.3974 32.4014 14.2055 32.4627 14.1532C32.5 14.1215 32.5041 14.084 32.5528 14.053ZM27.6215 17.5469C27.614 17.4703 27.3553 17.6909 27.4821 17.6597C27.5106 17.6526 27.6235 17.5667 27.6215 17.5469ZM16.5093 12.1924C16.492 12.1686 16.4747 12.1447 16.4574 12.1209C16.4255 12.1535 16.3937 12.1862 16.3618 12.2188C16.392 12.2216 16.4221 12.2245 16.4522 12.2273C16.4713 12.2157 16.4903 12.2041 16.5093 12.1924Z" fill="#111111"/>
<path d="M20.1472 21.5426L18.5921 22.4397L13.7796 25.2191L10.5222 27.1014L7.20243 25.1823L0.834747 21.5058L10.4597 15.9507L15.2722 18.7301L16.8274 19.6272L20.1472 21.5426Z" fill="#FCEB5F"/>
<path d="M18.1113 22.3901C18.1562 22.3616 18.2311 22.3414 18.2865 22.3119C18.3565 22.2748 18.4137 22.2457 18.4653 22.22C18.585 22.1604 18.6741 22.1197 18.8219 22.0436C19.1352 21.8814 20.042 21.3601 20.0941 21.4505C20.0941 21.4505 20.0941 21.4505 20.0941 21.4505C20.0946 21.4514 20.0951 21.4524 20.0954 21.4534C20.1023 21.4726 20.0359 21.5355 20.036 21.5621C20.036 21.5886 20.1186 21.712 20.0144 21.7842C19.8628 21.888 19.465 22.0779 19.3816 22.1289C19.3247 22.1639 19.2613 22.2186 19.1892 22.2646C18.9771 22.3998 18.8506 22.4645 18.6843 22.5994C18.6684 22.6123 18.6521 22.6259 18.6353 22.6403C18.5389 22.6717 18.4421 22.7027 18.3452 22.7332C18.2391 22.8085 18.0546 22.8815 17.9876 22.9228C17.9327 22.9568 17.9096 22.9924 17.8522 23.0274C17.7878 23.0668 17.6776 23.1077 17.5609 23.1801C17.3696 23.2986 17.3611 23.3639 17.2484 23.4388C17.1317 23.5165 16.93 23.6025 16.7859 23.7101C16.7696 23.7268 16.7533 23.7434 16.7371 23.76C16.7576 23.7636 16.7782 23.767 16.7987 23.7705C16.7247 23.8222 16.6776 23.818 16.6063 23.8599C16.5225 23.9092 16.4933 23.9579 16.4371 23.9915C16.3911 24.019 16.3178 24.0375 16.2588 24.0743C16.1728 24.128 16.2076 24.1441 16.1639 24.1773C16.1463 24.1904 15.8104 24.4132 15.7911 24.4252C15.6439 24.5154 15.6084 24.4841 15.4882 24.5513C15.155 24.7376 14.8373 24.9712 14.542 25.166C14.4101 25.2529 14.2676 25.3352 14.1288 25.4092C14.2786 25.1734 13.7575 25.3669 14.0333 25.4348C13.9962 25.4495 13.9634 25.4665 13.9331 25.4849C13.8296 25.5479 13.7564 25.6279 13.6427 25.6876C13.5476 25.7375 13.4697 25.751 13.3385 25.8301C13.1055 25.9702 12.8923 26.1953 12.7495 26.1044C12.4885 26.2904 12.2225 26.3823 12.1924 26.56C12.126 26.6096 11.9037 26.6462 11.8186 26.6833C11.7383 26.7189 11.1428 27.0265 11.0472 27.08C10.9518 27.1338 10.7853 27.229 10.7123 27.287C10.6925 27.3026 10.6772 27.323 10.6628 27.3447L10.5171 27.4259L10.3816 27.3447C10.287 27.3386 10.1808 27.3529 10.1104 27.1514C9.89439 27.0457 9.82249 26.9993 9.63906 26.8708C9.60584 26.8475 9.61547 26.8217 9.59498 26.81C9.55273 26.7859 9.47074 26.7625 9.39404 26.7218C9.26789 26.6548 9.22614 26.5643 9.19563 26.6489C9.10634 26.6153 9.01699 26.5819 8.92758 26.5486C8.90748 26.5174 8.8874 26.4862 8.86735 26.4549C8.81416 26.4464 8.76092 26.438 8.70765 26.4296C8.82424 26.346 8.47787 26.2377 8.54019 26.3596C8.39491 26.2465 8.24987 26.133 8.10504 26.0191C8.20286 25.9007 7.76588 25.8056 7.75525 25.8957C7.73714 25.8853 7.71904 25.8749 7.70093 25.8645C7.56232 25.7392 7.3996 25.6854 7.2197 25.5517C7.12277 25.4795 7.08562 25.4453 7.06837 25.4142C7.05373 25.3877 7.05351 25.3633 7.04298 25.3191C6.99541 25.2967 6.94782 25.2743 6.90023 25.2519C6.56185 25.2881 6.77662 25.0133 6.291 24.9127C6.22368 24.7284 5.86887 24.6013 5.6357 24.5134C5.60859 24.5031 5.59565 24.5245 5.55869 24.5124C5.46844 24.4823 5.27813 24.3365 5.24449 24.4111C5.18472 24.35 5.12502 24.2888 5.06538 24.2275C4.99952 24.2071 4.93362 24.1867 4.86771 24.1663C4.85518 24.1887 4.84265 24.2111 4.83012 24.2335C4.75606 24.0909 4.55434 24.0146 4.47361 23.9445C4.4576 23.9304 4.47153 23.8973 4.42001 23.8566C4.35989 23.809 4.23177 23.748 4.15885 23.6934C4.10839 23.7105 4.05788 23.7276 4.00734 23.7449C3.85585 23.6838 3.85933 23.564 3.78099 23.5098C3.76686 23.5 3.49209 23.352 3.47635 23.3456C3.34781 23.293 3.33608 23.3913 2.99989 23.1776C2.94006 23.1395 2.90614 23.0836 2.85113 23.0508C2.75401 22.9926 2.42142 22.8867 2.36438 22.9319C2.28711 22.7912 1.95069 22.6394 1.86892 22.5647C1.84432 22.542 1.865 22.4914 1.78363 22.4317C1.71771 22.3832 1.51394 22.3171 1.42795 22.2596C1.3368 22.1985 1.32583 22.1393 1.28485 22.1121C1.24612 22.0865 1.19043 22.0975 1.13567 22.0659C0.965026 21.9671 0.840062 21.8263 0.705365 21.7479C0.702775 21.7464 0.70018 21.7449 0.697578 21.7434L0.286043 21.5021L0.697614 21.2682C0.888703 21.1557 1.00382 20.9624 1.13995 20.8259C1.18399 20.8086 1.23573 20.8062 1.27823 20.7817C1.80434 20.4785 2.40644 20.1515 2.94506 19.8664C3.1949 19.7337 3.88113 19.5162 3.5883 19.3843C3.65024 19.295 4.32042 19.0271 4.4388 18.9603C4.55705 18.8934 4.62651 18.7984 4.71846 18.7441C4.99597 18.5803 5.2093 18.4959 5.52774 18.263C5.60992 18.2027 5.67552 18.0993 5.72771 18.0697C5.79064 18.0342 5.88522 18.0425 5.96792 17.9985C6.16482 17.8932 6.51546 17.6688 6.7054 17.5697C6.74014 17.5517 6.77615 17.5866 6.83206 17.5716C7.04991 17.5136 7.25855 17.3869 7.14395 17.2747C7.4292 17.2108 7.61254 17.012 7.83382 16.8781C8.30187 16.5953 9.18214 16.128 9.56193 15.8332C9.79845 15.6495 9.7608 15.592 10.158 15.4279L10.4598 15.2536L10.7616 15.4279C10.7658 15.4312 10.7701 15.4345 10.7744 15.4378C10.7795 15.4418 10.7847 15.4458 10.7898 15.4498C10.8627 15.507 10.9345 15.5678 11.0233 15.6365C11.2459 15.809 11.403 16.0489 11.664 16.0224C11.9115 16.2135 12.1382 16.3146 12.2711 16.5443C12.3101 16.5309 12.3491 16.5175 12.3881 16.5042C12.4212 16.5229 12.4543 16.5415 12.4874 16.5602C12.4827 16.592 12.4781 16.6238 12.4734 16.6556C12.7042 16.8003 13.0618 16.8716 13.2589 16.9911C13.59 17.1902 14.4192 17.744 14.7144 17.9653C14.8713 18.0825 14.9087 18.0387 14.9454 18.1978C14.9868 18.2131 15.0281 18.2285 15.0694 18.244C15.1055 18.236 15.1415 18.2281 15.1774 18.2203C15.2686 18.2755 15.3634 18.3414 15.458 18.4084C15.5847 18.4981 15.7111 18.5895 15.8275 18.6602C16.1527 18.8568 16.6425 19.1026 16.9932 19.3396C17.0424 19.3727 17.089 19.4055 17.132 19.4378C17.2198 19.5039 17.3146 19.6124 17.4059 19.6679C17.5387 19.7488 17.6047 19.7098 17.7723 19.8142C18.0602 19.9954 18.5618 20.3929 18.8379 20.5574C18.9196 20.6067 18.9673 20.6132 19.024 20.6467C19.2621 20.787 19.4535 20.9092 19.6894 21.0306C19.9075 21.2219 19.8617 21.2521 19.9114 21.3423C19.9488 21.4112 20.0847 21.5858 20.0954 21.6253C20.1027 21.6537 20.0209 21.6427 20.0342 21.677C19.7203 21.5389 19.6026 21.4565 19.3783 21.2913C18.9251 21.0539 18.4724 20.8158 18.0201 20.5769C17.9897 20.5366 17.9595 20.4959 17.9295 20.4548C17.9295 20.4548 17.9295 20.4547 17.9295 20.4547C17.77 20.3384 17.6685 20.3479 17.5685 20.3094C17.314 20.2106 17.0048 20.0676 16.6709 19.8984C16.1701 19.6451 15.6147 19.3312 15.1005 19.0279C14.669 18.7735 14.2662 18.5275 13.9434 18.3397C13.7355 18.2187 13.0307 17.8752 12.9142 17.7471C12.884 17.7139 12.8994 17.6635 12.861 17.6391C12.4925 17.4654 12.1237 17.2921 11.7551 17.1186C11.3049 16.7996 10.8125 16.5293 10.3191 16.2649C10.3087 16.2593 10.2983 16.2537 10.2879 16.2481L10.6314 16.2482C10.3942 16.3954 10.1582 16.5435 9.92117 16.685C7.96698 17.8525 6.03397 19.0112 4.08443 20.1122C3.70769 20.325 3.25032 20.631 2.87004 20.8195C2.71135 20.8982 2.60633 20.8636 2.43531 21.0319C2.42214 21.0139 2.40897 20.996 2.3958 20.978C2.23325 21.1018 2.14585 21.2095 1.95103 21.3265C1.78696 21.425 1.3488 21.6787 1.19775 21.7552C1.11949 21.7951 1.12759 21.7437 1.05669 21.7844C1.04304 21.7923 1.02799 21.8018 1.01179 21.8126L1.01183 21.1991C1.14922 21.2672 1.3912 21.3578 1.53913 21.4444C1.69013 21.5328 1.92175 21.7216 2.04124 21.7837C2.47139 22.0077 2.96011 22.2166 3.39634 22.4937C3.51679 22.5703 3.64994 22.7066 3.68919 22.7279C3.76592 22.7695 3.8126 22.7406 3.86624 22.7649C4.13855 22.8887 4.50991 23.1735 4.76045 23.3231C5.57664 23.8111 6.45468 24.3048 7.26594 24.7931C7.30405 24.816 7.34408 24.84 7.38572 24.8648C7.9043 25.1747 8.67202 25.6243 9.09744 25.9097C9.19655 25.9762 9.14629 25.9997 9.23245 26.0504C9.32801 26.1067 9.39511 26.1106 9.44096 26.1348C9.73866 26.2913 10.3687 26.6328 10.6741 26.8387L10.3703 26.8386C10.3925 26.8278 10.4135 26.8178 10.4329 26.809C10.492 26.7823 10.5496 26.7885 10.5831 26.7694C10.6001 26.7597 10.6271 26.7181 10.6794 26.6859C11.1409 26.4018 11.4918 26.2195 11.9579 25.9651C12.4948 25.672 13.0728 25.3335 13.6537 25.0013C14.0387 24.7811 14.4247 24.5635 14.7997 24.3616C15.0048 24.2514 15.1703 24.219 15.1985 24.2024C15.2605 24.1661 15.2828 24.1128 15.4053 24.0342C15.8131 23.7733 16.3992 23.486 16.7922 23.2468C16.9864 23.1288 17.2395 22.9426 17.4309 22.827C17.5838 22.7346 17.96 22.5427 18.0212 22.4904C18.0585 22.4587 18.0626 22.4212 18.1113 22.3901ZM13.1815 25.8845C13.174 25.8079 12.9153 26.0286 13.0421 25.9974C13.0707 25.9902 13.1835 25.9043 13.1815 25.8845ZM2.06996 20.5278C2.05264 20.504 2.03533 20.4801 2.01802 20.4562C1.98618 20.4889 1.95434 20.5215 1.92248 20.5541C1.95261 20.557 1.98275 20.5599 2.01289 20.5627C2.03191 20.5511 2.05093 20.5395 2.06996 20.5278Z" fill="#111111"/>
<path d="M48.4936 23.4053C48.4861 23.3613 48.5266 23.2992 48.5287 23.2472C48.5381 23.0297 48.5662 22.9491 48.5821 22.7523C48.6058 22.4604 48.5525 21.5943 48.8341 21.5942C48.8341 21.5942 48.8342 21.5942 48.8342 21.5942C48.8369 21.5942 48.8397 21.5943 48.8425 21.5945C48.8962 21.5975 48.9548 21.6712 49.0154 21.6821C49.0761 21.693 49.4679 21.6849 49.49 21.7895C49.519 21.9412 49.4185 22.3051 49.423 22.3861C49.4261 22.4414 49.4617 22.5095 49.468 22.5802C49.4884 22.8083 49.4623 22.9276 49.5591 23.1331C49.5081 23.2153 49.4571 23.2975 49.4061 23.3797C49.4298 23.4869 49.3625 23.6494 49.3662 23.7146C49.3693 23.768 49.4096 23.7994 49.4115 23.8551C49.4138 23.9175 49.3703 24.0135 49.3768 24.1271C49.3874 24.3135 49.4926 24.3466 49.5059 24.4584C49.5197 24.5743 49.4626 24.7546 49.4996 24.9025C49.5112 24.9211 49.5227 24.9396 49.5343 24.9582C49.5605 24.9449 49.5866 24.9316 49.6128 24.9183C49.625 24.9928 49.5714 25.0248 49.5704 25.0933C49.5692 25.1738 49.6201 25.2149 49.6198 25.2691C49.6196 25.3135 49.5788 25.3737 49.5814 25.4313C49.5849 25.5152 49.6438 25.4969 49.6548 25.5421C49.659 25.5601 49.6915 25.8933 49.692 25.9121C49.6943 26.055 49.6137 26.0675 49.6067 26.1814C49.5875 26.4976 49.6526 26.8222 49.6772 27.1146C49.6882 27.2452 49.6835 27.3815 49.6706 27.5117C49.4644 27.3066 49.3039 27.7605 49.6266 27.5907C49.5807 27.7356 49.6678 27.8383 49.6531 27.9757C49.6435 28.0645 49.5987 28.126 49.5999 28.2528C49.6023 28.4779 49.7295 28.7241 49.4996 28.7888C49.508 28.8434 49.511 28.8965 49.5125 28.9472L49.5043 29.1882L49.3151 29.2891C49.1492 29.3911 49.0014 29.4543 49.0165 29.6315C48.9637 29.6763 48.752 29.659 48.6777 29.683C48.6073 29.7057 48.0999 29.9358 48.0198 29.9785C47.9397 30.0212 47.8006 30.0978 47.7433 30.1514C47.6712 30.2185 47.7184 30.4342 47.4474 30.3066C47.2853 30.4232 47.2205 30.4525 47.0461 30.5202C47.0146 30.5325 46.993 30.5027 46.9761 30.5125C46.9412 30.5326 46.8954 30.5902 46.8348 30.629C46.7352 30.6928 46.6383 30.66 46.7085 30.7551C46.6508 30.8111 46.5932 30.8671 46.5356 30.9231C46.5006 30.9171 46.4656 30.9112 46.4306 30.9052C46.4068 30.9475 46.3831 30.9897 46.3594 31.0319C46.3168 30.8603 46.113 31.0938 46.2442 31.1306C46.0959 31.1757 45.9475 31.2208 45.7991 31.2659C45.7208 31.0881 45.5008 31.4125 45.579 31.4885C45.564 31.497 45.5489 31.5055 45.5339 31.514C45.3772 31.5453 45.2778 31.6511 45.1009 31.7135C44.924 31.7759 44.9296 31.751 44.8366 31.7021C44.8016 31.7282 44.7665 31.7543 44.7315 31.7805C44.6561 32.1052 44.4801 31.72 44.2358 32.0768C44.0514 32.0066 43.8257 32.2297 43.6726 32.3718C43.6547 32.3883 43.6692 32.4142 43.6465 32.4379C43.5907 32.4956 43.4011 32.561 43.4549 32.6406C43.382 32.6506 43.3091 32.6607 43.2362 32.6708C43.1967 32.7137 43.1572 32.7567 43.1177 32.7996C43.1329 32.8254 43.1481 32.8511 43.1633 32.8769C43.0152 32.8447 42.8821 32.9668 42.7947 32.9892C42.7772 32.9936 42.7533 32.9597 42.7011 32.9768C42.64 32.9967 42.5447 33.0659 42.4734 33.0922C42.471 33.1463 42.4687 33.2004 42.4663 33.2546C42.3627 33.343 42.2616 33.2621 42.1888 33.2933C42.1758 33.299 41.9564 33.4357 41.9456 33.4449C41.8571 33.5196 41.9365 33.5924 41.64 33.7382C41.5872 33.7641 41.5283 33.7571 41.4817 33.7824C41.3992 33.827 41.195 34.0381 41.2131 34.1137C41.068 34.0898 40.8237 34.2749 40.7326 34.2964C40.7051 34.3027 40.6701 34.2543 40.5918 34.2849C40.5283 34.3097 40.4018 34.4377 40.3239 34.4735C40.241 34.5114 40.188 34.4844 40.151 34.5016C40.1161 34.518 40.1056 34.5706 40.0602 34.5965C39.9181 34.677 39.7576 34.6948 39.6452 34.7583C39.6435 34.7593 39.6418 34.7603 39.6401 34.7613L39.183 35.0075L39.1979 34.506C39.1972 34.3217 39.0799 34.1587 39.0275 34.0041C39.0352 33.9654 39.0608 33.9273 39.061 33.8866C39.0648 33.3838 39.0868 32.8165 39.1123 32.3122C39.124 32.0781 39.2859 31.4958 39.0158 31.6512C38.9685 31.5699 39.0774 30.9783 39.079 30.8657C39.0807 30.7532 39.0322 30.6641 39.0315 30.5756C39.0294 30.3088 39.0643 30.1209 39.0221 29.796C39.0111 29.7121 38.9537 29.6223 38.9544 29.5726C38.9553 29.5127 39.0108 29.4483 39.0143 29.3708C39.0223 29.186 39.0041 28.8416 39.0137 28.6643C39.0155 28.632 39.0643 28.6206 39.0795 28.5743C39.139 28.394 39.1339 28.1919 38.9783 28.2277C39.0666 27.9966 38.986 27.7829 38.9811 27.5687C38.9785 27.4507 38.979 27.3074 38.98 27.1531L38.9906 26.8403L39.2362 26.7092C39.6168 26.4927 40.0766 26.2354 40.3049 26.0476C40.4996 25.8875 40.4592 25.8302 40.8064 25.6991C40.8835 25.67 40.9625 25.6451 41.0559 25.6096C41.2747 25.5264 41.5228 25.532 41.5976 25.3094C41.84 25.2158 42.0027 25.0888 42.234 25.1085C42.2375 25.0697 42.241 25.0309 42.2445 24.9921C42.2714 24.9757 42.2982 24.9592 42.3251 24.9428C42.3488 24.9642 42.3725 24.9856 42.3962 25.007C42.445 24.9811 42.493 24.9464 42.5401 24.9075C42.6852 24.7875 42.8214 24.6269 42.9465 24.5554C43.2243 24.3967 43.9622 24.0267 44.2454 23.9105C44.3957 23.8489 44.3707 23.7882 44.5175 23.8579C44.544 23.8318 44.5705 23.8058 44.5971 23.7797C44.602 23.7431 44.6068 23.7064 44.6117 23.6698C44.7901 23.5654 45.0251 23.4823 45.1953 23.3835C45.5055 23.2033 45.9316 22.8642 46.27 22.7299C46.3549 22.6963 46.4829 22.6922 46.5592 22.6474C46.6702 22.5822 46.6471 22.4797 46.7877 22.3964C47.03 22.253 47.5423 22.0917 47.7683 21.951C47.8354 21.9092 47.8487 21.8585 47.894 21.8277C48.0836 21.6985 48.2478 21.6072 48.4091 21.4475C48.6611 21.4129 48.7055 21.5305 48.8313 21.6024C48.9265 21.6565 49.1829 21.7612 49.2451 21.8208C49.2888 21.8627 49.2715 21.959 49.324 22.0025C49.1051 22.1879 48.9742 22.1985 48.7307 22.2352C48.3659 22.45 48.0011 22.6647 47.6363 22.8795C47.5855 22.8685 47.5347 22.8575 47.4839 22.8465C47.4839 22.8465 47.4838 22.8464 47.4838 22.8463C47.3229 22.8927 47.3082 23.0051 47.2424 23.0666C46.6133 23.6555 45.1061 24.3491 44.2949 24.792C44.1201 24.8875 43.5827 25.2521 43.436 25.2713C43.398 25.2762 43.3625 25.2345 43.3288 25.2513C43.1894 25.3505 43.05 25.4497 42.9106 25.5489C42.775 25.6455 42.6392 25.7422 42.5035 25.839C41.8629 26.1125 41.2786 26.5299 40.6819 26.8897C40.3496 27.09 40.0181 27.2902 39.6872 27.4898L39.8816 27.1531C39.9097 28.6441 39.9343 30.1242 39.9241 31.5967C39.9215 31.955 39.9618 32.4098 39.9358 32.7605C39.925 32.9069 39.8386 32.9679 39.903 33.1603C39.8797 33.1623 39.8564 33.1643 39.8331 33.1663C39.8613 33.3342 39.9143 33.4414 39.9197 33.6296C39.9241 33.7881 39.9276 34.2073 39.9187 34.3473C39.9142 34.42 39.8707 34.3929 39.8709 34.4606C39.871 34.4741 39.8719 34.4893 39.8734 34.506L39.3022 34.1763C39.4064 34.103 39.5647 33.9573 39.6871 33.8866C39.8126 33.8141 40.0492 33.7353 40.1421 33.6733C40.4766 33.4503 40.8179 33.1674 41.1981 32.9708C41.3032 32.9166 41.463 32.8895 41.4943 32.8697C41.5552 32.8307 41.5464 32.7724 41.5849 32.7421C41.7806 32.5879 42.1459 32.4522 42.3565 32.3336C43.0425 31.9471 43.7529 31.5092 44.4369 31.1258C44.8689 30.8835 45.5769 30.4635 45.9935 30.2705C46.0834 30.2289 46.0907 30.2941 46.1624 30.2527C46.2419 30.2067 46.2646 30.1467 46.3001 30.1224C46.5458 29.954 47.0931 29.5906 47.3566 29.4863C47.4068 29.4665 47.4639 29.4879 47.4915 29.4717C47.5056 29.4636 47.5212 29.4175 47.5635 29.3893C47.9375 29.1397 48.2301 28.9923 48.6163 28.782C48.7172 28.727 48.8195 28.6695 48.923 28.6101L48.7284 28.9472C48.7302 28.1922 48.6894 27.3605 48.7173 26.5967C48.7244 26.404 48.8175 26.2718 48.8165 26.2447C48.8146 26.1852 48.752 26.1472 48.7366 26.0267C48.6857 25.6263 48.7525 25.087 48.7212 24.7061C48.7057 24.5179 48.6262 24.2593 48.6086 24.0742C48.5946 23.9263 48.6257 23.577 48.5908 23.5114C48.5698 23.4715 48.502 23.4531 48.4936 23.4053ZM49.5477 28.3879C49.4394 28.3616 49.5294 28.6385 49.5875 28.5346C49.6006 28.5112 49.5758 28.3947 49.5477 28.3879ZM39.2506 33.2137C39.2197 33.2162 39.1888 33.2187 39.1579 33.2213C39.1707 33.2576 39.1836 33.294 39.1965 33.3303C39.2151 33.3099 39.2336 33.2895 39.2522 33.269C39.2517 33.2506 39.2512 33.2321 39.2506 33.2137Z" fill="#111111"/>
<path d="M34.6768 29.9321V37.2851L25.0517 42.8439V35.491L28.3091 33.6086L33.1253 30.8292L34.6768 29.9321Z" fill="#43C65D"/>
<path d="M34.3934 31.7432C34.3912 31.6992 34.4111 31.6371 34.4133 31.5851C34.423 31.3676 34.4372 31.287 34.4486 31.0901C34.4645 30.7983 34.4661 29.9322 34.5705 29.9321C34.5705 29.9321 34.5705 29.9321 34.5705 29.9321C34.5715 29.9321 34.5725 29.9322 34.5736 29.9324C34.5936 29.9354 34.615 30.0091 34.638 30.02C34.6611 30.0309 34.8092 30.0227 34.8197 30.1274C34.8338 30.2791 34.7996 30.643 34.802 30.724C34.804 30.7793 34.8197 30.8474 34.8235 30.9181C34.8357 31.1462 34.8257 31.2655 34.8721 31.471C34.8511 31.5532 34.8295 31.6354 34.8074 31.7176C34.8196 31.8248 34.7906 31.9873 34.7929 32.0525C34.7948 32.1059 34.8141 32.1373 34.8157 32.193C34.8176 32.2554 34.7979 32.3514 34.8022 32.465C34.8092 32.6514 34.8615 32.6845 34.87 32.7963C34.8788 32.9122 34.8525 33.0925 34.8736 33.2404C34.8799 33.259 34.8861 33.2775 34.8924 33.2961C34.9057 33.2828 34.919 33.2695 34.9323 33.2562C34.9401 33.3307 34.9128 33.3627 34.9135 33.4312C34.9143 33.5117 34.9419 33.5528 34.9428 33.607C34.9436 33.6514 34.923 33.7116 34.9254 33.7692C34.9288 33.8531 34.9602 33.8348 34.9671 33.88C34.9696 33.898 34.9946 34.2312 34.9953 34.25C34.9998 34.3929 34.9549 34.4054 34.953 34.5194C34.9477 34.8355 34.9912 35.1601 35.0121 35.4525C35.0213 35.5831 35.0214 35.7194 35.016 35.8496C34.8868 35.6445 34.7938 36.0984 34.9904 35.9286C34.9646 36.0735 35.0205 36.1762 35.014 36.3136C35.0096 36.4024 34.9823 36.4639 34.9851 36.5907C34.9898 36.8158 35.0781 37.062 34.9279 37.1267C34.9341 37.1813 34.9368 37.2344 34.9384 37.2851L34.9352 37.4415L34.8076 37.5117C34.6422 37.6145 34.4983 37.6845 34.488 37.8177C34.4339 37.8603 34.2429 37.8787 34.1715 37.9079C34.1042 37.9359 33.6082 38.1858 33.529 38.2299C33.4498 38.2742 33.3119 38.353 33.2526 38.403C33.1777 38.4652 33.1968 38.6324 32.9602 38.5645C32.7965 38.6782 32.733 38.7099 32.5633 38.7855C32.5326 38.7992 32.5157 38.7776 32.4988 38.7874C32.4641 38.8078 32.4152 38.8601 32.3545 38.8987C32.2548 38.9623 32.1676 38.9463 32.2233 39.0163C32.1636 39.0688 32.1041 39.1215 32.0445 39.1742C32.0124 39.1732 31.9802 39.1722 31.948 39.1711C31.9216 39.2086 31.8952 39.2462 31.8688 39.2838C31.8458 39.1462 31.6317 39.3617 31.7514 39.3785C31.6079 39.4322 31.4643 39.4855 31.3204 39.5384C31.263 39.3967 31.0257 39.6912 31.0931 39.7485C31.0781 39.7572 31.0632 39.7659 31.0483 39.7746C30.8977 39.8164 30.7948 39.9161 30.6222 39.986C30.4495 40.0557 30.4568 40.0337 30.3725 39.9998C30.3371 40.0253 30.3017 40.0508 30.2663 40.0764C30.1694 40.3639 30.0315 40.0447 29.7717 40.3745C29.6009 40.3278 29.3686 40.5397 29.2125 40.6765C29.1943 40.6924 29.2065 40.7143 29.1831 40.737C29.1259 40.7921 28.9398 40.8636 28.9864 40.9307C28.9158 40.9449 28.8453 40.9589 28.7746 40.9729C28.734 41.0139 28.6934 41.055 28.6528 41.0962C28.6659 41.1182 28.679 41.1403 28.6921 41.1624C28.5517 41.1436 28.4165 41.2619 28.331 41.2877C28.3139 41.2928 28.2929 41.2637 28.2416 41.2825C28.1815 41.3042 28.0857 41.3725 28.0154 41.4006C28.0102 41.4498 28.0051 41.4991 28 41.5485C27.8954 41.6352 27.8019 41.5675 27.7299 41.6C27.7169 41.606 27.4978 41.7431 27.4869 41.7521C27.3976 41.8253 27.4711 41.888 27.1771 42.0381C27.1248 42.0648 27.0679 42.0613 27.0215 42.087C26.9395 42.1323 26.7322 42.3381 26.7468 42.4078C26.6068 42.3926 26.3618 42.5766 26.2723 42.6007C26.2452 42.6079 26.2129 42.5641 26.1354 42.5961C26.0725 42.6219 25.9446 42.7473 25.8672 42.7842C25.785 42.8232 25.7341 42.7998 25.6973 42.8174C25.6627 42.8342 25.6507 42.8842 25.6054 42.9105C25.4639 42.9919 25.3061 43.0144 25.194 43.0785C25.1923 43.0795 25.1906 43.0804 25.1889 43.0814L24.7735 43.3168L24.7774 42.8439C24.776 42.6596 24.6657 42.4966 24.6154 42.342C24.6224 42.3032 24.6462 42.2651 24.6462 42.2245C24.6466 41.7217 24.6644 41.1544 24.6867 40.6501C24.6967 40.416 24.8513 39.8337 24.5907 39.9891C24.5443 39.9078 24.6473 39.3161 24.6486 39.2036C24.6498 39.0911 24.6022 39.0019 24.6011 38.9135C24.598 38.6466 24.6316 38.4587 24.589 38.1339C24.5779 38.05 24.5211 37.9601 24.5215 37.9104C24.5222 37.8506 24.5767 37.7862 24.5799 37.7087C24.5872 37.5239 24.5682 37.1795 24.5772 37.0022C24.579 36.9698 24.6272 36.9585 24.6422 36.9122C24.7008 36.7319 24.6954 36.5298 24.541 36.5656C24.6282 36.3345 24.5477 36.1207 24.5423 35.9066C24.5395 35.7886 24.5398 35.6453 24.5406 35.491L24.5411 35.195L24.796 35.0484C25.1762 34.8313 25.6358 34.5735 25.8641 34.3857C26.0588 34.2254 26.0183 34.1681 26.3655 34.037C26.3706 34.0351 26.3756 34.0332 26.3807 34.0313C26.453 34.0046 26.5278 33.9807 26.6151 33.9477C26.8342 33.865 27.0824 33.8708 27.1582 33.6498C27.4012 33.5575 27.5653 33.4328 27.7965 33.4522C27.8003 33.4141 27.8042 33.3759 27.8081 33.3378C27.8352 33.3217 27.8622 33.3056 27.8893 33.2896C27.9127 33.3105 27.9362 33.3315 27.9596 33.3524C28.0087 33.3269 28.0571 33.2929 28.1046 33.2548C28.2513 33.1372 28.3904 32.9816 28.5168 32.9126C28.7974 32.7586 29.5435 32.4029 29.8282 32.2893C29.9792 32.2288 29.9584 32.1755 30.098 32.2327C30.1255 32.2083 30.153 32.184 30.1806 32.1597C30.1876 32.1268 30.1947 32.094 30.2019 32.0614C30.3835 31.9625 30.6185 31.8796 30.7916 31.7857C31.1065 31.6136 31.5527 31.3092 31.8917 31.176C31.9766 31.1424 32.0977 31.1264 32.1755 31.0843C32.2888 31.0231 32.2826 30.9497 32.4274 30.8738C32.57 30.7991 32.7957 30.7099 33.0053 30.6212C33.1625 30.5548 33.311 30.4888 33.4111 30.4341C33.4805 30.3961 33.5033 30.3619 33.5508 30.3351C33.7502 30.2228 33.918 30.1376 34.1016 30.0167C34.3339 29.9478 34.3408 30.0005 34.4307 30.0101C34.4992 30.0179 34.6878 30.0051 34.7231 30.0181C34.7482 30.0277 34.7092 30.0864 34.7413 30.0945C34.5155 30.2681 34.4066 30.3166 34.1926 30.4045C33.874 30.6103 33.555 30.8155 33.2357 31.0201C33.198 31.0442 33.1606 31.0681 33.1231 31.0921C33.0799 31.0943 33.0364 31.0961 32.9928 31.0975C32.9928 31.0974 32.9927 31.0974 32.9927 31.0974C32.8414 31.1604 32.8112 31.2459 32.7436 31.3041C32.0998 31.8679 30.6457 32.6534 29.8384 33.103C29.6655 33.2019 29.132 33.5732 28.9874 33.596C28.9499 33.6019 28.9157 33.5622 28.8821 33.5794C28.7432 33.6794 28.6043 33.7795 28.4655 33.8796C28.3304 33.9771 28.1952 34.0748 28.06 34.1724C27.6405 34.3558 27.2439 34.599 26.8516 34.8462C26.6477 34.9747 26.445 35.1045 26.2409 35.2274C25.9085 35.4276 25.5769 35.6275 25.2457 35.8267L25.4395 35.491C25.4658 36.982 25.4857 38.4621 25.4691 39.9346C25.4651 40.2929 25.5015 40.7476 25.4746 41.0984C25.4635 41.2448 25.381 41.3058 25.4413 41.4982C25.4192 41.5002 25.397 41.5022 25.3749 41.5042C25.4009 41.6721 25.4504 41.7793 25.4544 41.9675C25.4577 42.126 25.4583 42.5452 25.4491 42.6852C25.4445 42.7579 25.4041 42.7308 25.4039 42.7985C25.4039 42.812 25.4047 42.8272 25.406 42.8439L24.8745 42.5371C24.9794 42.465 25.1401 42.3235 25.2631 42.2537C25.3891 42.1821 25.6245 42.1013 25.718 42.0404C26.0548 41.8214 26.4016 41.5479 26.7828 41.353C26.8881 41.2992 27.0454 41.2678 27.0768 41.2483C27.1382 41.2101 27.1327 41.1575 27.1718 41.1282C27.3708 40.9798 27.7341 40.8404 27.9455 40.7233C28.6346 40.342 29.3512 39.9149 30.0387 39.5378C30.4729 39.2991 31.187 38.8898 31.6015 38.6931C31.6909 38.6507 31.6909 38.7033 31.763 38.6625C31.843 38.6174 31.8709 38.5663 31.9071 38.5432C32.157 38.3821 32.7141 38.0358 32.9737 37.9247C33.0232 37.9035 33.0739 37.9138 33.1017 37.898C33.1158 37.89 33.1361 37.8522 33.1793 37.8253C33.5602 37.5878 33.8524 37.4396 34.2396 37.231C34.3407 37.1764 34.4436 37.1198 34.5477 37.0617L34.4188 37.2851C34.4291 36.5301 34.4163 35.6984 34.4445 34.9346C34.4516 34.7419 34.5063 34.6097 34.506 34.5826C34.5055 34.5232 34.4706 34.4851 34.4637 34.3646C34.4418 33.9642 34.4861 33.4249 34.4755 33.044C34.4704 32.8558 34.4358 32.5972 34.4315 32.4121C34.4279 32.2642 34.4498 31.9149 34.4352 31.8493C34.4264 31.8094 34.396 31.791 34.3934 31.7432ZM34.9537 36.7258C34.8836 36.6995 34.9453 36.9764 34.9817 36.8725C34.9898 36.8491 34.9718 36.7326 34.9537 36.7258ZM24.8221 41.5516C24.7928 41.5541 24.7635 41.5566 24.7341 41.5592C24.7465 41.5955 24.7588 41.6319 24.7712 41.6682C24.7887 41.6478 24.8062 41.6274 24.8238 41.6069C24.8232 41.5885 24.8227 41.57 24.8221 41.5516Z" fill="#111111"/>
<path d="M34.6768 29.9322L33.1254 30.8293L28.3092 33.6087L25.0518 35.4911L21.732 33.5719L16.89 30.7778L15.3643 29.8955L18.6217 28.0168L20.1474 27.1344L23.4379 25.2374L24.9599 24.3587L24.9893 24.3403L26.5114 25.219L29.8055 27.1197L31.357 28.0168L34.6768 29.9322Z" fill="#43C65D"/>
<path d="M32.6418 30.7812C32.6867 30.7527 32.7617 30.7325 32.8171 30.7031C32.8884 30.6653 32.9464 30.6358 32.9987 30.6098C33.1166 30.551 33.2055 30.5103 33.3521 30.4346C33.6651 30.2721 34.5714 29.7499 34.6236 29.8402C34.6236 29.8402 34.6236 29.8402 34.6236 29.8402C34.6241 29.8411 34.6246 29.8421 34.6249 29.8431C34.6318 29.8622 34.5655 29.9253 34.5656 29.9518C34.5657 29.9784 34.6484 30.1017 34.5442 30.174C34.3927 30.2779 33.9952 30.4683 33.9118 30.5193C33.8549 30.5544 33.7916 30.6092 33.7196 30.6552C33.5087 30.79 33.3824 30.8549 33.2174 30.9885C33.2006 31.0021 33.1834 31.0164 33.1658 31.0315C33.0693 31.0629 32.9726 31.0939 32.8756 31.1244C32.7695 31.1996 32.585 31.2726 32.518 31.3139C32.4631 31.3478 32.44 31.3834 32.3825 31.4184C32.3181 31.4578 32.2079 31.4987 32.0912 31.571C31.8998 31.6895 31.8913 31.7548 31.7786 31.8296C31.6618 31.9072 31.4601 31.9932 31.316 32.1008C31.2997 32.1174 31.2834 32.134 31.2671 32.1507C31.2877 32.1542 31.3083 32.1577 31.3288 32.1611C31.2548 32.2128 31.2076 32.2086 31.1364 32.2505C31.0525 32.2998 31.0233 32.3485 30.9671 32.382C30.9211 32.4095 30.8478 32.428 30.7888 32.4648C30.7027 32.5184 30.7376 32.5345 30.6938 32.5677C30.6762 32.5808 30.3402 32.8035 30.321 32.8155C30.1737 32.9057 30.1382 32.8743 30.018 32.9415C29.6847 33.1277 29.367 33.3612 29.0716 33.5559C28.9396 33.6427 28.7972 33.725 28.6583 33.7989C28.8082 33.5632 28.287 33.7566 28.5628 33.8245C28.5257 33.8392 28.4929 33.8562 28.4626 33.8746C28.3592 33.9376 28.286 34.0175 28.1723 34.0773C28.0772 34.1272 27.9993 34.1407 27.8681 34.2197C27.6351 34.3598 27.4219 34.585 27.2791 34.494C27.0181 34.68 26.7521 34.7719 26.722 34.9496C26.6556 34.9993 26.4333 35.0359 26.3481 35.073C26.2679 35.1085 25.6723 35.4161 25.5768 35.4696C25.4813 35.5234 25.3149 35.6187 25.2419 35.6766C25.2221 35.6923 25.2068 35.7126 25.1924 35.7344L25.0467 35.8155L24.9112 35.7343C24.8166 35.7283 24.7104 35.7426 24.64 35.5411C24.424 35.4354 24.3521 35.3889 24.1686 35.2604C24.1354 35.2371 24.1451 35.2113 24.1246 35.1996C24.0823 35.1756 24.0003 35.1521 23.9236 35.1114C23.7975 35.0445 23.7557 34.954 23.7252 35.0385C23.6359 35.005 23.5466 34.9716 23.4572 34.9382C23.4371 34.9071 23.417 34.8758 23.3969 34.8446C23.3437 34.8361 23.2905 34.8276 23.2372 34.8193C23.3538 34.7357 23.0075 34.6274 23.0698 34.7493C22.9245 34.6362 22.7794 34.5226 22.6346 34.4087C22.7324 34.2904 22.2955 34.1953 22.2848 34.2853C22.2667 34.2749 22.2486 34.2645 22.2305 34.2542C22.0919 34.1289 21.9292 34.0751 21.7493 33.9413C21.6524 33.8691 21.6152 33.835 21.598 33.8039C21.5834 33.7774 21.5831 33.753 21.5726 33.7088C21.525 33.6864 21.4774 33.664 21.4298 33.6416C21.0915 33.6779 21.3062 33.403 20.8205 33.3025C20.7532 33.1183 20.3983 32.9912 20.1651 32.9034C20.138 32.8931 20.1251 32.9146 20.0881 32.9024C19.9979 32.8724 19.8075 32.7266 19.7739 32.8011C19.7141 32.7401 19.6544 32.6789 19.5947 32.6177C19.5289 32.5972 19.463 32.5769 19.3971 32.5565C19.3845 32.5789 19.372 32.6013 19.3595 32.6237C19.2854 32.4811 19.0836 32.4049 19.0029 32.3347C18.9869 32.3207 19.0008 32.2875 18.9493 32.2469C18.8892 32.1992 18.761 32.1383 18.6881 32.0837C18.6376 32.1008 18.5871 32.118 18.5366 32.1352C18.3851 32.0742 18.3885 31.9544 18.3102 31.9002C18.2961 31.8905 18.0213 31.7425 18.0055 31.7361C17.877 31.6836 17.8653 31.7819 17.529 31.5682C17.4692 31.5301 17.4352 31.4742 17.3802 31.4414C17.2831 31.3833 16.9505 31.2774 16.8934 31.3226C16.8592 31.2603 16.7741 31.1958 16.6829 31.1368C16.5678 31.0623 16.4432 30.9968 16.3977 30.9551C16.3732 30.9324 16.3939 30.8818 16.3125 30.822C16.2467 30.7734 16.0429 30.7072 15.957 30.6497C15.8659 30.5885 15.8549 30.5293 15.814 30.5021C15.7753 30.4764 15.7196 30.4874 15.6648 30.4558C15.4943 30.3568 15.3694 30.216 15.2348 30.1374C15.2322 30.1359 15.2296 30.1344 15.227 30.133L14.8158 29.8914L15.2273 29.6578C15.4184 29.5454 15.5336 29.3521 15.6698 29.2157C15.7138 29.1983 15.7655 29.196 15.808 29.1714C16.3342 28.8685 16.9364 28.5416 17.4752 28.2567C17.725 28.1241 18.4113 27.9068 18.1185 27.7747C18.1422 27.7408 18.2542 27.6808 18.3904 27.6158C18.6107 27.5105 18.8952 27.3921 18.9684 27.3507C19.0866 27.2837 19.156 27.1885 19.2479 27.1342C19.4846 26.9942 19.6745 26.9121 19.9229 26.7462C19.9662 26.7174 20.0106 26.6865 20.0574 26.6523C20.1396 26.5921 20.2052 26.4886 20.2574 26.4591C20.3204 26.4236 20.415 26.4319 20.4977 26.388C20.6946 26.2828 21.0454 26.0586 21.2354 25.9595C21.2701 25.9415 21.3061 25.9765 21.362 25.9615C21.5799 25.9036 21.7886 25.777 21.6741 25.6648C21.9593 25.6009 22.1428 25.4023 22.3641 25.2685C22.5796 25.1385 22.8823 24.9694 23.1834 24.796C23.5363 24.5926 23.8871 24.3832 24.0921 24.224C24.322 24.0454 24.2929 23.9861 24.6559 23.8321L24.6376 23.843C24.6479 23.8383 24.6585 23.8334 24.6694 23.8284L24.977 23.6362L25.2911 23.8175C25.2953 23.8208 25.2996 23.824 25.3039 23.8274C25.309 23.8314 25.3142 23.8354 25.3193 23.8394C25.3922 23.8965 25.4641 23.9574 25.5528 24.026C25.7755 24.1985 25.9326 24.4384 26.1936 24.4118C26.4029 24.5734 26.5974 24.6704 26.7328 24.8356C26.7574 24.8657 26.7802 24.8981 26.8007 24.9335C26.8397 24.9201 26.8788 24.9067 26.9177 24.8934C26.9509 24.912 26.984 24.9307 27.0171 24.9493C27.0124 24.9811 27.0077 25.0129 27.0031 25.0447C27.2339 25.1893 27.5915 25.2606 27.7887 25.3799C28.1199 25.5789 28.9493 26.1324 29.2446 26.3535C29.4016 26.4707 29.4389 26.4269 29.4757 26.586C29.5171 26.6013 29.5584 26.6167 29.5997 26.6321C29.6358 26.6241 29.6718 26.6162 29.7077 26.6084C29.7998 26.664 29.8955 26.7307 29.991 26.7982C30.1171 26.8877 30.2426 26.9785 30.3581 27.0488C30.6831 27.2457 31.1727 27.492 31.5231 27.7295C31.572 27.7624 31.6185 27.7952 31.6616 27.8275C31.7494 27.8936 31.8442 28.0021 31.9354 28.0576C32.0683 28.1384 32.1343 28.0995 32.3018 28.2038C32.5898 28.385 33.0914 28.7826 33.3675 28.947C33.4492 28.9964 33.4969 29.0029 33.5536 29.0363C33.7917 29.1766 33.9831 29.2988 34.219 29.4202C34.4371 29.6115 34.3913 29.6417 34.441 29.732C34.4784 29.8009 34.6143 29.9754 34.625 30.015C34.6322 30.0434 34.5505 30.0323 34.5638 30.0666C34.2499 29.9285 34.1322 29.8461 33.9079 29.6809C33.4547 29.4436 33.002 29.2055 32.5497 28.9665C32.5193 28.9262 32.489 28.8855 32.4591 28.8445C32.4591 28.8444 32.4591 28.8444 32.4591 28.8443C32.2996 28.7281 32.1981 28.7375 32.0981 28.699C31.8436 28.6002 31.5344 28.4572 31.2005 28.288C30.7005 28.0345 30.1466 27.7208 29.6334 27.4174C29.2013 27.1629 28.7973 26.9163 28.4737 26.7282C28.2659 26.6074 27.5609 26.2641 27.4443 26.1361C27.4141 26.1029 27.4295 26.0525 27.3911 26.0281C27.0382 25.8619 26.685 25.6961 26.3319 25.5301C26.3162 25.5227 26.3006 25.5153 26.2849 25.5079C25.8347 25.1891 25.3422 24.9188 24.8488 24.6545C24.8384 24.649 24.828 24.6434 24.8176 24.6378L25.1713 24.6316C25.1617 24.6381 25.1521 24.6445 25.1425 24.651L25.1322 24.6572C24.9049 24.7984 24.6787 24.94 24.4515 25.0758C24.1767 25.2399 23.9024 25.4039 23.6285 25.5676C22.5355 26.2197 21.4478 26.8668 20.3583 27.5003C19.8503 27.7965 19.3415 28.0901 18.8316 28.3799C18.759 28.4211 18.6867 28.462 18.6145 28.5028C18.2376 28.7155 17.7802 29.0213 17.3998 29.2097C17.2411 29.2884 17.1361 29.2538 16.9651 29.422C16.9519 29.404 16.9387 29.3861 16.9256 29.3682C16.763 29.4919 16.6755 29.5996 16.4807 29.7165C16.3166 29.815 15.8783 30.0685 15.7273 30.145C15.649 30.1848 15.6571 30.1335 15.5862 30.1742C15.5725 30.182 15.5575 30.1915 15.5413 30.2023L15.5416 29.5889C15.679 29.6571 15.9209 29.7478 16.0687 29.8345C16.2197 29.9231 16.4512 30.112 16.5706 30.1742C16.737 30.2611 16.9122 30.3455 17.0897 30.4326C17.3707 30.5701 17.6578 30.7145 17.9253 30.8842C18.0458 30.9608 18.179 31.097 18.2182 31.1184C18.2949 31.1599 18.3416 31.1311 18.3953 31.1553C18.6676 31.279 19.039 31.5638 19.2896 31.7133C20.1059 32.2011 20.9841 32.6946 21.7954 33.1827C21.8335 33.2056 21.8736 33.2296 21.9152 33.2544C22.4339 33.5643 23.2016 34.0139 23.627 34.2993C23.7261 34.3658 23.6759 34.3894 23.762 34.4401C23.8576 34.4963 23.9247 34.5002 23.9705 34.5244C24.2682 34.6809 24.8983 35.0225 25.2037 35.2283L24.8999 35.2283C24.9221 35.2174 24.943 35.2075 24.9625 35.1987C25.0216 35.172 25.0792 35.1782 25.1127 35.159C25.1297 35.1494 25.1567 35.1078 25.2089 35.0756C25.6704 34.7914 26.0214 34.6092 26.4875 34.3548C27.0244 34.0617 27.6024 33.7232 28.1833 33.3909C28.5684 33.1708 28.9546 32.9534 29.3296 32.7516C29.5347 32.6415 29.7002 32.6091 29.7284 32.5925C29.7904 32.5562 29.8128 32.503 29.9353 32.4243C30.3431 32.1636 30.9293 31.8765 31.3224 31.6375C31.5167 31.5195 31.7698 31.3334 31.9613 31.2179C32.1142 31.1256 32.4905 30.9337 32.5517 30.8815C32.5891 30.8498 32.5931 30.8123 32.6418 30.7812ZM27.7111 34.2742C27.7035 34.1975 27.4449 34.4183 27.5717 34.387C27.6002 34.3799 27.713 34.294 27.7111 34.2742ZM16.5999 28.9179C16.5825 28.894 16.5652 28.8701 16.5479 28.8462C16.5161 28.8789 16.4842 28.9115 16.4524 28.9441C16.4825 28.947 16.5126 28.9498 16.5428 28.9527C16.5618 28.9411 16.5808 28.9295 16.5999 28.9179Z" fill="#111111"/>
<path d="M25.0518 35.4911V42.844L15.3643 37.2484V29.8955L16.89 30.7779L21.732 33.572L25.0518 35.4911Z" fill="#27BA44"/>
<path d="M24.7685 37.3093C24.7662 37.2651 24.7861 37.2027 24.7884 37.1506C24.798 36.9322 24.8123 36.8513 24.8236 36.6537C24.8396 36.3607 24.8411 35.4911 24.9455 35.4911C24.9455 35.4911 24.9455 35.4911 24.9455 35.4911C24.9465 35.4911 24.9476 35.4912 24.9486 35.4913C24.9687 35.4944 24.9901 35.5684 25.0131 35.5793C25.0361 35.5903 25.1843 35.5821 25.1947 35.6871C25.2089 35.8394 25.1746 36.2048 25.1771 36.286C25.179 36.3416 25.1947 36.4099 25.1985 36.4809C25.2108 36.7099 25.2008 36.8297 25.2472 37.036C25.2261 37.1185 25.2046 37.201 25.1825 37.2835C25.1947 37.3912 25.1656 37.5544 25.1679 37.6198C25.1699 37.6734 25.1892 37.7049 25.1907 37.7608C25.1927 37.8235 25.173 37.9199 25.1773 38.0339C25.1842 38.221 25.2365 38.2543 25.245 38.3665C25.2539 38.4829 25.2275 38.6639 25.2487 38.8124C25.2549 38.831 25.2612 38.8496 25.2675 38.8682C25.2808 38.8549 25.2941 38.8415 25.3073 38.8282C25.3151 38.903 25.2879 38.9352 25.2886 39.0039C25.2893 39.0847 25.3169 39.126 25.3179 39.1804C25.3187 39.225 25.2981 39.2854 25.3004 39.3432C25.3038 39.4275 25.3352 39.4091 25.3421 39.4544C25.3447 39.4725 25.3696 39.807 25.3704 39.8259C25.3749 39.9694 25.33 39.9819 25.3281 40.0963C25.3227 40.4137 25.3662 40.7395 25.3871 41.0331C25.3964 41.1642 25.3964 41.301 25.3911 41.4318C25.2619 41.2259 25.1688 41.6815 25.3655 41.5111C25.3396 41.6566 25.3956 41.7597 25.389 41.8976C25.3847 41.9867 25.3573 42.0485 25.3601 42.1758C25.3649 42.4017 25.4531 42.6489 25.3029 42.7139C25.308 42.7584 25.3107 42.802 25.3124 42.844L25.3042 43.3001L24.9215 43.0697C24.7366 42.9729 24.5964 42.8711 24.4697 42.9314C24.4055 42.9057 24.2935 42.7491 24.2324 42.7017C24.1742 42.6573 23.708 42.3515 23.6299 42.3046C23.5516 42.2581 23.414 42.1777 23.3408 42.1511C23.2491 42.1172 23.1136 42.2171 23.0536 41.9779C22.8726 41.8925 22.8132 41.8533 22.6623 41.7436C22.635 41.7238 22.6453 41.6984 22.6282 41.6887C22.5931 41.6688 22.5231 41.6523 22.4591 41.6189C22.3538 41.5641 22.3239 41.4804 22.2911 41.5637C22.2155 41.5381 22.1399 41.5126 22.0642 41.4873C22.0489 41.4589 22.0336 41.4305 22.0184 41.402C21.9725 41.3978 21.9267 41.3936 21.8807 41.3895C21.9887 41.3008 21.6939 41.2226 21.7395 41.3347C21.6208 41.237 21.5024 41.139 21.3841 41.0405C21.4782 40.9199 21.1034 40.8609 21.0875 40.9479C21.0725 40.9393 21.0574 40.9307 21.0423 40.9221C20.9304 40.8122 20.7921 40.7727 20.6447 40.6577C20.4974 40.5426 20.5201 40.538 20.5072 40.4479C20.4672 40.4299 20.4273 40.4119 20.3874 40.3939C20.0891 40.4532 20.2969 40.1744 19.88 40.1134C19.8347 39.9418 19.5341 39.8459 19.3368 39.7787C19.3139 39.7708 19.301 39.7923 19.2696 39.7833C19.193 39.7611 19.0374 39.6353 19.0025 39.7091C18.9548 39.655 18.9071 39.6008 18.8595 39.5464C18.8035 39.5316 18.7474 39.5169 18.6913 39.5022C18.6787 39.5246 18.6662 39.5469 18.6536 39.5692C18.5993 39.4381 18.4287 39.3797 18.3633 39.3184C18.3503 39.3061 18.3649 39.2733 18.3229 39.2382C18.2739 39.1969 18.1664 39.1478 18.1067 39.1009C18.0614 39.1209 18.016 39.141 17.9706 39.1612C17.8427 39.1137 17.8545 38.9988 17.7901 38.9525C17.7784 38.9442 17.5492 38.8224 17.536 38.8175C17.4275 38.7765 17.4101 38.8714 17.132 38.6912C17.0826 38.6591 17.057 38.608 17.0114 38.5806C16.9308 38.532 16.648 38.4547 16.5949 38.5022C16.5377 38.373 16.2549 38.2522 16.1889 38.1865C16.1691 38.1666 16.1909 38.1167 16.1242 38.0654C16.0701 38.0237 15.897 37.9752 15.8261 37.9265C15.7509 37.8746 15.7456 37.8186 15.7118 37.7956C15.6799 37.7739 15.6304 37.7884 15.5849 37.7623C15.4431 37.68 15.3442 37.5543 15.2323 37.489C15.2306 37.488 15.2289 37.487 15.2271 37.486L15.0886 37.4042L15.09 37.2484C15.0887 37.0635 14.9783 36.8998 14.9281 36.7446C14.9351 36.7057 14.9589 36.6674 14.9588 36.6266C14.9593 36.1218 14.977 35.5524 14.9994 35.046C15.0093 34.811 15.164 34.2265 14.9033 34.3825C14.857 34.3008 14.9599 33.7069 14.9613 33.5939C14.9625 33.481 14.9148 33.3914 14.9138 33.3026C14.9106 33.0347 14.9442 32.8461 14.9017 32.52C14.8906 32.4358 14.8337 32.3455 14.8342 32.2957C14.8349 32.2356 14.8894 32.1709 14.8926 32.0931C14.8999 31.9076 14.8808 31.5618 14.8899 31.3839C14.8916 31.3514 14.9399 31.3399 14.9549 31.2935C15.0135 31.1125 15.0081 30.9096 14.8536 30.9455C14.9408 30.7135 14.8604 30.4989 14.855 30.2839C14.8523 30.1728 14.8524 30.0394 14.8531 29.8955L14.8546 29.0083L15.6203 29.4529C16.0045 29.6775 16.473 29.9579 16.7568 30.0649C16.9592 30.1411 17.0101 30.1057 17.2004 30.2411C17.2324 30.2639 17.2688 30.2918 17.3108 30.3262C17.315 30.3296 17.3192 30.3331 17.3234 30.3365C17.3829 30.3859 17.4412 30.439 17.5138 30.4982C17.6957 30.6471 17.8155 30.8654 18.0454 30.8209C18.2477 30.9858 18.4384 31.066 18.5377 31.2763C18.5728 31.2606 18.6079 31.2449 18.6429 31.2293C18.6705 31.2447 18.698 31.2602 18.7256 31.2756C18.7192 31.3064 18.7128 31.3372 18.7064 31.368C18.8975 31.4897 19.2047 31.5318 19.3682 31.6318C19.6429 31.7982 20.327 32.2679 20.5688 32.4582C20.6974 32.559 20.7332 32.5143 20.7537 32.6639C20.7887 32.6756 20.8237 32.6873 20.8587 32.6991C20.8908 32.6888 20.9228 32.6786 20.9547 32.6685C21.1318 32.7767 21.3221 32.9392 21.4906 33.0425C21.6084 33.1148 21.7534 33.193 21.9031 33.2756C22.144 33.4083 22.3964 33.5532 22.5731 33.6929C22.6449 33.7499 22.7197 33.847 22.7954 33.8936C22.9054 33.9614 22.966 33.9193 23.1047 34.0072C23.3428 34.1599 23.7517 34.5045 23.9807 34.6421C24.0485 34.6834 24.0896 34.6862 24.1367 34.7141C24.3344 34.8313 24.4926 34.9345 24.6896 35.0338C24.8661 35.2012 24.8238 35.2335 24.8606 35.3163C24.8882 35.3796 24.994 35.537 25.0004 35.5741C25.0047 35.6007 24.9341 35.5961 24.9432 35.628C24.6792 35.5184 24.5824 35.448 24.3987 35.3059C24.0203 35.1113 23.6423 34.916 23.2649 34.7198C23.2413 34.6834 23.2179 34.6466 23.1947 34.6094C23.1947 34.6094 23.1948 34.6093 23.1948 34.6093C23.064 34.5095 22.9746 34.5258 22.8901 34.4962C22.5323 34.3695 22.0515 34.1359 21.5616 33.8668C20.9445 33.53 20.3144 33.1339 19.8681 32.8733C19.6953 32.7727 19.1046 32.4953 19.0121 32.3812C18.9882 32.3517 19.0053 32.3022 18.9735 32.2817C18.6642 32.1423 18.3547 32.0034 18.0453 31.8642C17.6752 31.5917 17.2648 31.3688 16.853 31.1518C16.8073 31.1277 16.7616 31.1036 16.7159 31.0796C16.5474 30.9909 16.3796 30.9025 16.215 30.8112C15.866 30.6176 15.5175 30.4246 15.1699 30.2317L15.7527 29.8955C15.7787 31.3827 15.7982 32.859 15.7817 34.3277C15.7777 34.6875 15.8141 35.144 15.7873 35.4961C15.7761 35.6431 15.6937 35.7044 15.7539 35.8974C15.7318 35.8995 15.7097 35.9015 15.6876 35.9035C15.7135 36.072 15.7631 36.1797 15.7671 36.3686C15.7704 36.5277 15.771 36.9486 15.7618 37.0892C15.7572 37.1621 15.7168 37.1349 15.7166 37.2029C15.7166 37.2164 15.7173 37.2317 15.7186 37.2484L15.5416 36.9417C15.6568 36.9968 15.8604 37.0656 15.9828 37.1375C16.1083 37.2112 16.2968 37.3752 16.3966 37.426C16.756 37.6091 17.1676 37.7737 17.5284 38.0073C17.628 38.0719 17.7344 38.1927 17.7671 38.2103C17.8311 38.2445 17.874 38.2135 17.919 38.2329C18.1479 38.3315 18.4514 38.5773 18.6593 38.7024C19.3366 39.1103 20.0675 39.5192 20.7404 39.9278C21.1658 40.1856 21.88 40.6012 22.259 40.8629C22.3408 40.9193 22.2952 40.9455 22.3668 40.9878C22.4461 41.0346 22.5045 41.0334 22.5428 41.0533C22.8082 41.1899 23.3887 41.5007 23.6157 41.6706C23.6589 41.7029 23.6755 41.752 23.7032 41.7683C23.7172 41.7765 23.7602 41.7754 23.8053 41.7994C24.2029 42.0116 24.4783 42.1912 24.854 42.4232C24.9601 42.4887 25.0692 42.5546 25.1807 42.621L24.7942 42.844C24.8038 42.0938 24.7918 41.2703 24.8195 40.5132C24.8266 40.3197 24.8813 40.187 24.881 40.1598C24.8806 40.1001 24.8457 40.0619 24.8388 39.941C24.8168 39.539 24.8611 38.9975 24.8506 38.6152C24.8455 38.4263 24.8109 38.1667 24.8065 37.9808C24.803 37.8323 24.8249 37.4816 24.8103 37.4158C24.8015 37.3758 24.771 37.3572 24.7685 37.3093ZM25.3287 42.3114C25.2586 42.285 25.3203 42.563 25.3567 42.4587C25.3648 42.4352 25.3469 42.3183 25.3287 42.3114ZM15.1348 35.9511C15.1054 35.9536 15.0761 35.9561 15.0468 35.9587C15.0592 35.9952 15.0715 36.0317 15.0838 36.0682C15.1014 36.0477 15.1189 36.0272 15.1365 36.0066C15.1359 35.9881 15.1353 35.9696 15.1348 35.9511Z" fill="#111111"/>
<path d="M10.5222 27.1014V34.4544L0.834747 28.8588V21.5059L7.20243 25.1823L10.5222 27.1014Z" fill="#F2DB25"/>
<path d="M10.2388 28.9196C10.2366 28.8754 10.2565 28.8131 10.2588 28.7609C10.2684 28.5425 10.2827 28.4616 10.294 28.264C10.31 27.971 10.3115 27.1015 10.4159 27.1014C10.4159 27.1014 10.4159 27.1014 10.4159 27.1014C10.4169 27.1014 10.418 27.1015 10.419 27.1017C10.4391 27.1047 10.4605 27.1787 10.4835 27.1897C10.5065 27.2006 10.6547 27.1924 10.6651 27.2975C10.6793 27.4498 10.645 27.8151 10.6475 27.8964C10.6494 27.9519 10.6651 28.0203 10.6689 28.0913C10.6812 28.3203 10.6712 28.4401 10.7176 28.6464C10.6965 28.7289 10.675 28.8114 10.6529 28.8939C10.6651 29.0016 10.636 29.1647 10.6383 29.2301C10.6402 29.2838 10.6596 29.3152 10.6611 29.3712C10.6631 29.4339 10.6434 29.5302 10.6477 29.6443C10.6546 29.8313 10.7069 29.8646 10.7154 29.9768C10.7243 30.0932 10.6979 30.2742 10.719 30.4227C10.7253 30.4413 10.7316 30.46 10.7379 30.4786C10.7512 30.4652 10.7645 30.4519 10.7777 30.4385C10.7855 30.5133 10.7583 30.5455 10.759 30.6142C10.7597 30.6951 10.7873 30.7363 10.7883 30.7908C10.7891 30.8353 10.7685 30.8958 10.7708 30.9536C10.7742 31.0378 10.8056 31.0194 10.8125 31.0648C10.8151 31.0828 10.84 31.4173 10.8408 31.4362C10.8453 31.5797 10.8004 31.5922 10.7985 31.7067C10.7931 32.0241 10.8366 32.3499 10.8575 32.6435C10.8668 32.7746 10.8668 32.9114 10.8615 33.0421C10.7322 32.8362 10.6392 33.2919 10.8359 33.1215C10.81 33.2669 10.8659 33.37 10.8594 33.5079C10.8551 33.5971 10.8277 33.6588 10.8305 33.7861C10.8353 34.0121 10.9235 34.2592 10.7733 34.3242C10.7784 34.3688 10.7811 34.4123 10.7828 34.4544L10.7746 34.9105L10.3918 34.6801C10.207 34.5833 10.0668 34.4814 9.94005 34.5418C9.87593 34.516 9.76394 34.3595 9.70275 34.312C9.64462 34.2676 9.17842 33.9618 9.1003 33.915C9.02204 33.8684 8.88439 33.788 8.81116 33.7614C8.71947 33.7275 8.58398 33.8275 8.52404 33.5883C8.34304 33.5028 8.28361 33.4637 8.13271 33.354C8.10538 33.3342 8.11567 33.3087 8.09862 33.299C8.06346 33.2791 7.99354 33.2627 7.92949 33.2293C7.82416 33.1744 7.79427 33.0908 7.76146 33.174C7.6859 33.1485 7.61028 33.123 7.53459 33.0976C7.5193 33.0693 7.50403 33.0408 7.48878 33.0123C7.44294 33.0081 7.39704 33.0039 7.35111 32.9998C7.45905 32.9112 7.16433 32.8329 7.20991 32.9451C7.09122 32.8474 6.97276 32.7493 6.85453 32.6508C6.94859 32.5303 6.57377 32.4713 6.55793 32.5583C6.54286 32.5497 6.5278 32.5411 6.51274 32.5324C6.40077 32.4226 6.26253 32.383 6.11509 32.2681C5.96777 32.153 5.99053 32.1483 5.97756 32.0582C5.93764 32.0402 5.89772 32.0223 5.85778 32.0043C5.55954 32.0636 5.76727 31.7847 5.35042 31.7237C5.30509 31.5521 5.00445 31.4562 4.8072 31.389C4.78427 31.3812 4.77139 31.4026 4.74 31.3936C4.66336 31.3715 4.50778 31.2457 4.47294 31.3195C4.4252 31.2654 4.37752 31.2111 4.32991 31.1568C4.27387 31.142 4.21781 31.1272 4.16171 31.1126C4.14913 31.1349 4.13655 31.1573 4.12397 31.1796C4.0697 31.0484 3.89907 30.9901 3.83368 30.9288C3.82072 30.9165 3.83532 30.8837 3.79329 30.8485C3.74427 30.8072 3.6368 30.7582 3.5771 30.7112C3.53177 30.7312 3.4864 30.7513 3.44099 30.7715C3.31312 30.724 3.32492 30.6091 3.26046 30.5628C3.24883 30.5546 3.01964 30.4328 3.00635 30.4278C2.89792 30.3868 2.88048 30.4818 2.60244 30.3016C2.55296 30.2694 2.52743 30.2184 2.48178 30.1909C2.40119 30.1423 2.1184 30.0651 2.06527 30.1125C2.00807 29.9834 1.72529 29.8625 1.65933 29.7969C1.63951 29.777 1.66127 29.727 1.59456 29.6757C1.54053 29.634 1.36736 29.5856 1.29645 29.5368C1.2213 29.4849 1.21605 29.429 1.18224 29.406C1.15028 29.3842 1.10083 29.3988 1.0553 29.3726C0.913471 29.2903 0.814609 29.1646 0.702685 29.0993C0.700975 29.0983 0.69926 29.0973 0.697541 29.0963L0.558969 29.0146L0.560428 28.8588C0.559089 28.6738 0.44871 28.5101 0.39846 28.3549C0.405452 28.316 0.42925 28.2778 0.429228 28.237C0.429672 27.7322 0.447417 27.1627 0.469765 26.6564C0.479706 26.4213 0.634392 25.8368 0.373704 25.9928C0.32739 25.9112 0.430303 25.3172 0.431687 25.2043C0.432863 25.0913 0.385245 25.0018 0.38418 24.913C0.381021 24.6451 0.414637 24.4564 0.372075 24.1303C0.360952 24.0461 0.30413 23.9559 0.30459 23.906C0.30528 23.8459 0.359755 23.7813 0.362994 23.7034C0.370266 23.5179 0.35121 23.1722 0.360252 22.9942C0.362023 22.9617 0.410279 22.9503 0.425274 22.9038C0.483876 22.7228 0.478473 22.52 0.324023 22.5559C0.411211 22.3239 0.330752 22.1093 0.325383 21.8943C0.322719 21.7832 0.322786 21.6498 0.323472 21.5059L0.324974 20.6194L1.09039 21.0631C1.47477 21.2874 1.94344 21.5675 2.22734 21.6742C2.46426 21.7632 2.49364 21.6996 2.78191 21.9355C2.78612 21.939 2.79032 21.9424 2.79451 21.9459C2.85405 21.9953 2.91234 22.0483 2.98489 22.1076C3.16677 22.2566 3.2865 22.4749 3.51638 22.4304C3.71868 22.5953 3.90933 22.6756 4.00866 22.8859C4.04374 22.8702 4.0788 22.8545 4.11383 22.8389C4.1414 22.8544 4.16896 22.8698 4.19651 22.8853C4.1901 22.9161 4.1837 22.9469 4.17732 22.9777C4.36836 23.0994 4.67552 23.1416 4.83901 23.2416C5.11373 23.4081 5.7977 23.8779 6.03949 24.0683C6.16798 24.1691 6.20382 24.1244 6.22431 24.2741C6.25933 24.2857 6.29432 24.2974 6.32927 24.3092C6.36135 24.2989 6.39336 24.2888 6.42531 24.2787C6.60238 24.3869 6.79264 24.5494 6.96116 24.6528C7.07887 24.7251 7.22384 24.8033 7.37355 24.8859C7.61443 25.0187 7.86682 25.1635 8.04354 25.3033C8.11533 25.3603 8.19012 25.4574 8.26578 25.5039C8.37583 25.5717 8.43643 25.5297 8.57506 25.6175C8.81323 25.7703 9.22206 26.1148 9.4511 26.2524C9.51886 26.2937 9.56001 26.2965 9.60713 26.3245C9.80476 26.4417 9.96295 26.5449 10.16 26.6441C10.3365 26.8116 10.2942 26.8438 10.331 26.9267C10.3586 26.99 10.4644 27.1473 10.4708 27.1845C10.4751 27.2111 10.4045 27.2065 10.4136 27.2383C10.1496 27.1287 10.0528 27.0583 9.86907 26.9163C9.49069 26.7217 9.11274 26.5263 8.73528 26.3302C8.71167 26.2938 8.68828 26.257 8.66511 26.2198C8.66514 26.2197 8.66516 26.2197 8.66518 26.2197C8.5344 26.1198 8.44503 26.1362 8.36049 26.1066C8.00274 25.9798 7.52191 25.7463 7.032 25.4771C6.41489 25.1402 5.78493 24.7439 5.33862 24.4833C5.1659 24.3826 4.57527 24.1051 4.48277 23.991C4.45884 23.9614 4.47599 23.9119 4.44422 23.8914C4.13495 23.752 3.82545 23.6129 3.51608 23.4737C3.14607 23.2011 2.73567 22.9782 2.32391 22.761C2.1099 22.6481 1.89542 22.5368 1.6861 22.421C1.33688 22.2276 0.988287 22.0349 0.640586 21.8421L1.22306 21.5059C1.24913 22.993 1.26859 24.4693 1.25213 25.9381C1.24814 26.2978 1.28451 26.7543 1.25769 27.1065C1.24654 27.2535 1.16407 27.3147 1.22433 27.5078C1.2022 27.5098 1.18008 27.5118 1.15796 27.5139C1.18393 27.6824 1.2335 27.7901 1.23746 27.979C1.24077 28.1381 1.24139 28.5589 1.23219 28.6995C1.22758 28.7724 1.18717 28.7453 1.18699 28.8133C1.18699 28.8268 1.18773 28.8421 1.18903 28.8588L1.01195 28.552C1.12723 28.6071 1.33084 28.676 1.45323 28.7479C1.57867 28.8216 1.76718 28.9855 1.86702 29.0363C2.2264 29.2195 2.63802 29.384 2.99881 29.6176C3.09842 29.6822 3.20476 29.8031 3.23749 29.8206C3.30147 29.8549 3.34436 29.8238 3.38944 29.8432C3.61827 29.9419 3.92182 30.1876 4.12973 30.3127C4.80701 30.7206 5.53789 31.1295 6.21083 31.5382C6.63618 31.7959 7.3504 32.2116 7.72944 32.4733C7.81119 32.5297 7.76557 32.5559 7.83715 32.5981C7.91654 32.645 7.97488 32.6438 8.01317 32.6636C8.27857 32.8002 8.85914 33.1111 9.0861 33.2809C9.12932 33.3133 9.1459 33.3624 9.17359 33.3786C9.18758 33.3869 9.23064 33.3857 9.27567 33.4097C9.67327 33.6219 9.94873 33.8016 10.3244 34.0335C10.4305 34.099 10.5396 34.165 10.651 34.2313L10.2646 34.4544C10.2742 33.7042 10.2621 32.8806 10.2899 32.1235C10.297 31.9301 10.3517 31.7974 10.3514 31.7702C10.351 31.7105 10.316 31.6723 10.3092 31.5513C10.2872 31.1493 10.3315 30.6079 10.321 30.2255C10.3159 30.0366 10.2813 29.777 10.2769 29.5911C10.2734 29.4426 10.2953 29.092 10.2807 29.0262C10.2719 28.9861 10.2414 28.9676 10.2388 28.9196ZM10.7991 33.9218C10.729 33.8953 10.7907 34.1733 10.8271 34.069C10.8352 34.0456 10.8173 33.9286 10.7991 33.9218ZM0.605164 27.5614C0.575836 27.5639 0.546511 27.5665 0.517189 27.569C0.529553 27.6055 0.541899 27.642 0.554228 27.6785C0.571756 27.658 0.589299 27.6375 0.606857 27.617C0.606293 27.5985 0.605729 27.5799 0.605164 27.5614Z" fill="#111111"/>
<path d="M34.5885 13.2046V18.8002L33.0664 19.6789L29.8055 21.5612V23.3186L26.5113 25.2193L24.9892 24.3406L24.9598 24.359V18.7634L28.2209 16.8811L34.5885 13.2046Z" fill="#FC594C"/>
<path d="M34.3052 14.9298C34.303 14.8879 34.3229 14.8287 34.3251 14.7792C34.3347 14.572 34.349 14.4952 34.3603 14.3077C34.3763 14.0297 34.3779 13.2046 34.4822 13.2046C34.4822 13.2046 34.4822 13.2046 34.4822 13.2046C34.4833 13.2046 34.4843 13.2047 34.4854 13.2048C34.5054 13.2077 34.5268 13.2779 34.5498 13.2883C34.5728 13.2987 34.721 13.2909 34.7314 13.3906C34.7456 13.5351 34.7114 13.8818 34.7138 13.9589C34.7158 14.0116 34.7315 14.0764 34.7352 14.1438C34.7475 14.3611 34.7375 14.4748 34.7839 14.6705C34.7629 14.7488 34.7413 14.8271 34.7192 14.9054C34.7314 15.0075 34.7024 15.1624 34.7046 15.2244C34.7066 15.2753 34.7259 15.3052 34.7275 15.3583C34.7294 15.4178 34.7097 15.5092 34.714 15.6174C34.721 15.7949 34.7733 15.8265 34.7817 15.933C34.7906 16.0434 34.7643 16.2151 34.7854 16.356C34.7916 16.3737 34.7979 16.3914 34.8042 16.4091C34.8175 16.3964 34.8308 16.3837 34.844 16.3711C34.8518 16.442 34.8246 16.4726 34.8253 16.5378C34.8261 16.6145 34.8536 16.6537 34.8546 16.7053C34.8554 16.7476 34.8348 16.8049 34.8372 16.8598C34.8406 16.9397 34.8719 16.9222 34.8788 16.9653C34.8814 16.9824 34.9064 17.2998 34.9071 17.3177C34.9116 17.4539 34.8667 17.4658 34.8648 17.5744C34.8595 17.8755 34.9029 18.1847 34.9239 18.4633C34.9321 18.5739 34.933 18.6888 34.9294 18.8002L34.9246 19.0048L34.7589 19.0954C34.7467 19.1019 34.7345 19.1083 34.7223 19.1147C34.7329 19.0933 34.7381 19.0756 34.7391 19.061L34.8855 18.981L34.8897 18.8002C34.8672 18.785 34.847 18.7877 34.8307 18.8002L34.8273 18.9456L34.7096 19.0099C34.6383 18.9802 34.4751 19.0666 34.6443 19.1302C34.5119 19.1767 34.4551 19.2741 34.3385 19.3339C34.2631 19.3724 34.1987 19.378 34.0955 19.4408C33.9121 19.5521 33.7532 19.7458 33.6247 19.6466C33.4583 19.7713 33.2836 19.8361 33.2209 19.9464C33.2072 19.9707 33.1988 19.9971 33.1972 20.027C33.1459 20.0679 32.9621 20.0821 32.8938 20.1094C32.8295 20.1357 32.3562 20.3724 32.2807 20.4143C32.2052 20.4565 32.0738 20.5314 32.0176 20.5796C31.9467 20.6396 31.9685 20.8052 31.7389 20.7331C31.5833 20.8421 31.5228 20.8722 31.3606 20.9433C31.3312 20.9562 31.3145 20.9345 31.2985 20.9439C31.2654 20.9633 31.2193 21.0139 31.1616 21.0509C31.0666 21.1116 30.9823 21.094 31.0374 21.1643C30.9809 21.215 30.9245 21.2658 30.8682 21.3166C30.8372 21.315 30.8061 21.3133 30.7751 21.3116C30.7503 21.3481 30.7256 21.3847 30.701 21.4213C30.676 21.2848 30.4739 21.4934 30.5896 21.5124C30.4524 21.5625 30.3149 21.6122 30.1772 21.6615C30.1294 21.5458 29.9706 21.7172 29.9519 21.8149L30.0984 21.5612C30.1149 21.5754 30.1315 21.5821 30.1464 21.577C30.1464 21.5935 30.1465 21.6099 30.1466 21.6264C30.1075 21.7705 30.1424 21.9029 30.1166 22.0786C30.0906 22.2543 30.0752 22.2378 30.0036 22.2912C30.008 22.3325 30.0124 22.3739 30.0168 22.4152C30.2174 22.6321 29.872 22.5938 30.0277 22.9652C29.9502 23.0383 29.9458 23.1773 29.9634 23.3186L29.962 23.4122L29.8844 23.4554C29.8135 23.509 29.7461 23.5706 29.6893 23.6212C29.6721 23.6365 29.6842 23.6584 29.6622 23.6803C29.6081 23.7336 29.4301 23.8004 29.4763 23.8676C29.4086 23.8802 29.3408 23.8926 29.2729 23.9049C29.2346 23.9446 29.1963 23.9843 29.158 24.0241C29.171 24.0462 29.1841 24.0683 29.1971 24.0904C29.0614 24.0689 28.9334 24.183 28.8514 24.2067C28.8351 24.2113 28.8142 24.1822 28.7651 24.1996C28.7076 24.2198 28.6166 24.2854 28.5494 24.3116C28.5454 24.3602 28.5414 24.4088 28.5374 24.4574C28.4383 24.541 28.3468 24.4721 28.278 24.5028C28.2656 24.5083 28.057 24.6393 28.0467 24.648C27.9621 24.7184 28.0342 24.7819 27.7537 24.9241C27.7037 24.9493 27.6488 24.9447 27.6046 24.9691C27.5264 25.0122 27.3307 25.2112 27.3461 25.2804C27.2108 25.2625 26.9782 25.4391 26.8924 25.4611C26.8664 25.4676 26.8343 25.4236 26.7602 25.4536C26.7389 25.4622 26.7098 25.4831 26.6779 25.508L26.5071 25.6041L26.3447 25.508C26.2767 25.4805 26.1926 25.4516 26.1493 25.4216C26.0782 25.372 26.0744 25.3169 26.0424 25.2949C26.0121 25.2742 25.9642 25.2897 25.921 25.2649C25.7864 25.1868 25.6941 25.0649 25.5879 25.003C25.4344 24.9132 25.2422 24.9318 25.088 24.9014C25.0595 24.8769 25.04 24.8381 25.0064 24.8188C24.9346 24.7772 24.8614 24.7343 24.7874 24.6903L25.2031 24.6832C25.1932 24.6892 25.1833 24.6952 25.1734 24.7012L24.551 25.0832L24.5564 24.359C24.5618 23.9585 24.5769 23.5339 24.5948 23.1479C24.6048 22.9248 24.7594 22.3702 24.4987 22.5183C24.4524 22.4407 24.5553 21.8772 24.5567 21.77C24.5579 21.6628 24.5103 21.5779 24.5092 21.4936C24.5061 21.2394 24.5397 21.0604 24.4971 20.751C24.486 20.6711 24.4292 20.5854 24.4296 20.5381C24.4303 20.4811 24.4848 20.4198 24.488 20.3459C24.4953 20.1699 24.4763 19.8418 24.4853 19.6729C24.4871 19.6421 24.5353 19.6313 24.5503 19.5872C24.6089 19.4154 24.6035 19.2229 24.4491 19.257C24.5171 19.0851 24.483 18.9232 24.4622 18.7634L24.463 18.4748L24.711 18.3325C24.747 18.305 24.7832 18.2785 24.8214 18.2552C25.1894 18.03 25.8876 17.6679 26.1803 17.4233C26.3648 17.269 26.3246 17.2116 26.6568 17.0893C26.6617 17.0875 26.6665 17.0858 26.6714 17.084C26.7406 17.0591 26.8122 17.0371 26.8958 17.0063C27.1055 16.9292 27.3449 16.9401 27.4136 16.7233C27.646 16.6373 27.8017 16.5176 28.0249 16.5415C28.0249 16.5415 28.0251 16.5415 28.0252 16.5416C28.0281 16.5039 28.0311 16.4663 28.0341 16.4287C28.0599 16.4134 28.0856 16.3981 28.1114 16.3827C28.1344 16.4039 28.1575 16.4251 28.1805 16.4463C28.3714 16.3475 28.5488 16.1099 28.7087 16.0232C28.976 15.8768 29.6882 15.5405 29.9605 15.434C30.1049 15.3773 30.0837 15.3241 30.2195 15.3836C30.2455 15.36 30.2715 15.3365 30.2976 15.313C30.3037 15.2807 30.3099 15.2485 30.3162 15.2163C30.4892 15.1224 30.7142 15.0452 30.8792 14.9559C31.1793 14.7923 31.6033 14.5005 31.9275 14.3758C32.0087 14.3444 32.1252 14.331 32.1994 14.291C32.3074 14.2328 32.2998 14.1601 32.4379 14.0881C32.6767 13.9653 33.1561 13.7967 33.3779 13.6738C33.444 13.6378 33.4653 13.6045 33.5106 13.579C33.7007 13.4722 33.8608 13.3916 34.0355 13.276C34.2582 13.2129 34.2659 13.2651 34.3528 13.2765C34.419 13.2856 34.6006 13.2769 34.6349 13.2905C34.6594 13.3006 34.6229 13.3578 34.654 13.3664C34.4397 13.5332 34.3356 13.5788 34.131 13.6611C33.7922 13.8808 33.4531 14.0998 33.1134 14.3179C33.0717 14.3192 33.0299 14.3201 32.9878 14.3206C32.9878 14.3206 32.9878 14.3205 32.9878 14.3205C32.8432 14.3797 32.8158 14.4636 32.7518 14.5198C32.1426 15.0637 30.7565 15.8103 29.9872 16.2383C29.8225 16.3324 29.3156 16.6886 29.1766 16.7081C29.1406 16.7131 29.1068 16.6733 29.0748 16.6896C28.8484 16.8543 28.6222 17.0193 28.3959 17.1842C28.3618 17.2091 28.3278 17.2339 28.2938 17.2586C27.8929 17.4311 27.5153 17.6631 27.1419 17.8992C26.9478 18.0218 26.7549 18.1458 26.5605 18.263C26.0919 18.5455 25.6249 18.8275 25.1584 19.1075L25.3571 18.7634C25.3784 20.0047 25.3917 21.2383 25.3772 22.4663C25.3732 22.8076 25.4096 23.2408 25.3827 23.575C25.3716 23.7144 25.2891 23.7725 25.3494 23.9558C25.3272 23.9577 25.3051 23.9596 25.283 23.9615C25.3068 24.1079 25.3503 24.2059 25.3606 24.359L24.7476 24.019C24.7567 24.0124 24.7662 24.0058 24.7761 23.9992L24.977 23.8713L25.1905 23.9921C25.1931 23.9935 25.1958 23.9949 25.1985 23.9964C25.3309 24.069 25.6771 24.2681 25.788 24.3428C25.8456 24.3814 25.8031 24.4035 25.8588 24.4359C25.9545 24.491 26.186 24.562 26.3174 24.6392C26.4298 24.7052 26.5944 24.8495 26.6924 24.9057L26.3304 24.9057C26.3361 24.9023 26.3415 24.899 26.3465 24.8958C26.667 24.6865 26.9959 24.4235 27.3596 24.2388C27.4601 24.1879 27.6111 24.1601 27.6411 24.1415C27.6995 24.1051 27.6931 24.053 27.7303 24.0249C27.9192 23.8824 28.2667 23.7522 28.4683 23.6409C28.8457 23.4329 29.2314 23.2098 29.6158 22.9898L29.4259 23.3186C29.4271 22.9906 29.4294 22.6641 29.4366 22.3464C29.4415 22.1293 29.4446 21.8461 29.4502 21.5612L29.4468 21.3622L29.6278 21.2535C29.9207 21.092 30.2175 20.9324 30.4312 20.8321C30.5165 20.792 30.5176 20.8439 30.5863 20.8052C30.6625 20.7622 30.6884 20.7124 30.7228 20.6902C30.9606 20.5363 31.4909 20.2057 31.739 20.1012C31.7863 20.0813 31.8353 20.0925 31.8618 20.0775C31.8752 20.0699 31.8941 20.0329 31.9352 20.0073C32.2938 19.783 32.5704 19.6433 32.9335 19.4485C32.9376 19.4464 32.9416 19.4442 32.9457 19.442C33.4259 19.184 33.9452 18.8763 34.4635 18.5836L34.3384 18.8002C34.341 18.5192 34.346 18.2401 34.3562 17.9699C34.3634 17.7863 34.4181 17.6604 34.4177 17.6346C34.4173 17.578 34.3824 17.5417 34.3755 17.427C34.3535 17.0455 34.3979 16.5318 34.3873 16.1689C34.3822 15.9897 34.3476 15.7434 34.3432 15.567C34.3397 15.4261 34.3616 15.0933 34.347 15.0309C34.3382 14.9929 34.3078 14.9753 34.3052 14.9298ZM33.9683 19.478C33.955 19.4047 33.7574 19.59 33.8613 19.5721C33.8846 19.568 33.9717 19.497 33.9683 19.478ZM24.7302 24.0066C24.7009 24.009 24.6716 24.0115 24.6422 24.0139C24.6546 24.0485 24.6669 24.0831 24.6793 24.1178C24.6968 24.0983 24.7143 24.0788 24.7319 24.0594C24.7313 24.0418 24.7308 24.0242 24.7302 24.0066Z" fill="#111111"/>
<path d="M24.9599 18.7633V24.3589L23.4379 25.2376L20.1474 23.3368V21.5427L16.8276 19.6273L15.2724 18.7302V13.1714L21.6401 16.8479L24.9599 18.7633Z" fill="#E93A2C"/>
<path d="M24.6765 20.4951C24.6743 20.453 24.6942 20.3936 24.6964 20.344C24.7061 20.1359 24.7203 20.0589 24.7317 19.8706C24.7477 19.5916 24.7492 18.7633 24.8536 18.7633C24.8536 18.7633 24.8536 18.7633 24.8536 18.7633C24.8546 18.7633 24.8557 18.7634 24.8567 18.7635C24.8767 18.7664 24.8981 18.8369 24.9212 18.8473C24.9442 18.8578 25.0924 18.85 25.1028 18.95C25.1169 19.0951 25.0827 19.4431 25.0851 19.5205C25.0871 19.5734 25.1028 19.6385 25.1066 19.7061C25.1189 19.9242 25.1089 20.0383 25.1552 20.2348C25.1342 20.3134 25.1127 20.392 25.0906 20.4706C25.1027 20.5732 25.0737 20.7286 25.076 20.7909C25.0779 20.842 25.0972 20.8719 25.0988 20.9252C25.1007 20.985 25.0811 21.0767 25.0854 21.1854C25.0923 21.3635 25.1446 21.3952 25.1531 21.5021C25.162 21.613 25.1356 21.7854 25.1567 21.9268C25.163 21.9446 25.1692 21.9623 25.1755 21.98C25.1889 21.9673 25.2022 21.9546 25.2154 21.9419C25.2232 22.0132 25.196 22.0438 25.1966 22.1093C25.1974 22.1863 25.225 22.2256 25.226 22.2774C25.2267 22.3199 25.2062 22.3774 25.2085 22.4325C25.2119 22.5127 25.2433 22.4952 25.2502 22.5384C25.2528 22.5556 25.2777 22.8742 25.2785 22.8922C25.2829 23.0289 25.2381 23.0408 25.2361 23.1498C25.2308 23.4521 25.2743 23.7625 25.2952 24.0421C25.3029 24.1461 25.3042 24.2539 25.3014 24.3589L25.2966 24.5639L25.1306 24.6546C25.1121 24.6647 25.0935 24.6745 25.075 24.6842C25.1802 24.4742 24.7578 24.6106 24.9968 24.6998C24.8638 24.7466 24.8067 24.8442 24.6897 24.9042C24.614 24.9429 24.5494 24.9486 24.4458 25.0117C24.2618 25.1234 24.102 25.3175 23.9733 25.2184C23.8198 25.3333 23.6594 25.3978 23.5854 25.4931L23.4306 25.5782L23.2903 25.4931C23.2511 25.4878 23.2137 25.4921 23.1771 25.5106C23.1158 25.4865 23.011 25.3341 22.953 25.2885C22.8978 25.2458 22.4546 24.9532 22.3802 24.9085C22.3057 24.8641 22.1746 24.7875 22.1045 24.7627C22.0168 24.7311 21.884 24.8326 21.8312 24.5975C21.6584 24.5168 21.6019 24.4793 21.4586 24.374C21.4327 24.355 21.4431 24.3297 21.4268 24.3204C21.3934 24.3015 21.3263 24.2866 21.2652 24.255C21.1647 24.2029 21.1376 24.1209 21.1043 24.2038C21.0319 24.1801 20.9595 24.1565 20.8871 24.133C20.8729 24.1053 20.8588 24.0775 20.8446 24.0497C20.8005 24.0464 20.7563 24.0432 20.7121 24.0401C20.818 23.9503 20.5354 23.879 20.5771 23.9889C20.4646 23.8949 20.3524 23.8004 20.2404 23.7055C20.314 23.61 20.1049 23.5579 20.0051 23.5833L19.8601 23.4962L19.8628 23.3368C19.8438 23.3172 19.8239 23.307 19.8065 23.313C19.8064 23.2965 19.8064 23.28 19.8063 23.2634C19.8454 23.1187 19.8105 22.9859 19.8363 22.8095C19.8623 22.6332 19.8777 22.6497 19.9492 22.5961C19.9449 22.5546 19.9405 22.5131 19.936 22.4716C19.7355 22.2539 20.0809 22.2923 19.9252 21.9195C20.0067 21.8423 20.0074 21.692 19.9865 21.5427L20.067 21.6821C19.991 21.6513 19.9121 21.6262 19.8456 21.6041C19.8236 21.5969 19.8108 21.6184 19.7807 21.6101C19.7072 21.5898 19.5597 21.4688 19.5246 21.5425C19.4797 21.49 19.4348 21.4374 19.3899 21.3847C19.3362 21.3713 19.2824 21.3579 19.2286 21.3446C19.216 21.3669 19.2035 21.3893 19.1909 21.4116C19.1412 21.2831 18.9778 21.2291 18.916 21.1698C18.9037 21.158 18.9185 21.1253 18.8786 21.0914C18.8322 21.0516 18.7295 21.0054 18.6729 20.9603C18.6288 20.981 18.5846 21.0018 18.5404 21.0227C18.4181 20.9785 18.4318 20.8647 18.3705 20.8203C18.3595 20.8124 18.1409 20.6969 18.1282 20.6923C18.0244 20.654 18.0057 20.7482 17.7412 20.576C17.6941 20.5453 17.6705 20.4954 17.627 20.4692C17.5503 20.4229 17.2791 20.3525 17.2269 20.4005C17.1744 20.2741 16.9041 20.1606 16.8418 20.0972C16.8231 20.0779 16.8451 20.0281 16.7818 19.9788C16.7581 19.9603 16.7099 19.9409 16.6583 19.9207C16.5982 19.8973 16.5334 19.873 16.4971 19.8479C16.4257 19.7981 16.4217 19.743 16.3896 19.7209C16.3592 19.7001 16.3112 19.7156 16.2678 19.6907C16.1327 19.6124 16.0399 19.4902 15.9332 19.4281C15.7791 19.338 15.5864 19.3564 15.4317 19.3257C15.4031 19.3012 15.3834 19.2623 15.3497 19.2429C15.2587 19.1903 15.1654 19.1355 15.0711 19.0792L14.8675 18.9593L14.8696 18.7302C14.8753 18.3381 14.89 17.9246 14.9074 17.5478C14.9174 17.324 15.0721 16.7672 14.8114 16.9158C14.7651 16.838 14.868 16.2723 14.8694 16.1647C14.8705 16.0571 14.8229 15.9718 14.8219 15.8872C14.8187 15.6321 14.8523 15.4524 14.8098 15.1418C14.7986 15.0615 14.7418 14.9756 14.7423 14.9281C14.743 14.8709 14.7974 14.8093 14.8007 14.7351C14.8079 14.5584 14.7889 14.2291 14.7979 14.0596C14.7997 14.0286 14.848 14.0178 14.863 13.9735C14.9216 13.8011 14.9162 13.6078 14.7617 13.642C14.8263 13.4784 14.7989 13.3238 14.7782 13.1714L14.7801 12.3141L15.5196 12.7433C15.5694 12.7637 15.6186 12.7847 15.6652 12.81C16.0457 13.017 16.7111 13.442 17.0705 13.5738C17.2971 13.6569 17.3268 13.5934 17.5999 13.8206C17.6039 13.824 17.6079 13.8273 17.6119 13.8306C17.6683 13.8782 17.7234 13.9294 17.7921 13.9865C17.9645 14.13 18.0755 14.3432 18.2981 14.2945C18.4898 14.4534 18.672 14.5287 18.7634 14.7345C18.7976 14.7183 18.8317 14.7021 18.8658 14.686C18.8921 14.7006 18.9184 14.7153 18.9446 14.73C18.9378 14.7606 18.931 14.7912 18.9242 14.8217C19.1059 14.9381 19.4013 14.9735 19.5569 15.0689C19.8184 15.2278 20.4684 15.678 20.6976 15.8611C20.8195 15.958 20.855 15.9132 20.8716 16.0606C20.9052 16.0714 20.9387 16.0823 20.9721 16.0932C21.0033 16.0824 21.0344 16.0717 21.0654 16.0611C21.2339 16.1643 21.4141 16.321 21.5745 16.4197C21.6443 16.4628 21.7244 16.5079 21.8093 16.5548C22.0798 16.7034 22.3982 16.8735 22.605 17.0395C22.6731 17.0943 22.7433 17.1886 22.8154 17.233C22.9202 17.2976 22.9795 17.2548 23.1114 17.3387C23.3381 17.4845 23.7255 17.8162 23.9437 17.9472C24.0082 17.9866 24.0479 17.9885 24.0928 18.0151C24.281 18.1267 24.4316 18.2253 24.6197 18.3191C24.7865 18.4808 24.7451 18.5136 24.7789 18.5947C24.8043 18.6566 24.9032 18.8099 24.9087 18.8464C24.9123 18.8726 24.8443 18.8696 24.8524 18.9009C24.6 18.7982 24.508 18.7307 24.3337 18.5943C23.9726 18.4101 23.612 18.2252 23.2518 18.0394C23.2298 18.0039 23.208 17.968 23.1864 17.9318C23.1864 17.9318 23.1864 17.9317 23.1864 17.9317C23.0623 17.8358 22.9758 17.8539 22.8948 17.8264C22.5138 17.6957 21.9887 17.4372 21.4683 17.1457C20.9317 16.8463 20.4004 16.5116 20.0132 16.2856C19.8487 16.1897 19.2848 15.9276 19.1979 15.8167C19.1755 15.788 19.193 15.7387 19.1628 15.7191C18.8674 15.5877 18.5718 15.4567 18.2763 15.3254C17.9251 15.0637 17.5339 14.8519 17.1413 14.6457C16.9372 14.5385 16.7327 14.4331 16.5332 14.3229C16.0451 14.0532 15.5583 13.7848 15.0736 13.5158L15.6701 13.1714C15.6912 14.4091 15.7042 15.6391 15.6898 16.8637C15.6858 17.2063 15.7222 17.6411 15.6954 17.9766C15.6842 18.1166 15.6018 18.1749 15.662 18.3588C15.6399 18.3607 15.6178 18.3627 15.5956 18.3646C15.6176 18.5006 15.6566 18.595 15.6704 18.7302L15.4713 18.3855C15.4936 18.3955 15.5166 18.4069 15.5407 18.42C15.6736 18.4929 16.0212 18.6927 16.1326 18.7675C16.1904 18.8062 16.1478 18.8283 16.2038 18.8608C16.2999 18.9162 16.5322 18.9875 16.6641 19.0649C16.7656 19.1245 16.9096 19.2475 17.0091 19.3126C17.0268 19.3242 17.043 19.334 17.0574 19.3412C17.4003 19.5147 17.7939 19.6686 18.1372 19.8918C18.2319 19.9536 18.3321 20.0707 18.3633 20.0874C18.4243 20.1199 18.4663 20.0883 18.5094 20.1065C18.7281 20.1992 19.0159 20.4357 19.2139 20.5549C19.5782 20.7746 19.9592 20.9941 20.3371 21.2139L20.5236 21.3178L20.527 21.5427C20.5259 21.8794 20.5237 22.2146 20.5163 22.5407C20.5113 22.7606 20.5083 23.0481 20.5025 23.3368L20.3251 23.0293C20.6102 23.2016 20.8949 23.3778 21.0878 23.512C21.1655 23.5661 21.121 23.5929 21.1891 23.6332C21.2647 23.6779 21.321 23.6755 21.3575 23.6943C21.6107 23.8239 22.1642 24.1191 22.3795 24.2823C22.4206 24.3134 22.4355 24.3615 22.4619 24.377C22.4752 24.3849 22.5168 24.3828 22.5597 24.4056C22.9388 24.6071 23.2007 24.779 23.5583 25.0005C23.5623 25.003 23.5664 25.0055 23.5705 25.008L23.3053 25.008C23.7896 24.7473 24.3131 24.437 24.8349 24.1425L24.71 24.3589C24.7126 24.0841 24.7176 23.8112 24.7276 23.5469C24.7347 23.3626 24.7894 23.2362 24.7891 23.2103C24.7887 23.1534 24.7537 23.117 24.7469 23.0019C24.7249 22.6189 24.7692 22.1032 24.7587 21.739C24.7536 21.5591 24.719 21.3118 24.7146 21.1347C24.7111 20.9933 24.733 20.6593 24.7183 20.5966C24.7095 20.5585 24.6791 20.5408 24.6765 20.4951ZM24.3182 25.0491C24.3049 24.9758 24.1065 25.1616 24.2107 25.1435C24.2341 25.1393 24.3216 25.0681 24.3182 25.0491ZM15.0428 18.4099C15.0135 18.4123 14.9842 18.4147 14.9549 18.4171C14.9672 18.4519 14.9796 18.4867 14.9919 18.5214C15.0094 18.5019 15.027 18.4824 15.0445 18.4628C15.044 18.4452 15.0434 18.4275 15.0428 18.4099Z" fill="#111111"/>
</svg>
