<svg width="19" height="19" viewBox="0 0 19 19" fill="none" xmlns="http://www.w3.org/2000/svg">
<path d="M9.8667 8.74512V12.4951M16.6167 9.49512C16.6167 10.3815 16.4421 11.2593 16.1029 12.0782C15.7637 12.8972 15.2665 13.6413 14.6397 14.2681C14.0129 14.8949 13.2688 15.3921 12.4498 15.7313C11.6309 16.0705 10.7531 16.2451 9.8667 16.2451C8.98028 16.2451 8.10253 16.0705 7.28359 15.7313C6.46464 15.3921 5.72052 14.8949 5.09373 14.2681C4.46693 13.6413 3.96973 12.8972 3.63051 12.0782C3.29129 11.2593 3.1167 10.3815 3.1167 9.49512C3.1167 7.70491 3.82786 5.98802 5.09373 4.72215C6.3596 3.45628 8.07649 2.74512 9.8667 2.74512C11.6569 2.74512 13.3738 3.45628 14.6397 4.72215C15.9055 5.98802 16.6167 7.70491 16.6167 9.49512Z" stroke="#111111" stroke-width="1.5" stroke-linecap="round" stroke-linejoin="round"/>
<path d="M9.8667 6.86914C9.96519 6.86914 10.0627 6.84974 10.1537 6.81205C10.2447 6.77436 10.3274 6.71911 10.397 6.64947C10.4667 6.57983 10.5219 6.49715 10.5596 6.40615C10.5973 6.31516 10.6167 6.21763 10.6167 6.11914C10.6167 6.02065 10.5973 5.92312 10.5596 5.83213C10.5219 5.74113 10.4667 5.65845 10.397 5.58881C10.3274 5.51917 10.2447 5.46392 10.1537 5.42623C10.0627 5.38854 9.96519 5.36914 9.8667 5.36914C9.66779 5.36914 9.47702 5.44816 9.33637 5.58881C9.19572 5.72946 9.1167 5.92023 9.1167 6.11914C9.1167 6.31805 9.19572 6.50882 9.33637 6.64947C9.47702 6.79012 9.66779 6.86914 9.8667 6.86914Z" fill="#111111"/>
</svg>
