<svg width="40" height="40" viewBox="0 0 40 40" fill="none" xmlns="http://www.w3.org/2000/svg">
<g clip-path="url(#clip0_181_3957)">
<circle cx="19.946" cy="19.9461" r="19.5" transform="rotate(1 19.946 19.9461)" fill="#FCEA59" stroke="#111111"/>
<circle cx="19.9461" cy="19.9462" r="14.0833" transform="rotate(1 19.9461 19.9462)" fill="#A7ACF6" stroke="#111111"/>
<circle cx="19.9461" cy="19.9461" r="10.9583" transform="rotate(1 19.9461 19.9461)" fill="#A7ACF6" stroke="#111111"/>
<g clip-path="url(#clip1_181_3957)">
<g clip-path="url(#clip2_181_3957)">
<path d="M19.9853 17.6964L20.7352 17.7095M19.9591 19.1962L20.709 19.2093M16.9334 20.6436L20.6828 20.709M16.9072 22.1434L20.6566 22.2088M22.2349 17.7357L23.9222 17.7651C24.2326 17.7706 24.4802 18.0269 24.4748 18.3374L24.393 23.0242C24.3878 23.3225 24.2642 23.6065 24.0496 23.8138C23.835 24.021 23.5468 24.1346 23.2485 24.1293M22.2349 17.7357L22.1433 22.9849C22.1381 23.2832 22.2516 23.5714 22.4589 23.786C22.6661 24.0006 22.9502 24.1241 23.2485 24.1293M22.2349 17.7357L22.2578 16.4234C22.2633 16.1129 22.0157 15.8566 21.7052 15.8512L16.0811 15.753C15.7706 15.7476 15.5143 15.9951 15.5089 16.3056L15.3943 22.8671C15.3891 23.1654 15.5026 23.4536 15.7099 23.6682C15.9172 23.8828 16.2012 24.0063 16.4995 24.0115L23.2485 24.1293M16.9857 17.6441L18.4855 17.6702L18.4593 19.17L16.9595 19.1438L16.9857 17.6441Z" stroke="#111111" stroke-linecap="round" stroke-linejoin="round"/>
</g>
</g>
</g>
<defs>
<clipPath id="clip0_181_3957">
<rect width="40" height="40" fill="white"/>
</clipPath>
<clipPath id="clip1_181_3957">
<rect width="12" height="12" fill="white" transform="translate(14.0516 13.8423) rotate(1)"/>
</clipPath>
<clipPath id="clip2_181_3957">
<rect width="12" height="12" fill="white" transform="translate(14.0516 13.8423) rotate(1)"/>
</clipPath>
</defs>
</svg>
