<svg width="41" height="41" viewBox="0 0 41 41" fill="none" xmlns="http://www.w3.org/2000/svg">
<g clip-path="url(#clip0_181_3958)">
<circle cx="20.1299" cy="20.0127" r="19.5" fill="#FCEA59" stroke="#111111"/>
<circle cx="20.13" cy="20.0128" r="14.0833" fill="#A7ACF6" stroke="#111111"/>
<circle cx="20.13" cy="20.0128" r="10.9583" fill="#A7ACF6" stroke="#111111"/>
<path d="M23.862 17.5494C23.299 17.5494 22.7907 17.7722 22.4036 18.128L22.3645 18.1085C22.3269 17.5414 22.0755 17.0097 21.6611 16.6207C21.2467 16.2317 20.7002 16.0144 20.1318 16.0127C19.5628 16.0134 19.0153 16.2303 18.6001 16.6194C18.1849 17.0084 17.933 17.5407 17.8953 18.1085L17.8562 18.128C17.4611 17.757 16.9397 17.5501 16.3977 17.5494C16.0993 17.5493 15.8037 17.6083 15.5281 17.7227C15.2524 17.8372 15.002 18.0049 14.7914 18.2163C14.5807 18.4278 14.4138 18.6787 14.3003 18.9547C14.1868 19.2308 14.1289 19.5265 14.1299 19.825C14.1299 20.912 15.2052 21.8426 15.471 22.0537C16.8005 23.0946 18.4435 23.6541 20.1318 23.6412C21.8953 23.6412 23.5336 23.0547 24.7848 22.0537C25.0585 21.8426 26.1299 20.912 26.1299 19.825C26.1299 19.2235 25.8909 18.6467 25.4656 18.2214C25.0403 17.7961 24.4635 17.5572 23.862 17.5572V17.5494Z" fill="#2C2D30"/>
</g>
<defs>
<clipPath id="clip0_181_3958">
<rect width="40" height="40" fill="white" transform="translate(0.129883 0.0126953)"/>
</clipPath>
</defs>
</svg>
