<svg width="41" height="40" viewBox="0 0 41 40" fill="none" xmlns="http://www.w3.org/2000/svg">
<g clip-path="url(#clip0_181_3960)">
<circle cx="20.077" cy="19.9986" r="19.5" transform="rotate(-9 20.077 19.9986)" fill="#FCEA59" stroke="#111111"/>
<circle cx="20.0771" cy="19.9987" r="14.0833" transform="rotate(-9 20.0771 19.9987)" fill="#A7ACF6" stroke="#111111"/>
<circle cx="20.0771" cy="19.9987" r="10.9583" transform="rotate(-9 20.0771 19.9987)" fill="#A7ACF6" stroke="#111111"/>
<path d="M23.3285 20.5517C23.4625 20.2086 23.9189 20.1363 24.1505 20.4215L26.6336 23.4589C26.8671 23.7439 26.6988 24.1713 26.3332 24.2292L22.4272 24.8478C22.0616 24.9057 21.7715 24.5509 21.9035 24.2081L23.3265 20.5521L23.3285 20.5517Z" fill="#111111"/>
<path d="M21.7959 18.51C21.9242 18.1698 21.8632 17.7849 21.6358 17.4991L19.5905 14.9509C19.361 14.6654 18.9126 14.7364 18.7826 15.0789L14.909 25.3137C14.779 25.6562 15.0654 26.0137 15.4249 25.9567L18.626 25.4497C18.9835 25.3931 19.2823 25.1485 19.4106 24.8084L21.7939 18.5103L21.7959 18.51Z" fill="#111111"/>
</g>
<defs>
<clipPath id="clip0_181_3960">
<rect width="40" height="40" fill="white" transform="translate(0.0770264 -0.00146484)"/>
</clipPath>
</defs>
</svg>
