<svg width="133" height="132" viewBox="0 0 133 132" fill="none" xmlns="http://www.w3.org/2000/svg">
<circle cx="66.7402" cy="66" r="65.3125" fill="#FCEA59" stroke="#111111" stroke-width="1.375"/>
<circle cx="66.7402" cy="66" r="47.4375" fill="#A7ACF6" stroke="#111111" stroke-width="1.375"/>
<circle cx="66.7402" cy="66" r="37.125" fill="#949AEE" stroke="#111111" stroke-width="1.375"/>
<path d="M66.6489 55.7756C64.3713 55.7756 62.5229 57.6215 62.5229 59.9016H70.7723C70.7749 57.6215 68.929 55.7756 66.6489 55.7756ZM75.1751 65.4469H73.9004C73.8319 64.7461 73.6821 64.0733 73.4612 63.4385L74.4793 62.852C74.6723 62.7403 74.7383 62.494 74.6266 62.301L74.1366 61.453C74.0249 61.26 73.7786 61.194 73.5856 61.3057L72.6969 61.8186C72.4913 61.4809 72.2678 61.1534 72.0215 60.8538H61.327C61.0731 61.161 60.8471 61.4936 60.6389 61.8389L59.7122 61.3057C59.5192 61.194 59.2729 61.26 59.1612 61.453L58.6711 62.301C58.5594 62.494 58.6254 62.7403 58.8184 62.852L59.8797 63.4639C59.6639 64.0911 59.5167 64.7563 59.4481 65.4495H58.1227C57.8993 65.4495 57.719 65.6297 57.719 65.8532V66.8333C57.719 67.0567 57.8993 67.237 58.1227 67.237H59.4456C59.5141 67.9301 59.6639 68.5928 59.8772 69.2225L58.8184 69.8293C58.6254 69.9411 58.5594 70.1874 58.6711 70.3803L59.1612 71.2284C59.2729 71.4213 59.5192 71.4874 59.7122 71.3756L60.6262 70.8475C61.7739 72.762 63.6325 74.1 65.7805 74.392V66.7444C65.7805 66.5209 65.9608 66.3407 66.1842 66.3407H67.1618C67.3852 66.3407 67.5655 66.5209 67.5655 66.7444V74.3946C69.7059 74.1026 71.5594 72.7747 72.7096 70.8704L73.5856 71.3756C73.7786 71.4874 74.0249 71.4213 74.1366 71.2284L74.6266 70.3803C74.7383 70.1874 74.6723 69.9411 74.4793 69.8293L73.4612 69.2403C73.6795 68.603 73.8344 67.9327 73.903 67.2319H75.1751C75.3985 67.2319 75.5788 67.0516 75.5788 66.8282V65.8481C75.5788 65.6272 75.3985 65.4469 75.1751 65.4469Z" fill="white"/>
<g clip-path="url(#clip0_181_3743)">
<path d="M69.8947 60.666L68.9122 59.871C69.0352 59.8035 69.4072 59.391 69.4072 59.145C69.4072 57.7425 68.2132 56.604 66.7402 56.604C65.2672 56.604 64.0732 57.7425 64.0732 59.145C64.0732 59.376 64.6132 59.805 64.7167 59.871L63.4822 60.606C62.9872 60.285 62.7397 59.7735 62.7397 59.145C62.7397 57.0405 64.5307 55.335 66.7402 55.335C68.9497 55.335 70.7407 57.042 70.7407 59.1465C70.7407 59.8215 70.4557 60.3585 69.8947 60.6675V60.666ZM72.4447 72.894C72.7524 72.5809 73.0333 72.2427 73.2847 71.883C74.5084 72.9369 75.4516 74.278 76.0297 75.786C76.0603 75.8665 76.0745 75.9522 76.0716 76.0383C76.0686 76.1244 76.0485 76.209 76.0125 76.2872C75.9765 76.3654 75.9252 76.4356 75.8617 76.4938C75.7982 76.552 75.7238 76.5969 75.6427 76.626C75.4785 76.6872 75.2968 76.6814 75.1369 76.6099C74.9769 76.5383 74.8515 76.4067 74.7877 76.2435C74.2923 74.9522 73.4878 73.8022 72.4447 72.894ZM60.9712 72.897C59.9694 73.7705 59.1873 74.8676 58.6882 76.0995C58.6213 76.2615 58.4934 76.3907 58.332 76.4592C58.1706 76.5277 57.9888 76.5299 57.8257 76.4655C57.7453 76.4349 57.6718 76.3887 57.6094 76.3295C57.547 76.2702 57.497 76.1992 57.4624 76.1204C57.4278 76.0417 57.4092 75.9568 57.4077 75.8708C57.4062 75.7848 57.4219 75.6994 57.4537 75.6195C58.0367 74.1793 58.9545 72.8989 60.1312 71.8845C60.3832 72.2445 60.6637 72.5835 60.9712 72.897ZM73.3162 63.297C73.0655 62.9013 72.783 62.5265 72.4717 62.1765C73.5217 61.1383 74.3152 59.8698 74.7892 58.4715C74.9167 58.0965 75.2992 57.906 75.6442 58.047C75.9862 58.188 76.1602 58.6065 76.0312 58.9815C75.4783 60.6135 74.5481 62.0921 73.3162 63.297ZM60.1402 63.333C58.9381 62.1684 58.0195 60.7432 57.4552 59.1675C57.3187 58.794 57.4852 58.3725 57.8257 58.2255C58.1662 58.077 58.5517 58.2585 58.6882 58.6305C59.1715 59.9816 59.9552 61.2053 60.9802 62.2095C60.6703 62.5612 60.3894 62.9374 60.1402 63.3345V63.333ZM58.7407 67.3335C58.7407 67.788 58.7782 68.2335 58.8502 68.667H55.4902C55.0762 68.667 54.7402 68.367 54.7402 67.9995C54.7402 67.632 55.0762 67.3335 55.4902 67.3335H58.7407ZM74.7397 67.3335H77.9902C78.4042 67.3335 78.7402 67.632 78.7402 67.9995C78.7402 68.3685 78.4042 68.667 77.9902 68.667H74.6302C74.7037 68.2258 74.7404 67.7792 74.7397 67.332V67.3335Z" fill="#111111"/>
<path d="M66.0742 59.334H67.4062V75.333H66.0742V59.334Z" fill="#111111"/>
<path d="M66.7402 75.333C65.6897 75.333 64.6495 75.1261 63.6789 74.7241C62.7084 74.322 61.8265 73.7328 61.0837 72.99C60.3409 72.2472 59.7517 71.3653 59.3496 70.3948C58.9476 69.4242 58.7407 68.384 58.7407 67.3335C58.7407 66.283 58.9476 65.2428 59.3496 64.2722C59.7517 63.3017 60.3409 62.4198 61.0837 61.677C61.8265 60.9342 62.7084 60.3449 63.6789 59.9429C64.6495 59.5409 65.6897 59.334 66.7402 59.334C68.8618 59.334 70.8965 60.1768 72.3967 61.677C73.8969 63.1772 74.7397 65.2119 74.7397 67.3335C74.7397 69.4551 73.8969 71.4898 72.3967 72.99C70.8965 74.4902 68.8618 75.333 66.7402 75.333ZM66.7402 73.9995C68.5084 73.9995 70.2041 73.2971 71.4543 72.0468C72.7046 70.7966 73.407 69.1009 73.407 67.3327C73.407 65.5646 72.7046 63.8689 71.4543 62.6186C70.2041 61.3684 68.5084 60.666 66.7402 60.666C64.9719 60.666 63.276 61.3685 62.0256 62.6188C60.7752 63.8692 60.0727 65.5652 60.0727 67.3335C60.0727 69.1018 60.7752 70.7977 62.0256 72.0481C63.276 73.2985 64.9719 74.001 66.7402 74.001V73.9995Z" fill="#111111"/>
</g>
<defs>
<clipPath id="clip0_181_3743">
<rect width="24" height="24" fill="white" transform="translate(54.7402 54)"/>
</clipPath>
</defs>
</svg>
