<svg width="41" height="41" viewBox="0 0 41 41" fill="none" xmlns="http://www.w3.org/2000/svg">
<g clip-path="url(#clip0_181_3961)">
<circle cx="20.9708" cy="20.0128" r="19.5" transform="rotate(-16.99 20.9708 20.0128)" fill="#FCEA59" stroke="#111111"/>
<circle cx="20.9709" cy="20.0127" r="14.0833" transform="rotate(-16.99 20.9709 20.0127)" fill="#A7ACF6" stroke="#111111"/>
<circle cx="20.9709" cy="20.0129" r="10.9583" transform="rotate(-16.99 20.9709 20.0129)" fill="#A7ACF6" stroke="#111111"/>
<path fill-rule="evenodd" clip-rule="evenodd" d="M18.1937 24.4033C18.218 24.3517 18.2524 24.3056 18.2948 24.268C18.3372 24.2303 18.3867 24.2018 18.4404 24.1842L27.4549 21.4299C27.4932 21.4188 27.5339 21.4192 27.5723 21.431C27.6106 21.4429 27.6448 21.4657 27.6709 21.4967C27.697 21.5277 27.7137 21.5657 27.7191 21.6059C27.7246 21.6461 27.7185 21.687 27.7015 21.7235L26.451 24.4683C26.4267 24.52 26.3923 24.566 26.3499 24.6037C26.3075 24.6414 26.2579 24.6699 26.2042 24.6875L17.184 27.4435C17.1457 27.4546 17.105 27.4542 17.0666 27.4424C17.0283 27.4305 16.9941 27.4077 16.968 27.3767C16.942 27.3457 16.9252 27.3077 16.9198 27.2675C16.9144 27.2273 16.9205 27.1864 16.9375 27.1498L18.1937 24.4033ZM27.0999 19.7236C27.1343 19.7444 27.1622 19.7749 27.1802 19.8113C27.1982 19.8477 27.2055 19.8885 27.2012 19.9288C27.197 19.9691 27.1813 20.0071 27.1562 20.0384C27.131 20.0696 27.0975 20.0927 27.0595 20.105L18.0444 22.8674C17.99 22.8828 17.933 22.8869 17.8768 22.8793C17.8206 22.8718 17.7663 22.8528 17.7173 22.8236L15.1342 21.2581C15.0997 21.2373 15.0718 21.2068 15.0538 21.1704C15.0358 21.134 15.0285 21.0932 15.0327 21.0529C15.037 21.0126 15.0526 20.9746 15.0778 20.9433C15.1029 20.9121 15.1365 20.889 15.1745 20.8768L24.1896 18.1143C24.244 18.0989 24.301 18.0949 24.3572 18.1024C24.4134 18.1099 24.4676 18.1289 24.5167 18.1581L27.0999 19.7236ZM15.783 16.5134C15.8073 16.4617 15.8417 16.4157 15.8841 16.378C15.9265 16.3404 15.976 16.3119 16.0297 16.2942L25.0522 13.5455C25.0905 13.5344 25.1313 13.5348 25.1696 13.5466C25.2079 13.5585 25.2422 13.5813 25.2682 13.6124C25.2942 13.6434 25.311 13.6813 25.3164 13.7215C25.3218 13.7618 25.3157 13.8026 25.2988 13.8392L24.0403 16.5784C24.016 16.6301 23.9816 16.6761 23.9392 16.7138C23.8968 16.7514 23.8473 16.7799 23.7935 16.7976L14.7733 19.5536C14.735 19.5647 14.6943 19.5643 14.6559 19.5524C14.6176 19.5406 14.5834 19.5178 14.5573 19.4867C14.5313 19.4557 14.5145 19.4178 14.5091 19.3776C14.5037 19.3373 14.5098 19.2965 14.5268 19.2599L15.783 16.5134Z" fill="#111111"/>
</g>
<defs>
<clipPath id="clip0_181_3961">
<rect width="40" height="40" fill="white" transform="translate(0.970825 0.0126953)"/>
</clipPath>
</defs>
</svg>
