<svg width="40" height="40" viewBox="0 0 40 40" fill="none" xmlns="http://www.w3.org/2000/svg">
<g clip-path="url(#clip0_181_3956)">
<circle cx="20.1511" cy="20.0001" r="19.5" transform="rotate(25.54 20.1511 20.0001)" fill="#FCEA59" stroke="#111111"/>
<circle cx="20.1511" cy="20.0002" r="14.0833" transform="rotate(25.54 20.1511 20.0002)" fill="#A7ACF6" stroke="#111111"/>
<circle cx="20.1512" cy="20" r="10.9583" transform="rotate(25.54 20.1512 20)" fill="#A7ACF6" stroke="#111111"/>
<g clip-path="url(#clip1_181_3956)">
<path d="M25.5648 22.5869C24.1362 25.5767 20.554 26.8424 17.5642 25.4138C14.5745 23.9852 13.3088 20.403 14.7374 17.4132C16.166 14.4235 19.7482 13.1578 22.7379 14.5864C25.7283 16.0153 26.9934 19.5972 25.5648 22.5869Z" fill="#111111"/>
<path d="M17.3213 18.8713L17.3622 18.8458L19.8233 17.3156C19.8593 17.2931 19.9061 17.3196 19.9049 17.3621C19.8882 18.0018 19.7779 18.7546 19.4877 19.1174C19.3668 19.266 19.1469 19.4403 18.9213 19.5907C18.8905 19.6136 18.8584 19.6352 18.8257 19.655C18.8104 19.6641 18.7916 19.6647 18.7755 19.657L17.3271 18.965C17.2882 18.9464 17.2856 18.8932 17.3213 18.8713Z" fill="white"/>
<path d="M23.4031 22.2803L23.2364 22.629C23.2269 22.649 23.2061 22.661 23.1846 22.6603C23.0533 22.6549 22.5982 22.6479 22.3399 22.7895C21.6805 23.1515 21.0013 23.7951 20.325 23.4719L17.5033 22.1236C16.5033 21.6457 16.0814 20.4453 16.5609 19.4419L16.5763 19.4097C16.5891 19.383 16.6211 19.3717 16.6478 19.3844L18.2208 20.136C18.2519 20.1509 18.2609 20.1907 18.2435 20.22C18.1835 20.317 18.1524 20.4306 18.1554 20.5488C18.1582 20.7832 18.2951 20.9941 18.5043 21.0941L19.283 21.4661L19.5734 20.8582L18.8037 20.4904C18.7642 20.4715 18.7626 20.4147 18.8008 20.3934C18.8153 20.3846 18.8311 20.3757 18.8483 20.3655C18.9706 20.2969 19.1514 20.1858 19.3423 20.0523C19.4719 19.9625 19.6033 19.8634 19.7217 19.7573C19.7442 19.7387 19.7648 19.7185 19.7851 19.6988C19.8204 19.6638 19.8548 19.6317 19.8848 19.5975C19.9119 19.5695 19.9375 19.5387 19.9621 19.5101C20.0419 19.4103 20.1099 19.2965 20.1689 19.1731C20.192 19.1247 20.214 19.073 20.2327 19.0225C20.2557 18.9686 20.2743 18.9125 20.2928 18.8565C20.3107 18.8077 20.3244 18.7575 20.3387 18.7049C20.3613 18.6289 20.3792 18.5514 20.3952 18.4723L20.4018 18.4426C20.4116 18.3879 20.4225 18.3364 20.4301 18.2806C20.4587 18.1077 20.4788 17.9356 20.4915 17.7716C20.4984 17.7072 20.5014 17.6437 20.5044 17.5803C20.5096 17.485 20.5107 17.3968 20.5128 17.3138C20.5122 17.2752 20.5124 17.2404 20.5128 17.2051C20.5135 17.1651 20.5136 17.1249 20.5129 17.0863C20.5132 17.0571 20.5111 17.0287 20.5128 17.0022L20.5017 16.781C20.4997 16.7507 20.5355 16.7329 20.5582 16.7527L21.0763 17.1983L21.078 17.1991C21.0791 17.1997 21.0794 17.2005 21.0799 17.2008L21.148 17.2599L21.2225 17.3256L21.25 17.3496L21.419 16.9959C21.5006 16.8251 21.7036 16.752 21.8727 16.8328C21.9572 16.8732 22.0175 16.9444 22.0457 17.0269C22.0739 17.1094 22.0717 17.2026 22.0308 17.2882L21.7799 17.8133L21.8348 17.8614C21.839 17.8655 21.843 17.8701 21.8458 17.8755C21.8558 17.8947 21.8698 17.9225 21.8881 17.9572C21.9018 17.9857 21.9154 18.0188 21.9337 18.0549C21.9689 18.1284 22.0089 18.2206 22.0513 18.3249C22.0631 18.3517 22.074 18.3788 22.0833 18.4051C22.1371 18.5415 22.195 18.699 22.2427 18.8652C22.2559 18.9118 22.2683 18.9588 22.2805 19.0076C22.2924 19.057 22.3063 19.1067 22.3162 19.1545C22.3289 19.218 22.3436 19.2844 22.3523 19.3507C22.3564 19.3821 22.3625 19.4151 22.3661 19.4462C22.3778 19.5303 22.3835 19.6143 22.3874 19.6975C22.3878 19.7353 22.3875 19.7761 22.3851 19.8153C22.3823 19.9226 22.3704 20.0276 22.3474 20.1273C22.3442 20.1496 22.3386 20.1729 22.3318 20.1929L22.3296 20.1973C22.3236 20.2272 22.3122 20.2566 22.3006 20.2866C22.2654 20.3832 22.2168 20.4734 22.1524 20.5567C22.1252 20.5922 22.0963 20.6242 22.0641 20.6573C22.0326 20.6888 22.0004 20.7219 21.9654 20.7509C21.8951 20.8123 21.8186 20.8707 21.7374 20.9207C21.7096 20.9402 21.6782 20.9601 21.6477 20.9783C21.6147 20.9973 21.5819 21.0145 21.5516 21.0321C21.5112 21.0538 21.4683 21.0763 21.4267 21.0947C21.3871 21.1161 21.347 21.1372 21.3064 21.1534C21.2482 21.1795 21.1926 21.2042 21.1362 21.2265C21.1015 21.242 21.0648 21.2572 21.0289 21.2695C20.9923 21.2847 20.9563 21.297 20.9235 21.3086C20.8684 21.328 20.8234 21.3421 20.7859 21.3535L20.6978 21.3804C20.6852 21.384 20.6714 21.3829 20.6592 21.377L20.1853 21.1506L19.8948 21.7585L20.491 22.0434C20.6245 22.1072 20.7739 22.1205 20.9177 22.0826C20.9674 22.0688 21.1836 22.0095 21.4598 21.8962C21.4691 21.8924 21.4793 21.8912 21.4892 21.8932L23.3637 22.204C23.3985 22.2098 23.4185 22.248 23.4031 22.2803Z" fill="white"/>
</g>
</g>
<defs>
<clipPath id="clip0_181_3956">
<rect width="40" height="40" fill="white"/>
</clipPath>
<clipPath id="clip1_181_3956">
<rect width="12" height="12" fill="white" transform="translate(17.3242 11.9995) rotate(25.54)"/>
</clipPath>
</defs>
</svg>
