<svg width="41" height="41" viewBox="0 0 41 41" fill="none" xmlns="http://www.w3.org/2000/svg">
<circle cx="20.0504" cy="20.7485" r="19.5" fill="#FCEA59" stroke="#111111"/>
<circle cx="20.0505" cy="20.7486" r="14.0833" fill="#A7ACF6" stroke="#111111"/>
<circle cx="20.0505" cy="20.7486" r="10.9583" fill="#A7ACF6" stroke="#111111"/>
<g clip-path="url(#clip0_181_3954)">
<path d="M23.8004 21.8735V20.561C23.8004 20.1135 23.6226 19.6843 23.3062 19.3678C22.9897 19.0513 22.5605 18.8735 22.1129 18.8735H21.3629C21.2137 18.8735 21.0707 18.8143 20.9652 18.7088C20.8597 18.6033 20.8004 18.4602 20.8004 18.311V17.561C20.8004 17.1135 20.6226 16.6843 20.3062 16.3678C19.9897 16.0513 19.5605 15.8735 19.1129 15.8735H18.1754M18.1754 22.2485H21.9254M18.1754 23.7485H20.0504M19.3004 15.8735H16.8629C16.5524 15.8735 16.3004 16.1255 16.3004 16.436V25.061C16.3004 25.3715 16.5524 25.6235 16.8629 25.6235H23.2379C23.5484 25.6235 23.8004 25.3715 23.8004 25.061V20.3735C23.8004 19.1801 23.3263 18.0355 22.4824 17.1916C21.6385 16.3476 20.4939 15.8735 19.3004 15.8735Z" stroke="#111111" stroke-linecap="round" stroke-linejoin="round"/>
</g>
<defs>
<clipPath id="clip0_181_3954">
<rect width="12" height="12" fill="white" transform="translate(14.0504 14.7485)"/>
</clipPath>
</defs>
</svg>
