<svg width="41" height="40" viewBox="0 0 41 40" fill="none" xmlns="http://www.w3.org/2000/svg">
<g clip-path="url(#clip0_181_3959)">
<circle cx="20.0238" cy="19.9983" r="19.5" transform="rotate(28 20.0238 19.9983)" fill="#FCEA59" stroke="#111111"/>
<circle cx="20.0238" cy="19.9984" r="14.0833" transform="rotate(28 20.0238 19.9984)" fill="#A7ACF6" stroke="#111111"/>
<circle cx="20.0238" cy="19.9984" r="10.9583" transform="rotate(28 20.0238 19.9984)" fill="#A7ACF6" stroke="#111111"/>
<g clip-path="url(#clip1_181_3959)">
<path d="M22.4683 15.6352L22.274 15.5319C22.0399 15.4074 21.7658 15.381 21.5122 15.4585C21.2586 15.5361 21.0461 15.7112 20.9216 15.9454L20.8794 16.0248C20.7969 16.1796 20.6751 16.3099 20.5264 16.4028C20.3776 16.4956 20.2071 16.5477 20.0318 16.5539L19.7833 16.5633C19.6079 16.5694 19.4339 16.5293 19.2789 16.4468C19.1239 16.3644 18.9934 16.2427 18.9003 16.0938L18.8529 16.0233C18.7124 15.7987 18.4886 15.639 18.2305 15.5793C17.9724 15.5195 17.7012 15.5647 17.4763 15.7047L17.29 15.8209C17.0654 15.9613 16.9057 16.1852 16.846 16.4433C16.7862 16.7013 16.8314 16.9726 16.9714 17.1974L17.0142 17.2768C17.1067 17.4248 17.1588 17.5944 17.1654 17.7688C17.172 17.9432 17.1329 18.1163 17.0519 18.2709L16.9322 18.496C16.8501 18.6519 16.7282 18.7834 16.579 18.8771C16.4297 18.9707 16.2584 19.0233 16.0823 19.0294L15.9949 19.034C15.7302 19.0436 15.4801 19.1579 15.2995 19.3517C15.119 19.5455 15.0227 19.8031 15.0318 20.0678L15.0398 20.2872C15.0494 20.552 15.1636 20.8021 15.3575 20.9826C15.5513 21.1632 15.8089 21.2595 16.0736 21.2503L16.1586 21.2502C16.334 21.2441 16.508 21.2843 16.663 21.3667C16.818 21.4491 16.9485 21.5708 17.0416 21.7197L17.1727 21.931C17.2656 22.0797 17.3178 22.2503 17.324 22.4255C17.3303 22.6008 17.2903 22.7746 17.2081 22.9295L17.1658 23.009C17.0413 23.2431 17.0149 23.5172 17.0925 23.7708C17.17 24.0244 17.3451 24.2369 17.5793 24.3614L17.7736 24.4647C18.0077 24.5892 18.2818 24.6156 18.5354 24.538C18.789 24.4605 19.0015 24.2854 19.126 24.0512L19.1682 23.9717C19.2507 23.817 19.3725 23.6866 19.5212 23.5938C19.67 23.5009 19.8406 23.4488 20.0158 23.4427L20.2643 23.4333C20.4398 23.4272 20.6137 23.4673 20.7687 23.5497C20.9237 23.6321 21.0543 23.7539 21.1473 23.9027L21.1947 23.9733C21.3352 24.1979 21.559 24.3576 21.8171 24.4173C22.0752 24.477 22.3464 24.4319 22.5713 24.2918L22.76 24.1713C22.9846 24.0308 23.1443 23.807 23.204 23.5489C23.2637 23.2908 23.2186 23.0196 23.0785 22.7947L23.0311 22.7242C22.9377 22.5748 22.8855 22.4033 22.8797 22.2272C22.8739 22.0511 22.9147 21.8765 22.998 21.7213L23.1154 21.5006C23.1975 21.3446 23.3194 21.2132 23.4686 21.1195C23.6179 21.0258 23.7892 20.9733 23.9653 20.9671L24.0527 20.9626C24.3174 20.953 24.5675 20.8387 24.7481 20.6449C24.9286 20.451 25.0249 20.1935 25.0158 19.9287L25.0079 19.7093C24.9982 19.4446 24.884 19.1945 24.6901 19.0139C24.4963 18.8334 24.2387 18.7371 23.974 18.7462L23.889 18.7463C23.7136 18.7525 23.5396 18.7123 23.3846 18.6299C23.2296 18.5475 23.0991 18.4257 23.006 18.2769L22.8749 18.0656C22.782 17.9168 22.7298 17.7463 22.7236 17.5711C22.7174 17.3958 22.7573 17.222 22.8395 17.0671L22.8818 16.9876C23.0063 16.7534 23.0327 16.4794 22.9551 16.2258C22.8776 15.9721 22.7025 15.7597 22.4683 15.6352Z" stroke="#111111" stroke-linecap="round" stroke-linejoin="round"/>
<path d="M19.3196 21.3228C20.051 21.7117 20.9593 21.434 21.3482 20.7026C21.7371 19.9711 21.4594 19.0629 20.728 18.6739C19.9965 18.285 19.0883 18.5627 18.6994 19.2941C18.3104 20.0256 18.5881 20.9339 19.3196 21.3228Z" stroke="#111111" stroke-linecap="round" stroke-linejoin="round"/>
</g>
</g>
<defs>
<clipPath id="clip0_181_3959">
<rect width="40" height="40" fill="white" transform="translate(0.0238037 -0.00170898)"/>
</clipPath>
<clipPath id="clip1_181_3959">
<rect width="12" height="12" fill="white" transform="translate(17.543 11.8838) rotate(28)"/>
</clipPath>
</defs>
</svg>
