<svg width="41" height="41" viewBox="0 0 41 41" fill="none" xmlns="http://www.w3.org/2000/svg">
<g clip-path="url(#clip0_181_3961)">
<circle cx="20.9708" cy="20.0128" r="19.5" transform="rotate(-16.99 20.9708 20.0128)" fill="#FCEA59" stroke="#111111"/>
<circle cx="20.9709" cy="20.0127" r="14.0833" transform="rotate(-16.99 20.9709 20.0127)" fill="#A7ACF6" stroke="#111111"/>
<circle cx="20.9709" cy="20.0129" r="10.9583" transform="rotate(-16.99 20.9709 20.0129)" fill="#A7ACF6" stroke="#111111"/>
<path d="M21.1169 20.491C22.4374 20.0875 23.1808 18.69 22.7773 17.3696C22.3739 16.0491 20.9764 15.3057 19.6559 15.7092C18.3355 16.1126 17.5921 17.5101 17.9955 18.8306C18.399 20.151 19.7965 20.8944 21.1169 20.491Z" stroke="#111111" stroke-linecap="round" stroke-linejoin="round"/>
<path d="M26.1112 23.1475C25.8012 22.1329 25.1009 21.283 24.1642 20.7848C23.2276 20.2866 22.1315 20.1809 21.1169 20.4908C20.1024 20.8008 19.2525 21.5012 18.7543 22.4378C18.2561 23.3744 18.1503 24.4705 18.4603 25.4851" stroke="#111111" stroke-linecap="round" stroke-linejoin="round"/>
</g>
<defs>
<clipPath id="clip0_181_3961">
<rect width="40" height="40" fill="white" transform="translate(0.970825 0.0126953)"/>
</clipPath>
</defs>
</svg>
