<svg width="41" height="41" viewBox="0 0 41 41" fill="none" xmlns="http://www.w3.org/2000/svg">
<g clip-path="url(#clip0_181_3963)">
<circle cx="20.0293" cy="20.1097" r="19.5" transform="rotate(-9 20.0293 20.1097)" fill="#FCEA59" stroke="#111111"/>
<circle cx="20.0294" cy="20.1098" r="14.0833" transform="rotate(-9 20.0294 20.1098)" fill="#A7ACF6" stroke="#111111"/>
<circle cx="20.0294" cy="20.1097" r="10.9583" transform="rotate(-9 20.0294 20.1097)" fill="#A7ACF6" stroke="#111111"/>
<g clip-path="url(#clip1_181_3963)">
<path d="M16.8899 15.8931C16.7268 15.8935 16.7196 15.892 16.7932 15.8689C16.9336 15.8239 17.2769 15.8002 17.5194 15.8188C18.0852 15.8626 18.6342 16.1179 19.2581 16.6271L19.4236 16.7624L19.6199 16.6979C20.4465 16.4266 21.3256 16.3988 22.1007 16.6191C22.3143 16.6801 22.6566 16.8136 22.7021 16.8547C22.7181 16.868 22.7562 16.9602 22.787 17.0615C22.8978 17.4107 22.9148 17.688 22.838 17.9098C22.7964 18.0305 22.7985 18.0661 22.8535 18.1557C22.8788 18.1922 22.9137 18.2208 22.9542 18.2382C22.9947 18.2557 23.0392 18.2614 23.0827 18.2545C23.2621 18.2261 23.4091 17.9045 23.4337 17.4847L23.4436 17.3173L23.5266 17.3866C23.9832 17.7653 24.3812 18.3165 24.5004 18.7346L24.5315 18.8437L24.4512 18.7529C24.3332 18.613 24.1865 18.5006 24.0215 18.4235C23.7352 18.2925 23.4515 18.2768 22.7208 18.3531C22.0601 18.4226 21.6803 18.4249 21.2938 18.3624C20.6356 18.256 20.2776 18.0337 19.3792 17.1722C18.98 16.7888 18.7387 16.5804 18.5049 16.4191C17.9737 16.0514 17.4841 15.892 16.89 15.894L16.8899 15.8931Z" fill="#111111"/>
<path d="M22.7142 15.9665C22.6841 15.6729 22.6926 15.4741 22.7444 15.286C22.7548 15.2389 22.7699 15.193 22.7895 15.149C22.7937 15.1484 22.7883 15.2019 22.7771 15.2677C22.7466 15.448 22.7733 15.6825 22.8569 15.9474C22.9622 16.2834 22.998 16.3287 23.4184 16.6429C23.6162 16.7906 23.8481 16.9785 23.9352 17.0621L24.0926 17.2126L23.9429 17.1109C23.76 16.9863 23.3479 16.7515 23.26 16.7224C23.2015 16.7036 23.193 16.7049 23.1653 16.7435C23.1388 16.7793 23.1402 16.8265 23.1699 17.0464C23.218 17.3889 23.2062 17.6154 23.129 17.8514C23.0879 17.9807 23.0745 17.9565 23.1074 17.8136C23.1323 17.7078 23.1295 17.6627 23.0771 17.3322C22.9721 16.6688 22.8671 16.5214 22.3643 16.322C22.2128 16.263 22.0587 16.2112 21.9024 16.167C21.826 16.1492 21.751 16.1259 21.6779 16.0973C21.6885 16.0824 22.1581 16.1432 22.3494 16.1839C22.6352 16.2457 22.6812 16.2516 22.7123 16.2344C22.7321 16.2225 22.733 16.1565 22.7133 15.9666L22.7142 15.9665ZM17.5326 17.9516C17.1393 17.5558 16.8301 16.9019 16.7929 16.3822L16.7805 16.2219L16.8562 16.223C16.9991 16.2267 17.2511 16.2781 17.3737 16.3288C17.7088 16.467 17.8807 16.6917 18.1153 17.3021C18.1844 17.4807 18.2691 17.6813 18.3042 17.7495C18.3603 17.8573 18.5481 18.1005 18.6932 18.2547C18.7976 18.3663 18.7511 18.4342 18.5605 18.4469C18.2694 18.4666 17.8381 18.2585 17.5326 17.9516ZM23.0282 20.4919C21.4213 20.1207 20.8055 19.6742 20.6639 18.7797C20.643 18.6479 20.6301 18.5394 20.6361 18.5384C20.6411 18.5376 20.7063 18.5712 20.7809 18.6146C21.1264 18.8126 21.486 18.8636 22.4579 18.8527C23.0297 18.8464 23.3534 18.8627 23.6591 18.9134C24.6305 19.0746 25.299 19.6075 25.5699 20.4359C25.6479 20.6763 25.6991 21.142 25.6726 21.3963C25.6523 21.5969 25.5531 21.968 25.5146 21.9881C25.5035 21.9943 25.4855 21.9524 25.4735 21.8928C25.4078 21.5768 25.1978 21.2916 24.8917 21.1014C24.5433 20.8854 24.0984 20.7392 23.0282 20.4919ZM22.0086 20.914C21.9737 20.8084 21.9324 20.705 21.8849 20.6045L21.8277 20.4951L21.9125 20.565C22.0292 20.6606 22.1306 20.7911 22.2268 20.9715C22.3007 21.109 22.3125 21.151 22.35 21.3873C22.3867 21.6192 22.3877 21.6691 22.3609 21.8067C22.3264 22.01 22.245 22.202 22.1233 22.3673C21.8921 22.6935 21.562 22.9055 21.0602 23.0516C20.973 23.0769 20.717 23.1367 20.4911 23.1848C19.921 23.3058 19.5525 23.4282 19.232 23.6018C19.2034 23.6204 19.1716 23.6334 19.1383 23.6403C19.1226 23.6288 19.3326 23.4534 19.5084 23.3308C19.7569 23.1572 20.014 23.0436 20.5992 22.8482C20.8877 22.7517 21.1854 22.6422 21.2595 22.6059C21.9585 22.2635 22.2443 21.619 22.0086 20.914Z" fill="#111111"/>
<path d="M22.8969 22.0404C22.6277 21.639 22.5148 21.2278 22.5631 20.8201C22.5682 20.7754 22.5815 20.739 22.5933 20.7372C22.6043 20.7354 22.6567 20.7535 22.7074 20.7779C22.8104 20.8256 23.0117 20.9017 23.5489 21.0939C24.2188 21.3344 24.6123 21.5397 24.8985 21.8015C25.149 22.0294 25.3258 22.3077 25.4459 22.6607C25.514 22.8605 25.5715 23.3603 25.5518 23.5758C25.4895 24.256 25.1865 24.8305 24.6836 25.2173C24.6101 25.2737 24.5439 25.321 24.5354 25.3224C24.5278 25.3236 24.5456 25.2444 24.5743 25.146C24.6981 24.728 24.6595 24.3471 24.4532 23.949C24.3261 23.705 24.1019 23.4185 23.6656 22.9427C23.1582 22.3912 23.0321 22.2419 22.8969 22.0404ZM17.5936 25.2785C18.0795 24.7136 18.7229 24.266 19.3421 24.0609C19.6629 23.9666 19.9971 23.927 20.3311 23.9437C20.754 23.9838 21.1552 24.1607 21.388 24.409C21.6159 24.6528 21.733 24.8773 21.8997 25.3932C21.9649 25.5961 22.0336 25.8002 22.0512 25.8457C22.1564 26.1098 22.3122 26.3098 22.4786 26.3957C22.7433 26.5328 23.1548 26.479 23.5319 26.2578C23.5706 26.2318 23.6126 26.211 23.6567 26.196C23.6734 26.2082 23.4926 26.3764 23.3617 26.4708C23.2074 26.5883 23.0259 26.6641 22.8343 26.6912C22.466 26.7496 22.1306 26.6097 21.8142 26.2667C21.6947 26.1192 21.5844 25.9643 21.4839 25.803C21.1169 25.2285 20.9543 25.0621 20.6092 24.9053C20.3082 24.7687 19.9518 24.7927 19.7083 24.9646C19.3883 25.1908 19.3623 25.6512 19.6559 25.8942C19.7914 25.9972 19.9562 26.053 20.1254 26.0533C20.1924 26.052 20.2583 26.0361 20.3186 26.0068C20.3789 25.9775 20.4323 25.9354 20.475 25.8833C20.5177 25.8313 20.5488 25.7706 20.5662 25.7052C20.5836 25.6399 20.5868 25.5715 20.5757 25.5046C20.5463 25.3189 20.4585 25.2248 20.2669 25.171C20.0047 25.0993 19.7636 25.27 19.8009 25.5001C19.8165 25.5985 19.8694 25.6533 19.9748 25.6832C20.0419 25.7015 20.0439 25.7029 19.9906 25.7008C19.7597 25.6892 19.6642 25.4261 19.8152 25.2179C19.9978 24.9679 20.4598 24.9921 20.6598 25.2632C20.7438 25.3771 20.7905 25.6224 20.7582 25.7802C20.6841 26.1342 20.3462 26.3676 19.9585 26.3307C19.6942 26.3059 19.5807 26.2519 19.225 25.9844C18.6072 25.519 18.3845 25.4445 17.6002 25.4459L17.4492 25.4461L17.5936 25.2785Z" fill="#111111"/>
<path fill-rule="evenodd" clip-rule="evenodd" d="M13.5451 15.8374C15.6603 17.7189 17.0232 18.4174 17.1885 18.5842C17.3249 18.7223 17.3048 18.8694 17.1309 19.0093C17.0057 19.1 16.8642 19.165 16.7143 19.2007C16.5898 19.2205 16.539 19.1794 16.539 19.1794C16.4562 19.1223 16.4175 19.1407 15.943 18.5393C15.5501 18.0942 15.1537 17.6521 14.754 17.2131C14.7229 17.1917 14.7237 17.1916 15.9181 18.7161C16.1231 19.0408 16.0231 19.1874 16.0309 19.237C16.0469 19.338 16.0274 19.3955 15.9259 19.5546C15.7559 19.8185 15.7049 20.0933 15.7233 20.6423C15.7444 21.2576 15.6019 21.7171 15.1351 22.5396C14.8624 23.0206 14.8189 23.1073 14.7599 23.2939C14.6859 23.5277 14.6755 23.6539 14.7069 23.9288C14.7402 24.221 14.7943 24.4038 14.9261 24.6663C15.0408 24.8973 15.1473 25.0437 15.4037 25.3312C15.6253 25.5796 15.7594 25.7689 15.7722 25.8494C15.7822 25.9127 15.794 25.9108 16.0601 25.8046C16.6935 25.5516 17.1862 25.2051 17.4356 24.8348C17.5903 24.6058 17.6161 24.4894 17.5746 24.2161C17.5472 24.0379 17.5353 24.0012 17.4708 23.9061C17.3665 23.7515 17.2021 23.6345 16.8547 23.4684C16.3986 23.2511 16.1865 23.0522 16.0896 22.7473C16.0083 22.4969 16.0263 22.3089 16.1774 21.7945C16.3341 21.2607 16.359 21.04 16.3198 20.5347C16.2941 20.2079 16.3086 20.0749 16.3846 19.9576C16.4643 19.8361 16.5449 19.7865 16.7785 19.7162C17.1586 19.6007 17.3891 19.4615 17.5624 19.241C17.6331 19.1602 17.6853 19.0646 17.7154 18.9609C17.7455 18.8573 17.7527 18.7482 17.7365 18.6413L17.7165 18.4602L17.5993 18.3612C17.1767 18 13.2543 15.5465 13.2323 15.55C13.2281 15.5507 13.3683 15.6803 13.5451 15.8374ZM15.7021 24.1082C15.7299 24.0327 15.7285 23.9492 15.6982 23.8745C15.6679 23.7998 15.6108 23.7392 15.5384 23.705C15.3979 23.6395 15.2054 23.7121 15.2229 23.8225C15.2283 23.8568 15.2509 23.8787 15.2966 23.8934C15.3735 23.9189 15.3851 23.9592 15.3427 24.0528C15.2994 24.1465 15.3163 24.2202 15.3887 24.2613C15.5057 24.3262 15.646 24.2583 15.7021 24.1082ZM18.1473 19.5968C17.9741 19.6812 17.8279 19.9036 17.8043 20.1162C17.7909 20.2455 17.845 20.4607 17.9055 20.5196C18.004 20.6154 18.0864 20.6313 18.2987 20.5968C18.7131 20.5285 19.0455 20.2925 19.0523 20.0615C19.0571 19.873 18.8587 19.6447 18.6225 19.5671C18.4645 19.5297 18.2992 19.54 18.1473 19.5968ZM18.6936 19.9007C18.7425 19.7991 18.699 19.7051 18.5792 19.6556C18.3525 19.5608 18.0551 19.7158 18.0862 19.9127C18.1018 20.0111 18.2822 20.0922 18.432 20.0685C18.5319 20.0527 18.6596 19.971 18.6936 19.9007Z" fill="#111111"/>
</g>
</g>
<defs>
<clipPath id="clip0_181_3963">
<rect width="40" height="40" fill="white" transform="translate(0.0292969 0.109619)"/>
</clipPath>
<clipPath id="clip1_181_3963">
<rect width="12" height="13" fill="white" transform="translate(13.1646 15.1221) rotate(-9)"/>
</clipPath>
</defs>
</svg>
