<svg width="41" height="40" viewBox="0 0 41 40" fill="none" xmlns="http://www.w3.org/2000/svg">
<g clip-path="url(#clip0_181_3959)">
<circle cx="20.0238" cy="19.9983" r="19.5" transform="rotate(28 20.0238 19.9983)" fill="#FCEA59" stroke="#111111"/>
<circle cx="20.0238" cy="19.9984" r="14.0833" transform="rotate(28 20.0238 19.9984)" fill="#A7ACF6" stroke="#111111"/>
<circle cx="20.0238" cy="19.9984" r="10.9583" transform="rotate(28 20.0238 19.9984)" fill="#A7ACF6" stroke="#111111"/>
<g clip-path="url(#clip1_181_3959)">
<path fill-rule="evenodd" clip-rule="evenodd" d="M18.8522 20.588C17.4731 19.8547 16.9495 18.1422 17.6828 16.763C18.4162 15.3838 20.1287 14.8603 21.5078 15.5936C22.8871 16.3269 23.4106 18.0394 22.6773 19.4186C21.9439 20.7978 20.2315 21.3214 18.8522 20.588ZM22.1717 14.345C24.2405 15.4449 25.0258 18.0137 23.9259 20.0825C22.8259 22.1512 20.2571 22.9366 18.1883 21.8366C16.1196 20.7366 15.3342 18.1679 16.4342 16.0991C17.5342 14.0303 20.103 13.245 22.1717 14.345ZM21.6541 23.9139C21.7683 24.2874 21.5582 24.6826 21.1847 24.7968L17.3596 25.9663C16.9861 26.0804 16.5909 25.8703 16.4767 25.4968C16.3625 25.1234 16.5727 24.7281 16.9461 24.6139L20.7713 23.4445C21.1447 23.3303 21.54 23.5405 21.6541 23.9139ZM26.8342 17.6249C26.6509 17.9697 26.2228 18.1006 25.878 17.9173C25.5332 17.7339 25.4023 17.3058 25.5857 16.961C25.769 16.6162 26.1971 16.4853 26.5419 16.6686C26.8867 16.852 27.0176 17.28 26.8342 17.6249Z" fill="#111111"/>
</g>
</g>
<defs>
<clipPath id="clip0_181_3959">
<rect width="40" height="40" fill="white" transform="translate(0.0238037 -0.00170898)"/>
</clipPath>
<clipPath id="clip1_181_3959">
<rect width="10" height="12.7273" fill="white" transform="translate(18.4259 12.3533) rotate(28)"/>
</clipPath>
</defs>
</svg>
