<svg width="41" height="41" viewBox="0 0 41 41" fill="none" xmlns="http://www.w3.org/2000/svg">
<g clip-path="url(#clip0_181_3958)">
<circle cx="20.1299" cy="20.0127" r="19.5" fill="#FCEA59" stroke="#111111"/>
<circle cx="20.13" cy="20.0128" r="14.0833" fill="#A7ACF6" stroke="#111111"/>
<circle cx="20.13" cy="20.0128" r="10.9583" fill="#A7ACF6" stroke="#111111"/>
<path d="M20.1299 15.1377C17.4375 15.1377 15.2549 17.3203 15.2549 20.0127C15.2549 22.7051 17.4375 24.8877 20.1299 24.8877C22.8223 24.8877 25.0049 22.7051 25.0049 20.0127C25.0049 17.3203 22.8223 15.1377 20.1299 15.1377ZM19.6248 24.1611C18.6999 24.0503 17.8441 23.6363 17.1752 22.9674C16.3859 22.1782 15.9513 21.1288 15.9513 20.0127C15.9513 19.0079 16.3037 18.0574 16.9498 17.3019C16.9664 17.5016 17.0075 17.7156 16.997 17.8685C16.9585 18.4262 16.9035 18.7753 17.2299 19.2458C17.3571 19.429 17.3884 19.6917 17.4503 19.9039C17.5108 20.1114 17.7526 20.2202 17.9194 20.3481C18.256 20.6061 18.5779 20.906 18.9348 21.1331C19.1703 21.283 19.3174 21.3575 19.2485 21.6449C19.193 21.8761 19.1775 22.0185 19.0579 22.2244C19.0214 22.2872 19.1957 22.6912 19.2536 22.7492C19.4294 22.9249 19.6038 23.0861 19.7953 23.2443C20.0923 23.4897 19.7665 23.8085 19.6248 24.1611ZM23.0846 22.9674C22.4838 23.5682 21.7323 23.9632 20.9153 24.1177C21.0311 23.8314 21.2372 23.577 21.4285 23.4296C21.5948 23.3012 21.8031 23.0543 21.89 22.8588C21.9768 22.6635 22.0918 22.4942 22.2082 22.3147C22.3738 22.0592 21.8 21.674 21.614 21.5932C21.1956 21.4116 20.8806 21.1664 20.5087 20.9048C20.2437 20.7183 19.7058 21.0021 19.4066 20.8715C18.9969 20.6926 18.6594 20.3818 18.3033 20.1136C17.9358 19.8368 17.9535 19.5142 17.9535 19.1059C18.2414 19.1165 18.6509 19.0262 18.842 19.2577C18.9023 19.3307 19.1096 19.6571 19.2484 19.5411C19.3618 19.4464 19.1644 19.0665 19.1263 18.9772C19.009 18.7027 19.3936 18.5956 19.5904 18.4094C19.8473 18.1665 20.3983 17.7855 20.3548 17.6114C20.3112 17.4373 19.8034 16.944 19.5052 17.021C19.4605 17.0325 19.067 17.4451 18.9909 17.5099C18.993 17.3752 18.995 17.2405 18.997 17.1059C18.9983 17.0208 18.8384 16.9335 18.8458 16.8787C18.8646 16.7401 19.2504 16.4885 19.3464 16.3781C19.2791 16.3361 19.0497 16.139 18.9803 16.168C18.8121 16.238 18.6222 16.2863 18.4541 16.3564C18.4541 16.2981 18.447 16.2433 18.4386 16.1892C18.7772 16.0394 19.1343 15.9357 19.5005 15.8809L19.8306 16.0136L20.0637 16.2902L20.2963 16.53L20.4996 16.5955L20.8225 16.291L20.7393 16.0735V15.8781C21.3779 15.9709 21.9811 16.2091 22.5093 16.5765C22.4148 16.585 22.311 16.5989 22.1938 16.6138C22.1454 16.5852 22.0833 16.5722 22.0305 16.5523C22.1836 16.8814 22.3433 17.206 22.5055 17.5307C22.6788 17.8776 23.0631 18.2497 23.1306 18.6159C23.2102 19.0475 23.155 19.4396 23.1985 19.9474C23.2404 20.4364 23.7499 20.9921 23.7499 20.9921C23.7499 20.9921 23.9851 21.0722 24.1807 21.0443C23.9984 21.7658 23.6245 22.4274 23.0846 22.9674Z" fill="#111111" stroke="#111111" stroke-width="0.2"/>
</g>
<defs>
<clipPath id="clip0_181_3958">
<rect width="40" height="40" fill="white" transform="translate(0.129883 0.0126953)"/>
</clipPath>
</defs>
</svg>
