<svg width="40" height="40" viewBox="0 0 40 40" fill="none" xmlns="http://www.w3.org/2000/svg">
<g clip-path="url(#clip0_181_3957)">
<circle cx="19.946" cy="19.9461" r="19.5" transform="rotate(1 19.946 19.9461)" fill="#FCEA59" stroke="#111111"/>
<circle cx="19.9461" cy="19.9462" r="14.0833" transform="rotate(1 19.9461 19.9462)" fill="#A7ACF6" stroke="#111111"/>
<circle cx="19.9461" cy="19.9461" r="10.9583" transform="rotate(1 19.9461 19.9461)" fill="#A7ACF6" stroke="#111111"/>
<g clip-path="url(#clip1_181_3957)">
<mask id="mask0_181_3957" style="mask-type:luminance" maskUnits="userSpaceOnUse" x="13" y="13" width="14" height="14">
<path d="M26.0498 14.0517L14.0516 13.8423L13.8422 25.8405L25.8404 26.0499L26.0498 14.0517Z" fill="white"/>
</mask>
<g mask="url(#mask0_181_3957)">
<g filter="url(#filter0_i_181_3957)">
<path d="M19.8523 25.8519C23.1113 25.9088 25.7994 23.313 25.8563 20.054C25.9132 16.795 23.3173 14.1069 20.0583 14.05C16.7993 13.9931 14.1112 16.589 14.0543 19.848C13.9975 23.107 16.5933 25.7951 19.8523 25.8519Z" fill="white"/>
</g>
<path d="M19.8599 25.4121C22.876 25.4647 25.3637 23.0624 25.4164 20.0463C25.469 17.0302 23.0667 14.5425 20.0506 14.4899C17.0345 14.4372 14.5468 16.8396 14.4942 19.8556C14.4415 22.8717 16.8439 25.3594 19.8599 25.4121Z" fill="#111111"/>
<path fill-rule="evenodd" clip-rule="evenodd" d="M17.4312 21.8876C17.2566 21.7765 17.152 21.5824 17.1556 21.3759L17.1757 20.2232C17.1765 20.179 17.189 20.1367 17.2118 20.0993C17.2824 19.9823 17.4352 19.9447 17.5522 20.0161L20.1276 21.5784C20.2781 21.6701 20.369 21.834 20.366 22.0105L20.3451 23.2051C20.3442 23.2594 20.3282 23.3136 20.299 23.3596C20.2107 23.4983 20.0271 23.5392 19.8884 23.4509L17.4312 21.8876ZM21.3478 19.7663C21.4984 19.858 21.5893 20.022 21.5862 20.1985L21.5439 22.6223C21.5427 22.694 21.5029 22.7595 21.44 22.7931L20.8647 23.1038C20.8576 23.1076 20.8496 23.1106 20.8417 23.1129L20.8652 21.767C20.8682 21.5929 20.7797 21.4298 20.6315 21.3373L18.3702 19.9303L18.3968 18.4111C18.3975 18.367 18.4101 18.3247 18.4328 18.2872C18.5034 18.1702 18.6562 18.1327 18.7732 18.2041L21.3478 19.7663ZM22.5177 17.9959C22.669 18.0869 22.7599 18.2524 22.7569 18.4289L22.6951 21.9692C22.6938 22.0417 22.6524 22.108 22.588 22.1415L22.0432 22.4237L22.0862 19.9589C22.0892 19.7848 22.0006 19.6224 21.8533 19.53L19.5422 18.0882L19.5673 16.6471C19.5681 16.6029 19.5806 16.5606 19.6026 16.5231C19.6732 16.4061 19.826 16.3686 19.943 16.4392L22.5177 17.9959Z" fill="#F9FAFB"/>
<path d="M19.846 25.9453C23.1566 26.0031 25.8873 23.3662 25.9451 20.0555C26.0028 16.7449 23.3659 14.0142 20.0552 13.9564C16.7446 13.8987 14.0139 16.5356 13.9562 19.8463C13.8984 23.1569 16.5353 25.8876 19.846 25.9453Z" fill="#111111"/>
<path fill-rule="evenodd" clip-rule="evenodd" d="M17.3864 21.918C17.2091 21.8052 17.1028 21.608 17.1065 21.3983L17.1269 20.2273C17.1277 20.1824 17.1404 20.1394 17.1635 20.1014C17.2353 19.9825 17.3905 19.9444 17.5093 20.017L20.1255 21.6039C20.2784 21.6971 20.3708 21.8636 20.3677 22.0429L20.3465 23.2564C20.3455 23.3117 20.3294 23.3666 20.2997 23.4133C20.21 23.5543 20.0235 23.5959 19.8825 23.5061L17.3864 21.918ZM21.3651 19.7632C21.518 19.8563 21.6104 20.0229 21.6073 20.2022L21.5643 22.6643C21.563 22.7372 21.5226 22.8037 21.4588 22.8379L20.8744 23.1535C20.8671 23.1574 20.859 23.1605 20.851 23.1627L20.8748 21.7956C20.8779 21.6187 20.7879 21.453 20.6374 21.3591L18.3404 19.9298L18.3673 18.3865C18.3681 18.3417 18.3808 18.2987 18.4039 18.2606C18.4757 18.1418 18.6309 18.1037 18.7497 18.1762L21.3651 19.7632ZM22.5535 17.9647C22.7072 18.0571 22.7996 18.2253 22.7965 18.4046L22.7337 22.001C22.7324 22.0746 22.6904 22.1419 22.625 22.176L22.0715 22.4626L22.1152 19.9588C22.1183 19.7819 22.0282 19.617 21.8786 19.5231L19.5308 18.0585L19.5564 16.5945C19.5572 16.5497 19.5699 16.5067 19.5922 16.4686C19.664 16.3498 19.8192 16.3116 19.938 16.3834L22.5535 17.9647Z" fill="white"/>
</g>
</g>
</g>
<defs>
<filter id="filter0_i_181_3957" x="14.0535" y="14.0204" width="11.8037" height="11.8324" filterUnits="userSpaceOnUse" color-interpolation-filters="sRGB">
<feFlood flood-opacity="0" result="BackgroundImageFix"/>
<feBlend mode="normal" in="SourceGraphic" in2="BackgroundImageFix" result="shape"/>
<feColorMatrix in="SourceAlpha" type="matrix" values="0 0 0 0 0 0 0 0 0 0 0 0 0 0 0 0 0 0 127 0" result="hardAlpha"/>
<feOffset dy="-0.0861406"/>
<feGaussianBlur stdDeviation="0.0143568"/>
<feComposite in2="hardAlpha" operator="arithmetic" k2="-1" k3="1"/>
<feColorMatrix type="matrix" values="0 0 0 0 0.0699479 0 0 0 0 0.9875 0 0 0 0 0.717887 0 0 0 1 0"/>
<feBlend mode="normal" in2="shape" result="effect1_innerShadow_181_3957"/>
</filter>
<clipPath id="clip0_181_3957">
<rect width="40" height="40" fill="white"/>
</clipPath>
<clipPath id="clip1_181_3957">
<rect width="12" height="12" fill="white" transform="translate(14.0516 13.8423) rotate(1)"/>
</clipPath>
</defs>
</svg>
