<svg width="41" height="40" viewBox="0 0 41 40" fill="none" xmlns="http://www.w3.org/2000/svg">
<g clip-path="url(#clip0_181_3960)">
<circle cx="20.077" cy="19.9986" r="19.5" transform="rotate(-9 20.077 19.9986)" fill="#FCEA59" stroke="#111111"/>
<circle cx="20.0771" cy="19.9987" r="14.0833" transform="rotate(-9 20.0771 19.9987)" fill="#A7ACF6" stroke="#111111"/>
<circle cx="20.0771" cy="19.9987" r="10.9583" transform="rotate(-9 20.0771 19.9987)" fill="#A7ACF6" stroke="#111111"/>
<g clip-path="url(#clip1_181_3960)">
<path d="M25.5205 17.2825L19.4954 15.1994C19.4373 15.1793 19.3752 15.1739 19.3144 15.1835C19.2537 15.1931 19.1963 15.2175 19.1472 15.2545L14.0608 19.0975C14.0065 19.1385 13.9644 19.1934 13.939 19.2565C13.9136 19.3195 13.9057 19.3883 13.9164 19.4555C13.927 19.5226 13.9557 19.5856 13.9994 19.6377C14.0431 19.6898 14.1001 19.7291 14.1643 19.7512L15.5582 20.2334L15.9132 22.4751C15.9417 22.6571 16.0364 22.8221 16.1793 22.9384C16.8928 23.5178 18.4311 24.4355 20.7223 24.0726C21.4831 23.9586 22.2153 23.7015 22.8804 23.3151L23.1206 24.8318C23.1362 24.93 23.1901 25.018 23.2706 25.0765C23.3511 25.135 23.4514 25.1591 23.5497 25.1435C23.6479 25.1279 23.7359 25.074 23.7944 24.9935C23.8529 24.9131 23.877 24.8127 23.8614 24.7145L23.5645 22.8399C24.0033 22.4846 24.3839 22.0629 24.6925 21.59C24.7925 21.4353 24.8316 21.2491 24.8024 21.0672L24.4474 18.8254L25.624 17.9362C25.6783 17.8952 25.7204 17.8403 25.7458 17.7773C25.7712 17.7142 25.779 17.6454 25.7684 17.5783C25.7578 17.5111 25.7291 17.4481 25.6854 17.396C25.6417 17.3439 25.5847 17.3047 25.5205 17.2825ZM20.605 23.3318C18.6017 23.6491 17.2684 22.857 16.654 22.3578L16.3615 20.511L20.1894 21.8344C20.2475 21.8544 20.3096 21.8599 20.3704 21.8503C20.4311 21.8406 20.4885 21.8162 20.5376 21.7792L22.4128 20.3627L22.7526 22.5081C22.2124 22.8727 21.5088 23.1887 20.605 23.3318ZM24.0614 21.1827C23.8784 21.4642 23.665 21.7248 23.4251 21.9597L23.0909 19.8499L23.7691 19.3377L24.0614 21.1827ZM22.7885 19.139L22.7773 19.1346L19.9656 18.1623C19.8721 18.1318 19.7704 18.1393 19.6824 18.1831C19.5943 18.2269 19.527 18.3035 19.4949 18.3965C19.4628 18.4895 19.4686 18.5913 19.5108 18.6801C19.5531 18.7689 19.6286 18.8375 19.721 18.8712L22.0679 19.6831L20.2452 21.06L15.0737 19.2722L19.4396 15.9737L24.6111 17.7616L22.7885 19.139Z" fill="#111111" stroke="#111111" stroke-width="0.1"/>
</g>
</g>
<defs>
<clipPath id="clip0_181_3960">
<rect width="40" height="40" fill="white" transform="translate(0.0770264 -0.00146484)"/>
</clipPath>
<clipPath id="clip1_181_3960">
<rect width="12" height="12" fill="white" transform="translate(13.2123 15.011) rotate(-9)"/>
</clipPath>
</defs>
</svg>
