<svg width="40" height="40" viewBox="0 0 40 40" fill="none" xmlns="http://www.w3.org/2000/svg">
<g clip-path="url(#clip0_181_3956)">
<circle cx="20.1511" cy="20.0001" r="19.5" transform="rotate(25.54 20.1511 20.0001)" fill="#FCEA59" stroke="#111111"/>
<circle cx="20.1511" cy="20.0002" r="14.0833" transform="rotate(25.54 20.1511 20.0002)" fill="#A7ACF6" stroke="#111111"/>
<circle cx="20.1512" cy="20" r="10.9583" transform="rotate(25.54 20.1512 20)" fill="#A7ACF6" stroke="#111111"/>
<path d="M21.827 19.428L26.9162 17.167L26.1422 16.7972L21.7252 18.7602L21.0466 14.3623L18.4357 13.1147L19.461 19.7669L14.1243 22.1376L14.8977 22.5072L19.5635 20.4335L20.2796 25.0788L22.8905 26.3264L21.827 19.428ZM20.1754 20.1619L20.067 19.4968L19.2081 14.2037L20.3959 14.7712L21.0894 19.0428L21.1975 19.7084L22.0992 25.2613L20.9114 24.6937L20.176 20.1622L20.1754 20.1619Z" fill="#111111" stroke="#111111" stroke-width="0.3"/>
</g>
<defs>
<clipPath id="clip0_181_3956">
<rect width="40" height="40" fill="white"/>
</clipPath>
</defs>
</svg>
